<svg width="114" height="91" viewBox="0 0 114 91" fill="none" xmlns="http://www.w3.org/2000/svg">
<g clip-path="url(#clip0_1595_13290)">
<path d="M0 5C0 2.23858 2.23858 0 5 0H108.036C110.797 0 113.036 2.23858 113.036 5V91H0V5Z" fill="#145374"/>
<path opacity="0.5" d="M65.384 87.752C65.384 86.92 65.556 86.18 65.9 85.532C66.252 84.876 66.748 84.368 67.388 84.008C68.028 83.64 68.764 83.456 69.596 83.456C70.652 83.456 71.54 83.74 72.26 84.308C72.98 84.868 73.444 85.632 73.652 86.6H71.12C70.968 86.28 70.756 86.036 70.484 85.868C70.22 85.7 69.912 85.616 69.56 85.616C69.016 85.616 68.58 85.812 68.252 86.204C67.932 86.588 67.772 87.104 67.772 87.752C67.772 88.408 67.932 88.932 68.252 89.324C68.58 89.708 69.016 89.9 69.56 89.9C69.912 89.9 70.22 89.816 70.484 89.648C70.756 89.48 70.968 89.236 71.12 88.916H73.652C73.444 89.884 72.98 90.652 72.26 91.22C71.54 91.78 70.652 92.06 69.596 92.06C68.764 92.06 68.028 91.88 67.388 91.52C66.748 91.152 66.252 90.644 65.9 89.996C65.556 89.34 65.384 88.592 65.384 87.752ZM79.9618 86.864V88.82H74.5258V86.864H79.9618ZM84.0553 90.2H86.6833V92H81.7033V83.54H84.0553V90.2ZM90.7298 92.084C90.0578 92.084 89.4538 91.944 88.9178 91.664C88.3898 91.384 87.9738 90.984 87.6698 90.464C87.3658 89.944 87.2138 89.332 87.2138 88.628C87.2138 87.932 87.3658 87.324 87.6698 86.804C87.9818 86.284 88.4018 85.884 88.9298 85.604C89.4658 85.324 90.0698 85.184 90.7418 85.184C91.4138 85.184 92.0138 85.324 92.5418 85.604C93.0778 85.884 93.4978 86.284 93.8018 86.804C94.1138 87.324 94.2698 87.932 94.2698 88.628C94.2698 89.324 94.1138 89.936 93.8018 90.464C93.4978 90.984 93.0778 91.384 92.5418 91.664C92.0058 91.944 91.4018 92.084 90.7298 92.084ZM90.7298 90.044C91.0578 90.044 91.3298 89.924 91.5458 89.684C91.7698 89.436 91.8818 89.084 91.8818 88.628C91.8818 88.172 91.7698 87.824 91.5458 87.584C91.3298 87.344 91.0618 87.224 90.7418 87.224C90.4218 87.224 90.1538 87.344 89.9378 87.584C89.7218 87.824 89.6138 88.172 89.6138 88.628C89.6138 89.092 89.7178 89.444 89.9258 89.684C90.1338 89.924 90.4018 90.044 90.7298 90.044ZM102.475 85.268L98.2027 95.204H95.6467L97.2547 91.712L94.4947 85.268H97.1107L98.5267 89.084L99.8947 85.268H102.475ZM102.706 88.628C102.706 87.932 102.83 87.324 103.078 86.804C103.334 86.284 103.678 85.884 104.11 85.604C104.55 85.324 105.038 85.184 105.574 85.184C106.038 85.184 106.438 85.276 106.774 85.46C107.11 85.644 107.37 85.892 107.554 86.204V85.268H109.906V92H107.554V91.064C107.37 91.376 107.106 91.624 106.762 91.808C106.426 91.992 106.03 92.084 105.574 92.084C105.038 92.084 104.55 91.944 104.11 91.664C103.678 91.384 103.334 90.984 103.078 90.464C102.83 89.936 102.706 89.324 102.706 88.628ZM107.554 88.628C107.554 88.196 107.434 87.856 107.194 87.608C106.962 87.36 106.674 87.236 106.33 87.236C105.978 87.236 105.686 87.36 105.454 87.608C105.222 87.848 105.106 88.188 105.106 88.628C105.106 89.06 105.222 89.404 105.454 89.66C105.686 89.908 105.978 90.032 106.33 90.032C106.674 90.032 106.962 89.908 107.194 89.66C107.434 89.412 107.554 89.068 107.554 88.628ZM113.598 83.12V92H111.246V83.12H113.598Z" fill="#EE6F57"/>
<path d="M40.4427 69.5238L38.2133 69.5714L37.0816 69.5901C36.7027 69.5986 36.3221 69.5901 35.9431 69.6003H35.8684V69.5238L35.8582 67.6173V67.5323H35.9431L38.1929 67.5425C38.944 67.5425 39.6933 67.5612 40.4427 67.5697H40.4903V67.6173C40.4903 67.9402 40.4767 68.2613 40.4682 68.5791L40.4427 69.5238ZM40.4427 69.5238L40.4189 68.5638C40.4104 68.2477 40.4002 67.9351 40.3968 67.6224L40.4427 67.67C39.6933 67.6785 38.944 67.6972 38.1929 67.6972L35.9431 67.7074L36.0281 67.6224V69.5238L35.9516 69.4491C36.3221 69.4491 36.6925 69.4491 37.0646 69.4576L38.1708 69.4865L40.4427 69.5238Z" fill="#EBEBEB"/>
<path d="M37.9329 71.9214L35.7035 71.969L34.5702 71.9877C34.1929 71.9877 33.8123 71.9877 33.4334 71.9979H33.3586V71.9214V70.02V69.9351H33.4436L35.6933 69.9469C36.4427 69.9469 37.1938 69.9656 37.9431 69.9741H37.9907V70.02C37.9907 70.3429 37.9771 70.664 37.9686 70.9818L37.9329 71.9214ZM37.9329 71.9214L37.9091 70.9614C37.9006 70.6453 37.8904 70.3327 37.887 70.02L37.9329 70.0676C37.1836 70.0761 36.4325 70.0948 35.6831 70.0948L33.4334 70.105L33.5183 70.02V71.9214L33.4419 71.8467C33.8123 71.8467 34.1827 71.8467 34.5549 71.8552L35.6713 71.8756L37.9329 71.9214Z" fill="#EBEBEB"/>
<path d="M42.9524 71.9214L40.723 71.969L39.5913 71.9877C39.2124 71.9877 38.8318 71.9877 38.4529 71.9979H38.3781V71.9214L38.3679 70.02V69.9351H38.4529L40.7026 69.9469C41.4537 69.9469 42.2031 69.9656 42.9524 69.9741H43V70.02C43 70.3429 42.9847 70.664 42.9779 70.9818L42.9524 71.9214ZM42.9524 71.9214L42.9286 70.9614C42.9286 70.6453 42.9099 70.3327 42.9065 70.02L42.9524 70.0676C42.2031 70.0761 41.4537 70.0948 40.7026 70.0948L38.4529 70.105L38.5378 70.02V71.9214L38.4614 71.8467C38.8335 71.8467 39.2022 71.8467 39.5744 71.8552L40.6925 71.8756L42.9524 71.9214Z" fill="#EBEBEB"/>
<path d="M14.188 46.897L11.9586 46.9446L10.8269 46.9633C10.448 46.9718 10.0674 46.9633 9.68845 46.9718H9.61368V46.8953L9.60349 44.9939V44.9089H9.68845L11.9382 44.9191C12.6893 44.9191 13.4386 44.9395 14.188 44.948H14.2356V44.9939C14.2356 45.3167 14.222 45.6379 14.2135 45.954L14.188 46.897ZM14.188 46.897L14.1642 45.937C14.1557 45.6192 14.1455 45.3066 14.1421 44.9956L14.188 45.0415C13.4386 45.05 12.6893 45.0687 11.9382 45.0704L9.68845 45.0806L9.77341 44.9956L9.76491 46.897L9.68845 46.8206C10.0589 46.8206 10.4293 46.8206 10.8014 46.8308L11.9195 46.8494L14.188 46.897Z" fill="#EBEBEB"/>
<path d="M40.1827 28.4299L37.9533 28.4775L36.8199 28.4961C36.4427 28.4961 36.0621 28.4961 35.6832 28.5063H35.6084V28.4299V26.5284V26.4435H35.6934L37.9431 26.4537C38.6925 26.4537 39.4436 26.4741 40.1929 26.4826H40.2405V26.5284C40.2405 26.8513 40.2269 27.1724 40.2184 27.4885L40.1827 28.4299ZM40.1827 28.4299L40.1589 27.4698C40.1504 27.1521 40.1402 26.8394 40.1368 26.5284L40.1827 26.5743C39.4334 26.5743 38.6823 26.6015 37.9329 26.6032L35.6832 26.6134L35.7681 26.5284L35.7596 28.4299L35.6832 28.3534C36.0536 28.3534 36.424 28.3534 36.7962 28.3636L37.9125 28.3823L40.1827 28.4299Z" fill="#EBEBEB"/>
<path d="M42.6924 30.8274L40.4631 30.875L39.3314 30.8937C38.9525 30.9022 38.5718 30.8937 38.1929 30.9022H38.1181V30.8257L38.1079 28.9243V28.8394H38.1929L40.4427 28.8496C41.1937 28.8496 41.9431 28.8699 42.6924 28.8784H42.74V28.9243C42.74 29.2472 42.7247 29.5683 42.7162 29.8844L42.6924 30.8274ZM42.6924 30.8274L42.6686 29.8674C42.6686 29.5496 42.65 29.237 42.6466 28.926L42.6924 28.9719C41.9431 28.9804 41.1937 28.9991 40.4427 29.0008L38.1929 29.011L38.2779 28.926V30.8274L38.2014 30.751C38.5718 30.751 38.9423 30.751 39.3144 30.7612L40.4325 30.7799L42.6924 30.8274Z" fill="#EBEBEB"/>
<path d="M41.1071 61.5851C41.0242 62.8042 40.5819 63.9714 39.8361 64.9393C39.0902 65.9071 38.0743 66.6322 36.9165 67.023C35.7588 67.4138 34.5112 67.4527 33.3314 67.1348C32.1515 66.817 31.0924 66.1566 30.2876 65.2371C29.4829 64.3175 28.9688 63.1802 28.8101 61.9686C28.6514 60.7571 28.8554 59.5256 29.3962 58.4299C29.937 57.3342 30.7904 56.4233 31.8486 55.8124C32.9068 55.2014 34.1223 54.9177 35.3416 54.9972C36.1531 55.0503 36.9461 55.263 37.6752 55.623C38.4044 55.983 39.0553 56.4833 39.5909 57.0952C40.1264 57.7072 40.536 58.4187 40.7962 59.1892C41.0563 59.9596 41.162 60.7738 41.1071 61.5851Z" fill="#EBEBEB"/>
<path d="M34.5719 66.8952C33.4376 66.8226 32.3503 66.415 31.4479 65.7239C30.5454 65.0329 29.8684 64.0896 29.5025 63.0134C29.1367 61.9373 29.0984 60.7768 29.3927 59.6789C29.6869 58.581 30.3004 57.5952 31.1554 56.8462C32.0104 56.0973 33.0685 55.619 34.1955 55.4719C35.3226 55.3248 36.468 55.5155 37.4866 56.0199C38.5051 56.5243 39.3511 57.3196 39.9173 58.3052C40.4835 59.2908 40.7444 60.4223 40.667 61.5562C40.5649 63.0718 39.8659 64.485 38.7232 65.4859C37.5806 66.4867 36.0877 66.9936 34.5719 66.8952ZM40.0722 61.6089C40.1595 60.5958 39.945 59.5795 39.4558 58.6881C38.9665 57.7966 38.2244 57.0699 37.323 56.5994C36.4215 56.1289 35.4009 55.9357 34.3899 56.0442C33.3788 56.1526 32.4224 56.5578 31.6412 57.2087C30.86 57.8597 30.2888 58.7272 29.9997 59.7021C29.7107 60.677 29.7165 61.7157 30.0166 62.6873C30.3167 63.6589 30.8976 64.5199 31.6862 65.162C32.4747 65.804 33.4356 66.1984 34.4478 66.2954C35.1254 66.3598 35.809 66.2895 36.4592 66.0884C37.1094 65.8874 37.7134 65.5595 38.2363 65.1238C38.7592 64.6881 39.1906 64.1532 39.5057 63.55C39.8209 62.9467 40.0134 62.287 40.0722 61.6089Z" fill="#DBDBDB"/>
<path d="M35.1462 57.5546L35.7358 57.592C35.7358 57.6531 35.7358 57.7075 35.7256 57.7619C35.7103 57.993 35.7001 58.2224 35.6798 58.4518C35.6798 58.5367 35.7018 58.5588 35.7834 58.5775C36.0272 58.6192 36.267 58.6811 36.5005 58.7627C37.0884 58.9955 37.3501 59.4679 37.2634 60.0966C37.2479 60.2109 37.2263 60.3244 37.1989 60.4365C37.1613 60.5716 37.093 60.6962 36.9992 60.8006C36.9055 60.905 36.7889 60.9862 36.6585 61.038C36.5956 61.0669 36.5311 61.0923 36.4563 61.1246C36.5497 61.1722 36.6347 61.2096 36.7163 61.2555C36.9305 61.3675 37.1071 61.5399 37.2243 61.7513C37.3415 61.9627 37.3941 62.2039 37.3756 62.4449C37.3746 62.6861 37.3255 62.9247 37.2311 63.1467C37.1664 63.2929 37.0728 63.4245 36.956 63.5337C36.8392 63.6429 36.7016 63.7274 36.5514 63.7822C36.1985 63.9047 35.825 63.9567 35.4521 63.9351C35.3637 63.9351 35.3297 63.9504 35.3263 64.0456C35.3161 64.2716 35.2923 64.4976 35.2787 64.7253C35.2787 64.7814 35.2583 64.8119 35.1989 64.8086L34.6891 64.7763C34.6891 64.6998 34.6976 64.6318 34.7027 64.5639C34.7146 64.3718 34.7248 64.1798 34.7401 63.9895C34.7401 63.9233 34.7299 63.8927 34.6585 63.891C34.5481 63.891 34.4376 63.8791 34.3187 63.8706C34.3 64.1679 34.2813 64.4517 34.2626 64.7423L33.6713 64.7049C33.69 64.4143 33.7086 64.1306 33.7273 63.8332L32.2643 63.7397C32.2847 63.3999 32.3051 63.0838 32.3272 62.7491L32.7588 62.7763C32.8319 61.6378 32.9032 60.5129 32.9763 59.3778L32.5481 59.3506C32.5685 59.0193 32.5889 58.6981 32.611 58.3634L34.0672 58.4552C34.0876 58.1272 34.108 57.8129 34.1284 57.4917L34.7146 57.5291C34.6942 57.8417 34.6755 58.1561 34.6534 58.4789L35.0884 58.5078C35.1122 58.1918 35.1258 57.8791 35.1462 57.5546ZM34.8064 61.5511C34.7078 61.5511 34.6109 61.5409 34.5141 61.5307C34.4495 61.5307 34.4274 61.5477 34.424 61.6106C34.4002 62.0031 34.3764 62.3957 34.3493 62.7882C34.3493 62.8646 34.373 62.885 34.441 62.8884C34.6109 62.8884 34.7809 62.9105 34.9508 62.9173C35.1062 62.9321 35.2615 62.8879 35.3859 62.7935C35.5102 62.699 35.5945 62.5613 35.622 62.4075C35.6541 62.3099 35.6625 62.206 35.6465 62.1044C35.6304 62.0029 35.5905 61.9066 35.5299 61.8236C35.4693 61.7406 35.3897 61.6732 35.2979 61.627C35.2061 61.5808 35.1046 61.5571 35.0018 61.5579L34.8064 61.5511ZM34.5226 60.083C34.5107 60.2529 34.5022 60.4229 34.4886 60.5826C34.4886 60.6387 34.5005 60.6692 34.56 60.6709C34.7384 60.6709 34.9151 60.693 35.0935 60.6913C35.1834 60.6939 35.2714 60.6651 35.3424 60.61C35.4134 60.5548 35.463 60.4766 35.4826 60.3889C35.514 60.2708 35.5294 60.1491 35.5285 60.0269C35.5294 59.962 35.5174 59.8976 35.4933 59.8373C35.4691 59.7771 35.4332 59.7222 35.3877 59.6759C35.3422 59.6296 35.288 59.5928 35.2281 59.5676C35.1683 59.5424 35.1041 59.5293 35.0391 59.5291C34.9066 59.5189 34.7741 59.5155 34.6432 59.5019C34.5787 59.5019 34.5566 59.5189 34.5532 59.5817C34.5515 59.7483 34.5396 59.9148 34.5294 60.083H34.5226Z" fill="#DBDBDB"/>
<path d="M38.808 57.762C39.2682 58.2618 39.6235 58.8489 39.853 59.4884C40.0811 60.1334 40.1798 60.817 40.1436 61.5002C40.1077 62.1848 39.9343 62.8552 39.6338 63.4713C39.334 64.0896 38.9137 64.6417 38.3975 65.0951C37.8813 65.5486 37.2796 65.8943 36.6279 66.1119C35.978 66.3324 35.2903 66.4197 34.6058 66.3685C33.9244 66.3172 33.2597 66.1318 32.65 65.8231C32.0435 65.5117 31.5055 65.0818 31.0681 64.5588C31.7485 65.3053 32.6324 65.8366 33.6108 66.0871C34.5893 66.3377 35.6197 66.2967 36.5752 65.9692C37.8443 65.5243 38.8914 64.6045 39.4962 63.4034C39.9454 62.4989 40.1204 61.4829 39.9996 60.4802C39.8789 59.4776 39.4676 58.5322 38.8165 57.7603L38.808 57.762Z" fill="white"/>
<path d="M31.0341 64.5588C30.5754 64.0574 30.2218 63.4693 29.9941 62.829C29.7673 62.1849 29.6703 61.5023 29.7087 60.8205C29.7472 60.1351 29.924 59.4646 30.2286 58.8494C30.5292 58.2304 30.9508 57.6779 31.4686 57.2246C31.9863 56.7714 32.5897 56.4265 33.2431 56.2105C33.8933 55.9914 34.5812 55.9065 35.2651 55.9607C35.9466 56.0136 36.6109 56.2013 37.2192 56.513C37.8231 56.8248 38.3581 57.2547 38.7927 57.7772C38.1144 57.0291 37.2323 56.4955 36.2548 56.2419C35.2774 55.9883 34.2471 56.0259 33.2906 56.3498C32.0166 56.7881 30.9634 57.7054 30.3544 58.9072C29.9038 59.8128 29.7281 60.8304 29.8488 61.8347C29.9696 62.8389 30.3816 63.7859 31.0341 64.5588Z" fill="#C7C7C7"/>
<path d="M32.5464 59.3508C32.5464 59.2675 32.5464 59.1808 32.5464 59.1027C32.5464 59.0245 32.5464 58.9328 32.5464 58.8546L32.5651 58.3601V58.3261H32.6008C33.0867 58.3499 33.5722 58.3811 34.057 58.4196L34.0213 58.4519L34.0638 57.971L34.0893 57.7297C34.0978 57.6498 34.1063 57.57 34.1165 57.4901C34.1165 57.57 34.1165 57.66 34.1165 57.7314V57.9727L34.0978 58.4553V58.4893H34.0638C33.5778 58.4677 33.0918 58.4371 32.6059 58.3975L32.6432 58.3652L32.5991 58.858C32.5991 58.9395 32.5821 59.0279 32.5736 59.1044C32.5651 59.1808 32.5634 59.2675 32.5464 59.3508Z" fill="white"/>
<path d="M32.2626 63.7414C32.2626 63.5715 32.2626 63.4117 32.2779 63.2452C32.2932 63.0787 32.2915 62.9139 32.2983 62.7491V62.7219H32.3255L32.7588 62.7423L32.7214 62.7745L32.7707 61.9249C32.786 61.6412 32.8098 61.3591 32.8285 61.0753C32.8472 60.7916 32.8709 60.5095 32.8947 60.2257C32.9185 59.9419 32.944 59.6599 32.9729 59.3761C32.9729 59.6599 32.9576 59.9436 32.944 60.2257C32.9304 60.5078 32.9185 60.7933 32.9015 61.0753C32.8845 61.3574 32.8692 61.6429 32.8506 61.9249L32.7911 62.7745V62.8102H32.7571L32.3255 62.7762L32.3544 62.7508C32.3391 62.9207 32.3289 63.0804 32.3119 63.2452C32.2949 63.4101 32.2796 63.5783 32.2626 63.7414Z" fill="white"/>
<path d="M34.4478 62.8884C34.543 62.8884 34.6364 62.8884 34.7316 62.8884H35.0137C35.1025 62.8868 35.1898 62.8655 35.2694 62.8261C35.3491 62.7868 35.419 62.7303 35.4742 62.6607C35.585 62.5152 35.6356 62.3326 35.6152 62.1509C35.6099 62.0587 35.5864 61.9685 35.5462 61.8854C35.506 61.8023 35.4497 61.728 35.3807 61.6666C35.4624 61.7194 35.5314 61.7895 35.5829 61.8721C35.6343 61.9546 35.6668 62.0475 35.6781 62.1441C35.6941 62.2423 35.6899 62.3426 35.6657 62.4391C35.6414 62.5355 35.5976 62.626 35.537 62.7048C35.4745 62.7835 35.394 62.8462 35.3024 62.8875C35.2108 62.9289 35.1107 62.9478 35.0103 62.9427C34.8217 62.9359 34.6347 62.9173 34.4478 62.8884Z" fill="white"/>
<path d="M34.5889 60.6725C34.7435 60.6725 34.9032 60.6725 35.0545 60.6725C35.1257 60.6654 35.1944 60.6419 35.2551 60.6038C35.3158 60.5658 35.3669 60.5143 35.4045 60.4533C35.4792 60.3256 35.5102 60.1771 35.4929 60.0302C35.4798 59.8774 35.4206 59.7322 35.3229 59.6139C35.4467 59.7172 35.5283 59.8623 35.5523 60.0217C35.5838 60.1844 35.5548 60.353 35.4708 60.4958C35.4264 60.5674 35.3651 60.6269 35.2921 60.669C35.2192 60.7111 35.1369 60.7345 35.0528 60.7371C34.8947 60.7201 34.7452 60.6963 34.5889 60.6725Z" fill="white"/>
<path d="M33.7257 63.8348C33.7454 63.9801 33.75 64.127 33.7392 64.2732C33.732 64.4198 33.7086 64.5651 33.6696 64.7065C33.6349 64.415 33.6539 64.1195 33.7257 63.8348Z" fill="white"/>
<path d="M34.7214 63.9114C34.742 64.0554 34.7466 64.2013 34.735 64.3464C34.7274 64.4917 34.7047 64.6358 34.667 64.7763C34.6472 64.6322 34.6427 64.4864 34.6534 64.3413C34.6617 64.1961 34.6844 64.052 34.7214 63.9114Z" fill="white"/>
<path d="M13.0954 35.3031C12.8298 36.4958 12.2166 37.5831 11.3334 38.4275C10.4503 39.2719 9.33664 39.8356 8.13323 40.0475C6.92983 40.2594 5.69063 40.1098 4.57216 39.6178C3.45369 39.1258 2.50613 38.3133 1.84917 37.283C1.1922 36.2527 0.855304 35.0509 0.881024 33.8292C0.906745 32.6076 1.29393 31.421 1.99368 30.4193C2.69342 29.4176 3.67434 28.6457 4.81252 28.2012C5.95071 27.7566 7.19511 27.6594 8.38853 27.9217C9.18259 28.0967 9.93435 28.4266 10.6008 28.8924C11.2673 29.3582 11.8353 29.9509 12.2725 30.6365C12.7097 31.3221 13.0074 32.0871 13.1486 32.8879C13.2898 33.6886 13.2717 34.5094 13.0954 35.3031Z" fill="#EBEBEB"/>
<path d="M5.83289 39.5666C4.72307 39.3235 3.71037 38.7564 2.92303 37.9373C2.13569 37.1183 1.60914 36.0839 1.41006 34.9654C1.21097 33.8468 1.34831 32.6943 1.80469 31.6539C2.26107 30.6134 3.01595 29.7318 3.97373 29.1207C4.93151 28.5096 6.0491 28.1964 7.18498 28.2209C8.32086 28.2454 9.42392 28.6065 10.3545 29.2583C11.285 29.9102 12.0012 30.8235 12.4123 31.8827C12.8234 32.9418 12.9109 34.0991 12.6638 35.2081C12.3342 36.6909 11.43 37.9826 10.1495 38.7996C8.8689 39.6167 7.31654 39.8925 5.83289 39.5666ZM12.0673 35.1707C12.3066 34.1823 12.248 33.1451 11.8988 32.19C11.5497 31.2348 10.9257 30.4043 10.1054 29.8031C9.28513 29.202 8.30528 28.857 7.28931 28.8117C6.27334 28.7664 5.26669 29.0229 4.39618 29.5487C3.52567 30.0745 2.83025 30.8461 2.39752 31.7664C1.96479 32.6868 1.81411 33.7146 1.96447 34.7204C2.11483 35.7262 2.55949 36.665 3.24244 37.4185C3.9254 38.1721 4.81609 38.7066 5.80231 38.9549C6.46224 39.1207 7.14849 39.1543 7.82145 39.0536C8.49442 38.9529 9.14078 38.7199 9.72324 38.3681C10.3057 38.0163 10.8127 37.5526 11.215 37.0038C11.6174 36.455 11.907 35.832 12.0673 35.1707Z" fill="#DBDBDB"/>
<path d="M7.81078 30.4197L8.38852 30.5472L8.35114 30.7171C8.30186 30.9431 8.25598 31.1691 8.2016 31.3968C8.18291 31.4801 8.2016 31.5072 8.28656 31.5378C8.5208 31.6156 8.74815 31.7128 8.96625 31.8284C9.5117 32.1479 9.69862 32.6542 9.5185 33.2608C9.48744 33.3719 9.44942 33.4808 9.40465 33.5871C9.34647 33.7143 9.25982 33.8265 9.1514 33.9148C9.04297 34.0032 8.91567 34.0655 8.77934 34.0969L8.56694 34.1529C8.6519 34.2124 8.73686 34.2617 8.80313 34.3229C8.99944 34.466 9.14903 34.6641 9.23308 34.892C9.31713 35.12 9.3319 35.3677 9.27551 35.6041C9.23861 35.8448 9.15428 36.0758 9.02742 36.2838C8.9407 36.4184 8.82767 36.5342 8.69511 36.6242C8.56254 36.7141 8.41318 36.7763 8.25598 36.8071C7.88883 36.8757 7.51175 36.8711 7.14639 36.7935C7.05973 36.7782 7.02234 36.7935 7.00535 36.8836C6.96117 37.1062 6.90339 37.3254 6.85582 37.5463C6.84392 37.6007 6.82184 37.6295 6.76406 37.616L6.26959 37.5089C6.28658 37.4341 6.30017 37.3679 6.31547 37.2999C6.35625 37.113 6.39533 36.9244 6.43951 36.7375C6.4548 36.6746 6.43951 36.6423 6.37324 36.6287C6.26449 36.61 6.15574 36.5828 6.03339 36.5573C5.97052 36.8479 5.90935 37.1249 5.84818 37.4069L5.26874 37.2795C5.33161 36.9974 5.39109 36.7188 5.45566 36.4299L4.02151 36.1172C4.09458 35.7893 4.16255 35.4732 4.23392 35.1453L4.65702 35.2387C4.90171 34.124 5.1413 33.0298 5.38429 31.91L4.96458 31.8182L5.17698 30.8513L6.60263 31.1623C6.6723 30.8412 6.74027 30.5336 6.80824 30.2192L7.38258 30.3433C7.31461 30.6508 7.24834 30.9584 7.17867 31.2745L7.60347 31.3679L7.81078 30.4197ZM6.87791 34.328C6.78275 34.3076 6.6859 34.2889 6.59244 34.2651C6.52957 34.2481 6.50408 34.2651 6.49048 34.3297C6.40892 34.7137 6.32056 35.0994 6.239 35.4834C6.22201 35.5565 6.2475 35.582 6.31547 35.5956C6.48539 35.6279 6.65531 35.6686 6.82523 35.7026C6.97584 35.7406 7.13521 35.7209 7.272 35.6473C7.40879 35.5737 7.5131 35.4516 7.56439 35.305C7.6111 35.2133 7.63527 35.1118 7.63491 35.0089C7.63455 34.906 7.60966 34.8047 7.56232 34.7133C7.51498 34.622 7.44654 34.5432 7.36268 34.4836C7.27883 34.4239 7.18196 34.3852 7.08012 34.3704L6.87791 34.328ZM6.81843 32.8343C6.78275 33.0043 6.74877 33.1606 6.70969 33.3237C6.69779 33.3798 6.70969 33.4104 6.76746 33.4206C6.93738 33.4546 7.1158 33.497 7.29082 33.5225C7.37957 33.5386 7.47115 33.5233 7.54988 33.4792C7.6286 33.4352 7.68959 33.3652 7.72242 33.2812C7.77118 33.1696 7.80435 33.0518 7.82098 32.9312C7.83188 32.8672 7.82994 32.8017 7.81527 32.7385C7.80061 32.6752 7.77351 32.6155 7.73556 32.5629C7.69761 32.5102 7.64956 32.4656 7.59421 32.4317C7.53886 32.3978 7.47731 32.3753 7.41316 32.3654C7.28402 32.3365 7.15318 32.311 7.02574 32.2787C6.96287 32.2634 6.93738 32.2787 6.92549 32.3433C6.8915 32.4996 6.85412 32.6627 6.81843 32.8258V32.8343Z" fill="#DBDBDB"/>
<path d="M11.3978 31.1791C11.7775 31.7444 12.0403 32.3799 12.171 33.0482C12.2996 33.7195 12.2938 34.4097 12.154 35.0788C12.0143 35.7498 11.7403 36.3856 11.3486 36.9479C10.9586 37.5136 10.4597 37.9958 9.88115 38.3663C9.30258 38.7369 8.65592 38.9883 7.97901 39.1059C7.30269 39.2256 6.60919 39.2077 5.93995 39.0533C5.27363 38.8999 4.64419 38.6164 4.08779 38.2189C3.53763 37.8199 3.07211 37.3157 2.71822 36.7355C3.27838 37.5761 4.07212 38.2345 5.00171 38.6297C5.93129 39.0249 6.95615 39.1396 7.95012 38.9598C9.27373 38.7124 10.4492 37.9598 11.2279 36.8613C11.807 36.0334 12.1315 35.0545 12.1617 34.0447C12.1919 33.0349 11.9264 32.0383 11.3978 31.1774V31.1791Z" fill="white"/>
<path d="M2.68763 36.717C2.30977 36.1513 2.04865 35.5158 1.91958 34.8479C1.79293 34.1733 1.80102 33.4803 1.94337 32.8088C2.08471 32.1375 2.36042 31.5017 2.7539 30.9397C3.14548 30.3748 3.64606 29.894 4.22618 29.5254C4.8063 29.1569 5.45426 28.908 6.13195 28.7935C6.80854 28.6745 7.50226 28.6941 8.17102 28.8513C8.83742 29.0094 9.46581 29.2982 10.0198 29.7009C10.5675 30.1009 11.0297 30.6065 11.3792 31.1877C10.6277 30.0577 9.46522 29.2653 8.13874 28.9788C7.48616 28.8393 6.81272 28.8277 6.15574 28.9448C4.83288 29.1888 3.65613 29.9361 2.87284 31.0297C2.29137 31.8556 1.96391 32.8334 1.9307 33.8429C1.89749 34.8524 2.15999 35.8496 2.68593 36.7119L2.68763 36.717Z" fill="#C7C7C7"/>
<path d="M4.96799 31.8028L5.00877 31.5581C5.02406 31.4765 5.03596 31.3882 5.05295 31.3151L5.1464 30.8274V30.7951H5.18209C5.65957 30.8903 6.13365 30.994 6.60774 31.1061L6.56696 31.1333L6.6825 30.6643L6.74367 30.4298C6.76406 30.3517 6.78446 30.2735 6.80655 30.197C6.79465 30.2769 6.78106 30.355 6.76746 30.4349L6.72498 30.6728L6.63322 31.1469V31.1809H6.59754C6.12176 31.0857 5.64597 30.9804 5.17189 30.8699L5.21268 30.8427L5.09543 31.3236C5.07674 31.4035 5.05295 31.4833 5.03256 31.5632C5.01217 31.6431 4.99178 31.7229 4.96799 31.8028Z" fill="white"/>
<path d="M4.02493 36.1019C4.05382 35.932 4.08441 35.7756 4.11499 35.6125C4.14558 35.4494 4.17957 35.288 4.21015 35.1248V35.0994H4.23734L4.66214 35.1843L4.61966 35.2115L4.78958 34.3772C4.84906 34.1002 4.91363 33.8232 4.9748 33.5463C5.03597 33.2693 5.10224 32.9923 5.16851 32.7153C5.23478 32.4384 5.30275 32.1648 5.37412 31.8895C5.32484 32.1682 5.27386 32.4486 5.21779 32.7272C5.16172 33.0059 5.10734 33.2846 5.04787 33.5616C4.9884 33.8385 4.93232 34.1172 4.86945 34.3942L4.69613 35.2302V35.2642H4.66214L4.24074 35.1639L4.27302 35.1435C4.23394 35.3135 4.19656 35.4664 4.15578 35.6261C4.11499 35.7858 4.06741 35.9405 4.02493 36.1019Z" fill="white"/>
<path d="M6.31549 35.587C6.40895 35.5972 6.5024 35.6141 6.59586 35.6277L6.87454 35.677C6.96246 35.6889 7.05193 35.6812 7.13654 35.6545C7.22115 35.6278 7.2988 35.5827 7.36391 35.5224C7.49281 35.3957 7.56977 35.2254 7.57971 35.0449C7.58814 34.9544 7.57831 34.8631 7.55082 34.7764C7.5245 34.6867 7.47996 34.6034 7.41999 34.5317C7.49164 34.5956 7.54862 34.6743 7.58705 34.7623C7.62547 34.8503 7.64441 34.9455 7.64258 35.0415C7.64321 35.141 7.62365 35.2396 7.5851 35.3313C7.54655 35.423 7.4898 35.5059 7.41828 35.5751C7.34447 35.6435 7.25542 35.6934 7.1585 35.7206C7.06158 35.7478 6.95958 35.7515 6.86094 35.7314C6.67742 35.6906 6.49561 35.643 6.31549 35.587Z" fill="white"/>
<path d="M6.78958 33.4171C6.94421 33.4341 7.10054 33.4595 7.25007 33.4833C7.32204 33.486 7.39365 33.4721 7.45937 33.4426C7.52508 33.4131 7.58312 33.3689 7.629 33.3134C7.72269 33.199 7.77586 33.0568 7.78023 32.909C7.79003 32.7563 7.75393 32.6043 7.67658 32.4723C7.78319 32.5931 7.84341 32.7479 7.8465 32.909C7.85307 33.0749 7.79867 33.2375 7.69357 33.3661C7.63831 33.4293 7.56829 33.4779 7.48974 33.5075C7.41118 33.5372 7.32652 33.547 7.24327 33.536C7.08354 33.5105 6.93911 33.4629 6.78958 33.4171Z" fill="white"/>
<path d="M5.45907 36.4144C5.44951 36.7067 5.38615 36.9947 5.27216 37.264C5.28228 36.9718 5.34562 36.6839 5.45907 36.4144Z" fill="white"/>
<path d="M6.43273 36.6388C6.43002 36.7847 6.41179 36.93 6.37835 37.0721C6.34975 37.2146 6.30589 37.3536 6.24751 37.4867C6.24881 37.3408 6.26647 37.1954 6.30019 37.0534C6.32963 36.9109 6.37406 36.7719 6.43273 36.6388Z" fill="white"/>
<path d="M7.23306 18H7.06314V23.5633H7.23306V18Z" fill="#C7C7C7"/>
<path d="M10.5856 26.8768L10.3087 27.4851H3.98586L3.71059 26.8768L6.40215 25.0144H7.89407L10.5856 26.8768Z" fill="#EBEBEB"/>
<path d="M8.08097 23.2184L7.89406 25.0145H6.40214L6.21523 23.2184H8.08097Z" fill="#DBDBDB"/>
<path d="M10.5856 26.8784L10.3086 27.485H3.98584L3.70886 26.8784H10.5856Z" fill="#DBDBDB"/>
<path d="M-68.5879 78.5229L-54.8123 78.4822L-41.0367 78.4669L-13.4855 78.438L14.0657 78.4669L27.8412 78.4822L41.6169 78.5229L27.8412 78.5654L14.0657 78.579L-13.4855 78.6079L-41.0367 78.579L-54.8123 78.5654L-68.5879 78.5229Z" fill="#263238"/>
<path d="M-24.4914 90.5755C-1.57529 90.5755 17.0019 88.9748 17.0019 87.0003C17.0019 85.0258 -1.57529 83.4252 -24.4914 83.4252C-47.4075 83.4252 -65.9847 85.0258 -65.9847 87.0003C-65.9847 88.9748 -47.4075 90.5755 -24.4914 90.5755Z" fill="#EBEBEB"/>
<path d="M5.34351 31.6992L5.17358 31.6703L5.20077 31.5004L5.37069 31.5293L5.34351 31.6992Z" fill="#263238"/>
<path d="M-4.52046 34.0457L-4.63261 33.9183C-4.55105 33.8452 -4.46269 33.7688 -4.36754 33.6906L-4.25879 33.8214C-4.35394 33.8996 -4.4406 33.9727 -4.52046 34.0457ZM-3.99031 33.6073L-4.09396 33.4731C-4.0039 33.4051 -3.91045 33.3355 -3.81189 33.2658L-3.71333 33.4051C-3.81019 33.4731 -3.90195 33.5411 -3.99031 33.6073ZM-3.42957 33.2114L-3.52302 33.0687C-3.42787 33.0058 -3.32931 32.9446 -3.22566 32.8818L-3.139 33.0279C-3.23982 33.0913 -3.33668 33.1525 -3.42957 33.2114ZM-2.84163 32.8546L-2.9249 32.7068C-2.82464 32.6507 -2.72269 32.5946 -2.61734 32.5368L-2.53917 32.6881C-2.64282 32.7441 -2.74308 32.8002 -2.84163 32.8546ZM-2.22992 32.5385L-2.30298 32.3856C-2.20103 32.3363 -2.09398 32.287 -1.98523 32.2395L-1.91726 32.3958C-2.02431 32.4434 -2.12966 32.4892 -2.22992 32.5385ZM-1.59101 32.2633L-1.65388 32.1052C-1.54853 32.0627 -1.43978 32.022 -1.32763 31.9812L-1.26985 32.1409C-1.3888 32.1817 -1.49585 32.2208 -1.59101 32.2633ZM-0.945304 32.0305L-0.99798 31.8605C-0.887531 31.8266 -0.777081 31.7909 -0.658135 31.7586L-0.610558 31.9285C-0.741398 31.9608 -0.846747 31.9948 -0.953799 32.0305H-0.945304ZM-0.284305 31.8384L-0.326785 31.6685C-0.216336 31.6396 -0.102488 31.6125 0.0130596 31.587L0.0504427 31.7569C-0.0719013 31.7824 -0.184048 31.8096 -0.292799 31.8384H-0.284305ZM0.38689 31.6855L0.354605 31.5156C0.466753 31.4935 0.582301 31.4731 0.694449 31.4544L0.721632 31.6243L0.38689 31.6855ZM4.84395 31.6175L4.5041 31.5734L4.52449 31.4034L4.86434 31.4493L4.84395 31.6175ZM1.06658 31.5751L1.04279 31.4051C1.15607 31.3893 1.26935 31.3757 1.38263 31.3644L1.40132 31.5343C1.28464 31.5467 1.17023 31.5603 1.05808 31.5751H1.06658ZM4.15916 31.5343L3.81932 31.5054L3.83121 31.3355L4.17955 31.3661L4.15916 31.5343ZM1.74967 31.5037L1.73777 31.3338C1.85162 31.3338 1.96716 31.3168 2.07761 31.3117L2.08611 31.4816C1.97736 31.4867 1.85501 31.4935 1.74117 31.5037H1.74967ZM3.47098 31.4833C3.35543 31.4833 3.23988 31.4731 3.13113 31.4697V31.2998C3.24668 31.2998 3.36223 31.2998 3.47947 31.3134L3.47098 31.4833ZM2.43785 31.468V31.2981H2.7607H2.78619V31.468H2.7607H2.43785Z" fill="#263238"/>
<path d="M23.0596 49.3115H22.8897C22.8897 49.3115 22.8897 49.2538 22.8897 49.1416H23.0596C23.0613 49.2504 23.0596 49.3115 23.0596 49.3115Z" fill="#263238"/>
<path d="M22.8659 48.8172C22.8659 48.722 22.8472 48.6133 22.8302 48.4926L23.0001 48.4705C23.0171 48.5929 23.029 48.705 23.0375 48.8104L22.8659 48.8172ZM22.7826 48.1681C22.7656 48.0661 22.747 47.9591 22.7232 47.8452L22.8931 47.8112C22.9169 47.9268 22.9373 48.0372 22.9543 48.1409L22.7826 48.1681ZM22.6535 47.5241C22.6297 47.4221 22.6042 47.3151 22.5736 47.2063L22.7436 47.1621C22.7724 47.2743 22.7996 47.3813 22.8251 47.485L22.6535 47.5241ZM22.4836 46.8903C22.453 46.7883 22.4207 46.683 22.385 46.5759L22.5549 46.5232C22.5889 46.632 22.6229 46.7373 22.6535 46.841L22.4836 46.8903ZM22.2797 46.265C22.2423 46.1647 22.2049 46.0627 22.1641 45.9574L22.3221 45.8962C22.3629 46.0016 22.402 46.1052 22.4394 46.2072L22.2797 46.265ZM22.0401 45.6532C21.9993 45.5547 21.9551 45.4527 21.9092 45.3525L22.0639 45.2811C22.1114 45.3848 22.1556 45.4867 22.1981 45.587L22.0401 45.6532ZM21.7699 45.0551C21.724 44.9566 21.6747 44.8597 21.6238 44.7594L21.775 44.683C21.826 44.7832 21.8753 44.8818 21.9228 44.9803L21.7699 45.0551ZM21.4691 44.4706C21.4182 44.3754 21.3638 44.2803 21.2992 44.1834L21.447 44.0984C21.5037 44.1947 21.5603 44.2916 21.617 44.389L21.4691 44.4706ZM21.1395 43.9013C21.0834 43.8096 21.0256 43.7161 20.9696 43.6227L21.1123 43.5309C21.1735 43.6244 21.2329 43.7195 21.2822 43.813L21.1395 43.9013ZM20.7843 43.3491C20.7232 43.2585 20.6603 43.1684 20.5957 43.0789L20.7334 42.9804C20.7996 43.0721 20.8625 43.1622 20.9237 43.2539L20.7843 43.3491ZM20.4037 42.8087C20.3375 42.7221 20.2712 42.6388 20.2032 42.5471L20.3375 42.4417L20.5397 42.7068L20.4037 42.8087ZM19.9976 42.299C19.9279 42.2157 19.8583 42.129 19.7852 42.0475L19.9143 41.937C19.988 42.022 20.0593 42.107 20.1285 42.1919L19.9976 42.299ZM19.5694 41.7892C19.4963 41.7093 19.4233 41.6278 19.3468 41.5462L19.4709 41.4307C19.5473 41.5122 19.6221 41.6006 19.6952 41.6771L19.5694 41.7892Z" fill="#263238"/>
<path d="M19.1191 41.3133L19.0002 41.1927L19.1208 41.0737L19.2415 41.1961L19.1191 41.3133Z" fill="#263238"/>
<path d="M20.1386 41.4849L20.0656 41.6379L19.063 41.1536L19.5184 42.1697L19.3638 42.2394L18.7164 40.7968L20.1386 41.4849Z" fill="#263238"/>
<path d="M20.7758 37.5853C20.3073 38.7137 19.5149 39.6781 18.4987 40.3564C17.4825 41.0348 16.288 41.3968 15.0661 41.3967C13.8443 41.3967 12.6498 41.0345 11.6337 40.356C10.6176 39.6775 9.82529 38.713 9.35694 37.5845C8.8886 36.456 8.76519 35.2139 9.00231 34.0153C9.23943 32.8167 9.82643 31.7152 10.6892 30.85C11.552 29.9848 12.6518 29.3947 13.8497 29.1542C15.0477 28.9136 16.29 29.0335 17.4199 29.4987C18.1717 29.8087 18.855 30.2639 19.4307 30.8383C20.0064 31.4126 20.4632 32.0949 20.7749 32.846C21.0866 33.5971 21.2471 34.4023 21.2473 35.2155C21.2474 36.0288 21.0872 36.834 20.7758 37.5853Z" fill="#EE6F57"/>
<path opacity="0.1" d="M20.7758 37.5853C20.3073 38.7137 19.5149 39.6781 18.4987 40.3564C17.4825 41.0348 16.288 41.3968 15.0661 41.3967C13.8443 41.3967 12.6498 41.0345 11.6337 40.356C10.6176 39.6775 9.82529 38.713 9.35694 37.5845C8.8886 36.456 8.76519 35.2139 9.00231 34.0153C9.23943 32.8167 9.82643 31.7152 10.6892 30.85C11.552 29.9848 12.6518 29.3947 13.8497 29.1542C15.0477 28.9136 16.29 29.0335 17.4199 29.4987C18.1717 29.8087 18.855 30.2639 19.4307 30.8383C20.0064 31.4126 20.4632 32.0949 20.7749 32.846C21.0866 33.5971 21.2471 34.4023 21.2473 35.2155C21.2474 36.0288 21.0872 36.834 20.7758 37.5853Z" fill="black"/>
<g opacity="0.1">
<path d="M12.8847 40.5249C11.833 40.0941 10.9329 39.3608 10.2984 38.4179C9.6639 37.4751 9.32357 36.3651 9.32052 35.2286C9.31747 34.0922 9.65185 32.9804 10.2813 32.0341C10.9107 31.0879 11.8069 30.3498 12.8562 29.9134C13.9055 29.477 15.0608 29.3618 16.1756 29.5826C17.2904 29.8034 18.3146 30.3502 19.1184 31.1536C19.9222 31.9571 20.4693 32.981 20.6906 34.0957C20.9119 35.2104 20.7972 36.3658 20.3613 37.4153C19.7799 38.8172 18.6666 39.9316 17.2653 40.5144C15.8639 41.0972 14.2888 41.101 12.8847 40.5249ZM19.7869 37.2759C20.1932 36.3438 20.3146 35.3123 20.1358 34.3113C19.9569 33.3103 19.4859 32.3846 18.782 31.6508C18.0781 30.917 17.1728 30.4079 16.1801 30.1876C15.1874 29.9674 14.1517 30.0458 13.2035 30.413C12.2553 30.7802 11.4369 31.4198 10.8515 32.2512C10.2661 33.0826 9.93978 34.0686 9.91368 35.0851C9.88759 36.1016 10.1629 37.1031 10.7049 37.9635C11.2469 38.8238 12.0313 39.5046 12.9594 39.9199C13.5809 40.1978 14.2512 40.3498 14.9318 40.3672C15.6123 40.3845 16.2895 40.2669 16.9243 40.0211C17.5591 39.7752 18.1389 39.4061 18.6302 38.9349C19.1216 38.4637 19.5147 37.8999 19.7869 37.2759Z" fill="black"/>
<path d="M16.4207 31.8606L16.9679 32.0849L16.9033 32.2412C16.815 32.4553 16.7334 32.6694 16.6382 32.8801C16.6043 32.9583 16.6246 32.9889 16.6977 33.0313C16.9141 33.1498 17.1209 33.285 17.3162 33.4358C17.7988 33.8453 17.894 34.3771 17.6136 34.9447C17.5623 35.0473 17.5056 35.1471 17.4437 35.2437C17.3653 35.36 17.2609 35.4565 17.1388 35.5255C17.0167 35.5945 16.8803 35.6342 16.7402 35.6413L16.5193 35.66C16.5941 35.7348 16.6637 35.796 16.7249 35.8656C16.8932 36.0405 17.006 36.2614 17.0489 36.5003C17.0919 36.7392 17.0631 36.9855 16.9662 37.208C16.8892 37.4369 16.7666 37.6479 16.606 37.8282C16.4974 37.9459 16.3661 38.0404 16.2201 38.1061C16.0741 38.1717 15.9164 38.2073 15.7563 38.2106C15.3825 38.2147 15.0117 38.1442 14.6654 38.0033C14.5822 37.9744 14.5448 37.9795 14.5108 38.0678C14.4292 38.2802 14.3409 38.4858 14.2491 38.6965C14.227 38.7475 14.2015 38.7713 14.1472 38.7492L13.6748 38.5606L13.7547 38.3635C13.8277 38.1936 13.8991 38.0067 13.9756 37.8316C14.001 37.7705 13.9959 37.7365 13.928 37.7127C13.8243 37.6753 13.7241 37.6294 13.6102 37.5836C13.4981 37.8588 13.3893 38.1222 13.2704 38.3907L12.7232 38.1664C12.8337 37.8979 12.9407 37.6345 13.0529 37.3593L11.6935 36.8019L12.0707 35.8826L12.4717 36.0526C12.9033 34.9973 13.3315 33.954 13.7648 32.9005L13.3672 32.7306L13.7428 31.8147L15.0919 32.3686C15.2177 32.0645 15.3366 31.7722 15.459 31.4749L16.0027 31.6975L15.6408 32.5793L16.0435 32.7493C16.1761 32.4434 16.295 32.1613 16.4207 31.8606ZM14.8269 35.5377C14.7368 35.502 14.6451 35.4663 14.5567 35.4255C14.4972 35.4001 14.4683 35.4153 14.4462 35.4731C14.299 35.839 14.1494 36.2032 13.9976 36.5657C13.9671 36.6354 13.9891 36.6643 14.0537 36.6898C14.2117 36.7509 14.3681 36.8189 14.5278 36.8818C14.6697 36.9452 14.8303 36.9531 14.9778 36.9041C15.1253 36.855 15.2491 36.7525 15.3247 36.6167C15.3866 36.5347 15.4281 36.4391 15.4456 36.3378C15.4631 36.2366 15.4562 36.1326 15.4254 36.0346C15.3947 35.9365 15.341 35.8472 15.2688 35.7741C15.1966 35.701 15.108 35.6462 15.0104 35.6142L14.8269 35.5377ZM15.0274 34.056C14.9628 34.2123 14.9016 34.3669 14.8354 34.5216C14.8133 34.5725 14.8184 34.6048 14.8761 34.6269C15.0461 34.6898 15.2041 34.7611 15.374 34.8172C15.4593 34.8471 15.5523 34.8465 15.6372 34.8155C15.7221 34.7845 15.7936 34.7251 15.8396 34.6473C15.9067 34.5456 15.9599 34.4353 15.9976 34.3194C16.0193 34.2581 16.0286 34.1932 16.0251 34.1283C16.0215 34.0635 16.0051 34 15.9768 33.9415C15.9485 33.883 15.9089 33.8307 15.8603 33.7877C15.8116 33.7446 15.7549 33.7116 15.6935 33.6906C15.5728 33.6397 15.4488 33.5938 15.3264 33.5394C15.2687 33.5122 15.2398 33.5275 15.216 33.5853C15.1514 33.7484 15.0869 33.9013 15.024 34.056H15.0274Z" fill="black"/>
</g>
<path d="M19.8192 33.2301C20.0944 33.851 20.2435 34.5205 20.2576 35.1995C20.267 35.8844 20.1417 36.5645 19.8889 37.2012C19.6341 37.837 19.2538 38.4149 18.7708 38.9004C18.2891 39.3905 17.7144 39.7793 17.0802 40.044C16.4461 40.3086 15.7655 40.4438 15.0784 40.4416C14.3918 40.4427 13.7122 40.3052 13.0801 40.0372C12.4507 39.7702 11.8802 39.3815 11.4013 38.8936C10.9267 38.4079 10.5536 37.8326 10.3036 37.2012C10.71 38.1256 11.3776 38.9112 12.2243 39.4615C13.071 40.0118 14.06 40.3028 15.0699 40.2989C15.7365 40.293 16.3956 40.1574 17.0104 39.8996C17.6271 39.6455 18.1877 39.2725 18.6603 38.8019C19.3754 38.0871 19.8661 37.179 20.072 36.1891C20.2779 35.1992 20.19 34.1707 19.8192 33.2301Z" fill="white"/>
<path opacity="0.1" d="M10.2815 37.1741C10.0069 36.552 9.85956 35.8812 9.84816 35.2013C9.841 34.5177 9.96801 33.8394 10.222 33.2047C10.4794 32.5691 10.8613 31.9914 11.3452 31.5055C11.8287 31.0169 12.4051 30.6299 13.0403 30.3673C13.6756 30.1047 14.357 29.9717 15.0444 29.9762C15.7301 29.9778 16.4084 30.117 17.0393 30.3857C17.6678 30.6548 18.2371 31.0452 18.7147 31.5344C19.1858 32.0231 19.5549 32.6008 19.8005 33.2336C19.3975 32.3072 18.7323 31.519 17.8869 30.9659C17.0416 30.4127 16.0529 30.1189 15.0427 30.1206C13.6983 30.1323 12.4107 30.6646 11.4505 31.6057C10.7346 32.3185 10.2426 33.225 10.0349 34.2136C9.82725 35.2023 9.91293 36.2301 10.2815 37.1707V37.1741Z" fill="black"/>
<path d="M13.3792 32.729C13.4046 32.6508 13.4335 32.5727 13.4607 32.4945C13.4879 32.4163 13.5168 32.3399 13.5457 32.2634L13.7156 31.7995L13.7275 31.7689L13.7598 31.7808C14.2129 31.9575 14.666 32.1422 15.1192 32.3348L15.075 32.3535L15.2704 31.9117L15.3706 31.6925C15.4029 31.6194 15.4386 31.5463 15.4726 31.4733C15.4471 31.5497 15.4199 31.6262 15.3927 31.701L15.3078 31.9338L15.1379 32.3857L15.126 32.4163L15.0937 32.4044C14.6405 32.2277 14.1902 32.0431 13.7428 31.8505L13.7887 31.8318L13.5865 32.2736C13.5542 32.3501 13.5185 32.4248 13.4845 32.4996L13.3792 32.729Z" fill="white"/>
<path d="M11.7054 36.7985C11.7615 36.6439 11.821 36.4892 11.8753 36.3329C11.9297 36.1766 11.9943 36.0236 12.0538 35.869L12.0639 35.8452L12.0894 35.8554L12.4922 36.0117L12.448 36.0321L12.7657 35.242C12.8728 34.9769 12.9849 34.7169 13.092 34.4536C13.199 34.1902 13.3146 33.9319 13.4318 33.6702C13.5491 33.4085 13.6595 33.1502 13.7717 32.892C13.6731 33.1587 13.5746 33.4255 13.4709 33.6889C13.3673 33.9523 13.2653 34.2191 13.1582 34.4824C13.0512 34.7458 12.9475 35.0092 12.8388 35.2709L12.5125 36.0576L12.4989 36.0899L12.4667 36.0763L12.069 35.9064L12.1047 35.8928C12.0385 36.044 11.9739 36.197 11.9059 36.3482C11.838 36.4994 11.7751 36.6489 11.7054 36.7985Z" fill="white"/>
<path d="M14.0503 36.6915C14.1404 36.7187 14.2288 36.751 14.3188 36.7799L14.5839 36.8768C14.6686 36.9038 14.7583 36.9117 14.8464 36.9C14.9346 36.8882 15.019 36.8571 15.0937 36.8088C15.2432 36.7074 15.3488 36.5532 15.3893 36.3772C15.4133 36.2892 15.4197 36.1974 15.408 36.107C15.3986 36.014 15.369 35.9241 15.3214 35.8436C15.3823 35.9194 15.4255 36.0079 15.4479 36.1026C15.4702 36.1972 15.4711 36.2957 15.4505 36.3908C15.4345 36.4889 15.3984 36.5826 15.3446 36.6662C15.2909 36.7498 15.2205 36.8215 15.1378 36.8768C15.0537 36.9317 14.9577 36.9656 14.8577 36.9757C14.7578 36.9857 14.6569 36.9716 14.5635 36.9345C14.3817 36.8615 14.2118 36.7765 14.0503 36.6915Z" fill="white"/>
<path d="M14.8915 34.6355C15.041 34.6779 15.1922 34.7306 15.3333 34.7799C15.4033 34.7958 15.4761 34.7953 15.5459 34.7785C15.6158 34.7617 15.6808 34.7291 15.736 34.683C15.8472 34.5866 15.9242 34.4566 15.9552 34.3126C15.992 34.1638 15.9825 34.0073 15.928 33.864C16.0123 34.0017 16.0437 34.1654 16.0163 34.3245C15.994 34.4888 15.9125 34.6393 15.787 34.7476C15.7222 34.8012 15.6451 34.8379 15.5627 34.8545C15.4803 34.8711 15.395 34.8671 15.3146 34.8428C15.1667 34.7782 15.0308 34.7085 14.8915 34.6355Z" fill="white"/>
<path d="M13.0614 37.3558C13.0027 37.6431 12.8909 37.9168 12.7317 38.163C12.7595 38.019 12.8022 37.8783 12.8592 37.7433C12.9136 37.6078 12.9813 37.478 13.0614 37.3558Z" fill="white"/>
<path d="M13.9824 37.7467C13.9233 38.0322 13.8115 38.3042 13.6527 38.5487C13.7118 38.2632 13.8236 37.9912 13.9824 37.7467Z" fill="white"/>
<path d="M17.4403 36.6813C17.4352 37.9034 17.0681 39.0966 16.3851 40.1101C15.7022 41.1236 14.7342 41.912 13.6034 42.3756C12.4726 42.8391 11.2298 42.9571 10.0319 42.7146C8.83412 42.4721 7.73505 41.88 6.8736 41.0131C6.01216 40.1462 5.427 39.0434 5.19207 37.8441C4.95715 36.6448 5.08299 35.4027 5.55369 34.2748C6.0244 33.147 6.81885 32.184 7.83666 31.5075C8.85447 30.831 10.05 30.4713 11.2721 30.474C12.0849 30.4758 12.8894 30.6378 13.6395 30.9509C14.3896 31.264 15.0706 31.7219 15.6435 32.2984C16.2164 32.875 16.67 33.5589 16.9784 34.3109C17.2867 35.063 17.4436 35.8685 17.4403 36.6813Z" fill="#EE6F57"/>
<g opacity="0.1">
<path d="M11.2619 42.3958C10.1257 42.3955 9.01516 42.058 8.07094 41.426C7.12672 40.794 6.3913 39.896 5.95783 38.8458C5.52435 37.7955 5.41232 36.6402 5.63592 35.5262C5.85953 34.4123 6.40871 33.3897 7.21391 32.5881C8.0191 31.7865 9.0441 31.2418 10.1591 31.0232C11.274 30.8045 12.4288 30.9217 13.4771 31.3598C14.5254 31.798 15.4201 32.5374 16.0479 33.4844C16.6757 34.4314 17.0083 35.5435 17.0036 36.6797C16.9986 38.1986 16.3913 39.6535 15.3149 40.7251C14.2384 41.7968 12.7808 42.3977 11.2619 42.3958ZM16.4207 36.7697C16.4434 35.753 16.1646 34.7524 15.6196 33.8938C15.0746 33.0353 14.2877 32.3572 13.358 31.9451C12.4283 31.5329 11.3975 31.4051 10.3953 31.5778C9.39316 31.7504 8.46449 32.2158 7.72631 32.9152C6.98814 33.6147 6.47347 34.517 6.24714 35.5084C6.02081 36.4998 6.09295 37.5361 6.45447 38.4866C6.81598 39.4371 7.45071 40.2593 8.27868 40.8498C9.10665 41.4402 10.0908 41.7724 11.1073 41.8045C11.7874 41.8255 12.465 41.7117 13.101 41.4696C13.7369 41.2275 14.3187 40.8618 14.8126 40.3938C15.3066 39.9257 15.703 39.3645 15.979 38.7425C16.255 38.1205 16.4051 37.45 16.4207 36.7697Z" fill="black"/>
<path d="M11.2415 33.0382H11.8328V33.2081C11.8328 33.4375 11.8328 33.6686 11.8328 33.898C11.8328 33.9847 11.8617 34.0051 11.945 34.017C12.1904 34.0426 12.4331 34.0892 12.6705 34.1563C13.2721 34.3517 13.5626 34.8054 13.5202 35.4375C13.513 35.5517 13.4983 35.6652 13.476 35.7774C13.4474 35.9144 13.3874 36.043 13.3007 36.153C13.214 36.263 13.103 36.3513 12.9764 36.4112C12.9152 36.4451 12.8541 36.474 12.7793 36.5114C12.8761 36.5522 12.9645 36.5845 13.0478 36.6253C13.2699 36.7233 13.458 36.8849 13.5886 37.0895C13.7192 37.2942 13.7864 37.5329 13.7818 37.7756C13.7962 38.0167 13.7621 38.2582 13.6816 38.4859C13.6262 38.6366 13.5409 38.7745 13.4308 38.8913C13.3207 39.0081 13.1881 39.1014 13.041 39.1656C12.6968 39.3111 12.3271 39.3867 11.9535 39.3882C11.8651 39.3882 11.8328 39.412 11.8345 39.5071C11.8345 39.7331 11.8345 39.9591 11.8345 40.1868C11.8345 40.2429 11.8192 40.2735 11.7598 40.2735H11.25V40.0611C11.25 39.8691 11.25 39.6771 11.25 39.4851C11.25 39.4205 11.233 39.3899 11.1616 39.3933C11.0512 39.3933 10.9407 39.3933 10.8218 39.3933V40.2667H10.2288V39.3933H8.76233V38.3993H9.19563V34.9923H8.76573V34.0068H10.2254V33.0399H10.8133V33.9932H11.2483L11.2415 33.0382ZM11.1616 37.0467C11.0648 37.0467 10.9662 37.0467 10.8694 37.0467C10.8048 37.0467 10.7844 37.0688 10.7844 37.1316C10.7844 37.5242 10.7844 37.9184 10.7844 38.3211C10.7844 38.3976 10.8133 38.4145 10.883 38.4145C11.0529 38.4145 11.2228 38.4145 11.3927 38.4145C11.548 38.4196 11.6996 38.3664 11.8178 38.2655C11.936 38.1647 12.0122 38.0233 12.0316 37.8691C12.0581 37.7689 12.0601 37.6638 12.0375 37.5626C12.0149 37.4614 11.9684 37.3672 11.9018 37.2877C11.8352 37.2083 11.7505 37.146 11.6548 37.1062C11.5591 37.0663 11.4552 37.05 11.3519 37.0586L11.1616 37.0467ZM10.7844 35.6006C10.7844 35.7706 10.7844 35.9405 10.7844 36.1104C10.7844 36.1665 10.7997 36.1954 10.8609 36.1937C11.0393 36.1937 11.216 36.1937 11.3944 36.1801C11.4844 36.1768 11.5705 36.1422 11.6378 36.0824C11.7051 36.0225 11.7494 35.9411 11.7632 35.8521C11.7875 35.7331 11.7949 35.6113 11.7852 35.4902C11.7822 35.4254 11.7664 35.3618 11.7386 35.3031C11.7108 35.2445 11.6717 35.1919 11.6236 35.1485C11.5754 35.105 11.519 35.0716 11.4578 35.05C11.3966 35.0284 11.3318 35.0192 11.267 35.0229C11.1344 35.0229 11.0019 35.0229 10.8694 35.0229C10.8048 35.0229 10.7827 35.045 10.7844 35.1062C10.7861 35.2659 10.7844 35.4324 10.7844 35.6006Z" fill="black"/>
</g>
<path d="M14.9067 33.0161C15.3992 33.4848 15.7917 34.0484 16.0605 34.6728C16.33 35.3035 16.4712 35.9815 16.4758 36.6672C16.4805 37.353 16.3486 38.0329 16.0878 38.6671C15.827 39.3014 15.4425 39.8774 14.9567 40.3615C14.4709 40.8456 13.8936 41.2281 13.2585 41.4867C12.6239 41.7482 11.9431 41.8788 11.2568 41.8708C10.5734 41.8619 9.8985 41.7187 9.27042 41.4493C8.64715 41.177 8.08448 40.783 7.61537 40.2905C8.34182 40.9928 9.25795 41.4671 10.2508 41.6549C11.2436 41.8427 12.2696 41.7358 13.2024 41.3474C14.4417 40.8247 15.4285 39.8397 15.9535 38.6014C16.3436 37.6697 16.4524 36.6441 16.2664 35.6513C16.0803 34.6584 15.6077 33.7417 14.9067 33.0144V33.0161Z" fill="white"/>
<path opacity="0.1" d="M7.58477 40.2837C7.09504 39.8124 6.70449 39.248 6.4361 38.6235C6.17011 37.9942 6.03039 37.3187 6.02489 36.6354C6.02077 35.9491 6.15484 35.2689 6.41911 34.6355C6.6812 34.0003 7.06752 33.4239 7.5554 32.9402C8.04328 32.4564 8.62289 32.0749 9.2602 31.8182C9.89514 31.5584 10.576 31.4296 11.2619 31.4392C11.9439 31.4503 12.617 31.5952 13.2432 31.8657C13.8644 32.1398 14.4247 32.5349 14.8914 33.028C14.1666 32.325 13.2523 31.8489 12.2607 31.6582C11.2691 31.4674 10.2434 31.5702 9.30948 31.9541C8.69411 32.2103 8.13476 32.5843 7.66294 33.0552C7.18689 33.5223 6.80804 34.079 6.54825 34.6932C6.1572 35.6242 6.04634 36.649 6.22925 37.6421C6.41216 38.6351 6.88089 39.5532 7.57797 40.2837H7.58477Z" fill="black"/>
<path d="M8.75896 34.9922C8.75896 34.9106 8.75046 34.8223 8.74707 34.7441C8.74367 34.666 8.74707 34.5742 8.73687 34.4977L8.72498 34.0033V33.9727H8.76066C9.24834 33.9727 9.73432 33.9727 10.2203 33.9727L10.1863 34.0067L10.1982 33.5224L10.2084 33.2811C10.2084 33.2012 10.2084 33.1112 10.2203 33.0398C10.2203 33.1197 10.2203 33.2012 10.2322 33.2811L10.2424 33.5224L10.2543 34.0067V34.0389H10.2186C9.73262 34.0469 9.24607 34.0469 8.75896 34.0389L8.79464 34.005L8.77425 34.5011C8.77425 34.5827 8.77425 34.671 8.76406 34.7475C8.75386 34.824 8.76406 34.914 8.75896 34.9922Z" fill="white"/>
<path d="M8.75555 39.3966C8.75555 39.2266 8.74366 39.0567 8.73856 38.9004C8.73346 38.7441 8.73856 38.5605 8.72836 38.4025V38.377H8.75555H9.18885L9.15486 38.411V37.5614C9.15486 37.2776 9.15486 36.9939 9.15486 36.7118C9.15486 36.4297 9.15487 36.1443 9.16676 35.8622C9.17865 35.5801 9.18036 35.2946 9.19055 35.0126C9.20188 35.2969 9.21037 35.5801 9.21604 35.8622C9.21604 36.1477 9.22624 36.4314 9.22793 36.7118C9.22963 36.9922 9.22793 37.2793 9.22793 37.5614V38.411V38.4467H9.19395H8.76065L8.78783 38.4195C8.78783 38.5894 8.78783 38.7594 8.77764 38.9174C8.76744 39.0754 8.76405 39.2402 8.75555 39.3966Z" fill="white"/>
<path d="M10.883 38.4059C10.9764 38.3957 11.0716 38.3924 11.165 38.3856L11.4488 38.3737C11.537 38.3667 11.6226 38.3403 11.6993 38.2962C11.776 38.2521 11.8419 38.1915 11.8923 38.1188C11.9918 37.9687 12.0312 37.7868 12.0028 37.609C11.991 37.5181 11.9615 37.4304 11.9161 37.3507C11.8724 37.2685 11.8108 37.1971 11.736 37.1417C11.8211 37.1885 11.8947 37.2536 11.9514 37.3324C12.0081 37.4111 12.0466 37.5016 12.0639 37.5971C12.0861 37.6941 12.0884 37.7945 12.0706 37.8924C12.0527 37.9902 12.0152 38.0834 11.9603 38.1664C11.9029 38.2488 11.8268 38.3165 11.7382 38.3638C11.6495 38.411 11.5509 38.4365 11.4505 38.4382C11.2602 38.4297 11.0716 38.4212 10.883 38.4059Z" fill="white"/>
<path d="M10.883 36.1817C11.0376 36.1648 11.1956 36.1563 11.3469 36.1478C11.4183 36.1366 11.4862 36.109 11.5452 36.0671C11.6041 36.0252 11.6526 35.9702 11.6867 35.9065C11.7538 35.7744 11.7758 35.624 11.7496 35.4783C11.7263 35.327 11.6582 35.1861 11.5542 35.0739C11.6829 35.1734 11.7734 35.3142 11.8105 35.4727C11.8477 35.6311 11.8291 35.7975 11.7581 35.9439C11.7186 36.0182 11.6613 36.0817 11.5913 36.1286C11.5214 36.1754 11.4409 36.2042 11.3571 36.2123C11.1905 36.214 11.0393 36.2004 10.883 36.1817Z" fill="white"/>
<path d="M10.222 39.3967C10.2507 39.5405 10.2644 39.6868 10.2628 39.8334C10.2651 39.98 10.2515 40.1265 10.222 40.2701C10.1676 39.9815 10.1676 39.6853 10.222 39.3967Z" fill="white"/>
<path d="M11.2211 39.4103C11.2498 39.5529 11.2635 39.6981 11.2619 39.8436C11.2644 39.9891 11.2507 40.1344 11.2211 40.2769C11.1668 39.9906 11.1668 39.6966 11.2211 39.4103Z" fill="white"/>
<path d="M2.84395 91.5118L2.82866 91.3419C2.94421 91.3317 3.05805 91.3198 3.1685 91.3062L3.18719 91.4761C3.07618 91.4897 2.96176 91.5016 2.84395 91.5118ZM3.53554 91.4337L3.51345 91.2637L3.85329 91.2128L3.88048 91.3827L3.53554 91.4337ZM4.22372 91.3215L4.19313 91.1516L4.53298 91.0836L4.56866 91.2535C4.45311 91.2773 4.33927 91.3011 4.22372 91.3215ZM4.90341 91.1771L4.86432 91.0071L5.20417 90.9239L5.24835 91.0938C5.1345 91.1227 5.02065 91.1499 4.90681 91.1771H4.90341ZM5.5831 91.0071L5.53382 90.8372C5.64597 90.8049 5.75472 90.771 5.86347 90.737L5.91614 90.8984C5.80399 90.9324 5.69355 90.9664 5.5814 90.9987L5.5831 91.0071ZM6.24579 90.793L6.18972 90.6333L6.51257 90.5127L6.57374 90.6724L6.24579 90.793ZM6.89829 90.5416L6.83203 90.3852L7.14638 90.2476L7.21775 90.4022L6.89829 90.5416ZM7.53211 90.2527L7.45734 90.0998C7.56269 90.0488 7.66464 89.9961 7.7649 89.9434L7.84306 90.093C7.74111 90.1388 7.63746 90.1915 7.53041 90.2442L7.53211 90.2527ZM8.15062 89.9247L8.06566 89.7769C8.16761 89.7208 8.26617 89.6614 8.36133 89.607L8.44969 89.7531C8.35113 89.799 8.25088 89.8585 8.14892 89.9163L8.15062 89.9247ZM8.74535 89.5611L8.65189 89.4184C8.74875 89.3538 8.84391 89.2892 8.93567 89.2247L9.03422 89.364C8.94416 89.4218 8.84221 89.4863 8.74365 89.5526L8.74535 89.5611ZM9.31629 89.1584L9.21434 89.0225C9.30779 88.9528 9.39785 88.8814 9.48451 88.8101L9.59156 88.9426C9.5015 89.0072 9.40975 89.0785 9.31459 89.1499L9.31629 89.1584ZM9.86004 88.7183L9.74959 88.5909C9.83795 88.5144 9.91951 88.4379 10.0062 88.3615L10.1217 88.4855C10.0351 88.5552 9.9484 88.6333 9.85834 88.7098L9.86004 88.7183ZM10.3698 88.2442L10.2509 88.1236C10.3341 88.0403 10.4208 87.9536 10.4904 87.8772L10.6145 87.9944C10.538 88.0675 10.4582 88.1508 10.3715 88.2357L10.3698 88.2442ZM10.8507 87.7344L10.7215 87.6223C10.8014 87.5339 10.8745 87.4524 10.9441 87.3606L11.075 87.4677C11.007 87.5458 10.9322 87.6359 10.8524 87.726L10.8507 87.7344ZM11.2925 87.1924L11.1566 87.0904C11.2296 86.9919 11.2959 86.9001 11.3571 86.8118L11.4964 86.9086C11.4369 86.9885 11.3673 87.0836 11.2942 87.1839L11.2925 87.1924Z" fill="#263238"/>
<path d="M11.6935 86.6045L11.5491 86.5144L11.6374 86.3717L11.7836 86.4584C11.7564 86.5042 11.7258 86.5535 11.6935 86.6045Z" fill="#263238"/>
<path d="M11.6187 87.5407L11.4522 87.5067L11.6765 86.4158L10.8031 87.1057L10.6978 86.9731L11.9382 85.9927L11.6187 87.5407Z" fill="#263238"/>
<path d="M2.70123 89.2196C2.32278 90.3814 1.6085 91.405 0.648625 92.1611C-0.311253 92.9172 -1.47368 93.3719 -2.69182 93.4677C-3.90996 93.5635 -5.12918 93.2962 -6.19547 92.6994C-7.26176 92.1027 -8.12729 91.2034 -8.68273 90.115C-9.23818 89.0267 -9.45863 87.7981 -9.31623 86.5845C-9.17382 85.3709 -8.67496 84.2268 -7.88266 83.2966C-7.09035 82.3663 -6.04014 81.6918 -4.86468 81.3581C-3.68921 81.0245 -2.44123 81.0466 -1.27835 81.4218C-0.504522 81.6717 0.212419 82.0718 0.831413 82.5992C1.45041 83.1266 1.9593 83.7709 2.32895 84.4952C2.69861 85.2195 2.92176 86.0096 2.98564 86.8203C3.04952 87.631 2.95287 88.4463 2.70123 89.2196Z" fill="#EE6F57"/>
<path opacity="0.1" d="M2.70123 89.2196C2.32278 90.3814 1.6085 91.405 0.648625 92.1611C-0.311253 92.9172 -1.47368 93.3719 -2.69182 93.4677C-3.90996 93.5635 -5.12918 93.2962 -6.19547 92.6994C-7.26176 92.1027 -8.12729 91.2034 -8.68273 90.115C-9.23818 89.0267 -9.45863 87.7981 -9.31623 86.5845C-9.17382 85.3709 -8.67496 84.2268 -7.88266 83.2966C-7.09035 82.3663 -6.04014 81.6918 -4.86468 81.3581C-3.68921 81.0245 -2.44123 81.0466 -1.27835 81.4218C-0.504522 81.6717 0.212419 82.0718 0.831413 82.5992C1.45041 83.1266 1.9593 83.7709 2.32895 84.4952C2.69861 85.2195 2.92176 86.0096 2.98564 86.8203C3.04952 87.631 2.95287 88.4463 2.70123 89.2196Z" fill="black"/>
<g opacity="0.1">
<path d="M-4.93339 92.7657C-6.01502 92.4179 -6.96911 91.757 -7.67483 90.8666C-8.38054 89.9762 -8.80614 88.8964 -8.89772 87.7639C-8.98929 86.6314 -8.74273 85.4973 -8.18925 84.505C-7.63577 83.5128 -6.80027 82.7071 -5.78857 82.1901C-4.77688 81.6731 -3.63449 81.4679 -2.50611 81.6006C-1.37772 81.7332 -0.314083 82.1978 0.550084 82.9354C1.41425 83.673 2.04008 84.6505 2.3483 85.7441C2.65652 86.8376 2.63328 87.9981 2.28151 89.0784C1.81171 90.5227 0.788465 91.7219 -0.563947 92.413C-1.91636 93.1042 -3.48763 93.231 -4.93339 92.7657ZM1.69358 88.9833C2.02602 88.0222 2.06659 86.9842 1.81019 86.0001C1.55379 85.016 1.01188 84.1298 0.252741 83.4531C-0.506403 82.7765 -1.44883 82.3396 -2.45581 82.1975C-3.46279 82.0555 -4.48929 82.2146 -5.40599 82.6549C-6.32269 83.0952 -7.08858 83.797 -7.60718 84.6717C-8.12579 85.5465 -8.37391 86.5552 -8.32028 87.5707C-8.26666 88.5863 -7.91369 89.5632 -7.30585 90.3785C-6.698 91.1938 -5.86247 91.811 -4.9045 92.1523C-4.26377 92.3799 -3.58436 92.4785 -2.90537 92.4425C-2.22638 92.4065 -1.56122 92.2365 -0.948149 91.9425C-0.335081 91.6484 0.213787 91.236 0.666869 90.7291C1.11995 90.2221 1.4683 89.6305 1.69188 88.9883L1.69358 88.9833Z" fill="black"/>
</g>
<path d="M1.40471 84.9493C1.72912 85.5468 1.93075 86.2031 1.99773 86.8797C2.06052 87.5604 1.98893 88.2469 1.78703 88.9C1.58277 89.5548 1.24939 90.1621 0.806577 90.6859C0.363811 91.213 -0.180057 91.646 -0.792932 91.9595C-1.40581 92.2729 -2.07527 92.4604 -2.76179 92.5109C-3.44541 92.5662 -4.13316 92.483 -4.78386 92.2662C-5.43215 92.0483 -6.0314 91.7054 -6.54766 91.2569C-7.05774 90.8076 -7.47308 90.2611 -7.76939 89.6494C-7.29326 90.541 -6.56641 91.2736 -5.67861 91.7568C-4.7908 92.2399 -3.78092 92.4525 -2.77368 92.3681C-1.43406 92.2475 -0.193377 91.6122 0.687634 90.5959C1.34236 89.8268 1.75833 88.8833 1.8845 87.8811C2.01067 86.879 1.84156 85.8618 1.39791 84.9544L1.40471 84.9493Z" fill="white"/>
<path opacity="0.1" d="M-7.79319 89.6342C-8.11546 89.0357 -8.31478 88.3788 -8.37943 87.7022C-8.44002 87.021 -8.36612 86.3345 -8.16193 85.6818C-7.95666 85.0274 -7.62145 84.4211 -7.17637 83.8993C-6.73289 83.3739 -6.18867 82.9426 -5.5758 82.6309C-4.96293 82.3192 -4.29384 82.1334 -3.60801 82.0845C-2.92395 82.0324 -2.23638 82.1179 -1.58593 82.336C-0.938367 82.5569 -0.34073 82.9034 0.172765 83.3556C0.682011 83.8057 1.09573 84.3535 1.38941 84.9664C0.915802 84.0731 0.19099 83.338 -0.695572 82.8518C-1.58213 82.3657 -2.59165 82.1497 -3.59951 82.2307C-4.93924 82.3465 -6.18155 82.9783 -7.06422 83.9928C-7.72222 84.7594 -8.14178 85.7017 -8.2713 86.7037C-8.40081 87.7057 -8.23463 88.7237 -7.79319 89.6325V89.6342Z" fill="black"/>
<path d="M34.4835 50.1731H14.9051C14.3749 50.178 13.8684 50.3933 13.4969 50.7715C13.1254 51.1497 12.9192 51.6599 12.9238 52.1901V92.4956C12.9197 93.0256 13.126 93.5356 13.4974 93.9137C13.8688 94.2919 14.3751 94.5072 14.9051 94.5126H34.4835C34.7465 94.5108 35.0066 94.4572 35.2489 94.3549C35.4912 94.2525 35.7109 94.1034 35.8955 93.9161C36.0802 93.7288 36.2261 93.5069 36.3249 93.2632C36.4238 93.0195 36.4736 92.7586 36.4716 92.4956V52.1901C36.4738 51.927 36.4242 51.6661 36.3254 51.4222C36.2266 51.1784 36.0807 50.9564 35.896 50.7691C35.7114 50.5817 35.4915 50.4326 35.2491 50.3304C35.0068 50.2281 34.7466 50.1747 34.4835 50.1731ZM35.2278 91.2484C35.2278 92.3104 34.4342 93.1685 33.4538 93.1685H15.9382C14.956 93.1685 14.1608 92.3104 14.1608 91.2484V53.7177C14.1608 51.5563 14.956 51.4509 15.9382 51.4509H19.4454C19.6493 51.4509 19.8175 51.682 19.8175 51.9607V52.0847C19.8175 52.7644 20.1845 52.7644 20.6382 52.7644H28.752C29.2074 52.7644 29.5728 52.7644 29.5728 52.0847V51.9607C29.5728 51.6735 29.7427 51.4509 29.9449 51.4509H33.4538C34.4342 51.4509 35.2278 51.7381 35.2278 53.7177V91.2484Z" fill="#263238"/>
<path d="M25.8022 51.9284H23.5932C23.5571 51.9284 23.5225 51.914 23.4971 51.8885C23.4716 51.8631 23.4572 51.8285 23.4572 51.7924C23.457 51.7744 23.4604 51.7566 23.4671 51.7399C23.4738 51.7232 23.4838 51.708 23.4965 51.6952C23.5091 51.6824 23.5242 51.6722 23.5408 51.6653C23.5574 51.6584 23.5752 51.6548 23.5932 51.6548H25.8022C25.8202 51.6548 25.838 51.6584 25.8546 51.6653C25.8712 51.6722 25.8863 51.6824 25.8989 51.6952C25.9115 51.708 25.9215 51.7232 25.9283 51.7399C25.935 51.7566 25.9383 51.7744 25.9381 51.7924C25.9381 51.8285 25.9238 51.8631 25.8983 51.8885C25.8728 51.914 25.8382 51.9284 25.8022 51.9284Z" fill="#455A64"/>
<path d="M35.2295 53.7177V91.2484C35.2295 92.3104 34.4342 93.1685 33.4538 93.1685H15.9382C14.956 93.1685 14.1625 92.3104 14.1625 91.2484V53.7177C14.1625 51.5563 14.956 51.4509 15.9382 51.4509H19.4471C19.651 51.4509 19.8175 51.682 19.8175 51.9607V52.0847C19.8175 52.7644 20.1845 52.7644 20.6382 52.7644H28.752C29.2091 52.7644 29.5728 52.7644 29.5728 52.0847V51.9607C29.5728 51.6735 29.7427 51.4509 29.9449 51.4509H33.4538C34.4325 51.4509 35.2295 51.7381 35.2295 53.7177Z" fill="white"/>
<path d="M35.2295 53.7177V55.908H14.1591V53.7177C14.1591 51.5563 14.9526 51.4509 15.9348 51.4509H19.4437C19.6476 51.4509 19.8141 51.682 19.8141 51.9607V52.0847C19.8141 52.7644 20.1811 52.7644 20.6348 52.7644H28.7486C29.2057 52.7644 29.5694 52.7644 29.5694 52.0847V51.9607C29.5694 51.6735 29.7393 51.4509 29.9415 51.4509H33.4504C34.4325 51.4509 35.2295 51.7381 35.2295 53.7177Z" fill="#EE6F57"/>
<path d="M18.8405 52.2937L18.8065 52.3277C18.8011 52.3347 18.7948 52.341 18.7878 52.3464C18.7009 52.2599 18.5833 52.2114 18.4607 52.2114C18.3381 52.2114 18.2205 52.2599 18.1336 52.3464L18.12 52.3243L18.086 52.292C18.0993 52.2781 18.1135 52.2651 18.1285 52.2529C18.1588 52.2283 18.1919 52.2072 18.2271 52.1901C18.2691 52.1695 18.3136 52.1547 18.3596 52.1459H18.4242H18.4819H18.5278C18.5993 52.154 18.6682 52.1772 18.73 52.2138C18.7572 52.2294 18.7828 52.2476 18.8065 52.2682L18.8422 52.3005L18.8405 52.2937Z" fill="white"/>
<path d="M18.2423 52.4535L18.188 52.4008C18.2471 52.3412 18.324 52.3025 18.4072 52.2904C18.4662 52.2818 18.5265 52.2871 18.5832 52.306C18.6399 52.3249 18.6913 52.3568 18.7334 52.3991L18.6807 52.4535C18.6225 52.3956 18.5437 52.3631 18.4615 52.3631C18.3794 52.3631 18.3006 52.3956 18.2423 52.4535Z" fill="white"/>
<path d="M18.6298 52.5079L18.5771 52.5605C18.5626 52.5454 18.5452 52.5334 18.5259 52.5252C18.5066 52.517 18.4859 52.5129 18.4649 52.5129C18.423 52.5144 18.383 52.5314 18.3528 52.5605L18.2984 52.5079C18.32 52.4857 18.3457 52.4681 18.3742 52.4561C18.4026 52.4441 18.4332 52.4379 18.4641 52.4379C18.495 52.4379 18.5256 52.4441 18.554 52.4561C18.5825 52.4681 18.6082 52.4857 18.6298 52.5079Z" fill="white"/>
<path d="M18.5106 52.6089C18.5106 52.6219 18.5056 52.6344 18.4965 52.6437C18.4875 52.6531 18.4752 52.6586 18.4622 52.659C18.4507 52.6568 18.4404 52.6507 18.4329 52.6418C18.4255 52.6328 18.4214 52.6215 18.4214 52.6098C18.4214 52.5981 18.4255 52.5868 18.4329 52.5778C18.4404 52.5688 18.4507 52.5627 18.4622 52.5605C18.4749 52.561 18.487 52.5662 18.4959 52.5752C18.5049 52.5842 18.5102 52.5962 18.5106 52.6089Z" fill="white"/>
<path d="M15.5355 52.3974C15.5355 52.3698 15.5436 52.3429 15.559 52.32C15.5743 52.2971 15.596 52.2792 15.6215 52.2687C15.6469 52.2581 15.675 52.2554 15.702 52.2607C15.729 52.2661 15.7538 52.2794 15.7733 52.2989C15.7928 52.3184 15.8061 52.3432 15.8115 52.3702C15.8168 52.3972 15.8141 52.4253 15.8035 52.4507C15.793 52.4762 15.7751 52.4979 15.7522 52.5132C15.7293 52.5286 15.7024 52.5367 15.6748 52.5367C15.638 52.5363 15.6028 52.5215 15.5768 52.4954C15.5507 52.4694 15.5359 52.4342 15.5355 52.3974Z" fill="white"/>
<path d="M15.9756 52.3974C15.9756 52.3698 15.9838 52.3429 15.9991 52.32C16.0144 52.2971 16.0361 52.2792 16.0616 52.2687C16.0871 52.2581 16.1151 52.2554 16.1421 52.2607C16.1691 52.2661 16.194 52.2794 16.2135 52.2989C16.2329 52.3184 16.2462 52.3432 16.2516 52.3702C16.257 52.3972 16.2542 52.4253 16.2437 52.4507C16.2331 52.4762 16.2152 52.4979 16.1923 52.5132C16.1694 52.5286 16.1425 52.5367 16.1149 52.5367C16.078 52.5367 16.0425 52.522 16.0164 52.4959C15.9903 52.4698 15.9756 52.4343 15.9756 52.3974Z" fill="white"/>
<path d="M16.4208 52.3974C16.4208 52.3698 16.4289 52.3429 16.4443 52.32C16.4596 52.2971 16.4813 52.2792 16.5068 52.2687C16.5323 52.2581 16.5603 52.2554 16.5873 52.2607C16.6143 52.2661 16.6392 52.2794 16.6586 52.2989C16.6781 52.3184 16.6914 52.3432 16.6968 52.3702C16.7022 52.3972 16.6994 52.4253 16.6888 52.4507C16.6783 52.4762 16.6604 52.4979 16.6375 52.5132C16.6146 52.5286 16.5877 52.5367 16.5601 52.5367C16.5232 52.5367 16.4877 52.522 16.4616 52.4959C16.4355 52.4698 16.4208 52.4343 16.4208 52.3974Z" fill="white"/>
<path d="M16.8541 52.3974C16.8537 52.3693 16.8618 52.3418 16.8771 52.3184C16.8925 52.2949 16.9145 52.2766 16.9404 52.2657C16.9662 52.2548 16.9947 52.2519 17.0222 52.2573C17.0497 52.2627 17.075 52.2761 17.0948 52.2959C17.1147 52.3158 17.1281 52.3411 17.1335 52.3686C17.1389 52.3961 17.136 52.4246 17.1251 52.4504C17.1142 52.4763 17.0959 52.4983 17.0724 52.5136C17.0489 52.529 17.0214 52.537 16.9934 52.5367C16.9566 52.5363 16.9214 52.5214 16.8954 52.4954C16.8693 52.4694 16.8545 52.4342 16.8541 52.3974Z" fill="white"/>
<path d="M17.2942 52.3974C17.2942 52.3604 17.3089 52.325 17.335 52.2989C17.3611 52.2727 17.3966 52.2581 17.4335 52.2581C17.4705 52.2581 17.5059 52.2727 17.5321 52.2989C17.5582 52.325 17.5729 52.3604 17.5729 52.3974C17.5729 52.4343 17.5582 52.4698 17.5321 52.4959C17.5059 52.522 17.4705 52.5367 17.4335 52.5367C17.3966 52.5367 17.3611 52.522 17.335 52.4959C17.3089 52.4698 17.2942 52.4343 17.2942 52.3974Z" fill="white"/>
<path d="M33.6492 52.7016H32.5107V52.1748H33.6492V52.7016ZM32.5702 52.6421H33.5897V52.2343H32.5702V52.6421Z" fill="white"/>
<path d="M33.3382 52.2649H32.6059V52.6132H33.3382V52.2649Z" fill="white"/>
<path d="M33.7494 52.2971H33.6492V52.5792H33.7494V52.2971Z" fill="white"/>
<path d="M33.6679 93.1532C33.597 93.1635 33.5254 93.1686 33.4538 93.1685H26.2508C26.2508 93.1396 26.2372 93.1107 26.2321 93.0818C26.227 93.0529 26.2134 93.0003 26.2049 92.9595C26.1964 92.9187 26.1862 92.8677 26.176 92.8236C25.1361 87.9825 24.2304 82.2527 23.916 80.8474C23.5347 79.8991 23.2123 78.9282 22.9509 77.9401C22.9356 77.8874 22.922 77.833 22.9067 77.7786C22.7979 77.3589 22.6909 76.912 22.5957 76.4464C22.4751 75.8619 22.3731 75.257 22.3035 74.6249C22.3035 74.6249 28.142 74.6249 30.0791 74.6249H30.6942L30.7061 74.647C30.9921 75.2272 31.2384 75.8262 31.4436 76.4397C31.9533 77.9333 32.4189 80.0794 31.7596 81.8092C31.6696 82.0437 32.8268 89.9077 33.6679 93.1532Z" fill="#37474F"/>
<path d="M28.1998 93.1685H28.0044C27.9296 92.6945 27.8582 92.2204 27.7818 91.748C27.5031 90.0046 27.225 88.2606 26.9475 86.5161L26.9373 86.4515L26.8914 86.1694C26.8761 86.0709 26.8591 85.9706 26.8438 85.8704C26.7317 85.1907 26.6212 84.5212 26.5379 83.8432C26.4666 83.2706 26.3782 82.7013 26.2899 82.1304L26.2542 81.9095C26.2134 81.6546 26.1743 81.3997 26.1352 81.1414C26.1029 80.9222 26.0707 80.7013 26.0418 80.4805C26.0418 80.4346 26.103 80.4142 26.1115 80.4618C26.2015 80.9443 26.2814 81.4303 26.3612 81.9146L26.3969 82.1372C26.4479 82.4549 26.4989 82.7744 26.5515 83.0922C26.6263 83.5391 26.7215 83.9808 26.7979 84.4277C26.8387 84.6707 26.8778 84.9137 26.9169 85.155C26.9322 85.2553 26.9492 85.3555 26.9645 85.4541C26.9797 85.5526 26.9967 85.6478 27.012 85.7446V85.7718C27.2941 87.5288 27.5745 89.2847 27.8532 91.0394C27.9687 91.7508 28.0842 92.4605 28.1998 93.1685Z" fill="#263238"/>
<path d="M30.7061 74.6249V74.6469C30.679 75.2519 30.6183 75.855 30.5243 76.4532C30.3102 77.8619 29.8446 79.8347 28.8251 81.4557C28.8251 81.4557 28.4852 81.5832 28.1063 81.748C27.8362 81.8598 27.5719 81.9851 27.3145 82.1235H27.3043C27.3043 82.1235 27.3043 82.1456 27.3043 82.1898C27.272 82.4923 27.1344 83.799 26.9644 85.4438C26.9407 85.6766 26.9169 85.9145 26.8914 86.1592C26.6501 88.5381 26.3629 91.3809 26.2117 92.9561C26.2049 93.0286 26.1981 93.0982 26.1913 93.1651H19.114C19.2058 91.4132 19.6986 82.9969 21.272 76.8321C21.3077 76.6962 21.3434 76.5603 21.3791 76.4277C21.3944 76.3683 21.4114 76.3088 21.4284 76.2493C21.4946 76.0012 21.5643 75.7565 21.6357 75.5169C21.6357 75.5169 21.6357 75.5051 21.6357 75.4983L21.6918 75.313C21.7648 75.0769 21.8396 74.8458 21.9161 74.6215L30.7061 74.6249Z" fill="#37474F"/>
<path d="M23.498 75.3539C23.4085 75.7198 23.3241 76.0857 23.2448 76.4516C23.1378 76.946 23.0409 77.4422 22.9509 77.9401C22.7334 79.1397 22.56 80.3462 22.4054 81.5543C22.1437 83.6189 21.8957 85.6868 21.6849 87.7565C21.5014 89.5577 21.3604 91.3617 21.2618 93.1685H21.0783C21.3094 89.4897 21.7087 85.8262 22.1981 82.1711C22.3935 80.7013 22.611 79.2332 22.9067 77.7786C22.9967 77.3352 23.0936 76.8917 23.199 76.4516C23.2873 76.0828 23.3808 75.7158 23.4827 75.3505L23.498 75.3539Z" fill="#263238"/>
<path d="M21.4097 76.2596C21.4097 76.256 21.4111 76.2525 21.4137 76.25C21.4162 76.2474 21.4197 76.246 21.4233 76.246C21.4269 76.246 21.4303 76.2474 21.4329 76.25C21.4354 76.2525 21.4369 76.256 21.4369 76.2596C21.4029 76.7591 21.3179 77.3046 21.5405 77.7753C21.7359 78.1916 22.1098 78.4261 22.453 78.7064C22.4632 78.7064 22.453 78.7319 22.4394 78.7285C21.9823 78.5909 21.5269 78.3377 21.3485 77.8704C21.1463 77.3505 21.255 76.7795 21.4097 76.2596Z" fill="#263238"/>
<path d="M25.2176 81.8755C25.584 81.8642 25.9506 81.8767 26.3153 81.9129C26.6733 81.9324 27.0323 81.9256 27.3892 81.8925C27.5684 81.8758 27.7461 81.8462 27.9211 81.8041C28.1029 81.7617 28.2745 81.6937 28.4547 81.6444C28.6185 81.6087 28.7888 81.6157 28.9491 81.6648C29.1394 81.7073 29.3298 81.7362 29.5235 81.7617C29.9634 81.8265 30.4096 81.8379 30.8523 81.7956C30.8692 81.7956 30.8777 81.8194 30.8523 81.8228C30.4802 81.9017 30.1009 81.941 29.7206 81.9401C29.5259 81.9362 29.3317 81.9186 29.1394 81.8874C28.962 81.8374 28.7782 81.8139 28.594 81.8177C28.4138 81.8649 28.2363 81.9217 28.0621 81.9877C27.8852 82.0363 27.7053 82.0732 27.5235 82.0981C27.159 82.1451 26.7908 82.1565 26.4241 82.1321C26.0094 82.1208 25.5978 82.0574 25.1989 81.9435C25.1934 81.9386 25.1893 81.9323 25.1872 81.9253C25.185 81.9182 25.1849 81.9107 25.1869 81.9036C25.1888 81.8965 25.1928 81.8901 25.1982 81.8851C25.2036 81.8801 25.2104 81.8768 25.2176 81.8755Z" fill="#263238"/>
<path d="M27.2958 82.0454C27.2958 82.0743 27.2958 82.1015 27.2958 82.1304C27.2958 82.1592 27.2958 82.1762 27.2958 82.2C27.2771 82.9103 27.2007 83.6206 27.1412 84.3292C27.1004 84.8106 27.0585 85.2915 27.0154 85.7718C26.9916 86.0199 26.9696 86.268 26.9458 86.5161C26.9458 86.5483 26.9458 86.5789 26.9373 86.6112C26.7945 88.1405 26.6586 89.6545 26.4802 91.1719C26.4292 91.6035 26.3765 92.0334 26.3205 92.465C26.2933 92.6706 26.261 92.8762 26.2304 93.0818C26.2304 93.1107 26.2304 93.1396 26.2168 93.1685H26.1505C26.159 93.0547 26.1675 92.9391 26.1743 92.8287C26.2066 92.3784 26.2355 91.9281 26.2763 91.4795C26.3459 90.7199 26.4224 89.9587 26.5006 89.1991C26.6178 88.0912 26.7283 86.9901 26.8404 85.8755C26.8642 85.6359 26.888 85.398 26.9135 85.1601C26.9305 84.9902 26.9475 84.8202 26.9662 84.6384C27.0511 83.8058 27.114 82.9664 27.2465 82.1389C27.2465 82.1083 27.2465 82.0794 27.2601 82.0488C27.2609 82.0448 27.2629 82.0412 27.2659 82.0385C27.2689 82.0358 27.2727 82.0342 27.2767 82.0338C27.2807 82.0334 27.2847 82.0343 27.2882 82.0364C27.2916 82.0385 27.2943 82.0417 27.2958 82.0454Z" fill="#263238"/>
<path d="M21.9721 71.7702L21.2584 75.5918C21.2584 75.5918 29.7189 75.7107 31.707 75.5714C31.707 75.5714 29.6288 67.4797 27.4929 65.1585C26.4241 63.9997 25.1684 64.0863 24.3697 64.8969C24.1675 65.1025 21.7529 68.2953 21.498 69.512C21.2771 70.5876 21.9721 71.7702 21.9721 71.7702Z" fill="#DBDBDB"/>
<path d="M27.6016 73.0549C27.5156 73.136 27.4468 73.2337 27.3994 73.342C27.5073 73.2938 27.6049 73.2252 27.6866 73.1398C27.7709 73.0572 27.8394 72.9599 27.8888 72.8527C27.7804 72.9 27.6828 72.9688 27.6016 73.0549ZM25.0069 64.936C24.9212 65.0174 24.8525 65.115 24.8047 65.2231C24.9118 65.1743 25.0092 65.1064 25.0919 65.0226C25.1758 64.9397 25.2442 64.8424 25.2941 64.7355C25.1858 64.7822 25.0881 64.8504 25.0069 64.936ZM22.5499 72.1084C22.4638 72.1895 22.395 72.2872 22.3477 72.3956C22.456 72.3482 22.5537 72.2794 22.6348 72.1934C22.7202 72.1116 22.7888 72.0141 22.837 71.9062C22.7287 71.9535 22.631 72.0223 22.5499 72.1084ZM23.1259 74.2579C23.0426 74.1741 22.9447 74.1062 22.837 74.0574C22.9373 74.2737 23.1114 74.4472 23.3281 74.5468C23.2777 74.4397 23.2093 74.342 23.1259 74.2579ZM25.8939 68.9767C25.812 68.8921 25.7145 68.824 25.6068 68.7762C25.7065 68.992 25.88 69.165 26.0961 69.2639C26.0469 69.1566 25.9784 69.0593 25.8939 68.9767ZM30.0689 74.2443C29.9528 74.2429 29.8374 74.2637 29.7291 74.3055C29.8375 74.3468 29.9529 74.367 30.0689 74.365C30.1849 74.3664 30.3002 74.3462 30.4088 74.3055C30.3003 74.2642 30.185 74.2435 30.0689 74.2443ZM27.9908 70.1322C27.8719 70.1311 27.7538 70.1519 27.6424 70.1934C27.7538 70.2349 27.8719 70.2556 27.9908 70.2545C28.1069 70.2558 28.2222 70.235 28.3306 70.1934C28.222 70.1525 28.1068 70.1318 27.9908 70.1322ZM23.4776 69.6343C23.3616 69.6339 23.2464 69.6546 23.1378 69.6955C23.2464 69.7364 23.3616 69.7571 23.4776 69.7567C23.5965 69.7578 23.7146 69.737 23.826 69.6955C23.7148 69.6532 23.5966 69.6324 23.4776 69.6343ZM25.6068 74.1797C25.4907 74.1795 25.3756 74.2002 25.2669 74.2409C25.3756 74.2816 25.4907 74.3023 25.6068 74.3021C25.7229 74.3033 25.8382 74.2825 25.9466 74.2409C25.838 74.2001 25.7228 74.1794 25.6068 74.1797ZM25.9466 66.4721C25.8306 66.4717 25.7154 66.4924 25.6068 66.5332C25.8301 66.6148 26.075 66.6148 26.2983 66.5332C26.1881 66.4918 26.0712 66.471 25.9534 66.4721H25.9466ZM23.651 66.7813C23.5671 67.0042 23.5671 67.25 23.651 67.4729C23.691 67.3641 23.7117 67.2491 23.7121 67.1331C23.7162 67.0135 23.6978 66.8941 23.6578 66.7813H23.651ZM27.6985 75.4644C27.6759 75.5189 27.6599 75.5759 27.6509 75.6343H27.7444C27.7375 75.5764 27.7243 75.5194 27.7053 75.4644H27.6985ZM25.3791 71.3386C25.2998 71.5624 25.2998 71.8065 25.3791 72.0302C25.4201 71.9217 25.4408 71.8065 25.4402 71.6904C25.4429 71.5703 25.4222 71.4508 25.3791 71.3386ZM29.9058 71.3386C29.8634 71.4469 29.8426 71.5623 29.8446 71.6785C29.8432 71.7946 29.864 71.91 29.9058 72.0183C29.9851 71.7946 29.9851 71.5505 29.9058 71.3268V71.3386ZM28.1131 67.3778C28.0321 67.6018 28.0321 67.847 28.1131 68.071C28.154 67.9624 28.1747 67.8473 28.1743 67.7312C28.1774 67.6105 28.1566 67.4904 28.1131 67.3778Z" fill="#C7C7C7"/>
<path d="M21.0834 63.1365C21.0781 64.3583 20.7107 65.5511 20.0278 66.5643C19.3449 67.5775 18.3771 68.3656 17.2466 68.829C16.1161 69.2925 14.8735 69.4106 13.676 69.1683C12.4784 68.926 11.3795 68.3343 10.518 67.4678C9.6565 66.6014 9.07111 65.499 8.83574 64.3001C8.60037 63.1011 8.72558 61.8593 9.19555 60.7315C9.66553 59.6036 10.4592 58.6404 11.4763 57.9633C12.4934 57.2863 13.6883 56.9258 14.9102 56.9275C15.7235 56.9288 16.5285 57.0906 17.2792 57.4035C18.0299 57.7165 18.7115 58.1744 19.285 58.7512C19.8584 59.328 20.3125 60.0122 20.6211 60.7647C20.9297 61.5172 21.0868 62.3231 21.0834 63.1365Z" fill="#EE6F57"/>
<g opacity="0.1">
<path d="M14.9102 57.3693C13.5512 57.3663 12.2353 57.8461 11.1971 58.7231C10.1589 59.6001 9.46587 60.8173 9.24158 62.1577C9.1948 62.4346 9.16867 62.7146 9.16342 62.9954C9.16342 63.0158 9.16342 63.0379 9.16342 63.06V63.1092C9.16235 63.6301 9.23267 64.1487 9.37242 64.6504C9.38261 64.6878 9.39281 64.7252 9.4047 64.7626C9.67276 65.6567 10.1549 66.472 10.8093 67.1376C11.4637 67.8032 12.2706 68.2992 13.16 68.5824C14.0494 68.8657 14.9945 68.9277 15.9134 68.763C16.8322 68.5984 17.6969 68.2121 18.4327 67.6377C18.465 67.6122 18.4989 67.5867 18.5295 67.5595C18.6923 67.427 18.8477 67.2858 18.9951 67.1364C19.0308 67.1007 19.0665 67.0633 19.1005 67.026C19.8632 66.2088 20.3708 65.1868 20.5608 64.0852C20.7509 62.9837 20.6152 61.8506 20.1704 60.8251C19.7256 59.7996 18.991 58.9263 18.0569 58.3124C17.1228 57.6985 16.0297 57.3707 14.9119 57.3693H14.9102ZM17.9688 58.9767C18.1695 59.1272 18.3592 59.2919 18.5363 59.4695C18.5519 59.4839 18.5667 59.4993 18.5805 59.5154C19.5322 60.4895 20.0588 61.8012 20.0448 63.1629C20.0308 64.5247 19.4773 65.8253 18.5057 66.7796L18.4038 66.8747C18.2686 67.003 18.1256 67.1227 17.9756 67.2333L17.8974 67.291C17.7728 67.3817 17.6454 67.4649 17.5151 67.5408C16.6733 68.0387 15.7077 68.2879 14.7301 68.2596C13.6791 68.2297 12.6636 67.8734 11.8244 67.2401C11.6864 67.1383 11.5542 67.0288 11.4285 66.9121L11.3656 66.8543C11.0194 66.5278 10.7193 66.1556 10.4735 65.7481C10.4689 65.7417 10.4649 65.7349 10.4616 65.7278C10.3488 65.5381 10.2489 65.3411 10.1626 65.1381C10.1507 65.1143 10.1405 65.0905 10.1303 65.0668C9.89212 64.4934 9.76138 63.8811 9.74455 63.2605C9.74455 63.2231 9.74455 63.184 9.74455 63.1449C9.74455 63.1058 9.74455 63.0345 9.74455 62.975C9.75227 62.6584 9.78982 62.3432 9.8567 62.0336C10.0347 61.1955 10.4189 60.4151 10.9745 59.7629C11.5302 59.1107 12.2397 58.6073 13.0388 58.2984C13.838 57.9895 14.7016 57.8848 15.5514 57.9938C16.4013 58.1027 17.2105 58.4219 17.9059 58.9224L17.9688 58.9767Z" fill="black"/>
<path d="M17.4131 64.2341C17.4181 63.9915 17.3512 63.7529 17.2209 63.5482C17.0906 63.3435 16.9027 63.1819 16.6808 63.0838C16.5975 63.043 16.5108 63.0124 16.4123 62.9716L16.6094 62.8714C16.7361 62.8112 16.8472 62.7226 16.9339 62.6123C17.0205 62.502 17.0805 62.3732 17.109 62.2358C17.1315 62.1238 17.1457 62.0102 17.1514 61.896C17.1973 61.2639 16.9068 60.8085 16.3018 60.6131C16.064 60.5476 15.8214 60.501 15.5763 60.4737C15.493 60.4619 15.4624 60.4415 15.4641 60.3565C15.4641 60.1254 15.4641 59.896 15.4641 59.6649V59.495H14.8745V60.4483H14.4395V59.4967H13.8516V60.4619H12.3919V61.4525H12.8218V64.8509H12.3936V65.845H13.8601V66.7167H14.4531V65.8501C14.5652 65.8501 14.6672 65.8501 14.7674 65.8501H14.7963C14.8184 65.8475 14.8407 65.853 14.8592 65.8654C14.8796 65.879 14.8847 65.9045 14.8847 65.9435V66.0166C14.8847 66.1865 14.8847 66.3565 14.8847 66.5264V66.7388H15.3945C15.4539 66.7388 15.4692 66.7065 15.4692 66.6504C15.4692 66.4244 15.4692 66.1967 15.4692 65.9707C15.4692 65.8756 15.4998 65.8552 15.5882 65.8518C15.7757 65.8471 15.9626 65.8278 16.1472 65.794C16.3298 65.7598 16.5074 65.7027 16.6757 65.6241C16.8228 65.5599 16.9554 65.4666 17.0655 65.3498C17.1756 65.2329 17.2609 65.0951 17.3163 64.9444C17.3967 64.7167 17.4297 64.475 17.4131 64.2341ZM14.4225 62.054C14.4225 61.8841 14.4225 61.7142 14.4225 61.5528C14.4225 61.4899 14.4429 61.4661 14.5075 61.4678C14.64 61.4678 14.7725 61.4678 14.9051 61.4678C15.0121 61.4655 15.1174 61.4951 15.2075 61.5528C15.2267 61.5648 15.2449 61.5785 15.2619 61.5935C15.2673 61.5972 15.2719 61.6018 15.2755 61.6071C15.2903 61.6202 15.3035 61.635 15.3146 61.6513C15.3274 61.666 15.3388 61.682 15.3486 61.6989C15.3572 61.7117 15.3646 61.7254 15.3707 61.7397C15.3993 61.8007 15.4172 61.8662 15.4233 61.9334C15.4321 62.055 15.4247 62.1773 15.4012 62.297C15.3872 62.3859 15.3427 62.4671 15.2755 62.5269C15.2083 62.5867 15.1224 62.6214 15.0325 62.625C14.8626 62.6369 14.6927 62.625 14.5228 62.6369H14.4973C14.4361 62.6369 14.4191 62.6114 14.4208 62.5553C14.4242 62.3888 14.4225 62.2222 14.4225 62.054ZM14.4225 64.7728V64.7286C14.4225 64.6878 14.4225 64.647 14.4225 64.6063C14.4225 64.2664 14.4225 63.9266 14.4225 63.5782C14.4225 63.5154 14.4429 63.4916 14.5075 63.4933C14.6043 63.4933 14.7029 63.4933 14.7997 63.4933H14.9985C15.1296 63.4905 15.2591 63.5221 15.3741 63.585L15.4047 63.602C15.4316 63.6199 15.4571 63.6398 15.4811 63.6615C15.5644 63.743 15.6254 63.8446 15.6581 63.9565C15.6909 64.0684 15.6943 64.1868 15.668 64.3004C15.6494 64.4547 15.5737 64.5965 15.4557 64.6978C15.3378 64.7991 15.1862 64.8525 15.0308 64.8475C14.8864 64.8475 14.7403 64.8475 14.5958 64.8475H14.5194C14.4514 64.8611 14.4208 64.8424 14.4225 64.766V64.7728Z" fill="black"/>
</g>
<path d="M18.5448 59.4695C19.036 59.9393 19.4283 60.5026 19.6986 61.1262C19.9685 61.7568 20.1101 62.4349 20.115 63.1208C20.1199 63.8067 19.9881 64.4867 19.7272 65.1211C19.4663 65.7554 19.0817 66.3315 18.5956 66.8155C18.1096 67.2995 17.532 67.6818 16.8966 67.9401C16.2608 68.2018 15.5789 68.333 14.8915 68.3258C14.2081 68.3171 13.5331 68.1739 12.9051 67.9044C12.2819 67.6327 11.7192 67.2393 11.25 66.7473C11.9771 67.4486 12.8932 67.9222 13.8857 68.11C14.8783 68.2978 15.9041 68.1915 16.8371 67.8042C17.7643 67.4175 18.5575 66.7667 19.1179 65.9329C19.6783 65.0991 19.9813 64.1189 19.9891 63.1143C20.0003 61.7577 19.4822 60.4502 18.5448 59.4695Z" fill="white"/>
<path opacity="0.1" d="M11.2178 66.7389C10.7281 66.2669 10.3376 65.7019 10.0691 65.0771C9.80297 64.4478 9.66325 63.7722 9.65788 63.089C9.65352 62.4032 9.78761 61.7235 10.0521 61.0907C10.3145 60.4556 10.7009 59.8791 11.1887 59.3951C11.6766 58.911 12.256 58.5291 12.8932 58.2717C13.5271 58.0127 14.2068 57.8844 14.8915 57.8945C15.5753 57.9041 16.2504 58.049 16.8779 58.321C17.5 58.5942 18.0611 58.9894 18.5278 59.4832C17.8036 58.7793 16.8892 58.3026 15.8974 58.1118C14.9056 57.9209 13.8796 58.0244 12.9459 58.4093C11.706 58.9302 10.7163 59.9114 10.1846 61.1468C9.79366 62.078 9.68284 63.1031 9.86574 64.0964C10.0486 65.0897 10.5173 66.008 11.2144 66.7389H11.2178Z" fill="black"/>
<path d="M12.397 61.4509C12.397 61.3677 12.3885 61.281 12.3851 61.2028C12.3817 61.1247 12.3851 61.0329 12.3749 60.9547L12.3631 60.4603V60.4263H12.3987C12.8847 60.4178 13.3724 60.4178 13.8584 60.4263L13.8244 60.4603L13.8363 59.9777L13.8465 59.7364C13.8465 59.6548 13.8465 59.5665 13.8584 59.4934C13.8584 59.575 13.8669 59.6548 13.8703 59.7364L13.872 59.9709L13.8839 60.4535V60.4875H13.8482C13.3622 60.4875 12.8745 60.4875 12.3885 60.4875L12.4225 60.4535L12.4106 60.9479C12.4106 61.0312 12.4106 61.1179 12.4004 61.196C12.3902 61.2742 12.4021 61.3677 12.397 61.4509Z" fill="white"/>
<path d="M12.3936 65.8518C12.3936 65.6818 12.3817 65.5204 12.3766 65.3539C12.3715 65.1874 12.3766 65.0225 12.3664 64.8577V64.8305H12.3936H12.8269L12.7929 64.8645V64.0149C12.7929 63.7294 12.7929 63.4457 12.7929 63.1653C12.7929 62.8849 12.7929 62.5977 12.8048 62.3157C12.8167 62.0336 12.8184 61.7481 12.8286 61.4661C12.84 61.7493 12.8485 62.0325 12.8541 62.3157C12.8541 62.5994 12.8643 62.8832 12.8643 63.1653C12.8643 63.4474 12.8643 63.7328 12.8643 64.0149V64.8645V64.8985H12.8303H12.397L12.4242 64.8713C12.4242 65.0412 12.4242 65.2027 12.414 65.3675C12.4038 65.5323 12.4004 65.6852 12.3936 65.8518Z" fill="white"/>
<path d="M14.5211 64.8596C14.6145 64.8596 14.7097 64.846 14.8031 64.8392L15.0869 64.829C15.1751 64.8214 15.2606 64.7945 15.3372 64.7501C15.4139 64.7058 15.4798 64.6451 15.5304 64.5724C15.6301 64.4224 15.6695 64.2404 15.6408 64.0626C15.6295 63.9721 15.6 63.8849 15.5542 63.806C15.5101 63.7236 15.4486 63.6517 15.3741 63.5953C15.4592 63.6424 15.5328 63.7079 15.5895 63.7869C15.6463 63.866 15.6847 63.9567 15.702 64.0524C15.7243 64.1495 15.7264 64.2501 15.7083 64.348C15.6902 64.4459 15.6522 64.539 15.5967 64.6217C15.5395 64.7042 15.4634 64.7719 15.3747 64.8189C15.286 64.8659 15.1873 64.8909 15.0869 64.8918C14.8915 64.885 14.7097 64.8766 14.5211 64.8596Z" fill="white"/>
<path d="M14.5211 62.6385C14.6757 62.6232 14.8337 62.613 14.9849 62.6063C15.0565 62.5948 15.1245 62.5668 15.1834 62.5247C15.2424 62.4825 15.2908 62.4273 15.3248 62.3633C15.392 62.2312 15.4135 62.0806 15.386 61.9351C15.363 61.784 15.2955 61.6432 15.1923 61.5306C15.3211 61.6305 15.4117 61.7716 15.4488 61.9303C15.486 62.089 15.4673 62.2557 15.3962 62.4023C15.3565 62.4764 15.2991 62.5395 15.2291 62.5861C15.1592 62.6326 15.0788 62.6612 14.9951 62.6691C14.8286 62.6674 14.6774 62.6538 14.5211 62.6385Z" fill="white"/>
<path d="M13.86 65.8518C13.8888 65.995 13.9024 66.1408 13.9008 66.2868C13.9033 66.4334 13.8896 66.5799 13.86 66.7235C13.8057 66.4355 13.8057 66.1398 13.86 65.8518Z" fill="white"/>
<path d="M14.8592 65.8638C14.9136 66.1501 14.9136 66.4441 14.8592 66.7304C14.8048 66.4441 14.8048 66.1501 14.8592 65.8638Z" fill="white"/>
<path d="M26.4462 64.5588C26.3952 64.7287 25.5082 65.7652 24.747 65.6752C24.4955 65.6446 24.5991 64.2682 24.5991 64.2682L24.5838 64.1646L24.3663 62.7168L26.1165 61.7619L26.368 61.6378C26.368 61.6378 26.402 62.0371 26.4394 62.535C26.4394 62.5588 26.4394 62.5809 26.4394 62.6064C26.4394 62.6319 26.4394 62.6607 26.4394 62.6879C26.4394 62.761 26.4513 62.8375 26.4564 62.9139C26.4615 62.9904 26.4564 63.0278 26.4666 63.0839C26.4768 63.1399 26.4666 63.2045 26.4666 63.2657C26.4888 63.6967 26.482 64.1287 26.4462 64.5588Z" fill="#F7A9A0"/>
<path d="M26.4292 62.5401C26.2566 62.9295 26.0016 63.2768 25.6819 63.5581C25.3621 63.8394 24.9852 64.0481 24.577 64.1697L24.3595 62.722L26.1097 61.767L26.3612 61.6429C26.3612 61.6429 26.3918 62.0423 26.4292 62.5401Z" fill="#263238"/>
<path d="M22.6382 59.784C21.4794 62.0762 22.7045 63.0482 23.216 63.2776C23.6747 63.4832 25.2227 64.2172 26.6144 62.0558C28.0061 59.8944 27.2941 58.6319 26.3034 58.061C25.3128 57.49 23.7954 57.49 22.6382 59.784Z" fill="#F7A9A0"/>
<path d="M23.0019 59.3455C23.0578 59.3595 23.1146 59.3703 23.1718 59.3777C23.2313 59.3981 23.2958 59.3981 23.3553 59.3777C23.3731 59.3678 23.3872 59.3523 23.3952 59.3335C23.4032 59.3147 23.4047 59.2938 23.3995 59.2741C23.3831 59.2372 23.3574 59.2053 23.325 59.1815C23.2925 59.1576 23.2543 59.1427 23.2143 59.1382C23.1341 59.1176 23.0492 59.1279 22.9764 59.167C22.9595 59.1767 22.9459 59.1911 22.9373 59.2086C22.9287 59.226 22.9256 59.2457 22.9284 59.2649C22.9311 59.2842 22.9396 59.3021 22.9527 59.3165C22.9658 59.3309 22.9829 59.341 23.0019 59.3455Z" fill="#263238"/>
<path d="M24.4955 60.071C24.4451 60.0402 24.3963 60.0067 24.3493 59.9708C24.2933 59.93 24.2457 59.9045 24.2202 59.8382C24.2151 59.8188 24.2167 59.7981 24.2247 59.7796C24.2327 59.7612 24.2467 59.7459 24.2644 59.7363C24.302 59.7218 24.3427 59.7176 24.3825 59.7242C24.4222 59.7308 24.4595 59.7479 24.4904 59.7737C24.5603 59.8168 24.6122 59.8838 24.6365 59.9623C24.6412 59.9806 24.6405 60 24.6343 60.0179C24.6282 60.0359 24.6169 60.0516 24.6019 60.0632C24.5868 60.0748 24.5688 60.0817 24.5499 60.0831C24.5309 60.0845 24.512 60.0803 24.4955 60.071Z" fill="#263238"/>
<path d="M23.8973 60.5078C23.8973 60.5078 23.9075 60.5197 23.8973 60.5265C23.8209 60.6845 23.7597 60.8782 23.8804 60.9955C23.8804 60.9955 23.8804 61.0074 23.8804 61.004C23.7274 60.9003 23.8039 60.6505 23.8973 60.5078Z" fill="#263238"/>
<path d="M24.1183 60.4043C24.3833 60.4994 24.1726 61.0245 23.9279 60.9361C23.6833 60.8478 23.8974 60.3244 24.1183 60.4043Z" fill="#263238"/>
<path d="M24.21 60.4805C24.244 60.5281 24.2678 60.5995 24.3205 60.6266C24.3731 60.6538 24.453 60.6266 24.5159 60.5876C24.5159 60.5876 24.5244 60.5876 24.5159 60.5876C24.4785 60.6895 24.3986 60.7762 24.2848 60.7473C24.2365 60.7279 24.1971 60.6912 24.1742 60.6445C24.1513 60.5977 24.1465 60.5442 24.1607 60.4941C24.1692 60.4805 24.1964 60.4533 24.21 60.4805Z" fill="#263238"/>
<path d="M23.0647 60.0659C23.0647 60.0659 23.0494 60.0659 23.0477 60.0761C22.9883 60.246 22.8931 60.416 22.7249 60.416C22.7249 60.416 22.7164 60.416 22.7249 60.4262C22.9118 60.4703 23.0358 60.2324 23.0647 60.0659Z" fill="#263238"/>
<path d="M22.9866 59.84C22.7334 59.7159 22.5057 60.2342 22.7419 60.3497C22.9781 60.4653 23.199 59.9419 22.9866 59.84Z" fill="#263238"/>
<path d="M22.8642 59.8264C22.8115 59.8264 22.7487 59.8672 22.6943 59.8502C22.6399 59.8332 22.6178 59.7534 22.6059 59.6803C22.6059 59.6803 22.6059 59.6803 22.5958 59.6803C22.5663 59.7217 22.5528 59.7724 22.5578 59.823C22.5628 59.8736 22.586 59.9207 22.6229 59.9556C22.7028 60.0099 22.8031 59.9556 22.8693 59.8655C22.8863 59.857 22.8778 59.823 22.8642 59.8264Z" fill="#263238"/>
<path d="M22.9679 60.8968C22.9021 61.0069 22.8419 61.1203 22.7878 61.2366C22.7878 61.2468 22.8082 61.2638 22.8455 61.2825C22.9358 61.3407 23.0402 61.3729 23.1476 61.3756C23.2549 61.3783 23.3608 61.3513 23.4539 61.2978C23.4675 61.2978 23.4539 61.2723 23.4437 61.2757C23.2575 61.3144 23.0637 61.2918 22.8914 61.2111C22.8914 61.1772 23.1327 60.8305 23.1157 60.8203C23.0237 60.7918 22.9282 60.7758 22.8319 60.7727C23.097 60.2902 23.4369 59.8552 23.6935 59.3709C23.6948 59.3673 23.6949 59.3634 23.6938 59.3598C23.6926 59.3562 23.6903 59.353 23.6872 59.3509C23.6841 59.3487 23.6803 59.3477 23.6765 59.3479C23.6727 59.3482 23.6691 59.3497 23.6663 59.3522C23.2884 59.8077 22.9566 60.2995 22.6756 60.8203C22.645 60.8849 22.9135 60.8968 22.9679 60.8968Z" fill="#263238"/>
<path d="M22.8914 61.1993C22.9082 61.3232 22.9574 61.4405 23.0341 61.5392C23.0777 61.592 23.1374 61.629 23.2041 61.6445C23.3451 61.6819 23.4114 61.5698 23.4437 61.4593C23.4588 61.4038 23.4679 61.3469 23.4708 61.2894C23.273 61.3229 23.0697 61.2913 22.8914 61.1993Z" fill="#263238"/>
<path d="M23.0341 61.5341C23.0777 61.5868 23.1374 61.6238 23.2041 61.6394C23.3451 61.6768 23.4114 61.5646 23.4437 61.4542C23.3762 61.4201 23.2994 61.4094 23.2252 61.4239C23.151 61.4384 23.0838 61.4771 23.0341 61.5341Z" fill="#FF98B9"/>
<path d="M26.035 62.3498C25.5932 62.0337 26.2865 61.0006 26.2865 61.0006C26.2865 61.0006 25.6323 60.3328 25.6781 59.6038C25.6781 59.6038 25.5762 60.1935 25.7444 60.5809C25.7716 60.6472 24.351 59.422 25.0273 58.151C25.0273 58.151 23.9925 59.1484 23.131 58.8987C23.0885 58.8851 23.9687 57.9165 24.3663 57.8265C24.8179 57.728 25.2859 57.734 25.7348 57.8442C26.1836 57.9543 26.6013 58.1656 26.956 58.462C27.8056 59.2555 27.724 60.671 27.5116 61.1263C27.0987 62.0201 26.244 62.4993 26.035 62.3498Z" fill="#263238"/>
<path d="M25.6781 60.5707C24.8693 59.9505 24.5787 58.9547 25.1055 58.0541C25.1069 58.0493 25.1068 58.0442 25.1051 58.0394C25.1034 58.0347 25.1002 58.0306 25.0961 58.0278C25.0919 58.025 25.087 58.0235 25.082 58.0237C25.0769 58.0238 25.0721 58.0256 25.0681 58.0286C24.3511 58.8137 24.8421 60.1 25.6747 60.5911C25.6951 60.603 25.6968 60.586 25.6781 60.5707Z" fill="#263238"/>
<path d="M26.0655 62.3005C25.7767 61.7516 26.0214 61.2486 26.3102 60.7712C26.3102 60.7559 26.2966 60.7406 26.2864 60.7542C25.9636 61.2011 25.6577 61.8128 26.0231 62.3344C26.0276 62.3401 26.0341 62.3437 26.0413 62.3445C26.0485 62.3453 26.0557 62.3432 26.0613 62.3387C26.0669 62.3342 26.0705 62.3276 26.0713 62.3205C26.0721 62.3133 26.0701 62.3061 26.0655 62.3005Z" fill="#263238"/>
<path d="M25.1429 57.9674C25.1429 57.9674 25.1429 57.9572 25.1344 57.9674C24.6977 58.3735 24.1148 59.1569 23.4182 58.8561C23.4145 58.8553 23.4108 58.8558 23.4074 58.8573C23.4041 58.8589 23.4013 58.8615 23.3996 58.8648C23.3979 58.8681 23.3973 58.8718 23.3978 58.8754C23.3984 58.8791 23.4002 58.8824 23.4029 58.885C24.0452 59.2333 24.8625 58.5061 25.1429 57.9674Z" fill="#263238"/>
<path d="M25.6697 66.5977C24.6212 67.9163 20.2644 72.0471 18.6808 71.7939C16.1982 71.3929 12.866 69.6359 11.4132 68.9817C10.6247 68.6266 13.6375 64.0251 14.3511 64.6793C15.2823 65.5289 18.7062 67.0004 19.109 67.1992C19.5117 67.398 22.4054 65.8399 24.5465 64.8288C26.3459 63.9792 26.9967 64.924 25.6697 66.5977Z" fill="#F7A9A0"/>
<path d="M9.15999 62.2105C9.04961 62.3102 8.97238 62.4413 8.93866 62.5862C8.90495 62.7311 8.91637 62.8828 8.97138 63.021C8.72161 63.0554 8.49156 63.1756 8.32058 63.3609C8.03851 63.7007 8.45142 64.2988 8.45142 64.2988C8.19976 64.3898 7.9813 64.5544 7.82441 64.7712C7.58652 65.1263 7.91956 65.7907 7.91956 65.7907C7.73455 66.0014 7.63143 66.2716 7.629 66.552C7.65449 67.3031 8.64853 67.8774 9.27045 68.2512C9.89236 68.6251 12.0232 69.0923 12.4191 69.2232L14.9934 65.5257C14.9934 65.5257 13.9739 63.3795 11.7088 62.4229C11.0376 62.1374 9.59499 61.8401 9.15999 62.2105Z" fill="#F7A9A0"/>
<path d="M9.03764 62.9733C9.82438 63.099 10.5313 63.4524 11.2551 63.7634C11.2585 63.7648 11.2612 63.7674 11.2626 63.7707C11.2641 63.7741 11.2641 63.7779 11.2628 63.7812C11.2614 63.7846 11.2588 63.7873 11.2554 63.7888C11.2521 63.7902 11.2483 63.7902 11.2449 63.7889C10.5279 63.4694 9.75642 63.2978 9.03595 63.0089C9.03219 63.0076 9.02897 63.0051 9.02675 63.0017C9.02453 62.9984 9.02344 62.9945 9.02363 62.9905C9.02382 62.9865 9.02528 62.9827 9.0278 62.9796C9.03032 62.9765 9.03377 62.9743 9.03764 62.9733Z" fill="#263238"/>
<path d="M8.4973 64.2579C8.67568 64.3033 8.84715 64.3724 9.00706 64.4635C9.17699 64.5485 9.34691 64.6335 9.51683 64.7252C9.85668 64.907 10.1965 65.0957 10.5245 65.2945C10.5398 65.303 10.5245 65.3268 10.5143 65.32C10.1744 65.1398 9.83459 64.9648 9.48455 64.8C9.31462 64.7167 9.1447 64.6301 8.96288 64.5553C8.79256 64.4906 8.63011 64.4068 8.47861 64.3055C8.47442 64.3018 8.47146 64.2969 8.47015 64.2915C8.46884 64.2861 8.46923 64.2804 8.47128 64.2752C8.47332 64.27 8.47691 64.2655 8.48156 64.2625C8.48622 64.2594 8.49171 64.2578 8.4973 64.2579Z" fill="#263238"/>
<path d="M7.93316 65.7975C8.09203 65.8408 8.24211 65.9115 8.37666 66.0065L8.83885 66.2614C9.14641 66.4313 9.45566 66.6012 9.77002 66.7524C9.78531 66.7524 9.77002 66.7864 9.75813 66.7779C9.43868 66.6199 9.11582 66.467 8.79807 66.3055L8.32908 66.066C8.18066 66.0056 8.04383 65.9199 7.92467 65.8128C7.92467 65.8128 7.92467 65.7958 7.93316 65.7975Z" fill="#263238"/>
<path d="M17.9093 66.4974L16.0401 71.5441C16.0401 71.5441 18.3205 72.2799 19.1565 72.0012C19.9925 71.7226 23.8753 69.1125 25.6136 66.8458C27.3519 64.579 26.2372 64.0268 24.4564 64.8169C22.6756 65.6071 19.3706 67.0633 19.2347 67.0633C19.0987 67.0633 17.9093 66.4974 17.9093 66.4974Z" fill="#DBDBDB"/>
<path d="M19.4012 68.6369C19.2696 68.6281 19.1375 68.6378 19.0087 68.6658C19.1335 68.7091 19.2641 68.7337 19.3961 68.7389C19.5277 68.7479 19.6598 68.7382 19.7886 68.71C19.6636 68.6674 19.5331 68.6428 19.4012 68.6369ZM23.9126 67.5987C23.808 67.5685 23.7002 67.5508 23.5915 67.546C23.4819 67.5399 23.3719 67.5456 23.2635 67.563C23.2618 67.5743 23.2618 67.5858 23.2635 67.597C23.369 67.6258 23.4772 67.6429 23.5864 67.648C23.6874 67.6533 23.7886 67.6493 23.8888 67.6361C23.9177 67.6361 23.9483 67.6259 23.9789 67.6191L23.9126 67.5987ZM19.3468 70.6828C19.3052 70.8081 19.2806 70.9384 19.2738 71.0702C19.2647 71.2018 19.2745 71.3339 19.3026 71.4627C19.3461 71.3379 19.3707 71.2074 19.3757 71.0753C19.3843 70.9449 19.3745 70.8139 19.3468 70.6862V70.6828ZM23.4097 65.2759L23.323 65.315C23.323 65.3523 23.323 65.388 23.3111 65.4237C23.2992 65.4594 23.3111 65.4475 23.3111 65.4594C23.302 65.5916 23.3123 65.7244 23.3417 65.8536C23.3826 65.7282 23.4067 65.5979 23.4131 65.4662C23.4131 65.4356 23.4131 65.4033 23.4131 65.3744C23.4131 65.3455 23.4114 65.3116 23.4097 65.2793V65.2759ZM17.6102 70.1662C17.5591 70.1967 17.5103 70.2308 17.4641 70.2682L17.3842 70.3345C17.285 70.422 17.1981 70.5226 17.1259 70.6335C17.2254 70.5862 17.318 70.5256 17.4012 70.4534L17.4522 70.4109C17.4879 70.3786 17.5219 70.3447 17.5558 70.309C17.6137 70.2495 17.6649 70.184 17.7088 70.1136C17.6749 70.1291 17.642 70.1467 17.6102 70.1662ZM21.7563 69.1807C21.6572 69.2678 21.5708 69.3685 21.4997 69.4798C21.7352 69.359 21.9358 69.18 22.0826 68.9598C21.963 69.0143 21.852 69.0858 21.7529 69.1722L21.7563 69.1807ZM18.0435 67.3115L18.0282 67.2929L17.9874 67.2504C17.9705 67.2317 17.9518 67.213 17.9331 67.196C17.872 67.134 17.8035 67.0798 17.7292 67.0346C17.7646 67.1105 17.8091 67.1818 17.8617 67.247C17.8761 67.2685 17.892 67.2889 17.9093 67.3081L17.9518 67.3591L17.962 67.3693C18.0453 67.466 18.1427 67.5496 18.2508 67.6174C18.1967 67.5001 18.1257 67.3913 18.0401 67.2946L18.0435 67.3115ZM21.1888 67.3438C21.1018 67.2452 21.0018 67.1588 20.8914 67.0873C20.949 67.2056 21.0234 67.3149 21.1123 67.4118C21.199 67.5119 21.2997 67.5989 21.4114 67.6701C21.351 67.5449 21.2726 67.4292 21.1786 67.3268L21.1888 67.3438ZM26.3136 65.5002L26.3051 65.49C26.2196 65.3905 26.12 65.304 26.0095 65.2334C26.0673 65.3515 26.1417 65.4608 26.2304 65.558L26.2763 65.6072C26.2983 65.6293 26.3204 65.6514 26.3442 65.6718L26.3646 65.6242C26.3699 65.6097 26.3745 65.595 26.3782 65.58C26.3574 65.5465 26.3348 65.5141 26.3102 65.4832L26.3136 65.5002Z" fill="#C7C7C7"/>
<path d="M17.0767 71.4186C17.5388 70.0048 18.0095 68.586 18.606 67.2215C18.606 67.2096 18.6314 67.2215 18.6263 67.2317C18.21 68.6591 17.6561 70.0473 17.097 71.4271C17.1004 71.4441 17.0699 71.4373 17.0767 71.4186Z" fill="#263238"/>
<path d="M26.6552 58.2036C27.6356 58.6437 28.6637 59.631 28.9525 63.1993C29.2414 66.7677 28.6892 69.3862 27.639 70.0081C26.5889 70.63 24.3035 70.3038 23.08 69.3641C23.08 69.3641 25.5983 66.6946 25.9687 62.7796C26.086 61.529 25.323 59.5681 25.809 58.6573L26.6552 58.2036Z" fill="#263238"/>
<path d="M22.9322 69.1756C23.1174 68.8952 23.2856 68.6029 23.4657 68.3259C23.6459 68.049 23.8175 67.7686 23.9874 67.4865C24.3351 66.9197 24.6494 66.333 24.9288 65.7295C25.5001 64.5306 25.8298 63.2309 25.899 61.9046C25.9262 61.1076 25.8379 60.3226 25.792 59.5257C25.792 59.5121 25.8158 59.5087 25.8175 59.5257C26.052 60.8986 26.1573 62.3124 25.8379 63.6803C25.5157 64.9739 24.9866 66.207 24.2712 67.3319C24.0775 67.6513 23.8719 67.9623 23.6578 68.2665C23.4437 68.5706 23.1888 68.885 22.956 69.1959C22.9458 69.2044 22.922 69.1908 22.9322 69.1756Z" fill="#263238"/>
<path d="M27.6747 59.2419C27.6645 59.23 27.6866 59.213 27.6968 59.2249C28.5804 60.309 28.9373 61.7227 29.1667 63.0753C29.4431 64.5904 29.4102 66.1458 29.0698 67.6479C28.9776 68.0368 28.8508 68.4167 28.6909 68.783C28.5271 69.1326 28.3327 69.467 28.1097 69.7821C28.0995 69.7991 28.074 69.7821 28.0876 69.7651C28.3092 69.4791 28.4815 69.158 28.5974 68.8153C28.7126 68.4965 28.8052 68.17 28.8744 67.8382C29.0361 67.1056 29.1255 66.3589 29.1412 65.6088C29.1822 64.1569 29.0104 62.7069 28.6314 61.3047C28.437 60.5659 28.1131 59.8675 27.6747 59.2419Z" fill="#263238"/>
<path d="M28.5651 68.4772C28.7072 68.1521 28.832 67.8197 28.9389 67.4815C29.1509 66.8097 29.2927 66.1178 29.362 65.4169C29.4954 64.0255 29.3118 62.6219 28.8251 61.3116C28.5462 60.5748 28.1848 59.8719 27.7478 59.2164C27.7478 59.2045 27.758 59.1909 27.7665 59.2028C28.6298 60.3382 29.2059 61.6653 29.4458 63.0712C29.6858 64.4771 29.5824 65.9202 29.1446 67.2775C29.0201 67.6508 28.8708 68.0152 28.6977 68.3684C28.5158 68.7423 28.2881 69.0889 28.0842 69.4508C28.0842 69.4678 28.0503 69.4509 28.0604 69.4356C28.2602 69.1337 28.4293 68.8127 28.5651 68.4772Z" fill="#263238"/>
<path d="M25.8022 61.2265C25.8022 61.2265 26.4343 60.4789 26.7775 60.7168C27.1208 60.9547 26.5974 62.0677 26.1573 62.1883C26.1019 62.2075 26.0432 62.2153 25.9847 62.2113C25.9262 62.2072 25.8692 62.1914 25.8169 62.1647C25.7647 62.1381 25.7184 62.1011 25.6809 62.0561C25.6433 62.0111 25.6152 61.959 25.5983 61.9028L25.8022 61.2265Z" fill="#F7A9A0"/>
<path d="M8.62982 36.3873H-57.6127V80.698H8.62982V36.3873Z" fill="#DBDBDB"/>
<path d="M8.14722 36.9276H-57.1318V80.1575H8.14722V36.9276Z" fill="#263238"/>
<path d="M17.2568 84.0216H-66.2396V87.0632H17.2568V84.0216Z" fill="#C7C7C7"/>
<path d="M-66.2396 84.0216L-57.6127 80.6979H8.62981L17.2568 84.0216H-66.2396Z" fill="#DBDBDB"/>
<path d="M-56.8412 82.8423L-51.2746 80.6979H2.29172L7.85837 82.8423H-56.8412Z" fill="#263238"/>
<path d="M4.4599 40.2123H-53.4411V76.873H4.4599V40.2123Z" fill="white"/>
<path d="M4.4599 41.6226H-53.4411V50.6437H4.4599V41.6226Z" fill="#EE6F57"/>
<path d="M1.43871 43.3744H-12.6495V45.2554H1.43871V43.3744Z" fill="white"/>
<path d="M1.4574 45.2742H-12.6699V43.3541H1.4574V45.2742ZM-12.636 45.2352H1.41492V43.3932H-12.636V45.2352Z" fill="#C7C7C7"/>
<path d="M1.4591 43.3541H-0.461029V45.2742H1.4591V43.3541Z" fill="#455A64"/>
<path d="M1.09376 44.8477L0.92384 44.9803L0.60269 44.5555L0.485443 44.3991C0.509093 44.3897 0.531376 44.3771 0.55171 44.3618C0.591 44.3315 0.621986 44.2917 0.641774 44.2462L0.765814 44.4161L1.09376 44.8477Z" fill="white"/>
<path d="M0.752222 43.84C0.696995 43.7685 0.622489 43.7143 0.53748 43.6837C0.452471 43.6532 0.360497 43.6475 0.272386 43.6675C0.184275 43.6874 0.103697 43.7321 0.0401381 43.7963C-0.023421 43.8605 -0.0673165 43.9415 -0.0863754 44.0298C-0.105434 44.1181 -0.0988657 44.21 -0.0674427 44.2947C-0.0360197 44.3794 0.0189507 44.4534 0.0909934 44.5079C0.163036 44.5624 0.249151 44.5952 0.339203 44.6024C0.429254 44.6096 0.519495 44.591 0.599293 44.5486C0.621383 44.535 0.643468 44.5214 0.663859 44.5061C0.701723 44.4774 0.734963 44.443 0.762417 44.4042C0.82087 44.3213 0.851394 44.2219 0.849561 44.1204C0.847728 44.019 0.813633 43.9208 0.752222 43.84ZM0.548313 44.3498C0.503767 44.384 0.450091 44.4041 0.394072 44.4078C0.338053 44.4114 0.28221 44.3984 0.233608 44.3703C0.185007 44.3422 0.145829 44.3003 0.121034 44.25C0.0962387 44.1996 0.0869396 44.143 0.0943122 44.0874C0.101685 44.0317 0.125397 43.9795 0.162451 43.9373C0.199505 43.8951 0.248238 43.8649 0.302478 43.8504C0.356719 43.836 0.414032 43.8379 0.467168 43.856C0.520305 43.8741 0.566875 43.9076 0.600988 43.9522C0.6315 43.9917 0.651025 44.0387 0.657589 44.0882C0.664154 44.1377 0.657524 44.1881 0.638372 44.2342C0.619333 44.2816 0.588296 44.3232 0.548313 44.3549V44.3498Z" fill="white"/>
<path d="M4.4599 40.2123H-53.4411V41.6226H4.4599V40.2123Z" fill="#455A64"/>
</g>
<defs>
<clipPath id="clip0_1595_13290">
<path d="M0 5C0 2.23858 2.23858 0 5 0H108.036C110.797 0 113.036 2.23858 113.036 5V91H0V5Z" fill="white"/>
</clipPath>
</defs>
</svg>
