<svg width="210" height="228" viewBox="0 0 210 228" fill="none" xmlns="http://www.w3.org/2000/svg">
<rect width="209.905" height="228" fill="white"/>
<path d="M53.3705 201.089C51.3439 201.089 49.5102 200.645 47.8696 199.757C46.2483 198.85 44.9743 197.614 44.0479 196.051C43.1214 194.468 42.6582 192.693 42.6582 190.724C42.6582 188.755 43.1214 186.989 44.0479 185.426C44.9743 183.843 46.2579 182.607 47.8985 181.72C49.5392 180.812 51.3728 180.359 53.3995 180.359C54.9822 180.359 56.4298 180.629 57.7424 181.17C59.0549 181.691 60.1744 182.472 61.1008 183.515L59.2189 185.339C57.6941 183.737 55.7929 182.936 53.5153 182.936C52.0098 182.936 50.649 183.273 49.433 183.949C48.217 184.625 47.2616 185.561 46.5667 186.757C45.8912 187.935 45.5534 189.257 45.5534 190.724C45.5534 192.191 45.8912 193.523 46.5667 194.719C47.2616 195.897 48.217 196.823 49.433 197.499C50.649 198.174 52.0098 198.512 53.5153 198.512C55.7736 198.512 57.6748 197.701 59.2189 196.08L61.1008 197.904C60.1744 198.946 59.0452 199.738 57.7134 200.278C56.4009 200.819 54.9533 201.089 53.3705 201.089ZM62.3089 191.708H70.0971V194.111H62.3089V191.708ZM73.3343 180.59H76.2296V198.338H87.2025V200.857H73.3343V180.59ZM97.8586 201.089C95.8126 201.089 93.9693 200.645 92.3287 199.757C90.688 198.85 89.3948 197.605 88.4491 196.022C87.5226 194.439 87.0594 192.673 87.0594 190.724C87.0594 188.774 87.5226 187.008 88.4491 185.426C89.3948 183.843 90.688 182.607 92.3287 181.72C93.9693 180.812 95.8126 180.359 97.8586 180.359C99.8853 180.359 101.719 180.812 103.36 181.72C105 182.607 106.284 183.843 107.21 185.426C108.137 186.989 108.6 188.755 108.6 190.724C108.6 192.693 108.137 194.468 107.21 196.051C106.284 197.614 105 198.85 103.36 199.757C101.719 200.645 99.8853 201.089 97.8586 201.089ZM97.8586 198.512C99.3448 198.512 100.677 198.174 101.854 197.499C103.051 196.823 103.987 195.897 104.662 194.719C105.357 193.523 105.705 192.191 105.705 190.724C105.705 189.257 105.357 187.935 104.662 186.757C103.987 185.561 103.051 184.625 101.854 183.949C100.677 183.273 99.3448 182.936 97.8586 182.936C96.3724 182.936 95.0213 183.273 93.8053 183.949C92.6086 184.625 91.6628 185.561 90.9679 186.757C90.2924 187.935 89.9546 189.257 89.9546 190.724C89.9546 192.191 90.2924 193.523 90.9679 194.719C91.6628 195.897 92.6086 196.823 93.8053 197.499C95.0213 198.174 96.3724 198.512 97.8586 198.512ZM128.315 180.59V194.835C128.315 197.769 127.534 200.018 125.97 201.581C124.407 203.144 122.245 203.926 119.485 203.926C117.825 203.926 116.31 203.666 114.939 203.144C113.588 202.643 112.449 201.919 111.523 200.973L112.768 198.715C114.544 200.452 116.783 201.32 119.485 201.32C123.461 201.32 125.449 199.197 125.449 194.951V192.895C124.098 194.864 122.004 195.848 119.166 195.848C116.619 195.848 114.64 195.115 113.231 193.648C111.822 192.181 111.118 190.087 111.118 187.365V180.59H114.013V187.25C114.013 189.218 114.495 190.714 115.461 191.737C116.426 192.76 117.767 193.272 119.485 193.272C121.338 193.272 122.795 192.731 123.857 191.65C124.918 190.569 125.449 188.958 125.449 186.815V180.59H128.315ZM141.289 180.359C143.991 180.359 146.124 181.15 147.688 182.733C149.251 184.296 150.033 186.545 150.033 189.479V200.857H147.138V195.269H135.441V200.857H132.603V189.479C132.603 186.545 133.385 184.296 134.949 182.733C136.512 181.15 138.626 180.359 141.289 180.359ZM147.138 192.75V189.218C147.138 187.153 146.616 185.59 145.574 184.528C144.551 183.466 143.123 182.936 141.289 182.936C139.456 182.936 138.018 183.466 136.975 184.528C135.952 185.59 135.441 187.153 135.441 189.218V192.75H147.138ZM154.486 180.59H157.381V198.338H168.354V200.857H154.486V180.59Z" fill="#00334E"/>
<g filter="url(#filter0_d_1164_3205)">
<path d="M147.972 122.387C151.166 124.79 151.836 129.362 149.084 132.262C141.642 140.105 132.284 145.942 121.88 149.165C109.161 153.104 95.5248 152.935 82.9081 148.681C70.2914 144.427 59.3362 136.305 51.5993 125.469C43.8625 114.632 39.7375 101.634 39.8105 88.3193C39.8835 75.005 44.1508 62.0522 52.0061 51.3017C59.8613 40.5512 70.9049 32.5498 83.5675 28.4345C96.2302 24.3191 109.868 24.2992 122.542 28.3776C132.911 31.7139 142.204 37.6541 149.559 45.5781C152.279 48.5079 151.559 53.0721 148.339 55.44L135.844 64.6261C132.623 66.9939 128.133 66.226 125.128 63.5907C121.72 60.6033 117.72 58.3246 113.358 56.921C106.684 54.7735 99.5029 54.784 92.8353 56.9509C86.1677 59.1179 80.3526 63.3311 76.2164 68.9919C72.0801 74.6526 69.8331 81.473 69.7947 88.4838C69.7563 95.4946 71.9283 102.339 76.0022 108.045C80.0761 113.751 85.8446 118.027 92.4881 120.267C99.1315 122.507 106.312 122.597 113.009 120.522C117.386 119.167 121.411 116.932 124.851 113.982C127.886 111.38 132.383 110.661 135.578 113.064L147.972 122.387Z" fill="#145374"/>
</g>
<circle cx="104.435" cy="90.9932" r="25.8503" fill="#D95941"/>
<g filter="url(#filter1_d_1164_3205)">
<path d="M78.9167 79.0647C75.8485 84.9637 75.1713 91.8181 77.0259 98.2034C78.8805 104.589 83.1242 110.014 88.8751 113.351C94.6261 116.689 101.442 117.682 107.906 116.124C114.37 114.567 119.986 110.578 123.585 104.987C127.185 99.3968 128.492 92.6341 127.234 86.1049C125.977 79.5757 122.252 73.782 116.834 69.9281C111.415 66.0741 104.72 64.4561 98.1399 65.4105C91.5596 66.3649 85.6 69.8182 81.4999 75.0527L88.2146 80.3124C90.9619 76.805 94.9551 74.4912 99.3642 73.8517C103.773 73.2122 108.259 74.2963 111.89 76.8786C115.52 79.461 118.016 83.343 118.859 87.7178C119.701 92.0927 118.825 96.624 116.414 100.37C114.002 104.116 110.239 106.788 105.908 107.832C101.577 108.876 97.0098 108.21 93.1564 105.974C89.303 103.738 86.4595 100.103 85.2169 95.8243C83.9742 91.5459 84.428 86.9532 86.4838 83.0006L78.9167 79.0647Z" fill="#EE6F57"/>
</g>
<defs>
<filter id="filter0_d_1164_3205" x="39.8095" y="25.3333" width="112.874" height="129.924" filterUnits="userSpaceOnUse" color-interpolation-filters="sRGB">
<feFlood flood-opacity="0" result="BackgroundImageFix"/>
<feColorMatrix in="SourceAlpha" type="matrix" values="0 0 0 0 0 0 0 0 0 0 0 0 0 0 0 0 0 0 127 0" result="hardAlpha"/>
<feOffset dx="0.72381" dy="2.53333"/>
<feGaussianBlur stdDeviation="0.361905"/>
<feComposite in2="hardAlpha" operator="out"/>
<feColorMatrix type="matrix" values="0 0 0 0 0 0 0 0 0 0.2 0 0 0 0 0.305882 0 0 0 1 0"/>
<feBlend mode="normal" in2="BackgroundImageFix" result="effect1_dropShadow_1164_3205"/>
<feBlend mode="normal" in="SourceGraphic" in2="effect1_dropShadow_1164_3205" result="shape"/>
</filter>
<filter id="filter1_d_1164_3205" x="76" y="62.0407" width="54.8028" height="54.8029" filterUnits="userSpaceOnUse" color-interpolation-filters="sRGB">
<feFlood flood-opacity="0" result="BackgroundImageFix"/>
<feColorMatrix in="SourceAlpha" type="matrix" values="0 0 0 0 0 0 0 0 0 0 0 0 0 0 0 0 0 0 127 0" result="hardAlpha"/>
<feOffset dx="2.58503" dy="-2.58503"/>
<feGaussianBlur stdDeviation="0.258503"/>
<feComposite in2="hardAlpha" operator="out"/>
<feColorMatrix type="matrix" values="0 0 0 0 0 0 0 0 0 0 0 0 0 0 0 0 0 0 0.2 0"/>
<feBlend mode="normal" in2="BackgroundImageFix" result="effect1_dropShadow_1164_3205"/>
<feBlend mode="normal" in="SourceGraphic" in2="effect1_dropShadow_1164_3205" result="shape"/>
</filter>
</defs>
</svg>
