<svg width="278" height="116" viewBox="0 0 278 116" fill="none" xmlns="http://www.w3.org/2000/svg">
<g clip-path="url(#clip0_185_4117)">
<rect width="278" height="116" fill="#145374"/>
<ellipse cx="254" cy="84.5" rx="50" ry="48.5" fill="url(#paint0_linear_185_4117)"/>
<path d="M226.774 37.3022C224.926 38.4806 222.775 39.0944 220.584 39.0687C219.891 39.0261 219.196 39.0184 218.502 39.0455C217.804 39.0743 217.135 39.3342 216.6 39.7845C216.337 40.014 216.15 40.3173 216.063 40.6549C215.975 40.9925 215.991 41.3487 216.11 41.6769C216.501 42.5717 217.767 42.9263 217.959 43.884C218.098 44.5734 217.584 45.2296 217.004 45.6306C216.424 46.0316 215.748 46.2934 215.261 46.8038C214.967 47.1093 214.759 47.4873 214.659 47.8993C214.559 48.3114 214.57 48.7426 214.691 49.149C214.812 49.5554 215.039 49.9224 215.348 50.2125C215.657 50.5027 216.038 50.7056 216.451 50.8006C216.945 50.9166 217.551 50.9199 217.82 51.3507C217.962 51.6779 217.988 52.0441 217.893 52.388C217.762 53.1267 217.861 53.8874 218.174 54.5687C218.336 54.9061 218.588 55.1921 218.902 55.3951C219.216 55.598 219.58 55.7101 219.954 55.7187C220.246 55.7187 220.531 55.6193 220.822 55.6259C220.968 55.6169 221.112 55.6524 221.237 55.7275C221.362 55.8027 221.461 55.914 221.521 56.0468C221.552 56.2454 221.543 56.4482 221.495 56.6433C221.389 57.621 222.363 58.3866 223.308 58.6649C225.194 59.2283 227.285 58.6848 228.889 57.5249C230.493 56.365 231.59 54.6482 232.335 52.8255C233.081 51.0027 233.482 49.0673 233.88 47.1385" fill="#263238"/>
<path d="M247.839 86.0493C247.627 85.5271 247.31 85.0543 246.907 84.6606C244.412 82.0094 240.631 80.7334 236.995 80.9422C233.359 81.151 229.876 82.7318 227.053 85.0219C225.545 86.2448 223.51 88.6011 222.98 90.4703C225.193 91.0038 228.501 90.2615 230.602 89.3501C232.703 88.4387 234.758 87.3384 237.022 87.1065C239.646 86.838 242.225 87.7693 244.81 88.2962C245.327 88.4222 245.86 88.4647 246.39 88.4221C246.655 88.3984 246.912 88.3188 247.144 88.1886C247.376 88.0583 247.578 87.8804 247.736 87.6665C247.875 87.4225 247.957 87.15 247.974 86.8698C247.992 86.5895 247.946 86.3089 247.839 86.0493Z" fill="#FF725E"/>
<g opacity="0.3">
<path d="M247.839 86.0493C247.627 85.5271 247.31 85.0543 246.907 84.6606C244.412 82.0094 240.631 80.7334 236.995 80.9422C233.359 81.151 229.876 82.7318 227.053 85.0219C225.545 86.2448 223.51 88.6011 222.98 90.4703C225.193 91.0038 228.501 90.2615 230.602 89.3501C232.703 88.4387 234.758 87.3384 237.022 87.1065C239.646 86.838 242.225 87.7693 244.81 88.2962C245.327 88.4222 245.86 88.4647 246.39 88.4221C246.655 88.3984 246.912 88.3188 247.144 88.1886C247.376 88.0583 247.578 87.8804 247.736 87.6665C247.875 87.4225 247.957 87.15 247.974 86.8698C247.992 86.5895 247.946 86.3089 247.839 86.0493Z" fill="black"/>
</g>
<path d="M246.033 117.666L252.353 113.573C252.353 113.573 258.649 118.62 259.879 117.977L252.376 105.453L242.264 111.419L246.033 117.666Z" fill="#FF725E"/>
<path d="M249.486 110.02C249.45 109.878 249.468 109.726 249.536 109.596C249.605 109.466 249.719 109.365 249.857 109.314C249.999 109.273 250.151 109.288 250.281 109.356C250.412 109.424 250.512 109.539 250.56 109.679C250.597 109.83 250.577 109.989 250.503 110.126C250.43 110.263 250.308 110.368 250.162 110.421C250.01 110.449 249.854 110.417 249.725 110.331C249.597 110.246 249.506 110.114 249.473 109.964" fill="#E0E0E0"/>
<g opacity="0.6">
<path d="M252.376 105.453L251.382 106.096L258.958 117.861C258.958 117.861 259.534 118.276 259.889 117.977L252.376 105.453Z" fill="white"/>
</g>
<path d="M252.406 113.812C252.465 113.775 252.309 113.45 252.326 113.033C252.343 112.615 252.505 112.3 252.449 112.257C252.392 112.214 252.091 112.519 252.081 113.026C252.071 113.533 252.359 113.861 252.406 113.812Z" fill="#263238"/>
<path d="M253.738 114.802C253.804 114.782 253.738 114.471 253.884 114.09C254.03 113.709 254.258 113.503 254.215 113.444C254.172 113.384 253.807 113.553 253.648 114.007C253.489 114.461 253.678 114.835 253.738 114.802Z" fill="#263238"/>
<path d="M255.759 114.607C255.736 114.544 255.382 114.643 255.14 115.001C254.898 115.359 254.938 115.724 255.004 115.72C255.07 115.717 255.143 115.432 255.335 115.14C255.527 114.849 255.789 114.673 255.759 114.607Z" fill="#263238"/>
<path d="M250.861 114.587C250.904 114.527 250.649 114.295 250.467 113.924C250.285 113.553 250.232 113.228 250.159 113.228C250.086 113.228 250.026 113.616 250.248 114.04C250.47 114.464 250.831 114.647 250.861 114.587Z" fill="#263238"/>
<path opacity="0.3" d="M247.03 108.599L249.903 115.154L248.939 115.837L245.625 109.444L247.03 108.599Z" fill="black"/>
<path d="M243.265 82.8776C243.007 82.8776 234.506 82.6887 229.916 85.7211L226.271 87.7692L226.367 91.4478C226.367 91.4478 225.588 92.747 225.76 93.5258C225.933 94.3046 225.737 97.5955 225.737 97.5955C225.737 97.5955 224.375 97.6816 224.203 100.021C224.203 100.021 222.314 100.8 221.485 102.186C220.657 103.571 212.166 119.157 211.649 121.669C211.132 124.181 210.781 128.596 212.686 130.067C214.592 131.538 218.857 131.018 218.857 131.018C218.857 131.018 219.463 132.838 223.189 132.924C226.914 133.01 232.624 128.682 232.624 128.682L249.771 116.993L245.701 108.307L239.713 111.969L246.119 104.522C246.119 104.522 249.065 99.5011 248.197 94.2184C247.557 90.2978 243.265 82.8776 243.265 82.8776Z" fill="#263238"/>
<path d="M244.733 85.5687H244.531H243.955C243.451 85.5687 242.728 85.5687 241.834 85.5687C240.939 85.5687 239.872 85.6118 238.698 85.7377C237.425 85.8595 236.169 86.1218 234.954 86.5198C232.365 87.3948 230.284 88.7834 228.803 89.7743L227.059 90.9806L226.585 91.312C226.533 91.3541 226.475 91.3886 226.413 91.4148C226.413 91.4148 226.459 91.3651 226.562 91.2822L227.02 90.9309C227.421 90.626 228.014 90.1919 228.733 89.6749C230.201 88.6574 232.282 87.2423 234.897 86.3608C236.125 85.9581 237.395 85.6968 238.682 85.582C239.73 85.4849 240.781 85.4418 241.834 85.4527C242.728 85.4527 243.454 85.4858 243.955 85.5124L244.531 85.5455C244.599 85.5442 244.667 85.552 244.733 85.5687Z" fill="#455A64"/>
<path d="M227.238 88.273C227.103 88.4092 227.009 88.5819 226.97 88.7701C226.953 88.8669 226.96 88.9664 226.992 89.0596C227.023 89.1528 227.077 89.2367 227.149 89.3037C227.237 89.3843 227.344 89.4398 227.461 89.4643C227.578 89.4888 227.699 89.4814 227.812 89.4429C227.92 89.3931 228.013 89.3152 228.08 89.2172C228.148 89.1192 228.188 89.0049 228.196 88.8861C228.203 88.7877 228.185 88.6891 228.144 88.5994C228.102 88.5097 228.04 88.4317 227.961 88.3724C227.802 88.2619 227.614 88.2019 227.421 88.2001C227.421 88.2001 227.47 88.157 227.583 88.1504C227.742 88.1412 227.9 88.1855 228.03 88.2763C228.135 88.3411 228.22 88.4321 228.278 88.5403C228.336 88.6485 228.365 88.77 228.362 88.8927C228.365 89.0476 228.32 89.1997 228.234 89.3287C228.148 89.4577 228.025 89.5575 227.881 89.6147C227.737 89.672 227.579 89.6839 227.428 89.6491C227.277 89.6142 227.141 89.5342 227.036 89.4197C226.951 89.3342 226.889 89.2286 226.855 89.1128C226.822 88.997 226.818 88.8746 226.844 88.7568C226.879 88.6012 226.962 88.4607 227.083 88.3558C227.175 88.2763 227.235 88.263 227.238 88.273Z" fill="#455A64"/>
<path d="M230.291 88.7205C230.274 88.737 230.155 88.6475 229.986 88.4752C229.739 88.2599 229.566 87.9726 229.492 87.6538C229.418 87.3351 229.446 87.001 229.571 86.6989C229.648 86.4669 229.717 86.3343 229.737 86.3409C229.757 86.3476 229.737 86.4967 229.691 86.7287C229.621 87.0186 229.611 87.3196 229.661 87.6135C229.747 87.8994 229.889 88.1652 230.079 88.3957C230.218 88.5846 230.307 88.7039 230.291 88.7205Z" fill="#455A64"/>
<path d="M231.01 88.2796C231.01 88.2961 230.877 88.2232 230.721 88.0608C230.521 87.8413 230.373 87.5797 230.287 87.2953C230.154 86.9005 230.148 86.4739 230.271 86.0757C230.33 86.0757 230.271 86.6258 230.453 87.2456C230.596 87.6114 230.783 87.9586 231.01 88.2796Z" fill="#455A64"/>
<path d="M240.186 85.5686C240.16 85.5686 240.15 85.4129 240.127 85.1676C240.101 84.8554 240.031 84.5484 239.918 84.2563C239.794 83.9697 239.619 83.7081 239.401 83.4841C239.235 83.3051 239.129 83.1924 239.146 83.1726C239.162 83.1527 239.295 83.2322 239.477 83.3946C239.734 83.6096 239.936 83.8821 240.067 84.19C240.19 84.4997 240.249 84.8312 240.24 85.1643C240.254 85.3014 240.236 85.44 240.186 85.5686Z" fill="#455A64"/>
<path d="M241.3 85.5688C241.274 85.5688 241.27 85.413 241.274 85.1711C241.292 84.8641 241.267 84.556 241.197 84.2564C241.086 83.9686 240.942 83.695 240.766 83.4411C240.637 83.2356 240.568 83.1097 240.588 83.0865C240.607 83.0633 240.713 83.1826 240.866 83.3715C241.079 83.6187 241.247 83.9014 241.363 84.2067C241.443 84.5255 241.453 84.8578 241.393 85.181C241.36 85.4064 241.323 85.5688 241.3 85.5688Z" fill="#455A64"/>
<path d="M226.642 123.21C226.677 123.075 226.729 122.945 226.798 122.822C226.914 122.574 227.092 122.213 227.328 121.752C227.798 120.827 228.491 119.498 229.359 117.861C231.096 114.587 233.522 110.076 236.223 105.109L238.211 101.48C238.816 100.356 239.284 99.1646 239.607 97.9302C240.154 95.8321 240.267 93.6442 239.938 91.5009C239.721 90.0569 239.31 88.6489 238.715 87.3152C238.506 86.8413 238.324 86.4833 238.198 86.2414L238.052 85.9663C238.035 85.9356 238.021 85.9034 238.009 85.8702C238.032 85.898 238.052 85.928 238.069 85.9597L238.228 86.2248C238.364 86.4601 238.559 86.8148 238.778 87.2854C240.326 90.6282 240.665 94.4051 239.736 97.97C239.414 99.2192 238.943 100.425 238.334 101.563C237.698 102.732 237.038 103.945 236.365 105.188L229.462 117.918L227.381 121.782L226.821 122.836L226.682 123.114C226.671 123.147 226.658 123.179 226.642 123.21Z" fill="#455A64"/>
<path d="M245.767 111.995C245.709 112.044 245.647 112.089 245.582 112.128L245.032 112.459L243 113.739C241.287 114.799 238.927 116.274 236.345 117.944C233.764 119.614 231.451 121.149 229.794 122.269L227.805 123.595L227.258 123.946C227.197 123.99 227.131 124.029 227.063 124.062C227.116 124.008 227.175 123.96 227.238 123.919L227.765 123.538L229.721 122.17C231.378 121.026 233.698 119.462 236.266 117.788C238.834 116.115 241.221 114.657 242.95 113.626C243.815 113.109 244.521 112.698 245.009 112.42L245.575 112.088C245.637 112.052 245.701 112.021 245.767 111.995Z" fill="#455A64"/>
<path d="M248.449 117.881C248.384 117.776 248.331 117.665 248.289 117.55L247.875 116.609C247.517 115.816 247.007 114.729 246.434 113.533C245.86 112.337 245.363 111.286 244.972 110.464L244.538 109.53C244.478 109.418 244.432 109.3 244.399 109.178C244.479 109.28 244.546 109.391 244.598 109.51C244.717 109.725 244.883 110.033 245.081 110.421C245.479 111.193 246.019 112.27 246.589 113.47C247.159 114.67 247.656 115.763 247.988 116.572C248.154 116.973 248.276 117.305 248.352 117.537C248.396 117.648 248.429 117.763 248.449 117.881Z" fill="#455A64"/>
<path d="M226.642 123.21C226.612 123.174 229.542 120.582 233.19 117.42C236.839 114.259 239.819 111.727 239.852 111.763C239.885 111.8 236.952 114.401 233.303 117.55C229.654 120.698 226.675 123.247 226.642 123.21Z" fill="#455A64"/>
<path d="M226.91 101.108C226.898 101.134 226.882 101.157 226.864 101.178L226.718 101.374C226.589 101.546 226.403 101.801 226.181 102.139C225.557 103.103 225.03 104.126 224.61 105.195C224.002 106.785 223.496 108.412 223.096 110.066C222.602 111.926 222.101 113.997 221.27 116.065C220.438 118.133 219.357 119.969 218.675 121.765C218.033 123.34 217.684 125.019 217.644 126.72C217.644 127.37 217.717 128.018 217.863 128.652C217.979 129.13 218.138 129.597 218.337 130.047C218.463 130.332 218.606 130.61 218.764 130.879C218.811 130.965 218.85 131.035 218.883 131.091C218.898 131.115 218.91 131.141 218.92 131.167C218.899 131.148 218.882 131.125 218.867 131.101L218.734 130.899C218.564 130.635 218.41 130.36 218.274 130.077C218.063 129.626 217.894 129.157 217.77 128.675C217.613 128.034 217.529 127.377 217.521 126.717C217.539 124.999 217.876 123.3 218.516 121.706C219.195 119.893 220.246 118.04 221.097 115.995C221.949 113.951 222.423 111.879 222.927 110.03C223.337 108.371 223.858 106.742 224.484 105.152C224.916 104.081 225.461 103.06 226.112 102.106C226.343 101.775 226.539 101.519 226.678 101.357L226.837 101.171C226.887 101.145 226.907 101.105 226.91 101.108Z" fill="#455A64"/>
<path d="M227.474 90.6493C227.425 90.7878 227.368 90.9228 227.301 91.0536C227.143 91.418 227.032 91.8011 226.97 92.1936C226.896 92.7764 226.916 93.3672 227.03 93.9435C227.132 94.6063 227.407 95.2691 227.593 96.0446C227.687 96.4191 227.719 96.8064 227.689 97.1913C227.66 97.5454 227.604 97.8967 227.52 98.2419C227.38 98.8218 227.208 99.3938 227.006 99.9553C226.837 100.436 226.675 100.817 226.582 101.082C226.536 101.222 226.475 101.357 226.4 101.483C226.427 101.338 226.467 101.196 226.519 101.059C226.619 100.757 226.741 100.373 226.89 99.9155C227.039 99.4582 227.222 98.8583 227.364 98.2054C227.554 97.5135 227.575 96.7859 227.424 96.0844C227.245 95.3454 226.967 94.6461 226.874 93.97C226.763 93.3771 226.754 92.7697 226.847 92.1738C226.918 91.7742 227.049 91.3876 227.235 91.0271C227.283 90.9287 227.337 90.8335 227.397 90.7421C227.437 90.6791 227.474 90.646 227.474 90.6493Z" fill="#455A64"/>
<path d="M227.871 100.621C228.24 100.21 228.524 99.7306 228.706 99.2097C228.891 98.6429 228.978 98.049 228.965 97.4532C228.939 96.7197 228.848 95.9899 228.693 95.2725C228.532 94.5492 228.409 93.818 228.325 93.0819C228.273 92.4747 228.285 91.8637 228.362 91.2591C228.409 90.8509 228.507 90.4502 228.653 90.0661C228.692 89.9623 228.739 89.8615 228.793 89.7645C228.832 89.6982 228.852 89.665 228.859 89.665C228.866 89.665 228.803 89.8175 228.716 90.0893C228.597 90.4755 228.518 90.8731 228.481 91.2757C228.425 91.8709 228.425 92.4701 228.481 93.0653C228.544 93.7281 228.71 94.4672 228.859 95.2394C229.017 95.9673 229.104 96.7086 229.121 97.4532C229.127 98.0653 229.024 98.6737 228.816 99.2494C228.677 99.6395 228.468 100.001 228.199 100.317C228.125 100.4 228.045 100.479 227.961 100.552C227.908 100.602 227.875 100.625 227.871 100.621Z" fill="#455A64"/>
<path d="M236.276 98.0099C236.145 98.0469 236.011 98.0714 235.875 98.0828C235.616 98.1159 235.242 98.1756 234.785 98.2551C233.589 98.4623 232.413 98.7638 231.265 99.1565C230.119 99.5542 229.005 100.041 227.934 100.611C227.523 100.833 227.195 101.016 226.97 101.148C226.857 101.225 226.736 101.289 226.609 101.337C226.71 101.244 226.821 101.161 226.94 101.092C227.155 100.943 227.477 100.741 227.881 100.505C230.006 99.2878 232.341 98.4827 234.765 98.1325C235.229 98.0695 235.606 98.0297 235.868 98.0165C236.003 97.9975 236.14 97.9953 236.276 98.0099Z" fill="#455A64"/>
<path d="M236.816 94.3942C236.816 94.4274 236.326 94.4207 235.553 94.54C235.105 94.6117 234.661 94.7158 234.228 94.8516C233.158 95.1876 232.156 95.7129 231.272 96.4026C230.91 96.6844 230.57 96.9924 230.254 97.3239C229.717 97.8906 229.445 98.2982 229.419 98.2783C229.462 98.1712 229.52 98.0708 229.591 97.9801C229.764 97.7196 229.955 97.4726 230.165 97.241C230.468 96.892 230.801 96.5693 231.159 96.2766C231.605 95.9236 232.082 95.6109 232.584 95.342C233.092 95.0818 233.622 94.8667 234.168 94.6991C234.613 94.5677 235.069 94.4746 235.53 94.4207C235.841 94.3794 236.155 94.3617 236.468 94.3677C236.585 94.3629 236.701 94.3718 236.816 94.3942Z" fill="#455A64"/>
<path d="M237.555 101.977C237.437 102.038 237.313 102.086 237.184 102.119C236.939 102.199 236.591 102.318 236.157 102.471C235.035 102.872 233.936 103.335 232.866 103.859C231.799 104.387 230.763 104.976 229.764 105.622C229.379 105.871 229.071 106.076 228.859 106.222C228.756 106.304 228.645 106.374 228.527 106.431C228.617 106.332 228.719 106.244 228.829 106.169C229.028 106.007 229.326 105.785 229.704 105.506C230.689 104.824 231.724 104.215 232.799 103.687C233.87 103.158 234.978 102.707 236.113 102.338C236.551 102.202 236.909 102.099 237.157 102.04C237.287 102.002 237.42 101.981 237.555 101.977Z" fill="#455A64"/>
<path d="M248.021 93.3039C247.907 93.2803 247.796 93.2436 247.69 93.1946C247.484 93.115 247.183 93.0023 246.792 92.8631C245.714 92.5103 244.604 92.2671 243.477 92.1374L243.56 92.0611C243.6 93.4895 243.59 95.183 243.464 96.9892C243.345 98.7491 243.112 100.499 242.765 102.229V102.192C243.071 103.195 243.44 104.178 243.868 105.135C244.024 105.467 244.167 105.738 244.263 105.917C244.32 106.004 244.372 106.093 244.419 106.186C244.346 106.11 244.282 106.026 244.226 105.937C244.067 105.691 243.922 105.435 243.792 105.172C243.335 104.222 242.947 103.241 242.629 102.235V102.219V102.199C242.953 100.473 243.174 98.7285 243.292 96.9759C243.418 95.1764 243.434 93.4895 243.414 92.0644V91.9783H243.501C244.631 92.119 245.742 92.3835 246.815 92.767C247.202 92.9095 247.497 93.0388 247.7 93.1283C247.812 93.177 247.919 93.2358 248.021 93.3039Z" fill="#455A64"/>
<path d="M248.273 94.7422C248.036 94.6982 247.803 94.6339 247.577 94.55C247.153 94.4241 246.56 94.2584 245.9 94.1059C244.574 93.7944 243.494 93.5956 243.501 93.5458C243.743 93.5365 243.986 93.5577 244.223 93.6088C244.667 93.6718 245.274 93.7778 245.94 93.9402C247.275 94.2385 248.296 94.6958 248.273 94.7422Z" fill="#455A64"/>
<path d="M246.695 89.6418C246.695 89.665 246.291 89.549 245.645 89.3965C244.803 89.1998 243.948 89.0636 243.086 88.9889C242.224 88.9215 241.358 88.9104 240.495 88.9557C240.136 88.9893 239.775 89.0025 239.414 88.9955C239.506 88.9595 239.602 88.9371 239.699 88.9292C239.885 88.8994 240.153 88.8629 240.485 88.8331C241.354 88.7528 242.229 88.7473 243.1 88.8165C243.97 88.8896 244.833 89.0438 245.675 89.2772C246.006 89.37 246.255 89.4529 246.427 89.5224C246.522 89.5477 246.613 89.588 246.695 89.6418Z" fill="#455A64"/>
<path d="M239.938 91.1364C239.796 91.1957 239.648 91.2412 239.497 91.2723C239.212 91.3485 238.795 91.4413 238.271 91.5341C236.909 91.7721 235.523 91.8411 234.145 91.7396C233.346 91.66 232.547 91.5739 231.924 91.1828C231.631 90.9995 231.392 90.7408 231.232 90.4338C231.1 90.1576 231.06 89.8461 231.119 89.5457C231.186 89.1297 231.31 88.725 231.487 88.3426C231.543 88.198 231.622 88.0636 231.722 87.9449C231.722 87.9449 231.656 88.0941 231.55 88.3658C231.401 88.7514 231.296 89.1528 231.238 89.5622C231.196 89.8351 231.24 90.1143 231.364 90.3609C231.521 90.6378 231.75 90.8669 232.027 91.0237C232.607 91.3817 233.386 91.4678 234.178 91.5441C235.545 91.6434 236.919 91.5911 238.274 91.3883C238.795 91.3154 239.215 91.2392 239.504 91.1828C239.647 91.1544 239.792 91.1389 239.938 91.1364Z" fill="#455A64"/>
<path d="M239.093 31.7346C237.509 28.3012 233.588 28.9773 231.712 29.8886C229.827 30.7786 228.347 32.3466 227.566 34.2798C227.016 35.6055 226.572 37.1167 225.465 37.9253C224.956 38.2276 224.431 38.5009 223.891 38.7439C223.614 38.8783 223.371 39.0736 223.18 39.3152C222.988 39.5568 222.854 39.8385 222.787 40.1392C222.622 41.2825 223.782 42.0746 224.736 42.5352C224.163 42.9263 224.014 43.8112 224.216 44.5237C224.461 45.2046 224.847 45.8258 225.349 46.3465C227.04 48.2131 228.974 49.8439 231.099 51.195C232.909 52.3218 234.082 52.4544 236.024 51.6457C236.813 51.3143 237.548 50.7774 238.39 50.6813C239.368 50.5719 240.302 51.0724 241.27 51.2745C242.238 51.4767 243.458 51.1983 243.772 50.1809C243.85 49.7754 243.895 49.3641 243.905 48.9513C243.955 48.5437 244.157 48.0996 244.525 48.0068C244.823 47.9306 245.121 48.1129 245.413 48.209C246.112 48.441 247.166 53.6309 247.835 53.316C247.835 53.316 248.81 44.5204 246.934 39.3736C246.334 37.7165 245.055 34.2301 244.034 32.868C242.629 30.9989 239.262 31.4131 239.093 31.7445" fill="#263238"/>
<path d="M237.085 32.3044C234.589 31.4328 231.222 33.3484 230.456 35.877C229.605 38.6841 228.68 42.1473 228.518 44.3545C228.186 48.7921 231.344 50.1078 231.344 50.1078L230.062 57.0442L240.876 53.5478L244.651 37.2027L245.002 35.8306L237.085 32.3044Z" fill="#FFBE9D"/>
<path d="M230.456 39.2973C230.493 39.3934 231.006 39.2542 231.57 39.4763C232.133 39.6983 232.438 40.1391 232.524 40.0993C232.61 40.0596 232.551 39.9336 232.422 39.7315C232.244 39.4656 231.988 39.2618 231.689 39.1482C231.397 39.0293 231.073 39.0084 230.768 39.0885C230.546 39.1714 230.456 39.2542 230.456 39.2973Z" fill="#263238"/>
<path d="M236.054 40.7721C236.12 40.8483 236.567 40.5633 237.171 40.6064C237.774 40.6495 238.198 40.9809 238.271 40.9113C238.344 40.8417 238.244 40.7423 238.059 40.5799C237.809 40.3826 237.505 40.2669 237.187 40.2485C236.872 40.2259 236.558 40.3036 236.289 40.4705C236.09 40.6064 236.024 40.7356 236.054 40.7721Z" fill="#263238"/>
<path d="M233.542 43.2542C233.254 43.0831 232.945 42.9494 232.624 42.8565C232.478 42.8035 232.342 42.7405 232.342 42.6312C232.365 42.4728 232.437 42.3257 232.548 42.2103L233.26 41.1663C234.254 39.6783 235.026 38.4388 234.967 38.3991C234.907 38.3593 234.045 39.5325 233.041 41.0205C232.799 41.3917 232.567 41.7397 232.345 42.0777C232.206 42.2365 232.129 42.4399 232.127 42.651C232.137 42.709 232.159 42.7641 232.193 42.8122C232.227 42.8603 232.271 42.9004 232.322 42.9294C232.402 42.9696 232.485 43.0018 232.571 43.0255C232.883 43.1428 233.21 43.2196 233.542 43.2542Z" fill="#263238"/>
<path d="M231.348 50.1078C233.401 50.6247 235.557 50.5708 237.582 49.952C237.582 49.952 235.484 52.6232 231.146 51.1915L231.348 50.1078Z" fill="#EB996E"/>
<path d="M233.22 45.2362C233.164 45.1635 233.247 45.3254 233.22 45.2362V45.2362Z" fill="#EB996E"/>
<path d="M235.146 44.9478C235.081 44.8113 234.988 44.6896 234.874 44.5904C234.76 44.4912 234.627 44.4166 234.483 44.3711C234.288 44.3012 234.078 44.2818 233.874 44.3149C233.669 44.3479 233.476 44.4323 233.313 44.56C233.246 44.6553 233.202 44.7645 233.184 44.8795C233.167 44.9944 233.175 45.1119 233.21 45.2229C233.419 45.4913 233.439 45.7166 233.731 45.8857C233.941 45.9549 234.163 45.9777 234.383 45.9526C234.603 45.9274 234.814 45.8548 235.003 45.7399C235.105 45.6383 235.174 45.5079 235.199 45.3662C235.225 45.2246 235.206 45.0785 235.146 44.9478Z" fill="#EB996E"/>
<path d="M235.186 44.0695C235.089 44.043 234.937 44.6826 234.284 45.0074C233.631 45.3322 232.958 45.1035 232.935 45.193C232.935 45.2295 233.058 45.3521 233.346 45.4283C233.719 45.522 234.114 45.4809 234.46 45.3123C234.793 45.1492 235.05 44.8627 235.176 44.5136C235.265 44.2518 235.229 44.0762 235.186 44.0695Z" fill="#263238"/>
<path d="M237.273 37.6468C237.24 37.8158 237.734 37.9782 238.235 38.356C238.735 38.7338 239.076 39.1216 239.229 39.0188C239.295 38.9724 239.292 38.7968 239.192 38.5615C239.058 38.2692 238.849 38.0177 238.586 37.8324C238.33 37.6434 238.028 37.5287 237.711 37.501C237.449 37.5142 237.29 37.5673 237.273 37.6468Z" fill="#263238"/>
<path d="M230.821 37.0271C230.95 37.153 231.404 36.9641 231.961 36.9045C232.518 36.8448 233.005 36.9045 233.101 36.7454C233.141 36.6692 233.055 36.5399 232.833 36.414C232.535 36.2803 232.205 36.2332 231.881 36.2781C231.558 36.312 231.251 36.4373 230.997 36.6393C230.811 36.8183 230.761 36.9641 230.821 37.0271Z" fill="#263238"/>
<path d="M245.612 35.8208C245.426 35.489 245.134 35.2289 244.783 35.0817C242.632 33.901 240.404 32.8648 238.115 31.9797L237.174 32.5133C237.05 33.4301 237.202 34.3629 237.609 35.1936C238.016 36.0243 238.66 36.7155 239.461 37.1796C240.104 37.5375 240.939 37.8755 241.022 38.6079C241.105 39.3404 240.312 39.8839 239.865 40.5003C239.591 40.8851 239.438 41.3424 239.425 41.8144C239.411 42.2863 239.538 42.7517 239.789 43.1516C240.077 43.599 240.515 43.937 240.783 44.3977C240.949 44.7103 241.044 45.0562 241.059 45.4099C241.075 45.7637 241.011 46.1165 240.873 46.4425C240.604 47.1053 240.157 47.9769 239.547 48.3448C240.37 48.5298 241.231 48.4533 242.008 48.126C242.786 47.7986 243.442 47.2367 243.885 46.5187C244.389 45.6637 244.429 44.6263 244.495 43.6354C244.647 41.3814 245.005 39.1461 245.565 36.9575C245.706 36.5942 245.723 36.1943 245.612 35.8208Z" fill="#263238"/>
<path d="M238.264 32.0825C237.685 32.8495 236.988 33.5206 236.2 34.071C235.384 34.578 234.344 34.8166 233.452 34.4587C233.674 34.2135 233.9 33.9682 234.115 33.7197C232.529 34.806 230.733 35.5488 228.842 35.9003C230.029 34.4587 231.252 32.9872 232.872 32.056C234.493 31.1247 236.617 30.8397 238.198 31.8306" fill="#263238"/>
<path d="M245.83 40.4639L240.78 44.3878C241.36 45.0208 241.134 46.6314 240.564 47.271C239.994 47.9107 239.239 48.4575 239.017 49.286C238.771 50.1908 239.252 51.1286 239.265 52.0665C239.285 53.3922 238.394 54.5322 237.704 55.6656C237.015 56.7991 236.518 58.3169 237.287 59.4006C238.152 60.6202 240.11 60.4446 241.293 59.5332C242.477 58.6218 243.153 57.2133 244.031 56.007C244.909 54.8007 246.281 53.876 247.769 54.0185C248.231 49.41 247.565 44.7583 245.83 40.4639Z" fill="#263238"/>
<path d="M246.675 51.4037C246.646 51.3474 246.944 51.132 247.454 50.721C248.175 50.1647 248.817 49.5137 249.363 48.7856C249.724 48.2894 250.011 47.7435 250.215 47.165C250.45 46.516 250.552 45.8261 250.513 45.1368C250.46 44.3856 250.222 43.6592 249.821 43.0224C249.372 42.3248 248.803 41.7122 248.14 41.2129C246.782 40.1557 245.158 39.5558 243.739 38.9228C242.419 38.4128 241.173 37.7285 240.034 36.888C239.257 36.3081 238.614 35.5677 238.148 34.7173C237.84 34.1041 237.79 33.723 237.837 33.723C237.883 33.723 238.059 34.0312 238.433 34.5549C238.975 35.2826 239.639 35.9106 240.395 36.4108C241.54 37.1377 242.764 37.7305 244.044 38.1772C244.767 38.4655 245.539 38.7638 246.328 39.1283C247.164 39.5045 247.954 39.9748 248.684 40.5302C249.427 41.0947 250.062 41.7898 250.556 42.5816C251.02 43.3419 251.283 44.2073 251.322 45.097C251.344 45.8914 251.199 46.6817 250.898 47.4169C250.643 48.0472 250.292 48.6342 249.857 49.1568C249.238 49.8951 248.493 50.5179 247.656 50.9961C247.057 51.3341 246.695 51.4501 246.675 51.4037Z" fill="#263238"/>
<path d="M246.772 39.5027C246.62 39.4713 246.472 39.4235 246.331 39.3602C246.052 39.2575 245.668 39.1017 245.161 38.8963C243.868 38.3837 242.653 37.6921 241.552 36.8415C240.446 35.9728 239.614 34.8038 239.156 33.4744C239.022 33.0724 238.943 32.6545 238.921 32.2316C238.915 32.1212 238.915 32.0106 238.921 31.9002C238.915 31.8606 238.915 31.8205 238.921 31.7809C238.971 32.3435 239.083 32.899 239.252 33.4379C239.74 34.7242 240.567 35.8545 241.645 36.709C242.736 37.5471 243.929 38.2451 245.194 38.7869L246.341 39.2973C246.49 39.3523 246.635 39.4211 246.772 39.5027Z" fill="#455A64"/>
<path d="M246.931 44.5203C246.911 44.5203 247.014 44.3214 247.067 43.9502C247.125 43.4193 247.032 42.8826 246.798 42.4026C246.455 41.688 245.926 41.0789 245.267 40.6395C244.541 40.1125 243.64 39.6949 242.738 39.1547C241.886 38.6482 241.123 38.0056 240.478 37.2525C239.95 36.6379 239.505 35.9572 239.152 35.2275C238.918 34.7378 238.733 34.2261 238.599 33.6997C238.546 33.5141 238.526 33.3683 238.506 33.2689C238.491 33.2196 238.484 33.168 238.486 33.1165C238.555 33.3019 238.614 33.4911 238.662 33.6832C238.82 34.1962 239.021 34.695 239.262 35.1745C239.618 35.8904 240.064 36.5585 240.588 37.163C241.226 37.8989 241.977 38.5277 242.815 39.0255C243.703 39.5558 244.611 39.9833 245.347 40.5268C246.023 40.9872 246.559 41.6246 246.898 42.3694C247.129 42.8713 247.207 43.4308 247.12 43.9768C247.094 44.1229 247.051 44.2654 246.99 44.401C246.961 44.4739 246.937 44.5236 246.931 44.5203Z" fill="#455A64"/>
<path d="M219.003 41.1597C219.003 41.1597 219.003 41.1398 219.033 41.1067C219.066 41.0557 219.102 41.007 219.142 40.9609C219.294 40.779 219.487 40.6358 219.705 40.5433C220.057 40.4202 220.427 40.3563 220.799 40.3544C221.227 40.3312 221.717 40.2981 222.257 40.2981C222.841 40.3085 223.425 40.254 223.997 40.1357C224.643 39.9697 225.241 39.6554 225.744 39.2177C226.298 38.7259 226.778 38.1566 227.169 37.5275C227.585 36.8455 227.964 36.1419 228.305 35.4197C228.654 34.6925 229.053 33.9904 229.499 33.3186C229.92 32.6872 230.449 32.1352 231.063 31.688C232.12 30.9511 233.371 30.5429 234.659 30.5148C235.52 30.4849 236.378 30.6361 237.177 30.9589L237.549 31.1213L237.804 31.2671C237.877 31.3044 237.947 31.3476 238.012 31.3964C237.935 31.3709 237.861 31.3376 237.79 31.297L237.525 31.1677L237.154 31.0219C236.357 30.7285 235.51 30.5978 234.662 30.6375C233.404 30.6831 232.186 31.093 231.156 31.8173C230.56 32.2564 230.046 32.7971 229.638 33.4147C229.2 34.0772 228.809 34.7693 228.468 35.486C228.123 36.214 227.739 36.9231 227.318 37.6103C226.916 38.2512 226.423 38.8296 225.853 39.327C225.33 39.7779 224.708 40.0991 224.037 40.2649C223.453 40.3806 222.859 40.4295 222.264 40.4107C221.724 40.4107 221.24 40.4107 220.809 40.4406C220.446 40.4335 220.084 40.4861 219.739 40.5963C219.524 40.6774 219.332 40.8067 219.175 40.9741C219.122 41.0395 219.064 41.1014 219.003 41.1597Z" fill="#455A64"/>
<path d="M216.975 36.689C214.986 31.6682 212.335 26.7467 211.97 23.0051L208.01 23.1642C208.093 24.6125 208.613 36.6658 211.42 41.4315C214.227 46.1972 223.599 57.3392 223.599 57.3392L226.897 48.8584C226.897 48.8584 218.966 41.7132 216.975 36.689Z" fill="#FFBE9D"/>
<path d="M210.373 15.2104H208.64C208.64 15.2104 208.809 16.2312 209.594 16.2875C210.379 16.3439 210.227 16.1649 210.227 16.1649L210.051 16.3273L208.971 16.5394C208.971 16.5394 209.024 17.3812 209.737 17.5137L210.787 16.5394L210.373 15.2104Z" fill="#FFBE9D"/>
<path d="M215.119 15.0579C214.96 16.3637 214.943 16.2842 214.943 16.2842L213.359 17.5899L212.955 15.6677C212.928 15.5404 212.861 15.4252 212.763 15.3401C212.664 15.255 212.541 15.2047 212.411 15.1971L211.692 15.1507C211.692 15.1507 211.97 14.1565 211.066 14.2394C211.066 14.2394 210.568 14.1035 210.167 15.7672C209.73 17.5866 207.848 21.8618 208.01 23.2902L212.027 23.4526C211.984 22.1269 213.077 20.7118 213.617 20.102C213.78 19.9204 213.894 19.7003 213.949 19.4624C214.023 19.1355 214.178 18.8325 214.399 18.5808C214.897 18.0307 215.941 17.0398 215.941 17.0398V14.014C215.941 14.014 215.271 13.7986 215.119 15.0579ZM211.897 17.981L211.072 18.3555L211.211 17.5137L211.897 17.4474V17.981Z" fill="#FFBE9D"/>
<path d="M211.029 18.4449C211.029 18.3256 211.042 18.2066 211.069 18.0903C211.109 17.8616 211.165 17.5369 211.241 17.1325L211.52 15.7207C211.585 15.4494 211.63 15.1735 211.655 14.8955C211.655 14.6271 211.556 14.3189 211.268 14.3023C210.979 14.2857 210.767 14.4813 210.628 14.7166C210.562 14.8388 210.508 14.9676 210.469 15.101L210.34 15.4954L209.909 16.8674C209.78 17.2585 209.66 17.57 209.577 17.7821C209.54 17.8999 209.485 18.0115 209.415 18.1135C209.434 17.9993 209.468 17.888 209.514 17.7821C209.584 17.5634 209.687 17.2485 209.8 16.8575C209.912 16.4664 210.048 15.9825 210.194 15.4722C210.237 15.3396 210.277 15.207 210.32 15.0712C210.36 14.926 210.417 14.7859 210.489 14.6536C210.569 14.5138 210.675 14.3901 210.8 14.289C210.87 14.2339 210.951 14.1935 211.037 14.1701C211.123 14.1468 211.213 14.141 211.301 14.1532C211.389 14.1675 211.475 14.1978 211.553 14.2426C211.627 14.2949 211.689 14.3642 211.732 14.4448C211.804 14.5932 211.838 14.7572 211.831 14.922C211.804 15.2094 211.754 15.4942 211.682 15.7738L211.351 17.1823C211.261 17.5799 211.185 17.9047 211.125 18.1268C211.107 18.2365 211.075 18.3435 211.029 18.4449Z" fill="#EB996E"/>
<path d="M211.851 17.9908C211.811 17.6677 211.794 17.342 211.801 17.0165C211.801 16.8839 211.781 16.758 211.771 16.642C211.777 16.5547 211.75 16.4685 211.695 16.4C211.583 16.3172 211.447 16.3172 211.453 16.2874C211.46 16.2575 211.483 16.2642 211.536 16.2575C211.616 16.2463 211.698 16.2614 211.768 16.3006C211.818 16.3405 211.858 16.391 211.885 16.4483C211.913 16.5057 211.927 16.5684 211.927 16.632C211.952 16.76 211.967 16.8896 211.974 17.0198C212.02 17.3486 211.978 17.6838 211.851 17.9908Z" fill="#EB996E"/>
<path d="M213.82 17.252C213.82 17.252 213.71 17.3978 213.488 17.5834C213.208 17.832 212.896 18.0426 212.56 18.2097C212.211 18.3613 211.837 18.45 211.457 18.4716C211.302 18.5017 211.144 18.5017 210.989 18.4716C211.132 18.4105 211.285 18.3736 211.44 18.3622C211.8 18.3079 212.152 18.2076 212.487 18.0639C212.817 17.9042 213.132 17.7157 213.428 17.5005C213.654 17.3282 213.803 17.2321 213.82 17.252Z" fill="#EB996E"/>
<path d="M245.313 54.8935C245.313 54.8935 249.774 54.761 252.445 53.9656C255.117 53.1702 265.37 50.731 265.37 50.731L281.825 47.9869L282.156 52.2422C282.156 52.2422 266.868 56.713 263.899 57.7304C260.929 58.7478 247.358 63.4041 244.793 62.8142L243.202 59.5432L245.313 54.8935Z" fill="#FFBE9D"/>
<path d="M237.747 69.0215C237.652 69.095 237.547 69.1552 237.436 69.2005C237.142 69.3373 236.837 69.4482 236.524 69.5319C235.482 69.8363 234.383 69.8908 233.316 69.691C232.251 69.4901 231.249 69.0354 230.397 68.3653C230.141 68.1652 229.902 67.9435 229.684 67.7025C229.599 67.6171 229.526 67.5213 229.465 67.4175C229.492 67.3943 229.817 67.7887 230.46 68.2725C231.314 68.9021 232.298 69.3335 233.34 69.5352C234.382 69.731 235.454 69.6959 236.481 69.4325C237.273 69.2303 237.727 68.9983 237.747 69.0215Z" fill="#FF725E"/>
<path d="M230.214 56.7659C230.214 56.7659 240.7 53.412 241.091 53.306C241.482 53.1999 250.732 54.0251 250.732 54.0251C250.732 54.0251 250.341 60.1529 252.661 62.138L245.857 64.5905L243.713 70.4929C243.713 70.4929 242.516 72.8989 243.467 75.1558C245.267 79.4277 248.389 86.1686 247.928 86.9408C247.879 87.0203 247.597 84.6209 243.159 83.3483C241.814 82.9672 239.371 82.9605 237.161 83.4079C227.649 85.3235 223.977 89.7047 222.91 90.4703C222.91 90.4703 224.869 75.1028 223.944 72.7034C223.019 70.304 222.038 68.7265 222.801 66.6021C223.563 64.4778 224.706 61.0444 224.706 61.0444L220.958 56.8023L226.194 48.0962L230.987 52.0731L230.214 56.7659Z" fill="#FF725E"/>
<path d="M233.701 71.0032C233.581 71.0187 233.459 71.0187 233.34 71.0032C233.011 70.9899 232.683 70.9478 232.362 70.8773C231.291 70.6447 230.304 70.1258 229.505 69.376C228.709 68.6212 228.148 67.6521 227.891 66.5856C227.815 66.2592 227.77 65.9263 227.759 65.5913C227.748 65.4717 227.755 65.3512 227.778 65.2334C227.831 65.6728 227.908 66.1087 228.01 66.5392C228.295 67.5677 228.852 68.5 229.624 69.2368C230.405 69.964 231.357 70.4816 232.392 70.7414C233.187 70.9867 233.701 70.9867 233.701 71.0032Z" fill="#263238"/>
<path d="M223.855 58.012C224.263 58.5333 224.516 59.1594 224.584 59.8181C224.708 60.4689 224.648 61.1415 224.411 61.7602C224.476 61.1233 224.476 60.4815 224.411 59.8447C224.288 59.2165 224.102 58.6025 223.855 58.012Z" fill="#263238"/>
<path d="M246.109 59.8281C246.109 59.8546 245.893 60.0038 245.575 60.312C245.164 60.7106 244.832 61.1841 244.598 61.7072C244.365 62.2295 244.239 62.7928 244.226 63.3643C244.226 63.805 244.269 64.0768 244.226 64.0834C244.132 63.8556 244.086 63.6108 244.091 63.3643C244.066 62.7687 244.179 62.1755 244.422 61.631C244.662 61.0858 245.021 60.6012 245.473 60.2126C245.657 60.0428 245.873 59.912 246.109 59.8281Z" fill="#263238"/>
<g opacity="0.3">
<path d="M232.143 70.7746C231.132 70.5737 230.212 70.0532 229.518 69.2899C229.048 68.8377 228.663 68.3045 228.382 67.7157C228.143 68.7563 229.591 70.6023 231.003 71.2817C231.719 71.6152 232.502 71.7775 233.291 71.7556C234.081 71.7337 234.854 71.5284 235.55 71.1557C234.405 71.1436 233.263 71.0159 232.143 70.7746Z" fill="black"/>
</g>
<path d="M244.985 78.3904C244.985 78.4103 244.71 78.2015 244.167 77.9563C243.393 77.6225 242.56 77.4489 241.718 77.4459C240.464 77.4382 239.223 77.6899 238.072 78.1849C236.676 78.814 235.344 79.5777 234.095 80.465C231.794 82.0604 229.339 83.4226 226.768 84.5314C225.773 84.9523 224.965 85.2539 224.398 85.4494C224.116 85.5522 223.894 85.6218 223.735 85.6682C223.66 85.6973 223.583 85.7184 223.503 85.7311C223.574 85.691 223.648 85.6588 223.725 85.635L224.368 85.3865C224.928 85.1711 225.734 84.8562 226.711 84.4188C229.264 83.2835 231.705 81.9122 234.002 80.3225C235.26 79.4271 236.604 78.661 238.016 78.0358C239.188 77.5411 240.452 77.2984 241.724 77.3233C242.581 77.3374 243.424 77.5328 244.2 77.8966C244.481 78.0281 244.745 78.194 244.985 78.3904Z" fill="white"/>
<path d="M243.09 72.8956C242.891 72.7187 242.68 72.5548 242.46 72.4051C241.842 72.026 241.139 71.8052 240.415 71.7621C239.34 71.7111 238.267 71.9085 237.28 72.3388C236.067 72.8658 234.882 73.4565 233.731 74.1085C232.569 74.7541 231.37 75.3317 230.141 75.8385C229.129 76.2441 228.072 76.5267 226.993 76.6803C226.266 76.7818 225.529 76.7941 224.799 76.7167C224.601 76.695 224.404 76.6629 224.209 76.6206C224.14 76.6107 224.072 76.5929 224.007 76.5676C224.007 76.551 224.292 76.6074 224.806 76.6504C225.53 76.7 226.258 76.67 226.977 76.561C228.041 76.3907 229.083 76.0994 230.082 75.6927C231.3 75.1822 232.491 74.6069 233.648 73.9693C234.805 73.3154 235.998 72.7257 237.22 72.2029C238.231 71.7726 239.329 71.5843 240.425 71.6528C241.165 71.7069 241.879 71.9512 242.496 72.362C242.724 72.5043 242.924 72.6848 243.09 72.8956Z" fill="white"/>
<path d="M229.091 68.7198C229.091 68.7198 229.021 68.7894 228.879 68.8922C228.793 68.9562 228.702 69.0138 228.607 69.0645C228.486 69.1383 228.361 69.2047 228.233 69.2634C227.898 69.4207 227.548 69.544 227.189 69.6312C226.747 69.736 226.296 69.7937 225.843 69.8035C225.389 69.8027 224.936 69.755 224.491 69.661C224.129 69.5863 223.776 69.4753 223.437 69.3296C223.307 69.275 223.179 69.2131 223.056 69.144C222.96 69.0965 222.868 69.0411 222.781 68.9783C222.635 68.8822 222.559 68.8226 222.565 68.8126C222.572 68.8027 222.897 68.9949 223.483 69.217C223.82 69.3439 224.167 69.4425 224.521 69.5119C224.958 69.5918 225.402 69.6306 225.846 69.6279C226.287 69.6178 226.725 69.5657 227.155 69.4721C227.508 69.3923 227.853 69.2814 228.186 69.1407C228.753 68.9121 229.071 68.6933 229.091 68.7198Z" fill="white"/>
<path d="M244.67 67.8879C244.632 67.9309 244.589 67.9688 244.541 68.0006C244.41 68.0996 244.27 68.1872 244.124 68.2624C243.584 68.543 242.993 68.7132 242.387 68.7628C241.49 68.8336 240.588 68.7507 239.719 68.5176C238.725 68.279 237.694 67.8912 236.584 67.5764C234.68 67.0472 232.687 66.9186 230.731 67.1986C230.138 67.283 229.55 67.4036 228.972 67.5598C228.564 67.6692 228.339 67.7388 228.335 67.7255C228.332 67.7122 228.385 67.6957 228.491 67.6559C228.597 67.6161 228.75 67.5565 228.955 67.4968C229.529 67.3147 230.117 67.1751 230.711 67.0793C232.685 66.7592 234.705 66.8723 236.63 67.4107C237.751 67.7421 238.785 68.1199 239.756 68.3618C240.608 68.599 241.494 68.6931 242.377 68.6402C242.971 68.6016 243.554 68.4533 244.094 68.2027C244.475 68.0205 244.661 67.8713 244.67 67.8879Z" fill="white"/>
<path d="M244.395 62.9135C244.326 62.9322 244.255 62.9433 244.183 62.9467C244.044 62.9467 243.852 62.9864 243.57 63.0063C242.817 63.0247 242.063 62.9703 241.32 62.8439C240.379 62.6915 239.278 62.4131 238.066 62.085C236.765 61.6995 235.435 61.4224 234.089 61.2565C233.735 61.2274 233.38 61.2164 233.025 61.2233C232.849 61.2233 232.677 61.2233 232.504 61.2399L231.997 61.2996C231.352 61.3912 230.718 61.55 230.105 61.7735C228.925 62.191 227.895 62.6716 226.99 62.9765C226.281 63.2363 225.541 63.3991 224.789 63.4603C224.585 63.4787 224.38 63.4787 224.176 63.4603C224.104 63.4623 224.031 63.4556 223.961 63.4405C224.032 63.4349 224.104 63.4349 224.176 63.4405C224.379 63.4415 224.581 63.4293 224.783 63.404C225.525 63.318 226.253 63.1387 226.95 62.8704C227.842 62.5556 228.862 62.0651 230.052 61.6343C230.673 61.4033 231.316 61.2378 231.971 61.1405L232.491 61.0775C232.667 61.0775 232.842 61.0775 233.021 61.0775C233.382 61.0704 233.742 61.0815 234.102 61.1106C235.46 61.2777 236.802 61.5605 238.112 61.9557C239.322 62.2872 240.412 62.5854 241.346 62.7511C242.081 62.8878 242.826 62.9587 243.574 62.9632L244.183 62.94C244.253 62.9229 244.324 62.914 244.395 62.9135Z" fill="white"/>
<path d="M247.69 54.0217C247.719 54.0383 247.381 54.5222 247.063 55.4004C246.647 56.5462 246.533 57.7801 246.732 58.9829C246.948 60.1819 247.463 61.3069 248.23 62.254C248.82 62.9797 249.294 63.331 249.27 63.3575C249.151 63.2912 249.04 63.2111 248.939 63.1189C248.65 62.88 248.383 62.616 248.14 62.3302C247.329 61.3853 246.785 60.2413 246.563 59.0161C246.358 57.7891 246.488 56.5294 246.941 55.3706C247.078 55.025 247.245 54.6923 247.441 54.3763C247.51 54.2488 247.593 54.1298 247.69 54.0217Z" fill="white"/>
<path d="M230.208 55.0791C230.115 55.1177 230.016 55.1402 229.916 55.1454C229.645 55.1904 229.372 55.2203 229.098 55.2348C228.687 55.2613 228.276 55.2289 227.875 55.1387C227.37 55.0239 226.909 54.7648 226.549 54.3931C226.165 54.0153 225.886 53.6043 225.578 53.263C225.323 52.9584 225.021 52.6966 224.683 52.4875C224.366 52.3055 224.011 52.2011 223.646 52.1826C223.742 52.1483 223.846 52.137 223.947 52.1494C224.227 52.1652 224.499 52.2446 224.743 52.3814C225.105 52.5824 225.428 52.8461 225.697 53.1602C226.005 53.4916 226.3 53.9092 226.668 54.2704C227.005 54.6176 227.43 54.8653 227.898 54.9863C228.284 55.0793 228.681 55.1216 229.078 55.1122C229.793 55.0791 230.208 55.036 230.208 55.0791Z" fill="white"/>
<path d="M21.62 32.228V42H19.66V35.644L17.042 42H15.558L12.926 35.644V42H10.966V32.228H13.192L16.3 39.494L19.408 32.228H21.62ZM23.0538 38.094C23.0538 37.31 23.2078 36.6147 23.5158 36.008C23.8331 35.4013 24.2578 34.9347 24.7898 34.608C25.3311 34.2813 25.9331 34.118 26.5958 34.118C27.1745 34.118 27.6785 34.2347 28.1078 34.468C28.5465 34.7013 28.8965 34.9953 29.1578 35.35V34.244H31.1318V42H29.1578V40.866C28.9058 41.23 28.5558 41.5333 28.1078 41.776C27.6691 42.0093 27.1605 42.126 26.5818 42.126C25.9285 42.126 25.3311 41.958 24.7898 41.622C24.2578 41.286 23.8331 40.8147 23.5158 40.208C23.2078 39.592 23.0538 38.8873 23.0538 38.094ZM29.1578 38.122C29.1578 37.646 29.0645 37.24 28.8778 36.904C28.6911 36.5587 28.4391 36.2973 28.1218 36.12C27.8045 35.9333 27.4638 35.84 27.0998 35.84C26.7358 35.84 26.3998 35.9287 26.0918 36.106C25.7838 36.2833 25.5318 36.5447 25.3358 36.89C25.1491 37.226 25.0558 37.6273 25.0558 38.094C25.0558 38.5607 25.1491 38.9713 25.3358 39.326C25.5318 39.6713 25.7838 39.9373 26.0918 40.124C26.4091 40.3107 26.7451 40.404 27.0998 40.404C27.4638 40.404 27.8045 40.3153 28.1218 40.138C28.4391 39.9513 28.6911 39.69 28.8778 39.354C29.0645 39.0087 29.1578 38.598 29.1578 38.122ZM37.6381 42L35.0061 38.696V42H33.0461V31.64H35.0061V37.534L37.6101 34.244H40.1581L36.7421 38.136L40.1861 42H37.6381ZM42.2159 33.32C41.8705 33.32 41.5812 33.2127 41.3479 32.998C41.1239 32.774 41.0119 32.4987 41.0119 32.172C41.0119 31.8453 41.1239 31.5747 41.3479 31.36C41.5812 31.136 41.8705 31.024 42.2159 31.024C42.5612 31.024 42.8459 31.136 43.0699 31.36C43.3032 31.5747 43.4199 31.8453 43.4199 32.172C43.4199 32.4987 43.3032 32.774 43.0699 32.998C42.8459 33.2127 42.5612 33.32 42.2159 33.32ZM43.1819 34.244V42H41.2219V34.244H43.1819ZM49.4163 34.132C50.3403 34.132 51.087 34.426 51.6563 35.014C52.2257 35.5927 52.5103 36.4047 52.5103 37.45V42H50.5503V37.716C50.5503 37.1 50.3963 36.6287 50.0883 36.302C49.7803 35.966 49.3603 35.798 48.8283 35.798C48.287 35.798 47.8577 35.966 47.5403 36.302C47.2323 36.6287 47.0783 37.1 47.0783 37.716V42H45.1183V34.244H47.0783V35.21C47.3397 34.874 47.671 34.6127 48.0723 34.426C48.483 34.23 48.931 34.132 49.4163 34.132ZM63.2541 36.988C63.8048 37.0907 64.2575 37.366 64.6121 37.814C64.9668 38.262 65.1441 38.7753 65.1441 39.354C65.1441 39.8767 65.0135 40.3387 64.7521 40.74C64.5001 41.132 64.1315 41.44 63.6461 41.664C63.1608 41.888 62.5868 42 61.9241 42H57.7101V32.228H61.7421C62.4048 32.228 62.9741 32.3353 63.4501 32.55C63.9355 32.7647 64.2995 33.0633 64.5421 33.446C64.7941 33.8287 64.9201 34.2627 64.9201 34.748C64.9201 35.3173 64.7661 35.7933 64.4581 36.176C64.1595 36.5587 63.7581 36.8293 63.2541 36.988ZM59.6701 36.26H61.4621C61.9288 36.26 62.2881 36.1573 62.5401 35.952C62.7921 35.7373 62.9181 35.434 62.9181 35.042C62.9181 34.65 62.7921 34.3467 62.5401 34.132C62.2881 33.9173 61.9288 33.81 61.4621 33.81H59.6701V36.26ZM61.6441 40.404C62.1201 40.404 62.4888 40.292 62.7501 40.068C63.0208 39.844 63.1561 39.5267 63.1561 39.116C63.1561 38.696 63.0161 38.3693 62.7361 38.136C62.4561 37.8933 62.0781 37.772 61.6021 37.772H59.6701V40.404H61.6441ZM73.9162 37.954C73.9162 38.234 73.8976 38.486 73.8602 38.71H68.1902C68.2369 39.27 68.4329 39.7087 68.7782 40.026C69.1236 40.3433 69.5482 40.502 70.0522 40.502C70.7802 40.502 71.2982 40.1893 71.6062 39.564H73.7202C73.4962 40.3107 73.0669 40.9267 72.4322 41.412C71.7976 41.888 71.0182 42.126 70.0942 42.126C69.3476 42.126 68.6756 41.9627 68.0782 41.636C67.4902 41.3 67.0282 40.8287 66.6922 40.222C66.3656 39.6153 66.2022 38.9153 66.2022 38.122C66.2022 37.3193 66.3656 36.6147 66.6922 36.008C67.0189 35.4013 67.4762 34.9347 68.0642 34.608C68.6522 34.2813 69.3289 34.118 70.0942 34.118C70.8316 34.118 71.4896 34.2767 72.0682 34.594C72.6562 34.9113 73.1089 35.364 73.4262 35.952C73.7529 36.5307 73.9162 37.198 73.9162 37.954ZM71.8862 37.394C71.8769 36.89 71.6949 36.4887 71.3402 36.19C70.9856 35.882 70.5516 35.728 70.0382 35.728C69.5529 35.728 69.1422 35.8773 68.8062 36.176C68.4796 36.4653 68.2789 36.8713 68.2042 37.394H71.8862ZM78.3149 42.126C77.6802 42.126 77.1109 42.014 76.6069 41.79C76.1029 41.5567 75.7015 41.244 75.4029 40.852C75.1135 40.46 74.9549 40.026 74.9269 39.55H76.9009C76.9382 39.8487 77.0829 40.096 77.3349 40.292C77.5962 40.488 77.9182 40.586 78.3009 40.586C78.6742 40.586 78.9635 40.5113 79.1689 40.362C79.3835 40.2127 79.4909 40.0213 79.4909 39.788C79.4909 39.536 79.3602 39.3493 79.0989 39.228C78.8469 39.0973 78.4409 38.9573 77.8809 38.808C77.3022 38.668 76.8262 38.5233 76.4529 38.374C76.0889 38.2247 75.7715 37.996 75.5009 37.688C75.2395 37.38 75.1089 36.9647 75.1089 36.442C75.1089 36.0127 75.2302 35.6207 75.4729 35.266C75.7249 34.9113 76.0795 34.6313 76.5369 34.426C77.0035 34.2207 77.5495 34.118 78.1749 34.118C79.0989 34.118 79.8362 34.3513 80.3869 34.818C80.9375 35.2753 81.2409 35.896 81.2969 36.68H79.4209C79.3929 36.372 79.2622 36.1293 79.0289 35.952C78.8049 35.7653 78.5015 35.672 78.1189 35.672C77.7642 35.672 77.4889 35.7373 77.2929 35.868C77.1062 35.9987 77.0129 36.1807 77.0129 36.414C77.0129 36.6753 77.1435 36.876 77.4049 37.016C77.6662 37.1467 78.0722 37.282 78.6229 37.422C79.1829 37.562 79.6449 37.7067 80.0089 37.856C80.3729 38.0053 80.6855 38.2387 80.9469 38.556C81.2175 38.864 81.3575 39.2747 81.3669 39.788C81.3669 40.236 81.2409 40.6373 80.9889 40.992C80.7462 41.3467 80.3915 41.6267 79.9249 41.832C79.4675 42.028 78.9309 42.126 78.3149 42.126ZM82.4718 38.094C82.4718 37.31 82.6258 36.6147 82.9338 36.008C83.2511 35.4013 83.6758 34.9347 84.2078 34.608C84.7491 34.2813 85.3511 34.118 86.0138 34.118C86.5924 34.118 87.0964 34.2347 87.5258 34.468C87.9644 34.7013 88.3144 34.9953 88.5758 35.35V34.244H90.5498V42H88.5758V40.866C88.3238 41.23 87.9738 41.5333 87.5258 41.776C87.0871 42.0093 86.5784 42.126 85.9998 42.126C85.3464 42.126 84.7491 41.958 84.2078 41.622C83.6758 41.286 83.2511 40.8147 82.9338 40.208C82.6258 39.592 82.4718 38.8873 82.4718 38.094ZM88.5758 38.122C88.5758 37.646 88.4824 37.24 88.2958 36.904C88.1091 36.5587 87.8571 36.2973 87.5398 36.12C87.2224 35.9333 86.8818 35.84 86.5178 35.84C86.1538 35.84 85.8178 35.9287 85.5098 36.106C85.2018 36.2833 84.9498 36.5447 84.7538 36.89C84.5671 37.226 84.4738 37.6273 84.4738 38.094C84.4738 38.5607 84.5671 38.9713 84.7538 39.326C84.9498 39.6713 85.2018 39.9373 85.5098 40.124C85.8271 40.3107 86.1631 40.404 86.5178 40.404C86.8818 40.404 87.2224 40.3153 87.5398 40.138C87.8571 39.9513 88.1091 39.69 88.2958 39.354C88.4824 39.0087 88.5758 38.598 88.5758 38.122ZM94.424 35.448C94.676 35.0373 95.0027 34.7153 95.404 34.482C95.8147 34.2487 96.2814 34.132 96.804 34.132V36.19H96.286C95.67 36.19 95.2034 36.3347 94.886 36.624C94.578 36.9133 94.424 37.4173 94.424 38.136V42H92.464V34.244H94.424V35.448ZM12.926 50.228V60H10.966V50.228H12.926ZM17.8305 60.126C17.1958 60.126 16.6265 60.014 16.1225 59.79C15.6185 59.5567 15.2172 59.244 14.9185 58.852C14.6292 58.46 14.4705 58.026 14.4425 57.55H16.4165C16.4538 57.8487 16.5985 58.096 16.8505 58.292C17.1118 58.488 17.4338 58.586 17.8165 58.586C18.1898 58.586 18.4792 58.5113 18.6845 58.362C18.8992 58.2127 19.0065 58.0213 19.0065 57.788C19.0065 57.536 18.8758 57.3493 18.6145 57.228C18.3625 57.0973 17.9565 56.9573 17.3965 56.808C16.8178 56.668 16.3418 56.5233 15.9685 56.374C15.6045 56.2247 15.2872 55.996 15.0165 55.688C14.7552 55.38 14.6245 54.9647 14.6245 54.442C14.6245 54.0127 14.7458 53.6207 14.9885 53.266C15.2405 52.9113 15.5952 52.6313 16.0525 52.426C16.5192 52.2207 17.0652 52.118 17.6905 52.118C18.6145 52.118 19.3518 52.3513 19.9025 52.818C20.4532 53.2753 20.7565 53.896 20.8125 54.68H18.9365C18.9085 54.372 18.7778 54.1293 18.5445 53.952C18.3205 53.7653 18.0172 53.672 17.6345 53.672C17.2798 53.672 17.0045 53.7373 16.8085 53.868C16.6218 53.9987 16.5285 54.1807 16.5285 54.414C16.5285 54.6753 16.6592 54.876 16.9205 55.016C17.1818 55.1467 17.5878 55.282 18.1385 55.422C18.6985 55.562 19.1605 55.7067 19.5245 55.856C19.8885 56.0053 20.2012 56.2387 20.4625 56.556C20.7332 56.864 20.8732 57.2747 20.8825 57.788C20.8825 58.236 20.7565 58.6373 20.5045 58.992C20.2618 59.3467 19.9072 59.6267 19.4405 59.832C18.9832 60.028 18.4465 60.126 17.8305 60.126ZM23.4854 51.32C23.1401 51.32 22.8507 51.2127 22.6174 50.998C22.3934 50.774 22.2814 50.4987 22.2814 50.172C22.2814 49.8453 22.3934 49.5747 22.6174 49.36C22.8507 49.136 23.1401 49.024 23.4854 49.024C23.8307 49.024 24.1154 49.136 24.3394 49.36C24.5727 49.5747 24.6894 49.8453 24.6894 50.172C24.6894 50.4987 24.5727 50.774 24.3394 50.998C24.1154 51.2127 23.8307 51.32 23.4854 51.32ZM24.4514 52.244V60H22.4914V52.244H24.4514ZM34.7638 60L32.6078 56.192H31.6838V60H29.7238V50.228H33.3918C34.1478 50.228 34.7918 50.3633 35.3238 50.634C35.8558 50.8953 36.2525 51.2547 36.5138 51.712C36.7845 52.16 36.9198 52.664 36.9198 53.224C36.9198 53.868 36.7331 54.4513 36.3598 54.974C35.9865 55.4873 35.4311 55.842 34.6938 56.038L37.0318 60H34.7638ZM31.6838 54.722H33.3218C33.8538 54.722 34.2505 54.596 34.5118 54.344C34.7731 54.0827 34.9038 53.7233 34.9038 53.266C34.9038 52.818 34.7731 52.4727 34.5118 52.23C34.2505 51.978 33.8538 51.852 33.3218 51.852H31.6838V54.722ZM45.9026 55.954C45.9026 56.234 45.8839 56.486 45.8466 56.71H40.1766C40.2232 57.27 40.4192 57.7087 40.7646 58.026C41.1099 58.3433 41.5346 58.502 42.0386 58.502C42.7666 58.502 43.2846 58.1893 43.5926 57.564H45.7066C45.4826 58.3107 45.0532 58.9267 44.4186 59.412C43.7839 59.888 43.0046 60.126 42.0806 60.126C41.3339 60.126 40.6619 59.9627 40.0646 59.636C39.4766 59.3 39.0146 58.8287 38.6786 58.222C38.3519 57.6153 38.1886 56.9153 38.1886 56.122C38.1886 55.3193 38.3519 54.6147 38.6786 54.008C39.0052 53.4013 39.4626 52.9347 40.0506 52.608C40.6386 52.2813 41.3152 52.118 42.0806 52.118C42.8179 52.118 43.4759 52.2767 44.0546 52.594C44.6426 52.9113 45.0952 53.364 45.4126 53.952C45.7392 54.5307 45.9026 55.198 45.9026 55.954ZM43.8726 55.394C43.8632 54.89 43.6812 54.4887 43.3266 54.19C42.9719 53.882 42.5379 53.728 42.0246 53.728C41.5392 53.728 41.1286 53.8773 40.7926 54.176C40.4659 54.4653 40.2652 54.8713 40.1906 55.394H43.8726ZM46.8292 56.094C46.8292 55.31 46.9832 54.6147 47.2912 54.008C47.6085 53.4013 48.0379 52.9347 48.5792 52.608C49.1205 52.2813 49.7225 52.118 50.3852 52.118C50.8892 52.118 51.3699 52.23 51.8272 52.454C52.2845 52.6687 52.6485 52.958 52.9192 53.322V49.64H54.9072V60H52.9192V58.852C52.6765 59.2347 52.3359 59.5427 51.8972 59.776C51.4585 60.0093 50.9499 60.126 50.3712 60.126C49.7179 60.126 49.1205 59.958 48.5792 59.622C48.0379 59.286 47.6085 58.8147 47.2912 58.208C46.9832 57.592 46.8292 56.8873 46.8292 56.094ZM52.9332 56.122C52.9332 55.646 52.8399 55.24 52.6532 54.904C52.4665 54.5587 52.2145 54.2973 51.8972 54.12C51.5799 53.9333 51.2392 53.84 50.8752 53.84C50.5112 53.84 50.1752 53.9287 49.8672 54.106C49.5592 54.2833 49.3072 54.5447 49.1112 54.89C48.9245 55.226 48.8312 55.6273 48.8312 56.094C48.8312 56.5607 48.9245 56.9713 49.1112 57.326C49.3072 57.6713 49.5592 57.9373 49.8672 58.124C50.1845 58.3107 50.5205 58.404 50.8752 58.404C51.2392 58.404 51.5799 58.3153 51.8972 58.138C52.2145 57.9513 52.4665 57.69 52.6532 57.354C52.8399 57.0087 52.9332 56.598 52.9332 56.122ZM64.0315 55.954C64.0315 56.234 64.0128 56.486 63.9755 56.71H58.3055C58.3521 57.27 58.5481 57.7087 58.8935 58.026C59.2388 58.3433 59.6635 58.502 60.1675 58.502C60.8955 58.502 61.4135 58.1893 61.7215 57.564H63.8355C63.6115 58.3107 63.1821 58.9267 62.5475 59.412C61.9128 59.888 61.1335 60.126 60.2095 60.126C59.4628 60.126 58.7908 59.9627 58.1935 59.636C57.6055 59.3 57.1435 58.8287 56.8075 58.222C56.4808 57.6153 56.3175 56.9153 56.3175 56.122C56.3175 55.3193 56.4808 54.6147 56.8075 54.008C57.1341 53.4013 57.5915 52.9347 58.1795 52.608C58.7675 52.2813 59.4441 52.118 60.2095 52.118C60.9468 52.118 61.6048 52.2767 62.1835 52.594C62.7715 52.9113 63.2241 53.364 63.5415 53.952C63.8681 54.5307 64.0315 55.198 64.0315 55.954ZM62.0015 55.394C61.9921 54.89 61.8101 54.4887 61.4555 54.19C61.1008 53.882 60.6668 53.728 60.1535 53.728C59.6681 53.728 59.2575 53.8773 58.9215 54.176C58.5948 54.4653 58.3941 54.8713 58.3195 55.394H62.0015ZM72.6721 55.954C72.6721 56.234 72.6534 56.486 72.6161 56.71H66.9461C66.9928 57.27 67.1888 57.7087 67.5341 58.026C67.8794 58.3433 68.3041 58.502 68.8081 58.502C69.5361 58.502 70.0541 58.1893 70.3621 57.564H72.4761C72.2521 58.3107 71.8228 58.9267 71.1881 59.412C70.5534 59.888 69.7741 60.126 68.8501 60.126C68.1034 60.126 67.4314 59.9627 66.8341 59.636C66.2461 59.3 65.7841 58.8287 65.4481 58.222C65.1214 57.6153 64.9581 56.9153 64.9581 56.122C64.9581 55.3193 65.1214 54.6147 65.4481 54.008C65.7748 53.4013 66.2321 52.9347 66.8201 52.608C67.4081 52.2813 68.0848 52.118 68.8501 52.118C69.5874 52.118 70.2454 52.2767 70.8241 52.594C71.4121 52.9113 71.8648 53.364 72.1821 53.952C72.5088 54.5307 72.6721 55.198 72.6721 55.954ZM70.6421 55.394C70.6328 54.89 70.4508 54.4887 70.0961 54.19C69.7414 53.882 69.3074 53.728 68.7941 53.728C68.3088 53.728 67.8981 53.8773 67.5621 54.176C67.2354 54.4653 67.0348 54.8713 66.9601 55.394H70.6421ZM83.7347 52.132C84.6867 52.132 85.4521 52.426 86.0307 53.014C86.6187 53.5927 86.9127 54.4047 86.9127 55.45V60H84.9527V55.716C84.9527 55.1093 84.7987 54.6473 84.4907 54.33C84.1827 54.0033 83.7627 53.84 83.2307 53.84C82.6987 53.84 82.2741 54.0033 81.9567 54.33C81.6487 54.6473 81.4947 55.1093 81.4947 55.716V60H79.5347V55.716C79.5347 55.1093 79.3807 54.6473 79.0727 54.33C78.7647 54.0033 78.3447 53.84 77.8127 53.84C77.2714 53.84 76.8421 54.0033 76.5247 54.33C76.2167 54.6473 76.0627 55.1093 76.0627 55.716V60H74.1027V52.244H76.0627V53.182C76.3147 52.8553 76.6367 52.5987 77.0287 52.412C77.4301 52.2253 77.8687 52.132 78.3447 52.132C78.9514 52.132 79.4927 52.2627 79.9687 52.524C80.4447 52.776 80.8134 53.14 81.0747 53.616C81.3267 53.168 81.6907 52.8087 82.1667 52.538C82.6521 52.2673 83.1747 52.132 83.7347 52.132ZM90.9146 57.942L89.2766 61.876H88.0166L88.9266 57.942H90.9146ZM21.62 68.228V78H19.66V71.644L17.042 78H15.558L12.926 71.644V78H10.966V68.228H13.192L16.3 75.494L19.408 68.228H21.62ZM23.0538 74.094C23.0538 73.31 23.2078 72.6147 23.5158 72.008C23.8331 71.4013 24.2578 70.9347 24.7898 70.608C25.3311 70.2813 25.9331 70.118 26.5958 70.118C27.1745 70.118 27.6785 70.2347 28.1078 70.468C28.5465 70.7013 28.8965 70.9953 29.1578 71.35V70.244H31.1318V78H29.1578V76.866C28.9058 77.23 28.5558 77.5333 28.1078 77.776C27.6691 78.0093 27.1605 78.126 26.5818 78.126C25.9285 78.126 25.3311 77.958 24.7898 77.622C24.2578 77.286 23.8331 76.8147 23.5158 76.208C23.2078 75.592 23.0538 74.8873 23.0538 74.094ZM29.1578 74.122C29.1578 73.646 29.0645 73.24 28.8778 72.904C28.6911 72.5587 28.4391 72.2973 28.1218 72.12C27.8045 71.9333 27.4638 71.84 27.0998 71.84C26.7358 71.84 26.3998 71.9287 26.0918 72.106C25.7838 72.2833 25.5318 72.5447 25.3358 72.89C25.1491 73.226 25.0558 73.6273 25.0558 74.094C25.0558 74.5607 25.1491 74.9713 25.3358 75.326C25.5318 75.6713 25.7838 75.9373 26.0918 76.124C26.4091 76.3107 26.7451 76.404 27.0998 76.404C27.4638 76.404 27.8045 76.3153 28.1218 76.138C28.4391 75.9513 28.6911 75.69 28.8778 75.354C29.0645 75.0087 29.1578 74.598 29.1578 74.122ZM37.6381 78L35.0061 74.696V78H33.0461V67.64H35.0061V73.534L37.6101 70.244H40.1581L36.7421 74.136L40.1861 78H37.6381ZM42.2159 69.32C41.8705 69.32 41.5812 69.2127 41.3479 68.998C41.1239 68.774 41.0119 68.4987 41.0119 68.172C41.0119 67.8453 41.1239 67.5747 41.3479 67.36C41.5812 67.136 41.8705 67.024 42.2159 67.024C42.5612 67.024 42.8459 67.136 43.0699 67.36C43.3032 67.5747 43.4199 67.8453 43.4199 68.172C43.4199 68.4987 43.3032 68.774 43.0699 68.998C42.8459 69.2127 42.5612 69.32 42.2159 69.32ZM43.1819 70.244V78H41.2219V70.244H43.1819ZM49.4163 70.132C50.3403 70.132 51.087 70.426 51.6563 71.014C52.2257 71.5927 52.5103 72.4047 52.5103 73.45V78H50.5503V73.716C50.5503 73.1 50.3963 72.6287 50.0883 72.302C49.7803 71.966 49.3603 71.798 48.8283 71.798C48.287 71.798 47.8577 71.966 47.5403 72.302C47.2323 72.6287 47.0783 73.1 47.0783 73.716V78H45.1183V70.244H47.0783V71.21C47.3397 70.874 47.671 70.6127 48.0723 70.426C48.483 70.23 48.931 70.132 49.4163 70.132ZM63.2541 72.988C63.8048 73.0907 64.2575 73.366 64.6121 73.814C64.9668 74.262 65.1441 74.7753 65.1441 75.354C65.1441 75.8767 65.0135 76.3387 64.7521 76.74C64.5001 77.132 64.1315 77.44 63.6461 77.664C63.1608 77.888 62.5868 78 61.9241 78H57.7101V68.228H61.7421C62.4048 68.228 62.9741 68.3353 63.4501 68.55C63.9355 68.7647 64.2995 69.0633 64.5421 69.446C64.7941 69.8287 64.9201 70.2627 64.9201 70.748C64.9201 71.3173 64.7661 71.7933 64.4581 72.176C64.1595 72.5587 63.7581 72.8293 63.2541 72.988ZM59.6701 72.26H61.4621C61.9288 72.26 62.2881 72.1573 62.5401 71.952C62.7921 71.7373 62.9181 71.434 62.9181 71.042C62.9181 70.65 62.7921 70.3467 62.5401 70.132C62.2881 69.9173 61.9288 69.81 61.4621 69.81H59.6701V72.26ZM61.6441 76.404C62.1201 76.404 62.4888 76.292 62.7501 76.068C63.0208 75.844 63.1561 75.5267 63.1561 75.116C63.1561 74.696 63.0161 74.3693 62.7361 74.136C62.4561 73.8933 62.0781 73.772 61.6021 73.772H59.6701V76.404H61.6441ZM73.9162 73.954C73.9162 74.234 73.8976 74.486 73.8602 74.71H68.1902C68.2369 75.27 68.4329 75.7087 68.7782 76.026C69.1236 76.3433 69.5482 76.502 70.0522 76.502C70.7802 76.502 71.2982 76.1893 71.6062 75.564H73.7202C73.4962 76.3107 73.0669 76.9267 72.4322 77.412C71.7976 77.888 71.0182 78.126 70.0942 78.126C69.3476 78.126 68.6756 77.9627 68.0782 77.636C67.4902 77.3 67.0282 76.8287 66.6922 76.222C66.3656 75.6153 66.2022 74.9153 66.2022 74.122C66.2022 73.3193 66.3656 72.6147 66.6922 72.008C67.0189 71.4013 67.4762 70.9347 68.0642 70.608C68.6522 70.2813 69.3289 70.118 70.0942 70.118C70.8316 70.118 71.4896 70.2767 72.0682 70.594C72.6562 70.9113 73.1089 71.364 73.4262 71.952C73.7529 72.5307 73.9162 73.198 73.9162 73.954ZM71.8862 73.394C71.8769 72.89 71.6949 72.4887 71.3402 72.19C70.9856 71.882 70.5516 71.728 70.0382 71.728C69.5529 71.728 69.1422 71.8773 68.8062 72.176C68.4796 72.4653 68.2789 72.8713 68.2042 73.394H71.8862ZM78.3149 78.126C77.6802 78.126 77.1109 78.014 76.6069 77.79C76.1029 77.5567 75.7015 77.244 75.4029 76.852C75.1135 76.46 74.9549 76.026 74.9269 75.55H76.9009C76.9382 75.8487 77.0829 76.096 77.3349 76.292C77.5962 76.488 77.9182 76.586 78.3009 76.586C78.6742 76.586 78.9635 76.5113 79.1689 76.362C79.3835 76.2127 79.4909 76.0213 79.4909 75.788C79.4909 75.536 79.3602 75.3493 79.0989 75.228C78.8469 75.0973 78.4409 74.9573 77.8809 74.808C77.3022 74.668 76.8262 74.5233 76.4529 74.374C76.0889 74.2247 75.7715 73.996 75.5009 73.688C75.2395 73.38 75.1089 72.9647 75.1089 72.442C75.1089 72.0127 75.2302 71.6207 75.4729 71.266C75.7249 70.9113 76.0795 70.6313 76.5369 70.426C77.0035 70.2207 77.5495 70.118 78.1749 70.118C79.0989 70.118 79.8362 70.3513 80.3869 70.818C80.9375 71.2753 81.2409 71.896 81.2969 72.68H79.4209C79.3929 72.372 79.2622 72.1293 79.0289 71.952C78.8049 71.7653 78.5015 71.672 78.1189 71.672C77.7642 71.672 77.4889 71.7373 77.2929 71.868C77.1062 71.9987 77.0129 72.1807 77.0129 72.414C77.0129 72.6753 77.1435 72.876 77.4049 73.016C77.6662 73.1467 78.0722 73.282 78.6229 73.422C79.1829 73.562 79.6449 73.7067 80.0089 73.856C80.3729 74.0053 80.6855 74.2387 80.9469 74.556C81.2175 74.864 81.3575 75.2747 81.3669 75.788C81.3669 76.236 81.2409 76.6373 80.9889 76.992C80.7462 77.3467 80.3915 77.6267 79.9249 77.832C79.4675 78.028 78.9309 78.126 78.3149 78.126ZM82.4718 74.094C82.4718 73.31 82.6258 72.6147 82.9338 72.008C83.2511 71.4013 83.6758 70.9347 84.2078 70.608C84.7491 70.2813 85.3511 70.118 86.0138 70.118C86.5924 70.118 87.0964 70.2347 87.5258 70.468C87.9644 70.7013 88.3144 70.9953 88.5758 71.35V70.244H90.5498V78H88.5758V76.866C88.3238 77.23 87.9738 77.5333 87.5258 77.776C87.0871 78.0093 86.5784 78.126 85.9998 78.126C85.3464 78.126 84.7491 77.958 84.2078 77.622C83.6758 77.286 83.2511 76.8147 82.9338 76.208C82.6258 75.592 82.4718 74.8873 82.4718 74.094ZM88.5758 74.122C88.5758 73.646 88.4824 73.24 88.2958 72.904C88.1091 72.5587 87.8571 72.2973 87.5398 72.12C87.2224 71.9333 86.8818 71.84 86.5178 71.84C86.1538 71.84 85.8178 71.9287 85.5098 72.106C85.2018 72.2833 84.9498 72.5447 84.7538 72.89C84.5671 73.226 84.4738 73.6273 84.4738 74.094C84.4738 74.5607 84.5671 74.9713 84.7538 75.326C84.9498 75.6713 85.2018 75.9373 85.5098 76.124C85.8271 76.3107 86.1631 76.404 86.5178 76.404C86.8818 76.404 87.2224 76.3153 87.5398 76.138C87.8571 75.9513 88.1091 75.69 88.2958 75.354C88.4824 75.0087 88.5758 74.598 88.5758 74.122ZM94.424 71.448C94.676 71.0373 95.0027 70.7153 95.404 70.482C95.8147 70.2487 96.2814 70.132 96.804 70.132V72.19H96.286C95.67 72.19 95.2034 72.3347 94.886 72.624C94.578 72.9133 94.424 73.4173 94.424 74.136V78H92.464V70.244H94.424V71.448ZM19.072 86.228V96H17.112V91.842H12.926V96H10.966V86.228H12.926V90.246H17.112V86.228H19.072ZM20.4972 92.094C20.4972 91.31 20.6512 90.6147 20.9592 90.008C21.2765 89.4013 21.7012 88.9347 22.2332 88.608C22.7745 88.2813 23.3765 88.118 24.0392 88.118C24.6178 88.118 25.1218 88.2347 25.5512 88.468C25.9898 88.7013 26.3398 88.9953 26.6012 89.35V88.244H28.5752V96H26.6012V94.866C26.3492 95.23 25.9992 95.5333 25.5512 95.776C25.1125 96.0093 24.6038 96.126 24.0252 96.126C23.3718 96.126 22.7745 95.958 22.2332 95.622C21.7012 95.286 21.2765 94.8147 20.9592 94.208C20.6512 93.592 20.4972 92.8873 20.4972 92.094ZM26.6012 92.122C26.6012 91.646 26.5078 91.24 26.3212 90.904C26.1345 90.5587 25.8825 90.2973 25.5652 90.12C25.2478 89.9333 24.9072 89.84 24.5432 89.84C24.1792 89.84 23.8432 89.9287 23.5352 90.106C23.2272 90.2833 22.9752 90.5447 22.7792 90.89C22.5925 91.226 22.4992 91.6273 22.4992 92.094C22.4992 92.5607 22.5925 92.9713 22.7792 93.326C22.9752 93.6713 23.2272 93.9373 23.5352 94.124C23.8525 94.3107 24.1885 94.404 24.5432 94.404C24.9072 94.404 25.2478 94.3153 25.5652 94.138C25.8825 93.9513 26.1345 93.69 26.3212 93.354C26.5078 93.0087 26.6012 92.598 26.6012 92.122ZM29.9854 92.094C29.9854 91.31 30.1394 90.6147 30.4474 90.008C30.7648 89.4013 31.1941 88.9347 31.7354 88.608C32.2768 88.2813 32.8788 88.118 33.5414 88.118C34.0454 88.118 34.5261 88.23 34.9834 88.454C35.4408 88.6687 35.8048 88.958 36.0754 89.322V85.64H38.0634V96H36.0754V94.852C35.8328 95.2347 35.4921 95.5427 35.0534 95.776C34.6148 96.0093 34.1061 96.126 33.5274 96.126C32.8741 96.126 32.2768 95.958 31.7354 95.622C31.1941 95.286 30.7648 94.8147 30.4474 94.208C30.1394 93.592 29.9854 92.8873 29.9854 92.094ZM36.0894 92.122C36.0894 91.646 35.9961 91.24 35.8094 90.904C35.6228 90.5587 35.3708 90.2973 35.0534 90.12C34.7361 89.9333 34.3954 89.84 34.0314 89.84C33.6674 89.84 33.3314 89.9287 33.0234 90.106C32.7154 90.2833 32.4634 90.5447 32.2674 90.89C32.0808 91.226 31.9874 91.6273 31.9874 92.094C31.9874 92.5607 32.0808 92.9713 32.2674 93.326C32.4634 93.6713 32.7154 93.9373 33.0234 94.124C33.3408 94.3107 33.6768 94.404 34.0314 94.404C34.3954 94.404 34.7361 94.3153 35.0534 94.138C35.3708 93.9513 35.6228 93.69 35.8094 93.354C35.9961 93.0087 36.0894 92.598 36.0894 92.122ZM40.9717 87.32C40.6264 87.32 40.3371 87.2127 40.1037 86.998C39.8797 86.774 39.7677 86.4987 39.7677 86.172C39.7677 85.8453 39.8797 85.5747 40.1037 85.36C40.3371 85.136 40.6264 85.024 40.9717 85.024C41.3171 85.024 41.6017 85.136 41.8257 85.36C42.0591 85.5747 42.1757 85.8453 42.1757 86.172C42.1757 86.4987 42.0591 86.774 41.8257 86.998C41.6017 87.2127 41.3171 87.32 40.9717 87.32ZM41.9377 88.244V96H39.9777V88.244H41.9377ZM43.3702 92.094C43.3702 91.31 43.5242 90.6147 43.8322 90.008C44.1495 89.4013 44.5742 88.9347 45.1062 88.608C45.6475 88.2813 46.2495 88.118 46.9122 88.118C47.4909 88.118 47.9949 88.2347 48.4242 88.468C48.8629 88.7013 49.2129 88.9953 49.4742 89.35V88.244H51.4482V96H49.4742V94.866C49.2222 95.23 48.8722 95.5333 48.4242 95.776C47.9855 96.0093 47.4769 96.126 46.8982 96.126C46.2449 96.126 45.6475 95.958 45.1062 95.622C44.5742 95.286 44.1495 94.8147 43.8322 94.208C43.5242 93.592 43.3702 92.8873 43.3702 92.094ZM49.4742 92.122C49.4742 91.646 49.3809 91.24 49.1942 90.904C49.0075 90.5587 48.7555 90.2973 48.4382 90.12C48.1209 89.9333 47.7802 89.84 47.4162 89.84C47.0522 89.84 46.7162 89.9287 46.4082 90.106C46.1002 90.2833 45.8482 90.5447 45.6522 90.89C45.4655 91.226 45.3722 91.6273 45.3722 92.094C45.3722 92.5607 45.4655 92.9713 45.6522 93.326C45.8482 93.6713 46.1002 93.9373 46.4082 94.124C46.7255 94.3107 47.0615 94.404 47.4162 94.404C47.7802 94.404 48.1209 94.3153 48.4382 94.138C48.7555 93.9513 49.0075 93.69 49.1942 93.354C49.3809 93.0087 49.4742 92.598 49.4742 92.122ZM57.6605 88.132C58.5845 88.132 59.3312 88.426 59.9005 89.014C60.4698 89.5927 60.7545 90.4047 60.7545 91.45V96H58.7945V91.716C58.7945 91.1 58.6405 90.6287 58.3325 90.302C58.0245 89.966 57.6045 89.798 57.0725 89.798C56.5312 89.798 56.1018 89.966 55.7845 90.302C55.4765 90.6287 55.3225 91.1 55.3225 91.716V96H53.3625V88.244H55.3225V89.21C55.5838 88.874 55.9152 88.6127 56.3165 88.426C56.7272 88.23 57.1752 88.132 57.6605 88.132ZM73.0803 89.252C73.0803 89.7747 72.9543 90.2647 72.7023 90.722C72.4596 91.1793 72.0723 91.548 71.5403 91.828C71.0176 92.108 70.3549 92.248 69.5523 92.248H67.9143V96H65.9543V86.228H69.5523C70.3083 86.228 70.9523 86.3587 71.4843 86.62C72.0163 86.8813 72.4129 87.2407 72.6743 87.698C72.9449 88.1553 73.0803 88.6733 73.0803 89.252ZM69.4683 90.666C70.0096 90.666 70.4109 90.5447 70.6723 90.302C70.9336 90.05 71.0643 89.7 71.0643 89.252C71.0643 88.3 70.5323 87.824 69.4683 87.824H67.9143V90.666H69.4683ZM77.9159 96.126C77.1692 96.126 76.4972 95.9627 75.8999 95.636C75.3025 95.3 74.8312 94.8287 74.4859 94.222C74.1499 93.6153 73.9819 92.9153 73.9819 92.122C73.9819 91.3287 74.1545 90.6287 74.4999 90.022C74.8545 89.4153 75.3352 88.9487 75.9419 88.622C76.5485 88.286 77.2252 88.118 77.9719 88.118C78.7185 88.118 79.3952 88.286 80.0019 88.622C80.6085 88.9487 81.0845 89.4153 81.4299 90.022C81.7845 90.6287 81.9619 91.3287 81.9619 92.122C81.9619 92.9153 81.7799 93.6153 81.4159 94.222C81.0612 94.8287 80.5759 95.3 79.9599 95.636C79.3532 95.9627 78.6719 96.126 77.9159 96.126ZM77.9159 94.418C78.2705 94.418 78.6019 94.334 78.9099 94.166C79.2272 93.9887 79.4792 93.7273 79.6659 93.382C79.8525 93.0367 79.9459 92.6167 79.9459 92.122C79.9459 91.3847 79.7499 90.82 79.3579 90.428C78.9752 90.0267 78.5039 89.826 77.9439 89.826C77.3839 89.826 76.9125 90.0267 76.5299 90.428C76.1565 90.82 75.9699 91.3847 75.9699 92.122C75.9699 92.8593 76.1519 93.4287 76.5159 93.83C76.8892 94.222 77.3559 94.418 77.9159 94.418ZM84.3936 87.32C84.0483 87.32 83.7589 87.2127 83.5256 86.998C83.3016 86.774 83.1896 86.4987 83.1896 86.172C83.1896 85.8453 83.3016 85.5747 83.5256 85.36C83.7589 85.136 84.0483 85.024 84.3936 85.024C84.7389 85.024 85.0236 85.136 85.2476 85.36C85.4809 85.5747 85.5976 85.8453 85.5976 86.172C85.5976 86.4987 85.4809 86.774 85.2476 86.998C85.0236 87.2127 84.7389 87.32 84.3936 87.32ZM85.3596 88.244V96H83.3996V88.244H85.3596ZM91.5941 88.132C92.5181 88.132 93.2647 88.426 93.8341 89.014C94.4034 89.5927 94.6881 90.4047 94.6881 91.45V96H92.7281V91.716C92.7281 91.1 92.5741 90.6287 92.2661 90.302C91.9581 89.966 91.5381 89.798 91.0061 89.798C90.4647 89.798 90.0354 89.966 89.7181 90.302C89.4101 90.6287 89.2561 91.1 89.2561 91.716V96H87.2961V88.244H89.2561V89.21C89.5174 88.874 89.8487 88.6127 90.2501 88.426C90.6607 88.23 91.1087 88.132 91.5941 88.132ZM99.4119 91.1C99.4119 90.1387 99.6265 89.28 100.056 88.524C100.495 87.7587 101.087 87.166 101.834 86.746C102.59 86.3167 103.435 86.102 104.368 86.102C105.46 86.102 106.417 86.382 107.238 86.942C108.059 87.502 108.633 88.2767 108.96 89.266H106.706C106.482 88.7993 106.165 88.4493 105.754 88.216C105.353 87.9827 104.886 87.866 104.354 87.866C103.785 87.866 103.276 88.0013 102.828 88.272C102.389 88.5333 102.044 88.9067 101.792 89.392C101.549 89.8773 101.428 90.4467 101.428 91.1C101.428 91.744 101.549 92.3133 101.792 92.808C102.044 93.2933 102.389 93.6713 102.828 93.942C103.276 94.2033 103.785 94.334 104.354 94.334C104.886 94.334 105.353 94.2173 105.754 93.984C106.165 93.7413 106.482 93.3867 106.706 92.92H108.96C108.633 93.9187 108.059 94.698 107.238 95.258C106.426 95.8087 105.469 96.084 104.368 96.084C103.435 96.084 102.59 95.874 101.834 95.454C101.087 95.0247 100.495 94.432 100.056 93.676C99.6265 92.92 99.4119 92.0613 99.4119 91.1ZM116.598 90.176V91.828H110.662V90.176H116.598ZM120.756 94.446H123.976V96H118.796V86.228H120.756V94.446ZM128.666 96.126C127.919 96.126 127.247 95.9627 126.65 95.636C126.053 95.3 125.581 94.8287 125.236 94.222C124.9 93.6153 124.732 92.9153 124.732 92.122C124.732 91.3287 124.905 90.6287 125.25 90.022C125.605 89.4153 126.085 88.9487 126.692 88.622C127.299 88.286 127.975 88.118 128.722 88.118C129.469 88.118 130.145 88.286 130.752 88.622C131.359 88.9487 131.835 89.4153 132.18 90.022C132.535 90.6287 132.712 91.3287 132.712 92.122C132.712 92.9153 132.53 93.6153 132.166 94.222C131.811 94.8287 131.326 95.3 130.71 95.636C130.103 95.9627 129.422 96.126 128.666 96.126ZM128.666 94.418C129.021 94.418 129.352 94.334 129.66 94.166C129.977 93.9887 130.229 93.7273 130.416 93.382C130.603 93.0367 130.696 92.6167 130.696 92.122C130.696 91.3847 130.5 90.82 130.108 90.428C129.725 90.0267 129.254 89.826 128.694 89.826C128.134 89.826 127.663 90.0267 127.28 90.428C126.907 90.82 126.72 91.3847 126.72 92.122C126.72 92.8593 126.902 93.4287 127.266 93.83C127.639 94.222 128.106 94.418 128.666 94.418ZM141.57 88.244L136.768 99.668H134.682L136.362 95.804L133.254 88.244H135.452L137.454 93.662L139.484 88.244H141.57ZM142.122 92.094C142.122 91.31 142.276 90.6147 142.584 90.008C142.901 89.4013 143.326 88.9347 143.858 88.608C144.399 88.2813 145.001 88.118 145.664 88.118C146.243 88.118 146.747 88.2347 147.176 88.468C147.615 88.7013 147.965 88.9953 148.226 89.35V88.244H150.2V96H148.226V94.866C147.974 95.23 147.624 95.5333 147.176 95.776C146.737 96.0093 146.229 96.126 145.65 96.126C144.997 96.126 144.399 95.958 143.858 95.622C143.326 95.286 142.901 94.8147 142.584 94.208C142.276 93.592 142.122 92.8873 142.122 92.094ZM148.226 92.122C148.226 91.646 148.133 91.24 147.946 90.904C147.759 90.5587 147.507 90.2973 147.19 90.12C146.873 89.9333 146.532 89.84 146.168 89.84C145.804 89.84 145.468 89.9287 145.16 90.106C144.852 90.2833 144.6 90.5447 144.404 90.89C144.217 91.226 144.124 91.6273 144.124 92.094C144.124 92.5607 144.217 92.9713 144.404 93.326C144.6 93.6713 144.852 93.9373 145.16 94.124C145.477 94.3107 145.813 94.404 146.168 94.404C146.532 94.404 146.873 94.3153 147.19 94.138C147.507 93.9513 147.759 93.69 147.946 93.354C148.133 93.0087 148.226 92.598 148.226 92.122ZM154.074 85.64V96H152.114V85.64H154.074Z" fill="white"/>
<g filter="url(#filter0_d_185_4117)">
<path d="M10.288 16.814C10.288 16.19 10.417 15.635 10.675 15.149C10.939 14.657 11.311 14.276 11.791 14.006C12.271 13.73 12.823 13.592 13.447 13.592C14.239 13.592 14.905 13.805 15.445 14.231C15.985 14.651 16.333 15.224 16.489 15.95H14.59C14.476 15.71 14.317 15.527 14.113 15.401C13.915 15.275 13.684 15.212 13.42 15.212C13.012 15.212 12.685 15.359 12.439 15.653C12.199 15.941 12.079 16.328 12.079 16.814C12.079 17.306 12.199 17.699 12.439 17.993C12.685 18.281 13.012 18.425 13.42 18.425C13.684 18.425 13.915 18.362 14.113 18.236C14.317 18.11 14.476 17.927 14.59 17.687H16.489C16.333 18.413 15.985 18.989 15.445 19.415C14.905 19.835 14.239 20.045 13.447 20.045C12.823 20.045 12.271 19.91 11.791 19.64C11.311 19.364 10.939 18.983 10.675 18.497C10.417 18.005 10.288 17.444 10.288 16.814ZM21.2213 16.148V17.615H17.1443V16.148H21.2213ZM24.2914 18.65H26.2624V20H22.5274V13.655H24.2914V18.65ZM29.2973 20.063C28.7933 20.063 28.3403 19.958 27.9383 19.748C27.5423 19.538 27.2303 19.238 27.0023 18.848C26.7743 18.458 26.6603 17.999 26.6603 17.471C26.6603 16.949 26.7743 16.493 27.0023 16.103C27.2363 15.713 27.5513 15.413 27.9473 15.203C28.3493 14.993 28.8023 14.888 29.3063 14.888C29.8103 14.888 30.2603 14.993 30.6563 15.203C31.0583 15.413 31.3733 15.713 31.6013 16.103C31.8353 16.493 31.9523 16.949 31.9523 17.471C31.9523 17.993 31.8353 18.452 31.6013 18.848C31.3733 19.238 31.0583 19.538 30.6563 19.748C30.2543 19.958 29.8013 20.063 29.2973 20.063ZM29.2973 18.533C29.5433 18.533 29.7473 18.443 29.9093 18.263C30.0773 18.077 30.1613 17.813 30.1613 17.471C30.1613 17.129 30.0773 16.868 29.9093 16.688C29.7473 16.508 29.5463 16.418 29.3063 16.418C29.0663 16.418 28.8653 16.508 28.7033 16.688C28.5413 16.868 28.4603 17.129 28.4603 17.471C28.4603 17.819 28.5383 18.083 28.6943 18.263C28.8503 18.443 29.0513 18.533 29.2973 18.533ZM38.106 14.951L34.902 22.403H32.985L34.191 19.784L32.121 14.951H34.083L35.145 17.813L36.171 14.951H38.106ZM38.2795 17.471C38.2795 16.949 38.3725 16.493 38.5585 16.103C38.7505 15.713 39.0085 15.413 39.3325 15.203C39.6625 14.993 40.0285 14.888 40.4305 14.888C40.7785 14.888 41.0785 14.957 41.3305 15.095C41.5825 15.233 41.7775 15.419 41.9155 15.653V14.951H43.6795V20H41.9155V19.298C41.7775 19.532 41.5795 19.718 41.3215 19.856C41.0695 19.994 40.7725 20.063 40.4305 20.063C40.0285 20.063 39.6625 19.958 39.3325 19.748C39.0085 19.538 38.7505 19.238 38.5585 18.848C38.3725 18.452 38.2795 17.993 38.2795 17.471ZM41.9155 17.471C41.9155 17.147 41.8255 16.892 41.6455 16.706C41.4715 16.52 41.2555 16.427 40.9975 16.427C40.7335 16.427 40.5145 16.52 40.3405 16.706C40.1665 16.886 40.0795 17.141 40.0795 17.471C40.0795 17.795 40.1665 18.053 40.3405 18.245C40.5145 18.431 40.7335 18.524 40.9975 18.524C41.2555 18.524 41.4715 18.431 41.6455 18.245C41.8255 18.059 41.9155 17.801 41.9155 17.471ZM46.4487 13.34V20H44.6847V13.34H46.4487ZM48.8339 15.077V13.421H51.6059V20H49.7609V15.077H48.8339ZM54.8073 20.063C54.3513 20.063 53.9433 19.988 53.5833 19.838C53.2293 19.682 52.9473 19.472 52.7373 19.208C52.5333 18.938 52.4193 18.635 52.3953 18.299H54.1053C54.1293 18.461 54.2043 18.587 54.3303 18.677C54.4563 18.767 54.6123 18.812 54.7983 18.812C54.9423 18.812 55.0563 18.782 55.1403 18.722C55.2243 18.662 55.2663 18.584 55.2663 18.488C55.2663 18.362 55.1973 18.269 55.0593 18.209C54.9213 18.149 54.6933 18.083 54.3753 18.011C54.0153 17.939 53.7153 17.858 53.4753 17.768C53.2353 17.678 53.0253 17.531 52.8453 17.327C52.6713 17.123 52.5843 16.847 52.5843 16.499C52.5843 16.199 52.6653 15.929 52.8273 15.689C52.9893 15.443 53.2263 15.248 53.5383 15.104C53.8563 14.96 54.2373 14.888 54.6813 14.888C55.3413 14.888 55.8603 15.05 56.2383 15.374C56.6163 15.698 56.8353 16.124 56.8953 16.652H55.3023C55.2723 16.49 55.2003 16.367 55.0863 16.283C54.9783 16.193 54.8313 16.148 54.6453 16.148C54.5013 16.148 54.3903 16.175 54.3123 16.229C54.2403 16.283 54.2043 16.358 54.2043 16.454C54.2043 16.574 54.2733 16.667 54.4113 16.733C54.5493 16.793 54.7713 16.856 55.0773 16.922C55.4433 17 55.7463 17.087 55.9863 17.183C56.2323 17.279 56.4453 17.435 56.6253 17.651C56.8113 17.861 56.9043 18.149 56.9043 18.515C56.9043 18.809 56.8173 19.073 56.6433 19.307C56.4753 19.541 56.2323 19.727 55.9143 19.865C55.6023 19.997 55.2333 20.063 54.8073 20.063ZM60.7506 18.497V20H59.9856C58.6956 20 58.0506 19.361 58.0506 18.083V16.418H57.4296V14.951H58.0506V13.727H59.8236V14.951H60.7416V16.418H59.8236V18.11C59.8236 18.248 59.8536 18.347 59.9136 18.407C59.9796 18.467 60.0876 18.497 60.2376 18.497H60.7506ZM67.2963 18.965H65.0463L64.7043 20H62.8503L65.1633 13.655H67.1973L69.5013 20H67.6383L67.2963 18.965ZM66.8553 17.615L66.1713 15.563L65.4963 17.615H66.8553ZM73.3793 14.906C73.9613 14.906 74.4233 15.101 74.7653 15.491C75.1073 15.875 75.2783 16.397 75.2783 17.057V20H73.5143V17.291C73.5143 17.003 73.4393 16.778 73.2893 16.616C73.1393 16.448 72.9383 16.364 72.6863 16.364C72.4223 16.364 72.2153 16.448 72.0653 16.616C71.9153 16.778 71.8403 17.003 71.8403 17.291V20H70.0763V14.951H71.8403V15.671C71.9963 15.443 72.2063 15.26 72.4703 15.122C72.7343 14.978 73.0373 14.906 73.3793 14.906ZM79.5492 14.906C80.1312 14.906 80.5932 15.101 80.9352 15.491C81.2772 15.875 81.4482 16.397 81.4482 17.057V20H79.6842V17.291C79.6842 17.003 79.6092 16.778 79.4592 16.616C79.3092 16.448 79.1082 16.364 78.8562 16.364C78.5922 16.364 78.3852 16.448 78.2352 16.616C78.0852 16.778 78.0102 17.003 78.0102 17.291V20H76.2462V14.951H78.0102V15.671C78.1662 15.443 78.3762 15.26 78.6402 15.122C78.9042 14.978 79.2072 14.906 79.5492 14.906ZM83.3071 14.483C82.9951 14.483 82.7431 14.399 82.5511 14.231C82.3651 14.057 82.2721 13.841 82.2721 13.583C82.2721 13.319 82.3651 13.1 82.5511 12.926C82.7431 12.752 82.9951 12.665 83.3071 12.665C83.6131 12.665 83.8591 12.752 84.0451 12.926C84.2371 13.1 84.3331 13.319 84.3331 13.583C84.3331 13.841 84.2371 14.057 84.0451 14.231C83.8591 14.399 83.6131 14.483 83.3071 14.483ZM84.1801 14.951V20H82.4161V14.951H84.1801ZM87.6057 18.335L88.5507 14.951H90.4317L88.6947 20H86.4987L84.7617 14.951H86.6427L87.6057 18.335ZM95.8534 17.417C95.8534 17.555 95.8444 17.693 95.8264 17.831H92.4874C92.5054 18.107 92.5804 18.314 92.7124 18.452C92.8504 18.584 93.0244 18.65 93.2344 18.65C93.5284 18.65 93.7384 18.518 93.8644 18.254H95.7454C95.6674 18.602 95.5144 18.914 95.2864 19.19C95.0644 19.46 94.7824 19.673 94.4404 19.829C94.0984 19.985 93.7204 20.063 93.3064 20.063C92.8084 20.063 92.3644 19.958 91.9744 19.748C91.5904 19.538 91.2874 19.238 91.0654 18.848C90.8494 18.458 90.7414 17.999 90.7414 17.471C90.7414 16.943 90.8494 16.487 91.0654 16.103C91.2814 15.713 91.5814 15.413 91.9654 15.203C92.3554 14.993 92.8024 14.888 93.3064 14.888C93.8044 14.888 94.2454 14.99 94.6294 15.194C95.0134 15.398 95.3134 15.692 95.5294 16.076C95.7454 16.454 95.8534 16.901 95.8534 17.417ZM94.0534 16.976C94.0534 16.76 93.9814 16.592 93.8374 16.472C93.6934 16.346 93.5134 16.283 93.2974 16.283C93.0814 16.283 92.9044 16.343 92.7664 16.463C92.6284 16.577 92.5384 16.748 92.4964 16.976H94.0534ZM98.3393 15.842C98.5373 15.554 98.7773 15.326 99.0593 15.158C99.3413 14.99 99.6443 14.906 99.9683 14.906V16.787H99.4733C99.0893 16.787 98.8043 16.862 98.6183 17.012C98.4323 17.162 98.3393 17.423 98.3393 17.795V20H96.5753V14.951H98.3393V15.842ZM102.752 20.063C102.296 20.063 101.888 19.988 101.528 19.838C101.174 19.682 100.892 19.472 100.682 19.208C100.478 18.938 100.364 18.635 100.34 18.299H102.05C102.074 18.461 102.149 18.587 102.275 18.677C102.401 18.767 102.557 18.812 102.743 18.812C102.887 18.812 103.001 18.782 103.085 18.722C103.169 18.662 103.211 18.584 103.211 18.488C103.211 18.362 103.142 18.269 103.004 18.209C102.866 18.149 102.638 18.083 102.32 18.011C101.96 17.939 101.66 17.858 101.42 17.768C101.18 17.678 100.97 17.531 100.79 17.327C100.616 17.123 100.529 16.847 100.529 16.499C100.529 16.199 100.61 15.929 100.772 15.689C100.934 15.443 101.171 15.248 101.483 15.104C101.801 14.96 102.182 14.888 102.626 14.888C103.286 14.888 103.805 15.05 104.183 15.374C104.561 15.698 104.78 16.124 104.84 16.652H103.247C103.217 16.49 103.145 16.367 103.031 16.283C102.923 16.193 102.776 16.148 102.59 16.148C102.446 16.148 102.335 16.175 102.257 16.229C102.185 16.283 102.149 16.358 102.149 16.454C102.149 16.574 102.218 16.667 102.356 16.733C102.494 16.793 102.716 16.856 103.022 16.922C103.388 17 103.691 17.087 103.931 17.183C104.177 17.279 104.39 17.435 104.57 17.651C104.756 17.861 104.849 18.149 104.849 18.515C104.849 18.809 104.762 19.073 104.588 19.307C104.42 19.541 104.177 19.727 103.859 19.865C103.547 19.997 103.178 20.063 102.752 20.063ZM105.428 17.471C105.428 16.949 105.521 16.493 105.707 16.103C105.899 15.713 106.157 15.413 106.481 15.203C106.811 14.993 107.177 14.888 107.579 14.888C107.927 14.888 108.227 14.957 108.479 15.095C108.731 15.233 108.926 15.419 109.064 15.653V14.951H110.828V20H109.064V19.298C108.926 19.532 108.728 19.718 108.47 19.856C108.218 19.994 107.921 20.063 107.579 20.063C107.177 20.063 106.811 19.958 106.481 19.748C106.157 19.538 105.899 19.238 105.707 18.848C105.521 18.452 105.428 17.993 105.428 17.471ZM109.064 17.471C109.064 17.147 108.974 16.892 108.794 16.706C108.62 16.52 108.404 16.427 108.146 16.427C107.882 16.427 107.663 16.52 107.489 16.706C107.315 16.886 107.228 17.141 107.228 17.471C107.228 17.795 107.315 18.053 107.489 18.245C107.663 18.431 107.882 18.524 108.146 18.524C108.404 18.524 108.62 18.431 108.794 18.245C108.974 18.059 109.064 17.801 109.064 17.471ZM113.597 15.842C113.795 15.554 114.035 15.326 114.317 15.158C114.599 14.99 114.902 14.906 115.226 14.906V16.787H114.731C114.347 16.787 114.062 16.862 113.876 17.012C113.69 17.162 113.597 17.423 113.597 17.795V20H111.833V14.951H113.597V15.842ZM121.294 14.951L118.09 22.403H116.173L117.379 19.784L115.309 14.951H117.271L118.333 17.813L119.359 14.951H121.294Z" fill="#EE6F57"/>
</g>
</g>
<defs>
<filter id="filter0_d_185_4117" x="6.28799" y="12.665" width="119.007" height="17.7379" filterUnits="userSpaceOnUse" color-interpolation-filters="sRGB">
<feFlood flood-opacity="0" result="BackgroundImageFix"/>
<feColorMatrix in="SourceAlpha" type="matrix" values="0 0 0 0 0 0 0 0 0 0 0 0 0 0 0 0 0 0 127 0" result="hardAlpha"/>
<feOffset dy="4"/>
<feGaussianBlur stdDeviation="2"/>
<feComposite in2="hardAlpha" operator="out"/>
<feColorMatrix type="matrix" values="0 0 0 0 0 0 0 0 0 0 0 0 0 0 0 0 0 0 0.25 0"/>
<feBlend mode="normal" in2="BackgroundImageFix" result="effect1_dropShadow_185_4117"/>
<feBlend mode="normal" in="SourceGraphic" in2="effect1_dropShadow_185_4117" result="shape"/>
</filter>
<linearGradient id="paint0_linear_185_4117" x1="209.5" y1="44" x2="254" y2="133" gradientUnits="userSpaceOnUse">
<stop offset="0.192728" stop-color="#EE6F57"/>
<stop offset="1" stop-color="#D9EE57" stop-opacity="0.54"/>
</linearGradient>
<clipPath id="clip0_185_4117">
<rect width="278" height="116" fill="white"/>
</clipPath>
</defs>
</svg>
