<svg width="278" height="116" viewBox="0 0 278 116" fill="none" xmlns="http://www.w3.org/2000/svg">
<g clip-path="url(#clip0_185_4299)">
<rect width="278" height="116" fill="#145374"/>
<ellipse cx="23.134" cy="68" rx="71.134" ry="69" fill="url(#paint0_linear_185_4299)" fill-opacity="0.3"/>
<path d="M-3.8506 4.51885C-4.24446 7.74761 -3.67201 11.0206 -2.20564 13.924C-0.739268 16.8274 1.55516 19.2308 4.38748 20.8301C7.21979 22.4295 10.4628 23.153 13.7063 22.9092C16.9499 22.6655 20.0482 21.4653 22.6097 19.4605C25.1711 17.4557 27.0805 14.7364 28.0964 11.6464C29.1122 8.55647 29.189 5.23464 28.3169 2.10104C27.4448 -1.03256 25.6631 -3.83717 23.197 -5.95812C20.7309 -8.07906 17.6913 -9.42107 14.4625 -9.81442C10.1334 -10.3418 5.77204 -9.12807 2.33775 -6.44012C-1.09653 -3.75218 -3.32252 0.189825 -3.8506 4.51885Z" fill="#F5F5F5"/>
<path d="M11.5349 12.8617C11.4706 13.3972 11.5664 13.9398 11.8102 14.4209C12.0541 14.9019 12.4351 15.2999 12.9051 15.5646C13.3751 15.8292 13.9129 15.9486 14.4508 15.9077C14.9886 15.8668 15.5022 15.6674 15.9267 15.3347C16.3513 15.002 16.6677 14.5509 16.8359 14.0385C17.0042 13.5261 17.0169 12.9752 16.8722 12.4556C16.7276 11.936 16.4322 11.4709 16.0234 11.1191C15.6145 10.7673 15.1106 10.5446 14.5752 10.4791C14.2191 10.4355 13.8578 10.4626 13.5122 10.5588C13.1665 10.655 12.8432 10.8184 12.5608 11.0397C12.2784 11.2611 12.0425 11.5359 11.8664 11.8485C11.6904 12.1612 11.5777 12.5055 11.5349 12.8617Z" fill="#E0E0E0"/>
<path d="M11.238 12.8505C11.1852 13.1984 11.2026 13.5533 11.2894 13.8944C11.3761 14.2354 11.5304 14.5555 11.7431 14.8359C11.9558 15.1162 12.2226 15.351 12.5277 15.5264C12.8327 15.7018 13.1699 15.8142 13.5192 15.8569C15.0224 16.0373 16.2889 14.861 16.4693 13.3691C16.5198 13.0263 16.4997 12.6768 16.4103 12.342C16.3209 12.0073 16.1641 11.6943 15.9494 11.4223C15.7348 11.1503 15.4669 10.925 15.162 10.7602C14.8572 10.5955 14.522 10.4947 14.1768 10.4641C13.8261 10.4214 13.4704 10.4498 13.1309 10.5476C12.7914 10.6454 12.475 10.8106 12.2008 11.0333C11.9265 11.256 11.6999 11.5317 11.5345 11.8439C11.3691 12.1561 11.2683 12.4984 11.238 12.8505Z" fill="#EBEBEB"/>
<path d="M9.16734 -9.60018C7.14029 -8.65006 5.3283 -7.29653 3.84213 -5.62233C2.35596 -3.94813 1.22683 -1.98843 0.523775 0.136981C0.710634 0.338139 0.854903 0.574996 0.9479 0.833322C1.0409 1.09165 1.0807 1.36611 1.06494 1.64021C0.967228 2.32794 0.200582 2.52711 -0.0624828 2.57973C-0.100064 2.81648 -0.141394 3.05324 -0.171459 3.29376C-0.317763 4.50009 -0.329118 5.71897 -0.205292 6.92781C-0.156436 6.96539 1.19648 7.98007 1.27164 8.92335C1.2787 9.59868 1.06637 10.2581 0.666584 10.8024C0.768052 11.0805 0.869522 11.3548 0.986022 11.6292C1.91655 13.831 3.3127 15.8054 5.07855 17.4166C5.39536 17.2797 5.73684 17.209 6.08196 17.209C6.42709 17.209 6.76857 17.2797 7.08537 17.4166C8.03992 17.9014 7.72424 19.2956 7.72424 19.2956L7.60774 19.3332C11.1546 21.4942 15.3884 22.2314 19.4569 21.3964C17.3529 22.3807 15.0641 22.908 12.7415 22.9438C10.4188 22.9795 8.11499 22.5228 5.98164 21.6036C3.84828 20.6845 1.93385 19.3239 0.364417 17.6113C-1.20502 15.8988 -2.39384 13.8732 -3.12376 11.6679C-3.85368 9.46267 -4.10813 7.1278 -3.87036 4.81708C-3.63259 2.50636 -2.90799 0.272229 -1.74428 -1.73818C-0.58057 -3.74858 0.995841 -5.48965 2.88114 -6.84671C4.76643 -8.20377 6.91783 -9.14604 9.19364 -9.61145L9.16734 -9.60018Z" fill="#E0E0E0"/>
<path d="M0.384734 3.43277C0.377884 3.48437 0.38131 3.53682 0.394815 3.58709C0.408321 3.63736 0.431645 3.68446 0.463433 3.72568C0.49522 3.7669 0.534848 3.80142 0.580035 3.82726C0.625222 3.85309 0.675073 3.86974 0.72672 3.87622C0.780163 3.88619 0.835086 3.88511 0.888096 3.87305C0.941107 3.861 0.991078 3.83822 1.03495 3.80612C1.07883 3.77402 1.11568 3.73328 1.14322 3.68641C1.17076 3.63953 1.1884 3.58752 1.19508 3.53356C1.20176 3.47961 1.19733 3.42486 1.18205 3.37269C1.16678 3.32052 1.14099 3.27202 1.10627 3.23019C1.07154 3.18836 1.02863 3.15408 0.980156 3.12946C0.931686 3.10484 0.878693 3.0904 0.824433 3.08703C0.772456 3.07795 0.719145 3.07991 0.667977 3.0928C0.61681 3.10568 0.568928 3.1292 0.527451 3.16181C0.485974 3.19443 0.451827 3.23541 0.427237 3.28209C0.402648 3.32878 0.388168 3.38012 0.384734 3.43277Z" fill="#E0E0E0"/>
<path d="M19.3743 14.2259C19.5618 13.4813 19.9022 12.7838 20.3739 12.1778C20.6633 11.7757 21.0691 11.3472 21.5577 11.4262L21.9748 11.4938C22.2712 11.3815 22.5944 11.3601 22.903 11.4324C23.2116 11.5047 23.4917 11.6674 23.7073 11.8997C23.89 12.1302 24.0185 12.3988 24.0836 12.6856C24.1486 12.9724 24.1485 13.2702 24.0831 13.557C23.9478 14.1307 23.6801 14.6648 23.3014 15.1166C22.8944 15.6378 22.4176 16.1006 21.8846 16.492C21.6009 16.7325 21.2512 16.8818 20.8812 16.9205C20.678 16.9153 20.4784 16.8654 20.2966 16.7745C20.1147 16.6836 19.9551 16.5538 19.829 16.3943C19.5946 16.0906 19.4319 15.7377 19.3532 15.3622C19.2744 14.9867 19.2816 14.5983 19.3743 14.2259Z" fill="#E0E0E0"/>
<path d="M18.9834 14.177C19.1697 13.4333 19.5075 12.736 19.9756 12.1288C20.2562 11.7326 20.6814 11.4626 21.1593 11.3772L21.802 11.272C22.4446 11.2945 22.8918 11.3885 23.3052 11.8657C23.4883 12.0953 23.6171 12.3632 23.6822 12.6495C23.7473 12.9359 23.7469 13.2332 23.681 13.5193C23.5464 14.0933 23.2786 14.6275 22.8993 15.0789C22.4931 15.6008 22.0162 16.0637 21.4825 16.4544C21.2195 16.6801 20.8891 16.8122 20.543 16.8302C20.3523 16.8144 20.1679 16.7547 20.0042 16.6555C19.8405 16.5564 19.7021 16.4206 19.5997 16.2589C19.3425 15.9835 19.1528 15.6521 19.0459 15.2907C18.9389 14.9293 18.9175 14.548 18.9834 14.177Z" fill="#EBEBEB"/>
<path d="M13.4215 20.0885C12.8269 20.1205 12.2315 20.0467 11.6627 19.8706C11.2869 19.7691 10.9111 19.6 10.8472 19.2768L10.8171 18.9949C10.6742 18.8322 10.5933 18.6243 10.5885 18.4078C10.5836 18.1913 10.6553 17.98 10.7908 17.8111C11.0957 17.4703 11.5221 17.2625 11.9784 17.2324C12.4332 17.2015 12.8895 17.2628 13.32 17.4128C13.7891 17.5594 14.2365 17.7679 14.6504 18.0329C14.8805 18.1522 15.0653 18.3436 15.1765 18.5778C15.2104 18.7132 15.2106 18.8549 15.1772 18.9905C15.1438 19.1261 15.0778 19.2515 14.9848 19.3557C14.7852 19.5746 14.5443 19.7519 14.2761 19.8777C14.0078 20.0034 13.7174 20.0751 13.4215 20.0885Z" fill="#E0E0E0"/>
<path d="M13.0757 20.1674C12.4812 20.1994 11.8857 20.1256 11.3169 19.9495C11.1485 19.9094 10.9896 19.8363 10.8496 19.7344C10.7096 19.6324 10.5913 19.5037 10.5014 19.3557L10.291 18.9799C10.2193 18.8031 10.1959 18.6105 10.2229 18.4217C10.25 18.2329 10.3267 18.0546 10.4451 17.9051C10.5949 17.7348 10.777 17.596 10.9808 17.4967C11.1847 17.3973 11.4062 17.3394 11.6326 17.3263C12.0872 17.2919 12.544 17.352 12.9743 17.503C13.4433 17.6496 13.8907 17.8581 14.3046 18.123C14.5171 18.2352 14.6814 18.4209 14.7669 18.6454C14.8571 18.8972 14.703 19.1264 14.5188 19.3557C14.3471 19.583 14.1302 19.7724 13.8819 19.9121C13.6336 20.0517 13.3592 20.1387 13.0757 20.1674Z" fill="#EBEBEB"/>
<path d="M23.4743 5.76268C23.5273 5.58488 23.6368 5.42919 23.7862 5.31923C24.0185 5.20191 24.285 5.17127 24.5379 5.23279C24.6492 5.25971 24.7533 5.31065 24.8429 5.38207C24.9325 5.45348 25.0054 5.54362 25.0565 5.64618C25.1428 5.76948 25.2036 5.90882 25.2352 6.05598C25.2668 6.20314 25.2687 6.35514 25.2406 6.50302C25.2111 6.64999 25.146 6.78748 25.051 6.90345C24.956 7.01941 24.834 7.11032 24.6957 7.1682C24.5116 7.23032 24.3128 7.23405 24.1264 7.17889C23.9401 7.12373 23.7754 7.01237 23.6547 6.86004C23.5382 6.7053 23.461 6.52465 23.4296 6.33354C23.3982 6.14243 23.4135 5.94656 23.4743 5.76268Z" fill="#E0E0E0"/>
<path d="M23.3089 5.7702C23.3554 5.60647 23.4561 5.46337 23.5946 5.36432C23.8058 5.25753 24.0479 5.22827 24.2785 5.28165C24.3804 5.30629 24.4758 5.35262 24.5582 5.41747C24.6405 5.48233 24.7079 5.56418 24.7558 5.65745C24.8345 5.7714 24.89 5.89976 24.919 6.03519C24.9481 6.17062 24.9501 6.31045 24.9249 6.44665C24.8978 6.58226 24.8376 6.7091 24.7498 6.81594C24.6619 6.92278 24.5491 7.00634 24.4213 7.05921C24.2526 7.11634 24.0703 7.11992 23.8994 7.06947C23.7286 7.01901 23.5774 6.91699 23.4668 6.77736C23.3612 6.63464 23.2918 6.46851 23.2643 6.29314C23.2368 6.11778 23.2521 5.93837 23.3089 5.7702Z" fill="#EBEBEB"/>
<path d="M19.4945 -0.539552C19.5717 -0.815951 19.7415 -1.05743 19.9755 -1.22352C20.3242 -1.39842 20.7229 -1.44626 21.103 -1.35881C21.2743 -1.31703 21.4346 -1.23862 21.5728 -1.12899C21.711 -1.01935 21.8238 -0.881084 21.9034 -0.723698C22.0354 -0.534132 22.1282 -0.320198 22.1766 -0.0943732C22.225 0.131452 22.228 0.364651 22.1853 0.591628C22.1395 0.817857 22.0392 1.02951 21.8932 1.20827C21.7472 1.38704 21.5598 1.52752 21.3472 1.61758C21.0651 1.71146 20.761 1.71639 20.476 1.63169C20.191 1.547 19.9389 1.37677 19.7538 1.14406C19.5765 0.905915 19.4601 0.627966 19.4149 0.334488C19.3697 0.0410098 19.397 -0.259072 19.4945 -0.539552Z" fill="#E0E0E0"/>
<path d="M19.2239 -0.528311C19.2964 -0.780725 19.4511 -1.00165 19.6636 -1.15591C19.9875 -1.31975 20.359 -1.36369 20.7121 -1.27992C20.8723 -1.24344 21.0225 -1.17241 21.1524 -1.07179C21.2822 -0.971177 21.3885 -0.843407 21.4638 -0.697424C21.5847 -0.522834 21.6699 -0.32601 21.7144 -0.118313C21.759 0.089384 21.7619 0.303839 21.7231 0.512673C21.6808 0.720682 21.5881 0.915131 21.4531 1.07894C21.3181 1.24276 21.145 1.37092 20.9489 1.45219C20.6899 1.54005 20.41 1.54568 20.1476 1.46832C19.8852 1.39095 19.6532 1.23437 19.4833 1.02001C19.3175 0.802414 19.2073 0.547705 19.1621 0.277925C19.1169 0.00814557 19.1381 -0.268581 19.2239 -0.528311Z" fill="#EBEBEB"/>
<path d="M4.34574 8.06638C5.67615 8.06638 6.75466 6.98787 6.75466 5.65746C6.75466 4.32705 5.67615 3.24854 4.34574 3.24854C3.01533 3.24854 1.93681 4.32705 1.93681 5.65746C1.93681 6.98787 3.01533 8.06638 4.34574 8.06638Z" fill="white"/>
<path d="M6.75091 5.65755C6.73212 5.65755 6.7509 5.44334 6.64192 5.07881C6.49513 4.56678 6.18501 4.11676 5.75878 3.79731C5.44645 3.56522 5.08126 3.4145 4.69616 3.35873C4.31105 3.30297 3.91812 3.34391 3.55278 3.47787C3.2172 3.60219 2.91495 3.8025 2.66969 4.06311C2.42444 4.32373 2.24284 4.63757 2.1391 4.98008C2.03537 5.32258 2.01232 5.68445 2.07176 6.03735C2.1312 6.39024 2.27153 6.72459 2.48174 7.01422C2.74795 7.38737 3.12156 7.67054 3.55278 7.82596C3.91782 7.96045 4.31058 8.00201 4.69568 7.9469C5.08077 7.89179 5.44612 7.74175 5.75878 7.51028C6.18623 7.192 6.49666 6.74153 6.64192 6.22878C6.73963 5.85297 6.73212 5.64628 6.75091 5.65004C6.75974 5.70102 6.75974 5.75314 6.75091 5.80412C6.74892 5.95337 6.73129 6.102 6.6983 6.24757C6.57605 6.79135 6.2693 7.27603 5.83017 7.61927C5.50126 7.87464 5.11327 8.04295 4.70207 8.10864C4.29086 8.17432 3.86974 8.13526 3.47763 7.99507C3.01084 7.83136 2.60465 7.52999 2.31263 7.13072C1.95171 6.64921 1.77784 6.05306 1.82334 5.45302C1.86883 4.85298 2.13059 4.28986 2.55998 3.86827C2.98938 3.44669 3.55721 3.1953 4.15798 3.16082C4.75875 3.12634 5.35162 3.31111 5.82642 3.68081C6.26812 4.02237 6.57654 4.50758 6.6983 5.0525C6.73149 5.19804 6.74912 5.34669 6.75091 5.49596C6.76064 5.54938 6.76064 5.60413 6.75091 5.65755Z" fill="#263238"/>
<path d="M4.34575 7.41623C5.31709 7.41623 6.10452 6.6288 6.10452 5.65746C6.10452 4.68611 5.31709 3.89868 4.34575 3.89868C3.3744 3.89868 2.58698 4.68611 2.58698 5.65746C2.58698 6.6288 3.3744 7.41623 4.34575 7.41623Z" fill="#263238"/>
<path d="M20.4378 8.06638C21.7682 8.06638 22.8467 6.98787 22.8467 5.65746C22.8467 4.32705 21.7682 3.24854 20.4378 3.24854C19.1074 3.24854 18.0289 4.32705 18.0289 5.65746C18.0289 6.98787 19.1074 8.06638 20.4378 8.06638Z" fill="white"/>
<path d="M22.8467 5.65751C22.8242 5.65751 22.8467 5.4433 22.734 5.07877C22.5905 4.56617 22.2813 4.11554 21.8546 3.79727C21.5074 3.53686 21.0944 3.3786 20.6621 3.34031C20.2298 3.30203 19.7954 3.38524 19.4078 3.58058C19.0203 3.77592 18.695 4.07561 18.4686 4.44589C18.2422 4.81617 18.1238 5.24231 18.1266 5.6763C18.1333 6.15784 18.2896 6.62537 18.5738 7.01417C18.8422 7.38677 19.2168 7.66968 19.6486 7.82592C20.0137 7.96007 20.4064 8.00145 20.7914 7.94635C21.1764 7.89125 21.5418 7.74139 21.8546 7.51024C22.2813 7.19196 22.5905 6.74133 22.734 6.22874C22.8317 5.85293 22.8242 5.64624 22.8467 5.64999C22.8693 5.65375 22.8467 5.70261 22.8467 5.80407C22.8483 5.95332 22.8319 6.10221 22.7979 6.24753C22.6752 6.79208 22.367 7.27701 21.926 7.61922C21.6643 7.82161 21.3649 7.9697 21.0452 8.05479C20.7256 8.13989 20.3921 8.16028 20.0645 8.11477C19.7368 8.06927 19.4215 7.95878 19.1372 7.78978C18.8528 7.62079 18.605 7.39671 18.4084 7.13067C18.0911 6.70222 17.9198 6.18316 17.9198 5.64999C17.9198 5.11683 18.0911 4.59777 18.4084 4.16931C18.6041 3.90201 18.8514 3.67672 19.1357 3.50684C19.4201 3.33696 19.7357 3.22594 20.0638 3.18037C20.3919 3.1348 20.7258 3.15562 21.0457 3.24157C21.3656 3.32753 21.6649 3.47688 21.926 3.68076C22.3677 4.02232 22.6761 4.50754 22.7979 5.05246C22.8321 5.19774 22.8485 5.34666 22.8467 5.49591C22.858 5.6049 22.8542 5.65751 22.8467 5.65751Z" fill="#263238"/>
<path d="M20.4378 7.41623C21.4091 7.41623 22.1966 6.6288 22.1966 5.65746C22.1966 4.68611 21.4091 3.89868 20.4378 3.89868C19.4665 3.89868 18.679 4.68611 18.679 5.65746C18.679 6.6288 19.4665 7.41623 20.4378 7.41623Z" fill="#263238"/>
<path d="M9.94902 6.13101C10.1062 6.8643 10.4288 7.55199 10.8923 8.14158C11.11 8.40784 11.3857 8.62076 11.6984 8.76407C12.011 8.90737 12.3523 8.97724 12.6962 8.96836C13.0274 8.93415 13.3475 8.82922 13.6347 8.66065C13.9219 8.49208 14.1696 8.2638 14.361 7.99126C14.7756 7.3671 15.0002 6.63602 15.0074 5.88674C15.0074 5.58609 14.5527 5.58609 14.5376 5.88674C14.485 7.01416 13.9551 8.47981 12.6285 8.51739C11.3019 8.55497 10.6894 7.0818 10.4 6.01827C10.3918 5.98866 10.3779 5.96094 10.3591 5.9367C10.3402 5.91246 10.3168 5.89217 10.2901 5.87699C10.2634 5.86181 10.234 5.85204 10.2035 5.84823C10.173 5.84442 10.1421 5.84665 10.1125 5.8548C10.0829 5.86294 10.0552 5.87683 10.0309 5.89569C10.0067 5.91454 9.98639 5.93799 9.97121 5.96468C9.95603 5.99138 9.94626 6.0208 9.94245 6.05128C9.93864 6.08175 9.94088 6.11268 9.94902 6.14229V6.13101Z" fill="#263238"/>
<path opacity="0.5" d="M6.92377 9.96042C6.92377 10.5354 5.93164 11.0014 4.70651 11.0014C3.48138 11.0014 2.48549 10.5354 2.48549 9.96042C2.48549 9.38543 3.47762 8.91943 4.70651 8.91943C5.9354 8.91943 6.92377 9.38543 6.92377 9.96042Z" fill="#FF725E"/>
<path opacity="0.5" d="M23.0947 9.69369C23.0947 10.2687 22.0989 10.7347 20.8737 10.7347C19.6486 10.7347 18.6527 10.2687 18.6527 9.69369C18.6527 9.11871 19.6486 8.65271 20.8737 8.65271C22.0989 8.65271 23.0947 9.11871 23.0947 9.69369Z" fill="#FF725E"/>
<path d="M-3.85061 4.51881C-3.85061 4.51881 -3.85061 4.42862 -3.81303 4.25574C-3.77545 4.08287 -3.74539 3.81605 -3.68902 3.48158C-3.66271 3.31247 -3.62889 3.10577 -3.59506 2.91035C-3.56124 2.71494 -3.48232 2.48193 -3.41844 2.23766C-3.35455 1.99339 -3.27938 1.73408 -3.20422 1.45222C-3.12906 1.17037 -2.99753 0.892269 -2.88855 0.58035C-2.33103 -0.90782 -1.54908 -2.30191 -0.569823 -3.55353C0.716847 -5.23233 2.31736 -6.64522 4.1428 -7.71371L4.91321 -8.16092C5.18379 -8.29245 5.46188 -8.41271 5.73998 -8.53673C6.01808 -8.66074 6.29617 -8.81107 6.59682 -8.91253L7.495 -9.2207L7.95349 -9.37478L8.427 -9.48752L9.39282 -9.713C9.71977 -9.78065 10.0542 -9.80695 10.3887 -9.85581C10.7269 -9.91313 11.0683 -9.94953 11.4109 -9.96479C12.1104 -10.0117 12.8122 -10.0117 13.5117 -9.96479C13.8687 -9.93473 14.2295 -9.92345 14.5865 -9.87836L15.665 -9.69045C15.8492 -9.65663 16.0409 -9.63408 16.21 -9.58899L16.7474 -9.43866C17.1044 -9.33719 17.4727 -9.247 17.8297 -9.12674C18.5532 -8.8741 19.2589 -8.57276 19.9417 -8.22481C20.6437 -7.87007 21.3216 -7.4696 21.9711 -7.02598C22.2943 -6.79298 22.6024 -6.53743 22.9181 -6.27437C23.076 -6.14659 23.2413 -6.03385 23.3879 -5.89856L23.8276 -5.47766C24.4242 -4.91257 24.9828 -4.30871 25.4999 -3.67003L26.2215 -2.64783L26.4056 -2.39228L26.5634 -2.1217L26.8791 -1.57302L27.1948 -1.02059L27.4616 -0.441843L27.7247 0.144415L27.8562 0.437544L27.9614 0.741947L28.3786 1.96708C28.4801 2.38798 28.5778 2.81264 28.6792 3.2373C29.0158 4.97654 29.088 6.75661 28.8935 8.51739C28.6606 10.2747 28.1626 11.9865 27.4165 13.5945L26.8228 14.7595L26.1237 15.8494L25.9471 16.12L25.7479 16.3718L25.3533 16.8753L24.955 17.3752L24.5153 17.8336L24.0794 18.2884L23.8576 18.5139L23.6209 18.7206C23.3014 18.9911 22.9858 19.2655 22.6738 19.5361C22.0182 20.0323 21.3302 20.4843 20.6144 20.889L20.0883 21.1934C19.9117 21.2948 19.7125 21.3625 19.5434 21.4489C19.1676 21.6105 18.8143 21.7909 18.4423 21.9337C17.7072 22.2122 16.9538 22.4395 16.1874 22.6139C15.4447 22.7877 14.6915 22.9133 13.9326 22.9897C13.5568 23.0235 13.181 23.0198 12.8052 23.0348H12.249C12.0611 23.0348 11.8731 23.0123 11.6928 23.0048L10.6029 22.9258C10.2271 22.8845 9.88889 22.8056 9.53939 22.7492C8.84718 22.6318 8.16404 22.466 7.495 22.2531C7.16626 22.1564 6.84372 22.0397 6.52918 21.9036C6.21726 21.7759 5.89782 21.6669 5.59717 21.5278L4.71403 21.0769L4.28185 20.8551L3.87222 20.5958L3.06424 20.0772C2.79365 19.9119 2.56817 19.7014 2.31262 19.5135C2.05707 19.3256 1.83158 19.1377 1.60234 18.946L0.959714 18.3297C-0.553512 16.8523 -1.76705 15.0964 -2.6142 13.1586C-3.26693 11.703 -3.69036 10.1552 -3.86941 8.57001C-3.91897 8.26514 -3.95158 7.95776 -3.96711 7.64928C-3.96711 7.35991 -3.96712 7.08933 -3.98591 6.83754C-4.0047 6.58574 -4.0047 6.35275 -3.98591 6.14229C-3.96712 5.93184 -3.95209 5.73642 -3.94081 5.56355L-3.87316 4.78563C-3.87316 4.609 -3.84686 4.51881 -3.84686 4.51881C-3.84686 4.51881 -3.84686 4.609 -3.84686 4.78563C-3.84686 4.96226 -3.87317 5.22908 -3.89196 5.56731C-3.89196 5.74018 -3.91449 5.94312 -3.92953 6.14229C-3.94456 6.34147 -3.92953 6.58574 -3.91074 6.83754C-3.89195 7.08933 -3.91075 7.35615 -3.88068 7.64552C-3.85062 7.93489 -3.80928 8.2393 -3.77546 8.56249C-3.58233 10.1354 -3.1515 11.6699 -2.4977 13.1135C-1.64624 15.0323 -0.432794 16.7689 1.07621 18.2282L1.71509 18.8408C1.94057 19.0325 2.18485 19.2166 2.42161 19.4008C2.65837 19.5849 2.89137 19.7954 3.17322 19.957L3.96617 20.4643L4.37205 20.7198L4.80422 20.9378L5.6761 21.3813C5.97299 21.5241 6.29242 21.6293 6.60058 21.7571C6.91335 21.889 7.23329 22.0031 7.55888 22.0991C8.22209 22.3081 8.89889 22.4714 9.58449 22.5876C9.93023 22.6402 10.2797 22.7191 10.6367 22.7567L11.7191 22.8319C11.8995 22.8319 12.0949 22.8657 12.264 22.8619H12.8164C13.1922 22.8619 13.568 22.8619 13.9438 22.8206C14.7027 22.7435 15.4559 22.618 16.1987 22.4448C16.957 22.2706 17.7027 22.0459 18.431 21.7721C18.8068 21.6255 19.1525 21.4489 19.5133 21.2911C19.6937 21.2046 19.8891 21.137 20.0545 21.0355L20.5768 20.7349C21.2834 20.333 21.9626 19.8848 22.61 19.3932L23.5457 18.5853L23.7787 18.3823L23.9967 18.1568L24.4289 17.7059L24.861 17.2511L25.2556 16.7588L25.6314 16.259L25.8269 16.011L25.9997 15.7442L26.6912 14.6656C26.8866 14.2898 27.067 13.914 27.2775 13.5156C28.0146 11.9264 28.5075 10.235 28.7394 8.4986C28.9306 6.75648 28.8584 4.9955 28.5252 3.27489L28.232 2.01969C28.093 1.61382 27.9539 1.21171 27.8186 0.809592L27.7134 0.508948L27.5856 0.219576L27.3226 -0.359167L27.0633 -0.934152L26.7476 -1.47907L26.4394 -2.02023L26.2816 -2.29081L26.1012 -2.5426L25.3872 -3.55353C24.8767 -4.18503 24.3256 -4.78258 23.7374 -5.34237L23.2639 -5.76327C23.1211 -5.90232 22.9557 -6.0113 22.8016 -6.13908C22.4859 -6.38335 22.1853 -6.6389 21.8659 -6.86814C21.2247 -7.30714 20.5556 -7.70383 19.8628 -8.05569C19.1865 -8.40009 18.4886 -8.70012 17.7733 -8.95387C17.4201 -9.07413 17.0555 -9.16057 16.7023 -9.26579L16.1724 -9.41236C15.9958 -9.45745 15.7966 -9.48 15.635 -9.51382L14.5677 -9.70173C14.2107 -9.75058 13.8537 -9.7581 13.5042 -9.78816C12.8097 -9.83506 12.1129 -9.83506 11.4184 -9.78816C11.081 -9.77229 10.7447 -9.73716 10.4113 -9.68294C10.0768 -9.63408 9.74609 -9.60778 9.42289 -9.54389L8.46458 -9.32216L7.99482 -9.21318L7.5401 -9.06286L6.64944 -8.75845C6.35255 -8.66826 6.08196 -8.51418 5.80011 -8.38265C5.51825 -8.25111 5.24768 -8.13837 4.98085 -8.00684L4.22924 -7.5709C2.41207 -6.53193 0.812047 -5.15264 -0.483383 -3.50843C-1.46813 -2.25793 -2.2552 -0.86375 -2.81714 0.625447C-2.94088 0.907325 -3.04879 1.19589 -3.14034 1.48981L-3.36207 2.26772C-3.42971 2.50824 -3.50111 2.72997 -3.54997 2.93666L-3.65143 3.50413C-3.71156 3.8386 -3.76042 4.09415 -3.79424 4.25574C-3.82806 4.41734 -3.85061 4.51881 -3.85061 4.51881Z" fill="#263238"/>
<path d="M82.0799 32.2248C81.3962 30.1135 80.4288 28.1049 79.2045 26.2539C78.5845 25.3316 77.7849 24.5439 76.8536 23.9376C75.9222 23.3314 74.8781 22.9192 73.7838 22.7257C71.5833 22.4543 69.1406 23.6426 68.4218 25.7404C68.1064 21.0166 67.4389 16.1607 65.0696 12.0603C62.7003 7.95992 58.2919 4.72509 53.5607 5.0185C49.1009 5.2899 45.2792 8.60541 43.1594 12.5371C41.0395 16.4687 40.306 20.9799 39.6091 25.3957C37.922 23.3198 34.3498 23.9727 32.5893 25.9825C30.8289 27.9923 30.3888 30.8091 30 33.4571H82.3L82.0799 32.2248Z" fill="#FAFAFA"/>
<path d="M39.3631 28.7183L45.6334 23L48.2307 31.1387C49.408 34.9138 51.8532 38.1662 55.1527 40.3457C58.4523 42.5251 62.4034 43.4978 66.3376 43.0991L74.7417 42.2003L72.1161 50.339C70.887 54.1237 70.9839 58.2141 72.3906 61.9364C73.7973 65.6587 76.43 68.7908 79.8549 70.8167L87.1798 75.1019L80.3326 80.1196C77.1372 82.4859 74.8426 85.8696 73.8264 89.7137C72.8103 93.5578 73.133 97.6334 74.7417 101.27L78.1918 109.101L69.7382 109.072C65.7846 109.08 61.9552 110.454 58.8982 112.961C55.8411 115.469 53.744 118.955 52.9618 122.83L51.1925 131.217L44.3631 126.153C41.2016 123.798 37.3175 122.621 33.3809 122.824C29.4442 123.027 25.7018 124.597 22.799 127.264L16.5287 133L13.9314 124.837C12.7539 121.065 10.3105 117.815 7.01404 115.637C3.71756 113.458 -0.229898 112.484 -4.16135 112.88L-12.5655 113.778L-9.93984 105.64C-8.71408 101.857 -8.81222 97.7704 -10.2181 94.0512C-11.624 90.332 -14.2539 87.202 -17.6752 85.1762L-25 80.891L-18.1635 75.8627C-14.9681 73.4964 -12.6735 70.1127 -11.6573 66.2686C-10.6411 62.4245 -10.9639 58.3489 -12.5725 54.7127L-16.0191 46.8818L-7.569 46.9101C-3.61419 46.9034 0.216791 45.5303 3.27532 43.0231C6.33385 40.5159 8.43197 37.0288 9.21444 33.1522L10.9696 24.7693L17.799 29.833C20.9609 32.1869 24.8452 33.3636 28.7818 33.1601C32.7185 32.9566 36.4607 31.3857 39.3631 28.7183Z" fill="#FF725E"/>
<path opacity="0.3" d="M39.3631 28.7183L45.6334 23L48.2307 31.1387C49.408 34.9138 51.8532 38.1662 55.1527 40.3457C58.4523 42.5251 62.4034 43.4978 66.3376 43.0991L74.7417 42.2003L72.1161 50.339C70.887 54.1237 70.9839 58.2141 72.3906 61.9364C73.7973 65.6587 76.43 68.7908 79.8549 70.8167L87.1798 75.1019L80.3326 80.1196C77.1372 82.4859 74.8426 85.8696 73.8264 89.7137C72.8103 93.5578 73.133 97.6334 74.7417 101.27L78.1918 109.101L69.7382 109.072C65.7846 109.08 61.9552 110.454 58.8982 112.961C55.8411 115.469 53.744 118.955 52.9618 122.83L51.1925 131.217L44.3631 126.153C41.2016 123.798 37.3175 122.621 33.3809 122.824C29.4442 123.027 25.7018 124.597 22.799 127.264L16.5287 133L13.9314 124.837C12.7539 121.065 10.3105 117.815 7.01404 115.637C3.71756 113.458 -0.229898 112.484 -4.16135 112.88L-12.5655 113.778L-9.93984 105.64C-8.71408 101.857 -8.81222 97.7704 -10.2181 94.0512C-11.624 90.332 -14.2539 87.202 -17.6752 85.1762L-25 80.891L-18.1635 75.8627C-14.9681 73.4964 -12.6735 70.1127 -11.6573 66.2686C-10.6411 62.4245 -10.9639 58.3489 -12.5725 54.7127L-16.0191 46.8818L-7.569 46.9101C-3.61419 46.9034 0.216791 45.5303 3.27532 43.0231C6.33385 40.5159 8.43197 37.0288 9.21444 33.1522L10.9696 24.7693L17.799 29.833C20.9609 32.1869 24.8452 33.3636 28.7818 33.1601C32.7185 32.9566 36.4607 31.3857 39.3631 28.7183Z" fill="black"/>
<path d="M31.4367 30.3213L32.523 27.7134L33.4076 30.3956C33.8424 31.715 34.6175 32.8964 35.6548 33.8206C36.692 34.7448 37.9546 35.379 39.3153 35.6593C40.6759 35.9396 42.0864 35.8561 43.4045 35.4171C44.7225 34.9782 45.9015 34.1994 46.8224 33.1592L48.6978 31.0361L48.6624 33.867C48.6456 35.2559 48.9954 36.6247 49.6765 37.8352C50.3577 39.0458 51.346 40.0553 52.5418 40.762C53.7376 41.4687 55.0987 41.8474 56.4877 41.8602C57.8766 41.8729 59.2444 41.5191 60.4529 40.8344L62.9122 39.4402L61.9639 42.1083C61.4973 43.4164 61.3838 44.8245 61.635 46.1904C61.8862 47.5564 62.4931 48.832 63.3946 49.8885C64.2962 50.9451 65.4603 51.7452 66.7697 52.2082C68.0792 52.6713 69.4875 52.7808 70.8528 52.5258L73.6306 52.0092L71.8613 54.2173C70.9964 55.3034 70.4329 56.5982 70.2277 57.9713C70.0224 59.3444 70.1825 60.7474 70.692 62.0389C71.2014 63.3305 72.0422 64.465 73.1296 65.3282C74.217 66.1915 75.5126 66.7529 76.8861 66.9561L79.6815 67.3666L77.2965 68.8811C76.125 69.6273 75.1708 70.669 74.5302 71.9015C73.8896 73.1339 73.5852 74.5134 73.6476 75.901C73.7101 77.2885 74.1371 78.6351 74.8859 79.8051C75.6346 80.975 76.6784 81.9268 77.9122 82.5648L80.4211 83.8634L77.6752 84.5216C76.3262 84.8492 75.0873 85.5266 74.0835 86.4856C73.0797 87.4445 72.3464 88.6511 71.9575 89.9837C71.5685 91.3163 71.5377 92.7279 71.8681 94.0762C72.1985 95.4246 72.8784 96.662 73.8393 97.6638L75.7926 99.7056L72.9618 99.4367C71.5787 99.3056 70.1855 99.5416 68.9227 100.121C67.6599 100.7 66.5721 101.602 65.7689 102.735C64.9658 103.869 64.4758 105.194 64.3482 106.578C64.2207 107.961 64.4602 109.354 65.0425 110.615L66.2279 113.18L63.6553 112.013C62.3902 111.439 60.9962 111.209 59.6139 111.347C58.2317 111.484 56.91 111.983 55.7824 112.794C54.6547 113.606 53.7609 114.7 53.1911 115.967C52.6214 117.233 52.3958 118.628 52.5371 120.01L52.8238 122.823L50.7679 120.884C49.7574 119.93 48.5132 119.26 47.1609 118.941C45.8086 118.622 44.3961 118.665 43.0659 119.066C41.7357 119.468 40.5349 120.213 39.5846 121.227C38.6344 122.24 37.9684 123.487 37.6539 124.84L37.0134 127.59L35.7006 125.091C35.0545 123.861 34.0954 122.824 32.9201 122.083C31.7448 121.342 30.3949 120.924 29.0065 120.872C27.6182 120.82 26.2407 121.134 25.0129 121.784C23.785 122.434 22.7504 123.397 22.0134 124.575L20.5131 126.967L20.0814 124.175C19.8675 122.804 19.2964 121.514 18.4256 120.434C17.5547 119.355 16.4149 118.523 15.1207 118.024C13.8265 117.525 12.4236 117.375 11.0532 117.59C9.68281 117.805 8.39323 118.377 7.31422 119.249L5.11676 121.018L5.6157 118.237C5.86217 116.87 5.74341 115.462 5.27142 114.155C4.79942 112.848 3.99092 111.689 2.92757 110.795C1.86422 109.9 0.583689 109.303 -0.784657 109.062C-2.153 108.821 -3.56069 108.945 -4.86554 109.423L-7.51947 110.389L-6.1465 107.912C-5.47423 106.698 -5.13359 105.328 -5.15886 103.941C-5.18414 102.554 -5.57445 101.198 -6.29049 100.009C-7.00653 98.8205 -8.02303 97.8416 -9.23767 97.1709C-10.4523 96.5001 -11.8222 96.1612 -13.2095 96.1883L-16.0403 96.2413L-13.9172 94.3553C-12.8841 93.4265 -12.1141 92.2419 -11.6849 90.9207C-11.2556 89.5995 -11.1823 88.1884 -11.4722 86.8299C-11.7621 85.4713 -12.4051 84.2131 -13.3364 83.1823C-14.2676 82.1514 -15.4541 81.3843 -16.7764 80.9583L-19.4692 80.0913L-16.8648 78.9908C-15.5863 78.4477 -14.4736 77.5773 -13.6388 76.4671C-12.804 75.3569 -12.2765 74.0463 -12.1097 72.6673C-11.9428 71.2883 -12.1424 69.8897 -12.6884 68.6124C-13.2343 67.3352 -14.1073 66.2244 -15.2194 65.3921L-17.4841 63.7006L-14.6532 63.4989C-13.2678 63.4008 -11.9328 62.9391 -10.7828 62.1604C-9.63275 61.3817 -8.70842 60.3134 -8.10299 59.0635C-7.49756 57.8135 -7.23246 56.426 -7.3344 55.0408C-7.43635 53.6557 -7.90175 52.322 -8.68366 51.1741L-10.276 48.8386L-7.54424 49.5464C-6.20212 49.9036 -4.78952 49.9007 -3.44891 49.5378C-2.1083 49.1749 -0.887087 48.4649 0.091568 47.4794C1.07022 46.4939 1.77171 45.2678 2.12529 43.9247C2.47886 42.5816 2.47202 41.1691 2.10544 39.8294L1.3588 37.1012L3.70842 38.6759C4.86188 39.4497 6.19902 39.9057 7.58496 39.9978C8.97089 40.0898 10.3566 39.8148 11.6023 39.2004C12.848 38.586 13.9097 37.6539 14.6802 36.4982C15.4506 35.3425 15.9027 34.004 15.9908 32.6178L16.1677 29.787L17.8769 32.0375C18.7158 33.1388 19.8294 34.0002 21.1062 34.5354C22.3829 35.0706 23.7779 35.2608 25.1513 35.087C26.5247 34.9132 27.8284 34.3814 28.9315 33.545C30.0346 32.7085 30.8986 31.5968 31.4367 30.3213Z" fill="#FF725E"/>
<path opacity="0.3" d="M31.4367 30.3213L32.523 27.7134L33.4076 30.3956C33.8424 31.715 34.6175 32.8964 35.6548 33.8206C36.692 34.7448 37.9546 35.379 39.3153 35.6593C40.6759 35.9396 42.0864 35.8561 43.4045 35.4171C44.7225 34.9782 45.9015 34.1994 46.8224 33.1592L48.6978 31.0361L48.6624 33.867C48.6456 35.2559 48.9954 36.6247 49.6765 37.8352C50.3577 39.0458 51.346 40.0553 52.5418 40.762C53.7376 41.4687 55.0987 41.8474 56.4877 41.8602C57.8766 41.8729 59.2444 41.5191 60.4529 40.8344L62.9122 39.4402L61.9639 42.1083C61.4973 43.4164 61.3838 44.8245 61.635 46.1904C61.8862 47.5564 62.4931 48.832 63.3946 49.8885C64.2962 50.9451 65.4603 51.7452 66.7697 52.2082C68.0792 52.6713 69.4875 52.7808 70.8528 52.5258L73.6306 52.0092L71.8613 54.2173C70.9964 55.3034 70.4329 56.5982 70.2277 57.9713C70.0224 59.3444 70.1825 60.7474 70.692 62.0389C71.2014 63.3305 72.0422 64.465 73.1296 65.3282C74.217 66.1915 75.5126 66.7529 76.8861 66.9561L79.6815 67.3666L77.2965 68.8811C76.125 69.6273 75.1708 70.669 74.5302 71.9015C73.8896 73.1339 73.5852 74.5134 73.6476 75.901C73.7101 77.2885 74.1371 78.6351 74.8859 79.8051C75.6346 80.975 76.6784 81.9268 77.9122 82.5648L80.4211 83.8634L77.6752 84.5216C76.3262 84.8492 75.0873 85.5266 74.0835 86.4856C73.0797 87.4445 72.3464 88.6511 71.9575 89.9837C71.5685 91.3163 71.5377 92.7279 71.8681 94.0762C72.1985 95.4246 72.8784 96.662 73.8393 97.6638L75.7926 99.7056L72.9618 99.4367C71.5787 99.3056 70.1855 99.5416 68.9227 100.121C67.6599 100.7 66.5721 101.602 65.7689 102.735C64.9658 103.869 64.4758 105.194 64.3482 106.578C64.2207 107.961 64.4602 109.354 65.0425 110.615L66.2279 113.18L63.6553 112.013C62.3902 111.439 60.9962 111.209 59.6139 111.347C58.2317 111.484 56.91 111.983 55.7824 112.794C54.6547 113.606 53.7609 114.7 53.1911 115.967C52.6214 117.233 52.3958 118.628 52.5371 120.01L52.8238 122.823L50.7679 120.884C49.7574 119.93 48.5132 119.26 47.1609 118.941C45.8086 118.622 44.3961 118.665 43.0659 119.066C41.7357 119.468 40.5349 120.213 39.5846 121.227C38.6344 122.24 37.9684 123.487 37.6539 124.84L37.0134 127.59L35.7006 125.091C35.0545 123.861 34.0954 122.824 32.9201 122.083C31.7448 121.342 30.3949 120.924 29.0065 120.872C27.6182 120.82 26.2407 121.134 25.0129 121.784C23.785 122.434 22.7504 123.397 22.0134 124.575L20.5131 126.967L20.0814 124.175C19.8675 122.804 19.2964 121.514 18.4256 120.434C17.5547 119.355 16.4149 118.523 15.1207 118.024C13.8265 117.525 12.4236 117.375 11.0532 117.59C9.68281 117.805 8.39323 118.377 7.31422 119.249L5.11676 121.018L5.6157 118.237C5.86217 116.87 5.74341 115.462 5.27142 114.155C4.79942 112.848 3.99092 111.689 2.92757 110.795C1.86422 109.9 0.583689 109.303 -0.784657 109.062C-2.153 108.821 -3.56069 108.945 -4.86554 109.423L-7.51947 110.389L-6.1465 107.912C-5.47423 106.698 -5.13359 105.328 -5.15886 103.941C-5.18414 102.554 -5.57445 101.198 -6.29049 100.009C-7.00653 98.8205 -8.02303 97.8416 -9.23767 97.1709C-10.4523 96.5001 -11.8222 96.1612 -13.2095 96.1883L-16.0403 96.2413L-13.9172 94.3553C-12.8841 93.4265 -12.1141 92.2419 -11.6849 90.9207C-11.2556 89.5995 -11.1823 88.1884 -11.4722 86.8299C-11.7621 85.4713 -12.4051 84.2131 -13.3364 83.1823C-14.2676 82.1514 -15.4541 81.3843 -16.7764 80.9583L-19.4692 80.0913L-16.8648 78.9908C-15.5863 78.4477 -14.4736 77.5773 -13.6388 76.4671C-12.804 75.3569 -12.2765 74.0463 -12.1097 72.6673C-11.9428 71.2883 -12.1424 69.8897 -12.6884 68.6124C-13.2343 67.3352 -14.1073 66.2244 -15.2194 65.3921L-17.4841 63.7006L-14.6532 63.4989C-13.2678 63.4008 -11.9328 62.9391 -10.7828 62.1604C-9.63275 61.3817 -8.70842 60.3134 -8.10299 59.0635C-7.49756 57.8135 -7.23246 56.426 -7.3344 55.0408C-7.43635 53.6557 -7.90175 52.322 -8.68366 51.1741L-10.276 48.8386L-7.54424 49.5464C-6.20212 49.9036 -4.78952 49.9007 -3.44891 49.5378C-2.1083 49.1749 -0.887087 48.4649 0.091568 47.4794C1.07022 46.4939 1.77171 45.2678 2.12529 43.9247C2.47886 42.5816 2.47202 41.1691 2.10544 39.8294L1.3588 37.1012L3.70842 38.6759C4.86188 39.4497 6.19902 39.9057 7.58496 39.9978C8.97089 40.0898 10.3566 39.8148 11.6023 39.2004C12.848 38.586 13.9097 37.6539 14.6802 36.4982C15.4506 35.3425 15.9027 34.004 15.9908 32.6178L16.1677 29.787L17.8769 32.0375C18.7158 33.1388 19.8294 34.0002 21.1062 34.5354C22.3829 35.0706 23.7779 35.2608 25.1513 35.087C26.5247 34.9132 27.8284 34.3814 28.9315 33.545C30.0346 32.7085 30.8986 31.5968 31.4367 30.3213Z" fill="white"/>
<path d="M57.4622 104.363C72.0288 89.7967 72.0288 66.1796 57.4622 51.613C42.8957 37.0464 19.2786 37.0464 4.71197 51.613C-9.85461 66.1796 -9.85461 89.7967 4.71197 104.363C19.2786 118.93 42.8957 118.93 57.4622 104.363Z" fill="#FF725E"/>
<path opacity="0.3" d="M24.2144 70.6999C24.4692 71.9349 22.5336 73.3751 19.8903 73.9165C17.247 74.4579 14.9045 73.8917 14.6532 72.6532C14.402 71.4147 16.334 69.9745 18.9738 69.4366C21.6136 68.8988 23.9632 69.4614 24.2144 70.6999Z" fill="white"/>
<path opacity="0.3" d="M52.3699 64.8698C55.0103 64.3302 56.9458 62.89 56.693 61.6531C56.4403 60.4162 54.0949 59.8509 51.4545 60.3905C48.8141 60.9301 46.8785 62.3703 47.1313 63.6072C47.3841 64.8441 49.7294 65.4094 52.3699 64.8698Z" fill="white"/>
<path d="M41.7941 60.3992C41.5039 58.4565 41.9604 55.799 44.1684 55.1833C46.4791 54.5464 47.9512 57.2392 48.8287 58.8918C49.3631 59.9003 50.8882 59.005 50.3539 58C49.6285 56.6306 48.8464 55.2789 47.5867 54.3305C47.031 53.8865 46.3777 53.5808 45.6806 53.4387C44.9836 53.2965 44.2628 53.3221 43.5775 53.5131C42.9281 53.7287 42.3292 54.0738 41.8171 54.5275C41.3049 54.9812 40.8902 55.5342 40.598 56.1529C39.8903 57.6426 39.8479 59.2669 40.0885 60.8698C40.1505 61.0959 40.2998 61.2882 40.5035 61.4043C40.7072 61.5204 40.9486 61.5509 41.1748 61.4891C41.3981 61.4215 41.587 61.2707 41.7022 61.0679C41.8175 60.865 41.8504 60.6256 41.7941 60.3992Z" fill="#263238"/>
<path d="M17.6822 67.4976C17.2116 65.5867 17.3284 62.8974 19.4515 62.0234C21.6737 61.1034 23.436 63.6299 24.4621 65.1869C25.0849 66.1352 26.6171 65.247 25.9873 64.2952C25.138 63.0001 24.218 61.6837 22.8875 60.8521C22.2711 60.445 21.5644 60.195 20.8291 60.1241C20.0938 60.0531 19.3523 60.1634 18.6695 60.4452C17.4553 61.0156 16.5164 62.0436 16.058 63.3044C15.4848 64.7906 15.5909 66.4502 15.966 67.9682C16.235 69.0758 17.9441 68.6051 17.6716 67.4976H17.6822Z" fill="#263238"/>
<path d="M29.0446 64.0792L38.443 60.5406C38.443 60.5406 39.6921 65.4946 35.5874 66.8888C31.4827 68.283 29.0446 64.0792 29.0446 64.0792Z" fill="#263238"/>
<path d="M36.9427 65.4062C36.3517 64.6985 35.2583 64.5463 34.3949 64.8754C33.0821 65.3779 32.569 66.9419 32.569 66.9419C33.1147 67.1423 33.6959 67.2278 34.2762 67.1931C34.8565 67.1584 35.4233 67.0042 35.9413 66.7402C36.4503 66.5435 36.9095 66.2366 37.2859 65.8414" fill="#FF725E"/>
<g opacity="0.3">
<path d="M54.4409 101.765C48.7792 105.718 42.4098 108.895 35.5909 109.953C25.3291 111.535 14.5435 108.028 6.82944 101.107C-0.601556 94.4367 -5.14862 84.7941 -6.07927 74.8542C-6.16773 75.8875 -6.21373 76.9349 -6.21373 77.9894C-6.21126 87.0896 -2.88272 95.875 3.1454 102.692C9.17353 109.509 17.4855 113.888 26.5169 115.005C35.5484 116.121 44.6764 113.898 52.183 108.753C59.6896 103.609 65.0571 95.8986 67.2753 87.0729C67.2753 86.7439 67.3036 86.4112 67.3107 86.0786C65.4282 92.7099 60.1026 97.8231 54.4409 101.765Z" fill="black"/>
</g>
<path d="M68.3263 73.4175C68.3263 73.4175 68.3086 73.3539 68.2873 73.2265C68.2661 73.0991 68.2343 72.9045 68.1953 72.6638C68.1564 72.4232 68.1033 72.1047 68.0467 71.7438C68.0184 71.5633 67.9866 71.3687 67.9547 71.1599C67.9229 70.9512 67.8627 70.7318 67.8096 70.5018C67.707 70.0347 67.5902 69.518 67.4558 68.9519C67.3213 68.3857 67.1019 67.7912 66.9356 67.1401C66.7693 66.489 66.4862 65.8132 66.2279 65.0877C65.9696 64.3623 65.6405 63.6228 65.3043 62.8408C65.2194 62.6461 65.1309 62.4515 65.046 62.2498C64.9611 62.0481 64.8478 61.857 64.7488 61.6589C64.5435 61.2626 64.3383 60.8556 64.126 60.4416C63.9137 60.0276 63.6624 59.6242 63.4183 59.2066C63.1741 58.7891 62.9299 58.3645 62.661 57.9398L61.8082 56.6766C61.6596 56.4643 61.5216 56.2449 61.3659 56.0325L60.8811 55.4027C60.552 54.9816 60.2336 54.5463 59.8832 54.1217L58.7898 52.8655C58.436 52.4303 58.0149 52.041 57.6115 51.627C57.2081 51.213 56.8118 50.7884 56.3588 50.4062L55.0319 49.2173L53.5987 48.0885C49.5766 44.9926 44.9234 42.8182 39.9682 41.719L38.1989 41.3652L36.4296 41.1104C35.8493 41.0078 35.2654 40.983 34.6886 40.9335C34.1118 40.8839 33.5492 40.8202 32.983 40.8273L31.3163 40.7919C30.7679 40.7919 30.23 40.8308 29.6957 40.8485L28.903 40.8804C28.6412 40.8804 28.3829 40.9335 28.1246 40.9547L26.603 41.1104C26.1076 41.1776 25.6228 41.2661 25.1451 41.3439C24.6674 41.4218 24.2003 41.4819 23.7473 41.5987L22.4168 41.8995C22.1975 41.9526 21.9816 41.995 21.7728 42.0517L21.1536 42.2357C20.3362 42.4763 19.5506 42.6851 18.8358 42.9681C18.121 43.2512 17.4204 43.4529 16.8117 43.7431C16.2031 44.0333 15.6122 44.2562 15.0885 44.5074L13.673 45.2364C13.4643 45.3461 13.259 45.4451 13.075 45.5478L12.569 45.8521L11.7728 46.3298L11.2774 46.6199C11.1677 46.6836 11.1076 46.712 11.1076 46.712L11.2703 46.6023L11.7516 46.2979L12.5407 45.8061L13.0467 45.4947C13.2272 45.385 13.4289 45.2859 13.6412 45.1727L15.0566 44.4296C15.5768 44.1748 16.1607 43.9306 16.7799 43.6511C17.3992 43.3715 18.0856 43.1309 18.804 42.8584C19.5223 42.586 20.3043 42.356 21.1253 42.1083L21.7445 41.9243C21.9568 41.8641 22.1727 41.8216 22.3885 41.7686L23.7261 41.4572C24.1791 41.3404 24.6532 41.2838 25.1415 41.1953C25.6299 41.1069 26.1076 41.0255 26.6065 40.9582L28.1316 40.799C28.39 40.7742 28.6483 40.7388 28.9137 40.7212L29.7098 40.6893C30.2442 40.6681 30.7714 40.6327 31.3376 40.6256L33.0113 40.6575C33.5775 40.6575 34.1472 40.7176 34.724 40.7601C35.3008 40.8025 35.8882 40.8344 36.472 40.9335L38.2413 41.1882L40.0318 41.5421C45.0143 42.6419 49.6926 44.8276 53.7332 47.9434L55.1699 49.0757L56.5039 50.2753C56.9568 50.6575 57.3496 51.0927 57.7601 51.5032C58.1706 51.9137 58.581 52.31 58.9384 52.7488L60.0354 54.012C60.3892 54.4402 60.7077 54.879 61.0333 55.3001L61.5181 55.9335C61.6737 56.1493 61.8153 56.3687 61.9639 56.5846L62.8202 57.8549C63.0856 58.2795 63.3263 58.7112 63.574 59.1288C63.8217 59.5463 64.0764 59.9497 64.2817 60.3708C64.4869 60.7919 64.6992 61.1953 64.9045 61.5952C65 61.7969 65.1097 61.9915 65.1982 62.1897C65.2866 62.3878 65.368 62.5895 65.4529 62.7841C65.7891 63.5732 66.1324 64.3128 66.3694 65.0453C66.6065 65.7778 66.8967 66.4607 67.0772 67.1047C67.2576 67.7488 67.431 68.3645 67.5832 68.9271C67.7353 69.4897 67.8167 70.0134 67.9158 70.4841C67.9653 70.7176 68.0184 70.937 68.0538 71.1458C68.0892 71.3546 68.1104 71.5492 68.1352 71.7332C68.1883 72.087 68.2307 72.402 68.2661 72.6532L68.3404 73.2194C68.3227 73.3503 68.3263 73.4175 68.3263 73.4175Z" fill="white"/>
<path d="M22.4735 60.4346C20.8315 59.9258 19.0564 60.0716 17.5195 60.8415C17.7075 60.6704 17.926 60.536 18.1635 60.4452C18.7207 60.1852 19.3199 60.027 19.9328 59.9781C20.5453 59.9286 21.1617 59.9849 21.7551 60.1444C22.0109 60.1944 22.2547 60.2929 22.4735 60.4346Z" fill="white"/>
<path d="M37.2187 59.8224C36.8921 59.91 36.5745 60.0285 36.2703 60.1762C35.9976 60.3856 35.7474 60.6228 35.5237 60.8839C35.631 60.5325 35.8615 60.2316 36.1729 60.0365C36.4843 59.8415 36.8557 59.7654 37.2187 59.8224Z" fill="white"/>
<path d="M45.8209 53.0531C45.1732 52.9856 44.5208 52.9749 43.8712 53.0213C43.2284 53.1307 42.5962 53.2952 41.9816 53.5132C42.5307 53.1235 43.1752 52.89 43.8464 52.8373C44.5119 52.726 45.1952 52.8007 45.8209 53.0531Z" fill="white"/>
<path d="M30.2159 73.6758C30.2159 73.6758 30.0637 73.4175 29.7806 72.9681C29.3808 72.3274 28.9172 71.7287 28.397 71.1811C27.6266 70.3682 26.7407 69.6731 25.7679 69.1181C23.3724 67.7266 20.5278 67.3265 17.8415 68.0035C16.7528 68.2663 15.7092 68.6896 14.7452 69.2597C14.0927 69.6423 13.4809 70.0905 12.9193 70.5973C12.523 70.9511 12.3178 71.1741 12.3071 71.1599C12.3453 71.0994 12.3905 71.0436 12.4416 70.9936C12.5407 70.891 12.6716 70.7247 12.8698 70.5442C13.4174 70.006 14.024 69.5312 14.678 69.1288C15.6467 68.5356 16.7004 68.0941 17.8025 67.8195C19.1528 67.4687 20.5591 67.3882 21.9406 67.5825C23.3222 67.7768 24.6517 68.2422 25.8528 68.9518C26.8357 69.521 27.7259 70.2369 28.4926 71.075C29.0102 71.6361 29.4636 72.2533 29.8443 72.915C29.9858 73.145 30.0637 73.3397 30.1309 73.4635C30.1683 73.5303 30.1968 73.6017 30.2159 73.6758Z" fill="white"/>
<path d="M57.1656 60.1904C57.1444 60.2257 56.6207 59.8648 55.6794 59.5003C55.4224 59.4013 55.1601 59.3162 54.8938 59.2456C54.6143 59.1571 54.2994 59.104 53.9738 59.0368C53.2602 58.9238 52.5368 58.8859 51.8153 58.9236C51.0961 58.9736 50.3843 59.1006 49.6922 59.3022C49.3903 59.3915 49.0938 59.4979 48.804 59.6207C48.5477 59.7224 48.2983 59.8406 48.0573 59.9745C47.1656 60.4487 46.6914 60.8698 46.6667 60.8379C46.7649 60.7268 46.8753 60.6271 46.9958 60.5407C47.1252 60.4249 47.2637 60.3196 47.4098 60.2257C47.5981 60.0977 47.793 59.9796 47.9936 59.8719C48.2356 59.7314 48.4862 59.6061 48.7438 59.4968C49.0365 59.3619 49.3366 59.2438 49.6426 59.1429C50.3482 58.9281 51.0759 58.794 51.8118 58.7431C52.5468 58.7056 53.2838 58.7495 54.0092 58.874C54.325 58.9315 54.637 59.0083 54.9434 59.104C55.2138 59.1787 55.4786 59.2721 55.736 59.3836C55.949 59.4697 56.1569 59.5678 56.3588 59.6773C56.5161 59.7533 56.6674 59.8408 56.8118 59.9391C56.9392 60.0086 57.058 60.093 57.1656 60.1904Z" fill="white"/>
<path d="M37.4345 65.7035C37.3595 65.8106 37.2702 65.9071 37.1691 65.9901C36.9066 66.2332 36.6183 66.4468 36.3093 66.627C35.2751 67.2389 34.0496 67.4421 32.8733 67.1968C31.6986 66.956 30.6363 66.334 29.8514 65.4275C29.6169 65.1582 29.4128 64.8639 29.2427 64.5499C29.1745 64.4398 29.1221 64.3207 29.0871 64.196C29.3457 64.6005 29.6343 64.9849 29.9505 65.3461C30.7383 66.1969 31.7728 66.7798 32.9087 67.0127C34.0454 67.2471 35.2283 67.069 36.2456 66.5103C36.6573 66.2648 37.0543 65.9954 37.4345 65.7035Z" fill="#263238"/>
<path d="M162.748 30.228L159.444 36.598V40H157.484V36.598L154.166 30.228H156.378L158.478 34.694L160.564 30.228H162.748ZM165.81 30.228V36.276C165.81 36.9387 165.983 37.4473 166.328 37.802C166.673 38.1473 167.159 38.32 167.784 38.32C168.419 38.32 168.909 38.1473 169.254 37.802C169.599 37.4473 169.772 36.9387 169.772 36.276V30.228H171.746V36.262C171.746 37.0927 171.564 37.7973 171.2 38.376C170.845 38.9453 170.365 39.3747 169.758 39.664C169.161 39.9533 168.493 40.098 167.756 40.098C167.028 40.098 166.365 39.9533 165.768 39.664C165.18 39.3747 164.713 38.9453 164.368 38.376C164.023 37.7973 163.85 37.0927 163.85 36.262V30.228H165.81ZM179.156 40L175.6 35.646V40H173.64V30.228H175.6V34.61L179.156 30.228H181.522L177.49 35.072L181.634 40H179.156ZM185.065 37.942L183.427 41.876H182.167L183.077 37.942H185.065ZM196.464 30.228V31.81H193.86V40H191.9V31.81H189.296V30.228H196.464ZM199.826 30.228V36.276C199.826 36.9387 199.998 37.4473 200.344 37.802C200.689 38.1473 201.174 38.32 201.8 38.32C202.434 38.32 202.924 38.1473 203.27 37.802C203.615 37.4473 203.788 36.9387 203.788 36.276V30.228H205.762V36.262C205.762 37.0927 205.58 37.7973 205.216 38.376C204.861 38.9453 204.38 39.3747 203.774 39.664C203.176 39.9533 202.509 40.098 201.772 40.098C201.044 40.098 200.381 39.9533 199.784 39.664C199.196 39.3747 198.729 38.9453 198.384 38.376C198.038 37.7973 197.866 37.0927 197.866 36.262V30.228H199.826ZM213.171 40L209.615 35.646V40H207.655V30.228H209.615V34.61L213.171 30.228H215.537L211.505 35.072L215.649 40H213.171ZM222.931 38.138H219.039L218.395 40H216.337L219.851 30.214H222.133L225.647 40H223.575L222.931 38.138ZM222.399 36.57L220.985 32.482L219.571 36.57H222.399ZM232 40L229.844 36.192H228.92V40H226.96V30.228H230.628C231.384 30.228 232.028 30.3633 232.56 30.634C233.092 30.8953 233.489 31.2547 233.75 31.712C234.021 32.16 234.156 32.664 234.156 33.224C234.156 33.868 233.969 34.4513 233.596 34.974C233.223 35.4873 232.667 35.842 231.93 36.038L234.268 40H232ZM228.92 34.722H230.558C231.09 34.722 231.487 34.596 231.748 34.344C232.009 34.0827 232.14 33.7233 232.14 33.266C232.14 32.818 232.009 32.4727 231.748 32.23C231.487 31.978 231.09 31.852 230.558 31.852H228.92V34.722ZM246.391 33.252C246.391 33.7747 246.265 34.2647 246.013 34.722C245.77 35.1793 245.383 35.548 244.851 35.828C244.328 36.108 243.665 36.248 242.863 36.248H241.225V40H239.265V30.228H242.863C243.619 30.228 244.263 30.3587 244.795 30.62C245.327 30.8813 245.723 31.2407 245.985 31.698C246.255 32.1553 246.391 32.6733 246.391 33.252ZM242.779 34.666C243.32 34.666 243.721 34.5447 243.983 34.302C244.244 34.05 244.375 33.7 244.375 33.252C244.375 32.3 243.843 31.824 242.779 31.824H241.225V34.666H242.779ZM252.318 40.098C251.404 40.098 250.564 39.8833 249.798 39.454C249.033 39.0247 248.426 38.432 247.978 37.676C247.53 36.9107 247.306 36.0473 247.306 35.086C247.306 34.134 247.53 33.28 247.978 32.524C248.426 31.7587 249.033 31.1613 249.798 30.732C250.564 30.3027 251.404 30.088 252.318 30.088C253.242 30.088 254.082 30.3027 254.838 30.732C255.604 31.1613 256.206 31.7587 256.644 32.524C257.092 33.28 257.316 34.134 257.316 35.086C257.316 36.0473 257.092 36.9107 256.644 37.676C256.206 38.432 255.604 39.0247 254.838 39.454C254.073 39.8833 253.233 40.098 252.318 40.098ZM252.318 38.348C252.906 38.348 253.424 38.2173 253.872 37.956C254.32 37.6853 254.67 37.3027 254.922 36.808C255.174 36.3133 255.3 35.7393 255.3 35.086C255.3 34.4327 255.174 33.8633 254.922 33.378C254.67 32.8833 254.32 32.5053 253.872 32.244C253.424 31.9827 252.906 31.852 252.318 31.852C251.73 31.852 251.208 31.9827 250.75 32.244C250.302 32.5053 249.952 32.8833 249.7 33.378C249.448 33.8633 249.322 34.4327 249.322 35.086C249.322 35.7393 249.448 36.3133 249.7 36.808C249.952 37.3027 250.302 37.6853 250.75 37.956C251.208 38.2173 251.73 38.348 252.318 38.348ZM260.735 30.228V40H258.775V30.228H260.735ZM271.029 40H269.069L264.631 33.294V40H262.671V30.214H264.631L269.069 36.934V30.214H271.029V40ZM157.294 50.322V58H155.754V53.006L153.697 58H152.531L150.463 53.006V58H148.923V50.322H150.672L153.114 56.031L155.556 50.322H157.294ZM160.335 50.322V55.074C160.335 55.5947 160.47 55.9943 160.742 56.273C161.013 56.5443 161.394 56.68 161.886 56.68C162.384 56.68 162.769 56.5443 163.041 56.273C163.312 55.9943 163.448 55.5947 163.448 55.074V50.322H164.999V55.063C164.999 55.7157 164.856 56.2693 164.57 56.724C164.291 57.1713 163.913 57.5087 163.437 57.736C162.967 57.9633 162.443 58.077 161.864 58.077C161.292 58.077 160.771 57.9633 160.302 57.736C159.84 57.5087 159.473 57.1713 159.202 56.724C158.93 56.2693 158.795 55.7157 158.795 55.063V50.322H160.335ZM168.027 56.779H170.557V58H166.487V50.322H168.027V56.779ZM176.243 56.537H173.185L172.679 58H171.062L173.823 50.311H175.616L178.377 58H176.749L176.243 56.537ZM175.825 55.305L174.714 52.093L173.603 55.305H175.825ZM180.949 50.322V58H179.409V50.322H180.949ZM187.776 50.322C188.583 50.322 189.29 50.4797 189.899 50.795C190.515 51.1103 190.988 51.5613 191.318 52.148C191.655 52.7273 191.824 53.402 191.824 54.172C191.824 54.942 191.655 55.6167 191.318 56.196C190.988 56.768 190.515 57.2117 189.899 57.527C189.29 57.8423 188.583 58 187.776 58H185.092V50.322H187.776ZM187.721 56.691C188.528 56.691 189.151 56.471 189.591 56.031C190.031 55.591 190.251 54.9713 190.251 54.172C190.251 53.3727 190.031 52.7493 189.591 52.302C189.151 51.8473 188.528 51.62 187.721 51.62H186.632V56.691H187.721ZM197.685 56.537H194.627L194.121 58H192.504L195.265 50.311H197.058L199.819 58H198.191L197.685 56.537ZM197.267 55.305L196.156 52.093L195.045 55.305H197.267ZM204.811 58L203.117 55.008H202.391V58H200.851V50.322H203.733C204.327 50.322 204.833 50.4283 205.251 50.641C205.669 50.8463 205.98 51.1287 206.186 51.488C206.398 51.84 206.505 52.236 206.505 52.676C206.505 53.182 206.358 53.6403 206.065 54.051C205.771 54.4543 205.335 54.733 204.756 54.887L206.593 58H204.811ZM202.391 53.853H203.678C204.096 53.853 204.407 53.754 204.613 53.556C204.818 53.3507 204.921 53.0683 204.921 52.709C204.921 52.357 204.818 52.0857 204.613 51.895C204.407 51.697 204.096 51.598 203.678 51.598H202.391V53.853ZM209.438 50.322V58H207.898V50.322H209.438ZM216.231 58.077C215.696 58.077 215.212 57.9853 214.779 57.802C214.354 57.6187 214.017 57.3547 213.767 57.01C213.518 56.6653 213.39 56.2583 213.382 55.789H215.032C215.054 56.1043 215.164 56.3537 215.362 56.537C215.568 56.7203 215.846 56.812 216.198 56.812C216.558 56.812 216.84 56.7277 217.045 56.559C217.251 56.383 217.353 56.1557 217.353 55.877C217.353 55.6497 217.284 55.4627 217.144 55.316C217.005 55.1693 216.829 55.0557 216.616 54.975C216.411 54.887 216.125 54.7917 215.758 54.689C215.26 54.5423 214.853 54.3993 214.537 54.26C214.229 54.1133 213.962 53.897 213.734 53.611C213.514 53.3177 213.404 52.929 213.404 52.445C213.404 51.9903 213.518 51.5943 213.745 51.257C213.973 50.9197 214.292 50.663 214.702 50.487C215.113 50.3037 215.582 50.212 216.11 50.212C216.902 50.212 217.544 50.4063 218.035 50.795C218.534 51.1763 218.809 51.7117 218.86 52.401H217.166C217.152 52.137 217.038 51.9207 216.825 51.752C216.62 51.576 216.345 51.488 216 51.488C215.7 51.488 215.458 51.565 215.274 51.719C215.098 51.873 215.01 52.0967 215.01 52.39C215.01 52.5953 215.076 52.7677 215.208 52.907C215.348 53.039 215.516 53.149 215.714 53.237C215.92 53.3177 216.206 53.413 216.572 53.523C217.071 53.6697 217.478 53.8163 217.793 53.963C218.109 54.1097 218.38 54.3297 218.607 54.623C218.835 54.9163 218.948 55.3013 218.948 55.778C218.948 56.1887 218.842 56.57 218.629 56.922C218.417 57.274 218.105 57.5563 217.694 57.769C217.284 57.9743 216.796 58.077 216.231 58.077ZM221.823 51.565V53.49H224.408V54.711H221.823V56.746H224.738V58H220.283V50.311H224.738V51.565H221.823ZM230.472 58L227.678 54.579V58H226.138V50.322H227.678V53.765L230.472 50.322H232.331L229.163 54.128L232.419 58H230.472ZM238.14 56.537H235.082L234.576 58H232.959L235.72 50.311H237.513L240.274 58H238.646L238.14 56.537ZM237.722 55.305L236.611 52.093L235.5 55.305H237.722ZM245.266 58L243.572 55.008H242.846V58H241.306V50.322H244.188C244.782 50.322 245.288 50.4283 245.706 50.641C246.124 50.8463 246.436 51.1287 246.641 51.488C246.854 51.84 246.96 52.236 246.96 52.676C246.96 53.182 246.813 53.6403 246.52 54.051C246.227 54.4543 245.79 54.733 245.211 54.887L247.048 58H245.266ZM242.846 53.853H244.133C244.551 53.853 244.863 53.754 245.068 53.556C245.273 53.3507 245.376 53.0683 245.376 52.709C245.376 52.357 245.273 52.0857 245.068 51.895C244.863 51.697 244.551 51.598 244.133 51.598H242.846V53.853ZM253.061 56.537H250.003L249.497 58H247.88L250.641 50.311H252.434L255.195 58H253.567L253.061 56.537ZM252.643 55.305L251.532 52.093L250.421 55.305H252.643ZM262.794 58H261.254L257.767 52.731V58H256.227V50.311H257.767L261.254 55.591V50.311H262.794V58ZM269.662 52.632C269.486 52.3093 269.244 52.0637 268.936 51.895C268.628 51.7263 268.268 51.642 267.858 51.642C267.403 51.642 267 51.7447 266.648 51.95C266.296 52.1553 266.021 52.4487 265.823 52.83C265.625 53.2113 265.526 53.6513 265.526 54.15C265.526 54.6633 265.625 55.1107 265.823 55.492C266.028 55.8733 266.31 56.1667 266.67 56.372C267.029 56.5773 267.447 56.68 267.924 56.68C268.51 56.68 268.991 56.526 269.365 56.218C269.739 55.9027 269.984 55.4663 270.102 54.909H267.462V53.732H271.62V55.074C271.517 55.6093 271.297 56.1043 270.96 56.559C270.622 57.0137 270.186 57.3803 269.651 57.659C269.123 57.9303 268.529 58.066 267.869 58.066C267.128 58.066 266.457 57.901 265.856 57.571C265.262 57.2337 264.792 56.768 264.448 56.174C264.11 55.58 263.942 54.9053 263.942 54.15C263.942 53.3947 264.11 52.72 264.448 52.126C264.792 51.5247 265.262 51.059 265.856 50.729C266.457 50.3917 267.124 50.223 267.858 50.223C268.723 50.223 269.475 50.4357 270.113 50.861C270.751 51.279 271.191 51.8693 271.433 52.632H269.662ZM142.832 66.926C143.785 66.926 144.621 67.1123 145.341 67.485C146.069 67.8577 146.628 68.3907 147.018 69.084C147.416 69.7687 147.616 70.566 147.616 71.476C147.616 72.386 147.416 73.1833 147.018 73.868C146.628 74.544 146.069 75.0683 145.341 75.441C144.621 75.8137 143.785 76 142.832 76H139.66V66.926H142.832ZM142.767 74.453C143.72 74.453 144.457 74.193 144.977 73.673C145.497 73.153 145.757 72.4207 145.757 71.476C145.757 70.5313 145.497 69.7947 144.977 69.266C144.457 68.7287 143.72 68.46 142.767 68.46H141.48V74.453H142.767ZM154.542 74.271H150.928L150.33 76H148.419L151.682 66.913H153.801L157.064 76H155.14L154.542 74.271ZM154.048 72.815L152.735 69.019L151.422 72.815H154.048ZM166.045 76H164.225L160.104 69.773V76H158.284V66.913H160.104L164.225 73.153V66.913H166.045V76ZM174.113 66.926C175.066 66.926 175.903 67.1123 176.622 67.485C177.35 67.8577 177.909 68.3907 178.299 69.084C178.698 69.7687 178.897 70.566 178.897 71.476C178.897 72.386 178.698 73.1833 178.299 73.868C177.909 74.544 177.35 75.0683 176.622 75.441C175.903 75.8137 175.066 76 174.113 76H170.941V66.926H174.113ZM174.048 74.453C175.001 74.453 175.738 74.193 176.258 73.673C176.778 73.153 177.038 72.4207 177.038 71.476C177.038 70.5313 176.778 69.7947 176.258 69.266C175.738 68.7287 175.001 68.46 174.048 68.46H172.761V74.453H174.048ZM185.823 74.271H182.209L181.611 76H179.7L182.963 66.913H185.082L188.345 76H186.421L185.823 74.271ZM185.329 72.815L184.016 69.019L182.703 72.815H185.329ZM196.182 69.734C196.182 70.2193 196.065 70.6743 195.831 71.099C195.606 71.5237 195.246 71.866 194.752 72.126C194.267 72.386 193.651 72.516 192.906 72.516H191.385V76H189.565V66.926H192.906C193.608 66.926 194.206 67.0473 194.7 67.29C195.194 67.5327 195.562 67.8663 195.805 68.291C196.056 68.7157 196.182 69.1967 196.182 69.734ZM192.828 71.047C193.331 71.047 193.703 70.9343 193.946 70.709C194.189 70.475 194.31 70.15 194.31 69.734C194.31 68.85 193.816 68.408 192.828 68.408H191.385V71.047H192.828ZM203.038 74.271H199.424L198.826 76H196.915L200.178 66.913H202.297L205.56 76H203.636L203.038 74.271ZM202.544 72.815L201.231 69.019L199.918 72.815H202.544ZM212.955 66.926V68.395H210.537V76H208.717V68.395H206.299V66.926H212.955ZM222.06 76L220.058 72.464H219.2V76H217.38V66.926H220.786C221.488 66.926 222.086 67.0517 222.58 67.303C223.074 67.5457 223.443 67.8793 223.685 68.304C223.937 68.72 224.062 69.188 224.062 69.708C224.062 70.306 223.889 70.8477 223.542 71.333C223.196 71.8097 222.68 72.139 221.995 72.321L224.166 76H222.06ZM219.2 71.099H220.721C221.215 71.099 221.584 70.982 221.826 70.748C222.069 70.5053 222.19 70.1717 222.19 69.747C222.19 69.331 222.069 69.0103 221.826 68.785C221.584 68.551 221.215 68.434 220.721 68.434H219.2V71.099ZM227.529 68.395V70.67H230.584V72.113H227.529V74.518H230.974V76H225.709V66.913H230.974V68.395H227.529ZM244.756 66.926L242.221 76H240.076L238.373 69.539L236.592 76L234.46 76.013L232.016 66.926H233.966L235.565 73.972L237.411 66.926H239.439L241.181 73.933L242.793 66.926H244.756ZM251.509 74.271H247.895L247.297 76H245.386L248.649 66.913H250.768L254.031 76H252.107L251.509 74.271ZM251.015 72.815L249.702 69.019L248.389 72.815H251.015ZM259.931 76L257.929 72.464H257.071V76H255.251V66.926H258.657C259.359 66.926 259.957 67.0517 260.451 67.303C260.945 67.5457 261.313 67.8793 261.556 68.304C261.807 68.72 261.933 69.188 261.933 69.708C261.933 70.306 261.759 70.8477 261.413 71.333C261.066 71.8097 260.55 72.139 259.866 72.321L262.037 76H259.931ZM257.071 71.099H258.592C259.086 71.099 259.454 70.982 259.697 70.748C259.939 70.5053 260.061 70.1717 260.061 69.747C260.061 69.331 259.939 69.0103 259.697 68.785C259.454 68.551 259.086 68.434 258.592 68.434H257.071V71.099ZM266.751 66.926C267.704 66.926 268.54 67.1123 269.26 67.485C269.988 67.8577 270.547 68.3907 270.937 69.084C271.335 69.7687 271.535 70.566 271.535 71.476C271.535 72.386 271.335 73.1833 270.937 73.868C270.547 74.544 269.988 75.0683 269.26 75.441C268.54 75.8137 267.704 76 266.751 76H263.579V66.926H266.751ZM266.686 74.453C267.639 74.453 268.376 74.193 268.896 73.673C269.416 73.153 269.676 72.4207 269.676 71.476C269.676 70.5313 269.416 69.7947 268.896 69.266C268.376 68.7287 267.639 68.46 266.686 68.46H265.399V74.453H266.686Z" fill="white"/>
<g clip-path="url(#clip1_185_4299)">
<rect width="176" height="14" transform="translate(122 89)" fill="white"/>
<g filter="url(#filter0_d_185_4299)">
<path d="M129.248 98.072C128.885 98.072 128.56 98.008 128.272 97.88C127.984 97.7467 127.755 97.568 127.584 97.344C127.419 97.12 127.328 96.872 127.312 96.6H128.44C128.461 96.7707 128.544 96.912 128.688 97.024C128.837 97.136 129.021 97.192 129.24 97.192C129.453 97.192 129.619 97.1493 129.736 97.064C129.859 96.9787 129.92 96.8693 129.92 96.736C129.92 96.592 129.845 96.4853 129.696 96.416C129.552 96.3413 129.32 96.2613 129 96.176C128.669 96.096 128.397 96.0133 128.184 95.928C127.976 95.8427 127.795 95.712 127.64 95.536C127.491 95.36 127.416 95.1227 127.416 94.824C127.416 94.5787 127.485 94.3547 127.624 94.152C127.768 93.9493 127.971 93.7893 128.232 93.672C128.499 93.5547 128.811 93.496 129.168 93.496C129.696 93.496 130.117 93.6293 130.432 93.896C130.747 94.1573 130.92 94.512 130.952 94.96H129.88C129.864 94.784 129.789 94.6453 129.656 94.544C129.528 94.4373 129.355 94.384 129.136 94.384C128.933 94.384 128.776 94.4213 128.664 94.496C128.557 94.5707 128.504 94.6747 128.504 94.808C128.504 94.9573 128.579 95.072 128.728 95.152C128.877 95.2267 129.109 95.304 129.424 95.384C129.744 95.464 130.008 95.5467 130.216 95.632C130.424 95.7173 130.603 95.8507 130.752 96.032C130.907 96.208 130.987 96.4427 130.992 96.736C130.992 96.992 130.92 97.2213 130.776 97.424C130.637 97.6267 130.435 97.7867 130.168 97.904C129.907 98.016 129.6 98.072 129.248 98.072ZM133.031 94.208C133.175 94.0053 133.373 93.8373 133.623 93.704C133.879 93.5653 134.17 93.496 134.495 93.496C134.874 93.496 135.215 93.5893 135.519 93.776C135.829 93.9627 136.071 94.2293 136.247 94.576C136.429 94.9173 136.519 95.3147 136.519 95.768C136.519 96.2213 136.429 96.624 136.247 96.976C136.071 97.3227 135.829 97.592 135.519 97.784C135.215 97.976 134.874 98.072 134.495 98.072C134.17 98.072 133.882 98.0053 133.631 97.872C133.386 97.7387 133.186 97.5707 133.031 97.368V100.112H131.911V93.568H133.031V94.208ZM135.375 95.768C135.375 95.5013 135.319 95.272 135.207 95.08C135.101 94.8827 134.957 94.7333 134.775 94.632C134.599 94.5307 134.407 94.48 134.199 94.48C133.997 94.48 133.805 94.5333 133.623 94.64C133.447 94.7413 133.303 94.8907 133.191 95.088C133.085 95.2853 133.031 95.5173 133.031 95.784C133.031 96.0507 133.085 96.2827 133.191 96.48C133.303 96.6773 133.447 96.8293 133.623 96.936C133.805 97.0373 133.997 97.088 134.199 97.088C134.407 97.088 134.599 97.0347 134.775 96.928C134.957 96.8213 135.101 96.6693 135.207 96.472C135.319 96.2747 135.375 96.04 135.375 95.768ZM139.301 98.072C138.875 98.072 138.491 97.9787 138.149 97.792C137.808 97.6 137.539 97.3307 137.341 96.984C137.149 96.6373 137.053 96.2373 137.053 95.784C137.053 95.3307 137.152 94.9307 137.349 94.584C137.552 94.2373 137.827 93.9707 138.173 93.784C138.52 93.592 138.907 93.496 139.333 93.496C139.76 93.496 140.147 93.592 140.493 93.784C140.84 93.9707 141.112 94.2373 141.309 94.584C141.512 94.9307 141.613 95.3307 141.613 95.784C141.613 96.2373 141.509 96.6373 141.301 96.984C141.099 97.3307 140.821 97.6 140.469 97.792C140.123 97.9787 139.733 98.072 139.301 98.072ZM139.301 97.096C139.504 97.096 139.693 97.048 139.869 96.952C140.051 96.8507 140.195 96.7013 140.301 96.504C140.408 96.3067 140.461 96.0667 140.461 95.784C140.461 95.3627 140.349 95.04 140.125 94.816C139.907 94.5867 139.637 94.472 139.317 94.472C138.997 94.472 138.728 94.5867 138.509 94.816C138.296 95.04 138.189 95.3627 138.189 95.784C138.189 96.2053 138.293 96.5307 138.501 96.76C138.715 96.984 138.981 97.096 139.301 97.096ZM144.891 93.504C145.419 93.504 145.845 93.672 146.171 94.008C146.496 94.3387 146.659 94.8027 146.659 95.4V98H145.539V95.552C145.539 95.2 145.451 94.9307 145.275 94.744C145.099 94.552 144.859 94.456 144.555 94.456C144.245 94.456 144 94.552 143.819 94.744C143.643 94.9307 143.555 95.2 143.555 95.552V98H142.435V93.568H143.555V94.12C143.704 93.928 143.893 93.7787 144.123 93.672C144.357 93.56 144.613 93.504 144.891 93.504ZM149.42 98.072C149.057 98.072 148.732 98.008 148.444 97.88C148.156 97.7467 147.927 97.568 147.756 97.344C147.591 97.12 147.5 96.872 147.484 96.6H148.612C148.633 96.7707 148.716 96.912 148.86 97.024C149.009 97.136 149.193 97.192 149.412 97.192C149.625 97.192 149.791 97.1493 149.908 97.064C150.031 96.9787 150.092 96.8693 150.092 96.736C150.092 96.592 150.017 96.4853 149.868 96.416C149.724 96.3413 149.492 96.2613 149.172 96.176C148.841 96.096 148.569 96.0133 148.356 95.928C148.148 95.8427 147.967 95.712 147.812 95.536C147.663 95.36 147.588 95.1227 147.588 94.824C147.588 94.5787 147.657 94.3547 147.796 94.152C147.94 93.9493 148.143 93.7893 148.404 93.672C148.671 93.5547 148.983 93.496 149.34 93.496C149.868 93.496 150.289 93.6293 150.604 93.896C150.919 94.1573 151.092 94.512 151.124 94.96H150.052C150.036 94.784 149.961 94.6453 149.828 94.544C149.7 94.4373 149.527 94.384 149.308 94.384C149.105 94.384 148.948 94.4213 148.836 94.496C148.729 94.5707 148.676 94.6747 148.676 94.808C148.676 94.9573 148.751 95.072 148.9 95.152C149.049 95.2267 149.281 95.304 149.596 95.384C149.916 95.464 150.18 95.5467 150.388 95.632C150.596 95.7173 150.775 95.8507 150.924 96.032C151.079 96.208 151.159 96.4427 151.164 96.736C151.164 96.992 151.092 97.2213 150.948 97.424C150.809 97.6267 150.607 97.7867 150.34 97.904C150.079 98.016 149.772 98.072 149.42 98.072ZM154.051 98.072C153.625 98.072 153.241 97.9787 152.899 97.792C152.558 97.6 152.289 97.3307 152.091 96.984C151.899 96.6373 151.803 96.2373 151.803 95.784C151.803 95.3307 151.902 94.9307 152.099 94.584C152.302 94.2373 152.577 93.9707 152.923 93.784C153.27 93.592 153.657 93.496 154.083 93.496C154.51 93.496 154.897 93.592 155.243 93.784C155.59 93.9707 155.862 94.2373 156.059 94.584C156.262 94.9307 156.363 95.3307 156.363 95.784C156.363 96.2373 156.259 96.6373 156.051 96.984C155.849 97.3307 155.571 97.6 155.219 97.792C154.873 97.9787 154.483 98.072 154.051 98.072ZM154.051 97.096C154.254 97.096 154.443 97.048 154.619 96.952C154.801 96.8507 154.945 96.7013 155.051 96.504C155.158 96.3067 155.211 96.0667 155.211 95.784C155.211 95.3627 155.099 95.04 154.875 94.816C154.657 94.5867 154.387 94.472 154.067 94.472C153.747 94.472 153.478 94.5867 153.259 94.816C153.046 95.04 152.939 95.3627 152.939 95.784C152.939 96.2053 153.043 96.5307 153.251 96.76C153.465 96.984 153.731 97.096 154.051 97.096ZM158.305 94.256C158.449 94.0213 158.635 93.8373 158.865 93.704C159.099 93.5707 159.366 93.504 159.665 93.504V94.68H159.369C159.017 94.68 158.75 94.7627 158.569 94.928C158.393 95.0933 158.305 95.3813 158.305 95.792V98H157.185V93.568H158.305V94.256ZM167.64 94.672V95.616H164.248V94.672H167.64ZM174.404 98.072C174.042 98.072 173.716 98.008 173.428 97.88C173.14 97.7467 172.911 97.568 172.74 97.344C172.575 97.12 172.484 96.872 172.468 96.6H173.596C173.618 96.7707 173.7 96.912 173.844 97.024C173.994 97.136 174.178 97.192 174.396 97.192C174.61 97.192 174.775 97.1493 174.892 97.064C175.015 96.9787 175.076 96.8693 175.076 96.736C175.076 96.592 175.002 96.4853 174.852 96.416C174.708 96.3413 174.476 96.2613 174.156 96.176C173.826 96.096 173.554 96.0133 173.34 95.928C173.132 95.8427 172.951 95.712 172.796 95.536C172.647 95.36 172.572 95.1227 172.572 94.824C172.572 94.5787 172.642 94.3547 172.78 94.152C172.924 93.9493 173.127 93.7893 173.388 93.672C173.655 93.5547 173.967 93.496 174.324 93.496C174.852 93.496 175.274 93.6293 175.588 93.896C175.903 94.1573 176.076 94.512 176.108 94.96H175.036C175.02 94.784 174.946 94.6453 174.812 94.544C174.684 94.4373 174.511 94.384 174.292 94.384C174.09 94.384 173.932 94.4213 173.82 94.496C173.714 94.5707 173.66 94.6747 173.66 94.808C173.66 94.9573 173.735 95.072 173.884 95.152C174.034 95.2267 174.266 95.304 174.58 95.384C174.9 95.464 175.164 95.5467 175.372 95.632C175.58 95.7173 175.759 95.8507 175.908 96.032C176.063 96.208 176.143 96.4427 176.148 96.736C176.148 96.992 176.076 97.2213 175.932 97.424C175.794 97.6267 175.591 97.7867 175.324 97.904C175.063 98.016 174.756 98.072 174.404 98.072ZM178.188 94.208C178.332 94.0053 178.529 93.8373 178.78 93.704C179.036 93.5653 179.326 93.496 179.652 93.496C180.03 93.496 180.372 93.5893 180.676 93.776C180.985 93.9627 181.228 94.2293 181.404 94.576C181.585 94.9173 181.676 95.3147 181.676 95.768C181.676 96.2213 181.585 96.624 181.404 96.976C181.228 97.3227 180.985 97.592 180.676 97.784C180.372 97.976 180.03 98.072 179.652 98.072C179.326 98.072 179.038 98.0053 178.788 97.872C178.542 97.7387 178.342 97.5707 178.188 97.368V100.112H177.068V93.568H178.188V94.208ZM180.532 95.768C180.532 95.5013 180.476 95.272 180.364 95.08C180.257 94.8827 180.113 94.7333 179.932 94.632C179.756 94.5307 179.564 94.48 179.356 94.48C179.153 94.48 178.961 94.5333 178.78 94.64C178.604 94.7413 178.46 94.8907 178.348 95.088C178.241 95.2853 178.188 95.5173 178.188 95.784C178.188 96.0507 178.241 96.2827 178.348 96.48C178.46 96.6773 178.604 96.8293 178.78 96.936C178.961 97.0373 179.153 97.088 179.356 97.088C179.564 97.088 179.756 97.0347 179.932 96.928C180.113 96.8213 180.257 96.6693 180.364 96.472C180.476 96.2747 180.532 96.04 180.532 95.768ZM184.458 98.072C184.031 98.072 183.647 97.9787 183.306 97.792C182.964 97.6 182.695 97.3307 182.498 96.984C182.306 96.6373 182.21 96.2373 182.21 95.784C182.21 95.3307 182.308 94.9307 182.506 94.584C182.708 94.2373 182.983 93.9707 183.33 93.784C183.676 93.592 184.063 93.496 184.49 93.496C184.916 93.496 185.303 93.592 185.65 93.784C185.996 93.9707 186.268 94.2373 186.466 94.584C186.668 94.9307 186.77 95.3307 186.77 95.784C186.77 96.2373 186.666 96.6373 186.457 96.984C186.255 97.3307 185.978 97.6 185.626 97.792C185.279 97.9787 184.89 98.072 184.458 98.072ZM184.458 97.096C184.66 97.096 184.85 97.048 185.026 96.952C185.207 96.8507 185.351 96.7013 185.458 96.504C185.564 96.3067 185.618 96.0667 185.618 95.784C185.618 95.3627 185.506 95.04 185.282 94.816C185.063 94.5867 184.794 94.472 184.474 94.472C184.154 94.472 183.884 94.5867 183.666 94.816C183.452 95.04 183.346 95.3627 183.346 95.784C183.346 96.2053 183.45 96.5307 183.658 96.76C183.871 96.984 184.138 97.096 184.458 97.096ZM190.047 93.504C190.575 93.504 191.002 93.672 191.327 94.008C191.652 94.3387 191.815 94.8027 191.815 95.4V98H190.695V95.552C190.695 95.2 190.607 94.9307 190.431 94.744C190.255 94.552 190.015 94.456 189.711 94.456C189.402 94.456 189.156 94.552 188.975 94.744C188.799 94.9307 188.711 95.2 188.711 95.552V98H187.591V93.568H188.711V94.12C188.86 93.928 189.05 93.7787 189.279 93.672C189.514 93.56 189.77 93.504 190.047 93.504ZM194.576 98.072C194.213 98.072 193.888 98.008 193.6 97.88C193.312 97.7467 193.083 97.568 192.912 97.344C192.747 97.12 192.656 96.872 192.64 96.6H193.768C193.789 96.7707 193.872 96.912 194.016 97.024C194.165 97.136 194.349 97.192 194.568 97.192C194.781 97.192 194.947 97.1493 195.064 97.064C195.187 96.9787 195.248 96.8693 195.248 96.736C195.248 96.592 195.173 96.4853 195.024 96.416C194.88 96.3413 194.648 96.2613 194.328 96.176C193.997 96.096 193.725 96.0133 193.512 95.928C193.304 95.8427 193.123 95.712 192.968 95.536C192.819 95.36 192.744 95.1227 192.744 94.824C192.744 94.5787 192.813 94.3547 192.952 94.152C193.096 93.9493 193.299 93.7893 193.56 93.672C193.827 93.5547 194.139 93.496 194.496 93.496C195.024 93.496 195.445 93.6293 195.76 93.896C196.075 94.1573 196.248 94.512 196.28 94.96H195.208C195.192 94.784 195.117 94.6453 194.984 94.544C194.856 94.4373 194.683 94.384 194.464 94.384C194.261 94.384 194.104 94.4213 193.992 94.496C193.885 94.5707 193.832 94.6747 193.832 94.808C193.832 94.9573 193.907 95.072 194.056 95.152C194.205 95.2267 194.437 95.304 194.752 95.384C195.072 95.464 195.336 95.5467 195.544 95.632C195.752 95.7173 195.931 95.8507 196.08 96.032C196.235 96.208 196.315 96.4427 196.32 96.736C196.32 96.992 196.248 97.2213 196.104 97.424C195.965 97.6267 195.763 97.7867 195.496 97.904C195.235 98.016 194.928 98.072 194.576 98.072ZM199.208 98.072C198.781 98.072 198.397 97.9787 198.056 97.792C197.714 97.6 197.445 97.3307 197.248 96.984C197.056 96.6373 196.96 96.2373 196.96 95.784C196.96 95.3307 197.058 94.9307 197.256 94.584C197.458 94.2373 197.733 93.9707 198.08 93.784C198.426 93.592 198.813 93.496 199.24 93.496C199.666 93.496 200.053 93.592 200.4 93.784C200.746 93.9707 201.018 94.2373 201.216 94.584C201.418 94.9307 201.52 95.3307 201.52 95.784C201.52 96.2373 201.416 96.6373 201.207 96.984C201.005 97.3307 200.728 97.6 200.376 97.792C200.029 97.9787 199.64 98.072 199.208 98.072ZM199.208 97.096C199.41 97.096 199.6 97.048 199.776 96.952C199.957 96.8507 200.101 96.7013 200.208 96.504C200.314 96.3067 200.368 96.0667 200.368 95.784C200.368 95.3627 200.256 95.04 200.032 94.816C199.813 94.5867 199.544 94.472 199.224 94.472C198.904 94.472 198.634 94.5867 198.416 94.816C198.202 95.04 198.096 95.3627 198.096 95.784C198.096 96.2053 198.2 96.5307 198.408 96.76C198.621 96.984 198.888 97.096 199.208 97.096ZM203.461 94.256C203.605 94.0213 203.792 93.8373 204.021 93.704C204.256 93.5707 204.522 93.504 204.821 93.504V94.68H204.525C204.173 94.68 203.906 94.7627 203.725 94.928C203.549 95.0933 203.461 95.3813 203.461 95.792V98H202.341V93.568H203.461V94.256ZM212.796 94.672V95.616H209.404V94.672H212.796ZM219.561 98.072C219.198 98.072 218.873 98.008 218.585 97.88C218.297 97.7467 218.067 97.568 217.897 97.344C217.731 97.12 217.641 96.872 217.625 96.6H218.753C218.774 96.7707 218.857 96.912 219.001 97.024C219.15 97.136 219.334 97.192 219.553 97.192C219.766 97.192 219.931 97.1493 220.049 97.064C220.171 96.9787 220.233 96.8693 220.233 96.736C220.233 96.592 220.158 96.4853 220.009 96.416C219.865 96.3413 219.633 96.2613 219.312 96.176C218.982 96.096 218.71 96.0133 218.497 95.928C218.289 95.8427 218.107 95.712 217.953 95.536C217.803 95.36 217.729 95.1227 217.729 94.824C217.729 94.5787 217.798 94.3547 217.937 94.152C218.081 93.9493 218.283 93.7893 218.545 93.672C218.811 93.5547 219.123 93.496 219.481 93.496C220.009 93.496 220.43 93.6293 220.745 93.896C221.059 94.1573 221.233 94.512 221.265 94.96H220.193C220.177 94.784 220.102 94.6453 219.969 94.544C219.841 94.4373 219.667 94.384 219.449 94.384C219.246 94.384 219.089 94.4213 218.977 94.496C218.87 94.5707 218.817 94.6747 218.817 94.808C218.817 94.9573 218.891 95.072 219.041 95.152C219.19 95.2267 219.422 95.304 219.737 95.384C220.057 95.464 220.321 95.5467 220.529 95.632C220.737 95.7173 220.915 95.8507 221.065 96.032C221.219 96.208 221.299 96.4427 221.305 96.736C221.305 96.992 221.233 97.2213 221.089 97.424C220.95 97.6267 220.747 97.7867 220.481 97.904C220.219 98.016 219.913 98.072 219.561 98.072ZM223.344 94.208C223.488 94.0053 223.685 93.8373 223.936 93.704C224.192 93.5653 224.483 93.496 224.808 93.496C225.187 93.496 225.528 93.5893 225.832 93.776C226.141 93.9627 226.384 94.2293 226.56 94.576C226.741 94.9173 226.832 95.3147 226.832 95.768C226.832 96.2213 226.741 96.624 226.56 96.976C226.384 97.3227 226.141 97.592 225.832 97.784C225.528 97.976 225.187 98.072 224.808 98.072C224.483 98.072 224.195 98.0053 223.944 97.872C223.699 97.7387 223.499 97.5707 223.344 97.368V100.112H222.224V93.568H223.344V94.208ZM225.688 95.768C225.688 95.5013 225.632 95.272 225.52 95.08C225.413 94.8827 225.269 94.7333 225.088 94.632C224.912 94.5307 224.72 94.48 224.512 94.48C224.309 94.48 224.117 94.5333 223.936 94.64C223.76 94.7413 223.616 94.8907 223.504 95.088C223.397 95.2853 223.344 95.5173 223.344 95.784C223.344 96.0507 223.397 96.2827 223.504 96.48C223.616 96.6773 223.76 96.8293 223.936 96.936C224.117 97.0373 224.309 97.088 224.512 97.088C224.72 97.088 224.912 97.0347 225.088 96.928C225.269 96.8213 225.413 96.6693 225.52 96.472C225.632 96.2747 225.688 96.04 225.688 95.768ZM229.614 98.072C229.187 98.072 228.803 97.9787 228.462 97.792C228.12 97.6 227.851 97.3307 227.654 96.984C227.462 96.6373 227.366 96.2373 227.366 95.784C227.366 95.3307 227.464 94.9307 227.662 94.584C227.864 94.2373 228.139 93.9707 228.486 93.784C228.832 93.592 229.219 93.496 229.646 93.496C230.072 93.496 230.459 93.592 230.806 93.784C231.152 93.9707 231.424 94.2373 231.622 94.584C231.824 94.9307 231.926 95.3307 231.926 95.784C231.926 96.2373 231.822 96.6373 231.614 96.984C231.411 97.3307 231.134 97.6 230.782 97.792C230.435 97.9787 230.046 98.072 229.614 98.072ZM229.614 97.096C229.816 97.096 230.006 97.048 230.182 96.952C230.363 96.8507 230.507 96.7013 230.614 96.504C230.72 96.3067 230.774 96.0667 230.774 95.784C230.774 95.3627 230.662 95.04 230.438 94.816C230.219 94.5867 229.95 94.472 229.63 94.472C229.31 94.472 229.04 94.5867 228.822 94.816C228.608 95.04 228.502 95.3627 228.502 95.784C228.502 96.2053 228.606 96.5307 228.814 96.76C229.027 96.984 229.294 97.096 229.614 97.096ZM235.203 93.504C235.731 93.504 236.158 93.672 236.483 94.008C236.809 94.3387 236.971 94.8027 236.971 95.4V98H235.851V95.552C235.851 95.2 235.763 94.9307 235.587 94.744C235.411 94.552 235.171 94.456 234.867 94.456C234.558 94.456 234.313 94.552 234.131 94.744C233.955 94.9307 233.867 95.2 233.867 95.552V98H232.747V93.568H233.867V94.12C234.017 93.928 234.206 93.7787 234.435 93.672C234.67 93.56 234.926 93.504 235.203 93.504ZM239.732 98.072C239.37 98.072 239.044 98.008 238.756 97.88C238.468 97.7467 238.239 97.568 238.068 97.344C237.903 97.12 237.812 96.872 237.796 96.6H238.924C238.946 96.7707 239.028 96.912 239.172 97.024C239.322 97.136 239.506 97.192 239.724 97.192C239.938 97.192 240.103 97.1493 240.22 97.064C240.343 96.9787 240.404 96.8693 240.404 96.736C240.404 96.592 240.33 96.4853 240.18 96.416C240.036 96.3413 239.804 96.2613 239.484 96.176C239.154 96.096 238.882 96.0133 238.668 95.928C238.46 95.8427 238.279 95.712 238.124 95.536C237.975 95.36 237.9 95.1227 237.9 94.824C237.9 94.5787 237.97 94.3547 238.108 94.152C238.252 93.9493 238.455 93.7893 238.716 93.672C238.983 93.5547 239.295 93.496 239.652 93.496C240.18 93.496 240.602 93.6293 240.916 93.896C241.231 94.1573 241.404 94.512 241.436 94.96H240.364C240.348 94.784 240.274 94.6453 240.14 94.544C240.012 94.4373 239.839 94.384 239.62 94.384C239.418 94.384 239.26 94.4213 239.148 94.496C239.042 94.5707 238.988 94.6747 238.988 94.808C238.988 94.9573 239.063 95.072 239.212 95.152C239.362 95.2267 239.594 95.304 239.908 95.384C240.228 95.464 240.492 95.5467 240.7 95.632C240.908 95.7173 241.087 95.8507 241.236 96.032C241.391 96.208 241.471 96.4427 241.476 96.736C241.476 96.992 241.404 97.2213 241.26 97.424C241.122 97.6267 240.919 97.7867 240.652 97.904C240.391 98.016 240.084 98.072 239.732 98.072ZM244.364 98.072C243.937 98.072 243.553 97.9787 243.212 97.792C242.87 97.6 242.601 97.3307 242.404 96.984C242.212 96.6373 242.116 96.2373 242.116 95.784C242.116 95.3307 242.214 94.9307 242.412 94.584C242.614 94.2373 242.889 93.9707 243.236 93.784C243.582 93.592 243.969 93.496 244.396 93.496C244.822 93.496 245.209 93.592 245.556 93.784C245.902 93.9707 246.174 94.2373 246.372 94.584C246.574 94.9307 246.676 95.3307 246.676 95.784C246.676 96.2373 246.572 96.6373 246.364 96.984C246.161 97.3307 245.884 97.6 245.532 97.792C245.185 97.9787 244.796 98.072 244.364 98.072ZM244.364 97.096C244.566 97.096 244.756 97.048 244.932 96.952C245.113 96.8507 245.257 96.7013 245.364 96.504C245.47 96.3067 245.524 96.0667 245.524 95.784C245.524 95.3627 245.412 95.04 245.188 94.816C244.969 94.5867 244.7 94.472 244.38 94.472C244.06 94.472 243.79 94.5867 243.572 94.816C243.358 95.04 243.252 95.3627 243.252 95.784C243.252 96.2053 243.356 96.5307 243.564 96.76C243.777 96.984 244.044 97.096 244.364 97.096ZM248.617 94.256C248.761 94.0213 248.948 93.8373 249.177 93.704C249.412 93.5707 249.679 93.504 249.977 93.504V94.68H249.681C249.329 94.68 249.063 94.7627 248.881 94.928C248.705 95.0933 248.617 95.3813 248.617 95.792V98H247.497V93.568H248.617V94.256ZM256.046 94.672V95.616H252.654V94.672H256.046ZM262.811 98.072C262.448 98.072 262.123 98.008 261.835 97.88C261.547 97.7467 261.317 97.568 261.147 97.344C260.981 97.12 260.891 96.872 260.875 96.6H262.003C262.024 96.7707 262.107 96.912 262.251 97.024C262.4 97.136 262.584 97.192 262.803 97.192C263.016 97.192 263.181 97.1493 263.299 97.064C263.421 96.9787 263.483 96.8693 263.483 96.736C263.483 96.592 263.408 96.4853 263.259 96.416C263.115 96.3413 262.883 96.2613 262.562 96.176C262.232 96.096 261.96 96.0133 261.747 95.928C261.539 95.8427 261.357 95.712 261.203 95.536C261.053 95.36 260.979 95.1227 260.979 94.824C260.979 94.5787 261.048 94.3547 261.187 94.152C261.331 93.9493 261.533 93.7893 261.795 93.672C262.061 93.5547 262.373 93.496 262.731 93.496C263.259 93.496 263.68 93.6293 263.995 93.896C264.309 94.1573 264.483 94.512 264.515 94.96H263.443C263.427 94.784 263.352 94.6453 263.219 94.544C263.091 94.4373 262.917 94.384 262.699 94.384C262.496 94.384 262.339 94.4213 262.227 94.496C262.12 94.5707 262.067 94.6747 262.067 94.808C262.067 94.9573 262.141 95.072 262.291 95.152C262.44 95.2267 262.672 95.304 262.987 95.384C263.307 95.464 263.571 95.5467 263.779 95.632C263.987 95.7173 264.165 95.8507 264.315 96.032C264.469 96.208 264.549 96.4427 264.555 96.736C264.555 96.992 264.483 97.2213 264.339 97.424C264.2 97.6267 263.997 97.7867 263.731 97.904C263.469 98.016 263.163 98.072 262.811 98.072ZM266.594 94.208C266.738 94.0053 266.935 93.8373 267.186 93.704C267.442 93.5653 267.733 93.496 268.058 93.496C268.437 93.496 268.778 93.5893 269.082 93.776C269.391 93.9627 269.634 94.2293 269.81 94.576C269.991 94.9173 270.082 95.3147 270.082 95.768C270.082 96.2213 269.991 96.624 269.81 96.976C269.634 97.3227 269.391 97.592 269.082 97.784C268.778 97.976 268.437 98.072 268.058 98.072C267.733 98.072 267.445 98.0053 267.194 97.872C266.949 97.7387 266.749 97.5707 266.594 97.368V100.112H265.474V93.568H266.594V94.208ZM268.938 95.768C268.938 95.5013 268.882 95.272 268.77 95.08C268.663 94.8827 268.519 94.7333 268.338 94.632C268.162 94.5307 267.97 94.48 267.762 94.48C267.559 94.48 267.367 94.5333 267.186 94.64C267.01 94.7413 266.866 94.8907 266.754 95.088C266.647 95.2853 266.594 95.5173 266.594 95.784C266.594 96.0507 266.647 96.2827 266.754 96.48C266.866 96.6773 267.01 96.8293 267.186 96.936C267.367 97.0373 267.559 97.088 267.762 97.088C267.97 97.088 268.162 97.0347 268.338 96.928C268.519 96.8213 268.663 96.6693 268.77 96.472C268.882 96.2747 268.938 96.04 268.938 95.768ZM272.864 98.072C272.437 98.072 272.053 97.9787 271.712 97.792C271.37 97.6 271.101 97.3307 270.904 96.984C270.712 96.6373 270.616 96.2373 270.616 95.784C270.616 95.3307 270.714 94.9307 270.912 94.584C271.114 94.2373 271.389 93.9707 271.736 93.784C272.082 93.592 272.469 93.496 272.896 93.496C273.322 93.496 273.709 93.592 274.056 93.784C274.402 93.9707 274.674 94.2373 274.872 94.584C275.074 94.9307 275.176 95.3307 275.176 95.784C275.176 96.2373 275.072 96.6373 274.864 96.984C274.661 97.3307 274.384 97.6 274.032 97.792C273.685 97.9787 273.296 98.072 272.864 98.072ZM272.864 97.096C273.066 97.096 273.256 97.048 273.432 96.952C273.613 96.8507 273.757 96.7013 273.864 96.504C273.97 96.3067 274.024 96.0667 274.024 95.784C274.024 95.3627 273.912 95.04 273.688 94.816C273.469 94.5867 273.2 94.472 272.88 94.472C272.56 94.472 272.29 94.5867 272.072 94.816C271.858 95.04 271.752 95.3627 271.752 95.784C271.752 96.2053 271.856 96.5307 272.064 96.76C272.277 96.984 272.544 97.096 272.864 97.096ZM278.453 93.504C278.981 93.504 279.408 93.672 279.733 94.008C280.059 94.3387 280.221 94.8027 280.221 95.4V98H279.101V95.552C279.101 95.2 279.013 94.9307 278.837 94.744C278.661 94.552 278.421 94.456 278.117 94.456C277.808 94.456 277.563 94.552 277.381 94.744C277.205 94.9307 277.117 95.2 277.117 95.552V98H275.997V93.568H277.117V94.12C277.267 93.928 277.456 93.7787 277.685 93.672C277.92 93.56 278.176 93.504 278.453 93.504ZM282.982 98.072C282.62 98.072 282.294 98.008 282.006 97.88C281.718 97.7467 281.489 97.568 281.318 97.344C281.153 97.12 281.062 96.872 281.046 96.6H282.174C282.196 96.7707 282.278 96.912 282.422 97.024C282.572 97.136 282.756 97.192 282.974 97.192C283.188 97.192 283.353 97.1493 283.47 97.064C283.593 96.9787 283.654 96.8693 283.654 96.736C283.654 96.592 283.58 96.4853 283.43 96.416C283.286 96.3413 283.054 96.2613 282.734 96.176C282.404 96.096 282.132 96.0133 281.918 95.928C281.71 95.8427 281.529 95.712 281.374 95.536C281.225 95.36 281.15 95.1227 281.15 94.824C281.15 94.5787 281.22 94.3547 281.358 94.152C281.502 93.9493 281.705 93.7893 281.966 93.672C282.233 93.5547 282.545 93.496 282.902 93.496C283.43 93.496 283.852 93.6293 284.166 93.896C284.481 94.1573 284.654 94.512 284.686 94.96H283.614C283.598 94.784 283.524 94.6453 283.39 94.544C283.262 94.4373 283.089 94.384 282.87 94.384C282.668 94.384 282.51 94.4213 282.398 94.496C282.292 94.5707 282.238 94.6747 282.238 94.808C282.238 94.9573 282.313 95.072 282.462 95.152C282.612 95.2267 282.844 95.304 283.158 95.384C283.478 95.464 283.742 95.5467 283.95 95.632C284.158 95.7173 284.337 95.8507 284.486 96.032C284.641 96.208 284.721 96.4427 284.726 96.736C284.726 96.992 284.654 97.2213 284.51 97.424C284.372 97.6267 284.169 97.7867 283.902 97.904C283.641 98.016 283.334 98.072 282.982 98.072ZM287.614 98.072C287.187 98.072 286.803 97.9787 286.462 97.792C286.12 97.6 285.851 97.3307 285.654 96.984C285.462 96.6373 285.366 96.2373 285.366 95.784C285.366 95.3307 285.464 94.9307 285.662 94.584C285.864 94.2373 286.139 93.9707 286.486 93.784C286.832 93.592 287.219 93.496 287.646 93.496C288.072 93.496 288.459 93.592 288.806 93.784C289.152 93.9707 289.424 94.2373 289.622 94.584C289.824 94.9307 289.926 95.3307 289.926 95.784C289.926 96.2373 289.822 96.6373 289.614 96.984C289.411 97.3307 289.134 97.6 288.782 97.792C288.435 97.9787 288.046 98.072 287.614 98.072ZM287.614 97.096C287.816 97.096 288.006 97.048 288.182 96.952C288.363 96.8507 288.507 96.7013 288.614 96.504C288.72 96.3067 288.774 96.0667 288.774 95.784C288.774 95.3627 288.662 95.04 288.438 94.816C288.219 94.5867 287.95 94.472 287.63 94.472C287.31 94.472 287.04 94.5867 286.822 94.816C286.608 95.04 286.502 95.3627 286.502 95.784C286.502 96.2053 286.606 96.5307 286.814 96.76C287.027 96.984 287.294 97.096 287.614 97.096ZM291.867 94.256C292.011 94.0213 292.198 93.8373 292.427 93.704C292.662 93.5707 292.929 93.504 293.227 93.504V94.68H292.931C292.579 94.68 292.313 94.7627 292.131 94.928C291.955 95.0933 291.867 95.3813 291.867 95.792V98H290.747V93.568H291.867V94.256Z" fill="#00334E"/>
</g>
</g>
<g filter="url(#filter1_d_185_4299)">
<path d="M235.288 15.814C235.288 15.19 235.417 14.635 235.675 14.149C235.939 13.657 236.311 13.276 236.791 13.006C237.271 12.73 237.823 12.592 238.447 12.592C239.239 12.592 239.905 12.805 240.445 13.231C240.985 13.651 241.333 14.224 241.489 14.95H239.59C239.476 14.71 239.317 14.527 239.113 14.401C238.915 14.275 238.684 14.212 238.42 14.212C238.012 14.212 237.685 14.359 237.439 14.653C237.199 14.941 237.079 15.328 237.079 15.814C237.079 16.306 237.199 16.699 237.439 16.993C237.685 17.281 238.012 17.425 238.42 17.425C238.684 17.425 238.915 17.362 239.113 17.236C239.317 17.11 239.476 16.927 239.59 16.687H241.489C241.333 17.413 240.985 17.989 240.445 18.415C239.905 18.835 239.239 19.045 238.447 19.045C237.823 19.045 237.271 18.91 236.791 18.64C236.311 18.364 235.939 17.983 235.675 17.497C235.417 17.005 235.288 16.444 235.288 15.814ZM246.221 15.148V16.615H242.144V15.148H246.221ZM249.291 17.65H251.262V19H247.527V12.655H249.291V17.65ZM254.297 19.063C253.793 19.063 253.34 18.958 252.938 18.748C252.542 18.538 252.23 18.238 252.002 17.848C251.774 17.458 251.66 16.999 251.66 16.471C251.66 15.949 251.774 15.493 252.002 15.103C252.236 14.713 252.551 14.413 252.947 14.203C253.349 13.993 253.802 13.888 254.306 13.888C254.81 13.888 255.26 13.993 255.656 14.203C256.058 14.413 256.373 14.713 256.601 15.103C256.835 15.493 256.952 15.949 256.952 16.471C256.952 16.993 256.835 17.452 256.601 17.848C256.373 18.238 256.058 18.538 255.656 18.748C255.254 18.958 254.801 19.063 254.297 19.063ZM254.297 17.533C254.543 17.533 254.747 17.443 254.909 17.263C255.077 17.077 255.161 16.813 255.161 16.471C255.161 16.129 255.077 15.868 254.909 15.688C254.747 15.508 254.546 15.418 254.306 15.418C254.066 15.418 253.865 15.508 253.703 15.688C253.541 15.868 253.46 16.129 253.46 16.471C253.46 16.819 253.538 17.083 253.694 17.263C253.85 17.443 254.051 17.533 254.297 17.533ZM263.106 13.951L259.902 21.403H257.985L259.191 18.784L257.121 13.951H259.083L260.145 16.813L261.171 13.951H263.106ZM263.279 16.471C263.279 15.949 263.372 15.493 263.558 15.103C263.75 14.713 264.008 14.413 264.332 14.203C264.662 13.993 265.028 13.888 265.43 13.888C265.778 13.888 266.078 13.957 266.33 14.095C266.582 14.233 266.777 14.419 266.915 14.653V13.951H268.679V19H266.915V18.298C266.777 18.532 266.579 18.718 266.321 18.856C266.069 18.994 265.772 19.063 265.43 19.063C265.028 19.063 264.662 18.958 264.332 18.748C264.008 18.538 263.75 18.238 263.558 17.848C263.372 17.452 263.279 16.993 263.279 16.471ZM266.915 16.471C266.915 16.147 266.825 15.892 266.645 15.706C266.471 15.52 266.255 15.427 265.997 15.427C265.733 15.427 265.514 15.52 265.34 15.706C265.166 15.886 265.079 16.141 265.079 16.471C265.079 16.795 265.166 17.053 265.34 17.245C265.514 17.431 265.733 17.524 265.997 17.524C266.255 17.524 266.471 17.431 266.645 17.245C266.825 17.059 266.915 16.801 266.915 16.471ZM271.449 12.34V19H269.685V12.34H271.449Z" fill="#EE6F57"/>
</g>
</g>
<defs>
<filter id="filter0_d_185_4299" x="123.312" y="93.496" width="173.915" height="14.6161" filterUnits="userSpaceOnUse" color-interpolation-filters="sRGB">
<feFlood flood-opacity="0" result="BackgroundImageFix"/>
<feColorMatrix in="SourceAlpha" type="matrix" values="0 0 0 0 0 0 0 0 0 0 0 0 0 0 0 0 0 0 127 0" result="hardAlpha"/>
<feOffset dy="4"/>
<feGaussianBlur stdDeviation="2"/>
<feComposite in2="hardAlpha" operator="out"/>
<feColorMatrix type="matrix" values="0 0 0 0 0 0 0 0 0 0 0 0 0 0 0 0 0 0 0.25 0"/>
<feBlend mode="normal" in2="BackgroundImageFix" result="effect1_dropShadow_185_4299"/>
<feBlend mode="normal" in="SourceGraphic" in2="effect1_dropShadow_185_4299" result="shape"/>
</filter>
<filter id="filter1_d_185_4299" x="231.288" y="12.34" width="44.1607" height="17.063" filterUnits="userSpaceOnUse" color-interpolation-filters="sRGB">
<feFlood flood-opacity="0" result="BackgroundImageFix"/>
<feColorMatrix in="SourceAlpha" type="matrix" values="0 0 0 0 0 0 0 0 0 0 0 0 0 0 0 0 0 0 127 0" result="hardAlpha"/>
<feOffset dy="4"/>
<feGaussianBlur stdDeviation="2"/>
<feComposite in2="hardAlpha" operator="out"/>
<feColorMatrix type="matrix" values="0 0 0 0 0 0 0 0 0 0 0 0 0 0 0 0 0 0 0.25 0"/>
<feBlend mode="normal" in2="BackgroundImageFix" result="effect1_dropShadow_185_4299"/>
<feBlend mode="normal" in="SourceGraphic" in2="effect1_dropShadow_185_4299" result="shape"/>
</filter>
<linearGradient id="paint0_linear_185_4299" x1="-40.1753" y1="10.3814" x2="23.134" y2="137" gradientUnits="userSpaceOnUse">
<stop offset="0.192728" stop-color="#EE6F57"/>
<stop offset="1" stop-color="#D9EE57" stop-opacity="0.54"/>
</linearGradient>
<clipPath id="clip0_185_4299">
<rect width="278" height="116" fill="white"/>
</clipPath>
<clipPath id="clip1_185_4299">
<rect width="176" height="14" fill="white" transform="translate(122 89)"/>
</clipPath>
</defs>
</svg>
