<svg width="523" height="497" viewBox="0 0 523 497" fill="none" xmlns="http://www.w3.org/2000/svg">
<path d="M520.497 358.81V495.571H220.016V386.372H246.082V418.025H252.791V362.696H285.941V415.214H290.321V348.613H319.127V366.883H333.909V389.643H338.374V375.331H364.573V418.013H372.224V383.319H396.178V356.964H412.469V341.952H431.306V408.528H437.642V380.737H468.679V420.511H472.975V388.05H504.448V358.81H520.497Z" fill="#EBEBEB"/>
<path d="M227.606 390.355H223.201V396.413H227.606V390.355Z" fill="white"/>
<path d="M235.257 390.355H230.852V396.413H235.257V390.355Z" fill="white"/>
<path d="M242.896 390.355H238.491V396.413H242.896V390.355Z" fill="white"/>
<path d="M227.606 399.454H223.201V405.512H227.606V399.454Z" fill="white"/>
<path d="M235.257 399.454H230.852V405.512H235.257V399.454Z" fill="white"/>
<path d="M242.896 399.454H238.491V405.512H242.896V399.454Z" fill="white"/>
<path d="M227.606 408.565H223.201V414.622H227.606V408.565Z" fill="white"/>
<path d="M235.257 408.565H230.852V414.622H235.257V408.565Z" fill="white"/>
<path d="M242.896 408.565H238.491V414.622H242.896V408.565Z" fill="white"/>
<path d="M227.606 417.676H223.201V423.734H227.606V417.676Z" fill="white"/>
<path d="M235.257 417.676H230.852V423.734H235.257V417.676Z" fill="white"/>
<path d="M242.896 417.676H238.491V423.734H242.896V417.676Z" fill="white"/>
<path d="M380.309 387.639H375.904V392.684H380.309V387.639Z" fill="white"/>
<path d="M387.96 387.639H383.555V392.684H387.96V387.639Z" fill="white"/>
<path d="M395.598 387.639H391.194V392.684H395.598V387.639Z" fill="white"/>
<path d="M380.309 395.242H375.904V400.286H380.309V395.242Z" fill="white"/>
<path d="M387.96 395.242H383.555V400.286H387.96V395.242Z" fill="white"/>
<path d="M395.598 395.242H391.194V400.286H395.598V395.242Z" fill="white"/>
<path d="M380.309 402.833H375.904V407.877H380.309V402.833Z" fill="white"/>
<path d="M387.96 402.833H383.555V407.877H387.96V402.833Z" fill="white"/>
<path d="M395.598 402.833H391.194V407.877H395.598V402.833Z" fill="white"/>
<path d="M380.309 410.435H375.904V415.479H380.309V410.435Z" fill="white"/>
<path d="M387.96 410.435H383.555V415.479H387.96V410.435Z" fill="white"/>
<path d="M395.598 410.435H391.194V415.479H395.598V410.435Z" fill="white"/>
<path d="M380.309 418.219H375.904V423.263H380.309V418.219Z" fill="white"/>
<path d="M387.96 418.219H383.555V423.263H387.96V418.219Z" fill="white"/>
<path d="M395.598 418.219H391.194V423.263H395.598V418.219Z" fill="white"/>
<path d="M380.309 426.002H375.904V431.046H380.309V426.002Z" fill="white"/>
<path d="M387.96 426.002H383.555V431.046H387.96V426.002Z" fill="white"/>
<path d="M395.598 426.002H391.194V431.046H395.598V426.002Z" fill="white"/>
<path d="M380.309 433.798H375.904V438.842H380.309V433.798Z" fill="white"/>
<path d="M387.96 433.798H383.555V438.842H387.96V433.798Z" fill="white"/>
<path d="M395.598 433.798H391.194V438.842H395.598V433.798Z" fill="white"/>
<path d="M380.309 441.581H375.904V446.626H380.309V441.581Z" fill="white"/>
<path d="M387.96 441.581H383.555V446.626H387.96V441.581Z" fill="white"/>
<path d="M395.598 441.581H391.194V446.626H395.598V441.581Z" fill="white"/>
<path d="M281.946 366.582H256.556V370.371H281.946V366.582Z" fill="white"/>
<path d="M281.946 373.919H256.556V377.708H281.946V373.919Z" fill="white"/>
<path d="M281.946 381.268H256.556V385.057H281.946V381.268Z" fill="white"/>
<path d="M281.946 388.617H256.556V392.406H281.946V388.617Z" fill="white"/>
<path d="M281.946 395.954H256.556V399.743H281.946V395.954Z" fill="white"/>
<path d="M281.946 403.303H256.556V407.092H281.946V403.303Z" fill="white"/>
<path d="M281.946 410.652H256.556V414.441H281.946V410.652Z" fill="white"/>
<path d="M281.946 417.989H256.556V421.778H281.946V417.989Z" fill="white"/>
<path d="M464.733 384.273H441.395V388.062H464.733V384.273Z" fill="white"/>
<path d="M464.733 391.622H441.395V395.411H464.733V391.622Z" fill="white"/>
<path d="M464.733 398.959H441.395V402.748H464.733V398.959Z" fill="white"/>
<path d="M464.733 406.308H441.395V410.097H464.733V406.308Z" fill="white"/>
<path d="M464.733 413.657H441.395V417.446H464.733V413.657Z" fill="white"/>
<path d="M464.733 420.994H441.395V424.783H464.733V420.994Z" fill="white"/>
<path d="M464.733 428.343H441.395V432.132H464.733V428.343Z" fill="white"/>
<path d="M464.733 435.692H441.395V439.482H464.733V435.692Z" fill="white"/>
<path d="M464.733 442.667H441.395V446.457H464.733V442.667Z" fill="white"/>
<path d="M464.733 449.642H441.395V453.432H464.733V449.642Z" fill="white"/>
<path d="M464.733 456.63H441.395V460.419H464.733V456.63Z" fill="white"/>
<path d="M464.733 463.604H441.395V467.394H464.733V463.604Z" fill="white"/>
<path d="M464.733 470.58H441.395V474.369H464.733V470.58Z" fill="white"/>
<path d="M502.48 393.142H477.826V396.932H502.48V393.142Z" fill="white"/>
<path d="M502.48 400.491H477.826V404.281H502.48V400.491Z" fill="white"/>
<path d="M502.48 407.84H477.826V411.63H502.48V407.84Z" fill="white"/>
<path d="M502.48 415.177H477.826V418.967H502.48V415.177Z" fill="white"/>
<path d="M502.48 422.527H477.826V426.316H502.48V422.527Z" fill="white"/>
<path d="M502.48 429.864H477.826V433.653H502.48V429.864Z" fill="white"/>
<path d="M502.48 437.213H477.826V441.002H502.48V437.213Z" fill="white"/>
<path d="M502.48 444.562H477.826V448.351H502.48V444.562Z" fill="white"/>
<path d="M502.48 451.139H477.826V454.928H502.48V451.139Z" fill="white"/>
<path d="M502.48 457.704H477.826V461.493H502.48V457.704Z" fill="white"/>
<path d="M502.48 464.28H477.826V468.07H502.48V464.28Z" fill="white"/>
<path d="M353.881 378.758H346.037V382.414H353.881V378.758Z" fill="white"/>
<path d="M353.881 385.853H346.037V389.51H353.881V385.853Z" fill="white"/>
<path d="M353.881 392.949H346.037V396.606H353.881V392.949Z" fill="white"/>
<path d="M353.881 400.033H346.037V403.689H353.881V400.033Z" fill="white"/>
<path d="M353.881 407.129H346.037V410.785H353.881V407.129Z" fill="white"/>
<path d="M353.881 414.224H346.037V417.881H353.881V414.224Z" fill="white"/>
<path d="M353.881 421.32H346.037V424.977H353.881V421.32Z" fill="white"/>
<path d="M353.881 428.416H346.037V432.072H353.881V428.416Z" fill="white"/>
<path d="M364.548 378.758H356.705V382.414H364.548V378.758Z" fill="white"/>
<path d="M364.548 385.853H356.705V389.51H364.548V385.853Z" fill="white"/>
<path d="M364.548 392.949H356.705V396.606H364.548V392.949Z" fill="white"/>
<path d="M364.548 400.033H356.705V403.689H364.548V400.033Z" fill="white"/>
<path d="M364.548 407.129H356.705V410.785H364.548V407.129Z" fill="white"/>
<path d="M364.548 414.224H356.705V417.881H364.548V414.224Z" fill="white"/>
<path d="M364.548 421.32H356.705V424.977H364.548V421.32Z" fill="white"/>
<path d="M364.548 428.416H356.705V432.072H364.548V428.416Z" fill="white"/>
<path d="M302.859 352.451H294.69V358.219H302.859V352.451Z" fill="white"/>
<path d="M315.048 352.451H306.878V358.219H315.048V352.451Z" fill="white"/>
<path d="M302.859 360.91H294.69V366.678H302.859V360.91Z" fill="white"/>
<path d="M315.048 360.91H306.878V366.678H315.048V360.91Z" fill="white"/>
<path d="M302.859 369.381H294.69V375.15H302.859V369.381Z" fill="white"/>
<path d="M315.048 369.381H306.878V375.15H315.048V369.381Z" fill="white"/>
<path d="M302.859 377.853H294.69V383.621H302.859V377.853Z" fill="white"/>
<path d="M315.048 377.853H306.878V383.621H315.048V377.853Z" fill="white"/>
<path d="M302.859 386.324H294.69V392.092H302.859V386.324Z" fill="white"/>
<path d="M315.048 386.324H306.878V392.092H315.048V386.324Z" fill="white"/>
<path d="M302.859 394.783H294.69V400.552H302.859V394.783Z" fill="white"/>
<path d="M315.048 394.783H306.878V400.552H315.048V394.783Z" fill="white"/>
<path d="M302.859 403.255H294.69V409.023H302.859V403.255Z" fill="white"/>
<path d="M315.048 403.255H306.878V409.023H315.048V403.255Z" fill="white"/>
<path d="M302.859 411.726H294.69V417.495H302.859V411.726Z" fill="white"/>
<path d="M315.048 411.726H306.878V417.495H315.048V411.726Z" fill="white"/>
<path d="M330.132 369.381H321.962V375.15H330.132V369.381Z" fill="white"/>
<path d="M330.132 377.853H321.962V383.621H330.132V377.853Z" fill="white"/>
<path d="M330.132 386.324H321.962V392.092H330.132V386.324Z" fill="white"/>
<path d="M330.132 394.783H321.962V400.552H330.132V394.783Z" fill="white"/>
<path d="M330.132 403.255H321.962V409.023H330.132V403.255Z" fill="white"/>
<path d="M330.132 411.726H321.962V417.495H330.132V411.726Z" fill="white"/>
<path d="M302.859 420.089H294.69V425.857H302.859V420.089Z" fill="white"/>
<path d="M315.048 420.089H306.878V425.857H315.048V420.089Z" fill="white"/>
<path d="M330.132 420.089H321.962V425.857H330.132V420.089Z" fill="white"/>
<path d="M302.859 428.464H294.69V434.232H302.859V428.464Z" fill="white"/>
<path d="M315.048 428.464H306.878V434.232H315.048V428.464Z" fill="white"/>
<path d="M330.132 428.464H321.962V434.232H330.132V428.464Z" fill="white"/>
<path d="M302.859 436.827H294.69V442.595H302.859V436.827Z" fill="white"/>
<path d="M315.048 436.827H306.878V442.595H315.048V436.827Z" fill="white"/>
<path d="M330.132 436.827H321.962V442.595H330.132V436.827Z" fill="white"/>
<path d="M302.859 445.202H294.69V450.97H302.859V445.202Z" fill="white"/>
<path d="M315.048 445.202H306.878V450.97H315.048V445.202Z" fill="white"/>
<path d="M330.132 445.202H321.962V450.97H330.132V445.202Z" fill="white"/>
<path d="M302.859 453.564H294.69V459.333H302.859V453.564Z" fill="white"/>
<path d="M315.048 453.564H306.878V459.333H315.048V453.564Z" fill="white"/>
<path d="M330.132 453.564H321.962V459.333H330.132V453.564Z" fill="white"/>
<path d="M403.913 360.668H399.508V365.713H403.913V360.668Z" fill="white"/>
<path d="M411.564 360.668H407.159V365.713H411.564V360.668Z" fill="white"/>
<path d="M403.913 368.271H399.508V373.315H403.913V368.271Z" fill="white"/>
<path d="M411.564 368.271H407.159V373.315H411.564V368.271Z" fill="white"/>
<path d="M403.913 375.874H399.508V380.918H403.913V375.874Z" fill="white"/>
<path d="M411.564 375.874H407.159V380.918H411.564V375.874Z" fill="white"/>
<path d="M403.913 383.464H399.508V388.508H403.913V383.464Z" fill="white"/>
<path d="M411.564 383.464H407.159V388.508H411.564V383.464Z" fill="white"/>
<path d="M403.913 391.248H399.508V396.292H403.913V391.248Z" fill="white"/>
<path d="M411.564 391.248H407.159V396.292H411.564V391.248Z" fill="white"/>
<path d="M403.913 399.043H399.508V404.087H403.913V399.043Z" fill="white"/>
<path d="M411.564 399.043H407.159V404.087H411.564V399.043Z" fill="white"/>
<path d="M403.913 406.827H399.508V411.871H403.913V406.827Z" fill="white"/>
<path d="M411.564 406.827H407.159V411.871H411.564V406.827Z" fill="white"/>
<path d="M403.913 414.61H399.508V419.655H403.913V414.61Z" fill="white"/>
<path d="M411.564 414.61H407.159V419.655H411.564V414.61Z" fill="white"/>
<path d="M403.913 422.478H399.508V427.523H403.913V422.478Z" fill="white"/>
<path d="M411.564 422.478H407.159V427.523H411.564V422.478Z" fill="white"/>
<path d="M403.913 430.347H399.508V435.391H403.913V430.347Z" fill="white"/>
<path d="M411.564 430.347H407.159V435.391H411.564V430.347Z" fill="white"/>
<path d="M403.913 438.214H399.508V443.259H403.913V438.214Z" fill="white"/>
<path d="M411.564 438.214H407.159V443.259H411.564V438.214Z" fill="white"/>
<path d="M403.913 446.083H399.508V451.127H403.913V446.083Z" fill="white"/>
<path d="M411.564 446.083H407.159V451.127H411.564V446.083Z" fill="white"/>
<path d="M511.616 361.489H507.211V367.438H511.616V361.489Z" fill="white"/>
<path d="M519.254 361.489H514.849V367.438H519.254V361.489Z" fill="white"/>
<path d="M511.616 370.443H507.211V376.393H511.616V370.443Z" fill="white"/>
<path d="M519.254 370.443H514.849V376.393H519.254V370.443Z" fill="white"/>
<path d="M511.616 379.397H507.211V385.347H511.616V379.397Z" fill="white"/>
<path d="M519.254 379.397H514.849V385.347H519.254V379.397Z" fill="white"/>
<path d="M511.616 388.351H507.211V394.301H511.616V388.351Z" fill="white"/>
<path d="M519.254 388.352H514.849V394.301H519.254V388.352Z" fill="white"/>
<path d="M511.616 397.523H507.211V403.472H511.616V397.523Z" fill="white"/>
<path d="M519.254 397.523H514.849V403.472H519.254V397.523Z" fill="white"/>
<path d="M511.616 406.694H507.211V412.643H511.616V406.694Z" fill="white"/>
<path d="M519.254 406.694H514.849V412.643H519.254V406.694Z" fill="white"/>
<path d="M511.616 415.865H507.211V421.815H511.616V415.865Z" fill="white"/>
<path d="M519.254 415.866H514.849V421.815H519.254V415.866Z" fill="white"/>
<path d="M511.616 425.037H507.211V430.986H511.616V425.037Z" fill="white"/>
<path d="M519.254 425.037H514.849V430.986H519.254V425.037Z" fill="white"/>
<path d="M511.616 434.305H507.211V440.254H511.616V434.305Z" fill="white"/>
<path d="M519.254 434.305H514.849V440.254H519.254V434.305Z" fill="white"/>
<path d="M511.616 443.573H507.211V449.522H511.616V443.573Z" fill="white"/>
<path d="M519.254 443.573H514.849V449.522H519.254V443.573Z" fill="white"/>
<path d="M511.616 452.852H507.211V458.802H511.616V452.852Z" fill="white"/>
<path d="M519.254 452.853H514.849V458.802H519.254V452.853Z" fill="white"/>
<path d="M511.616 462.12H507.211V468.07H511.616V462.12Z" fill="white"/>
<path d="M519.254 462.12H514.849V468.07H519.254V462.12Z" fill="white"/>
<path d="M420.265 360.668H415.86V365.713H420.265V360.668Z" fill="white"/>
<path d="M427.903 360.668H423.499V365.713H427.903V360.668Z" fill="white"/>
<path d="M420.265 352.885H415.86V357.929H420.265V352.885Z" fill="white"/>
<path d="M427.903 352.885H423.499V357.929H427.903V352.885Z" fill="white"/>
<path d="M420.265 345.089H415.86V350.134H420.265V345.089Z" fill="white"/>
<path d="M427.903 345.089H423.499V350.134H427.903V345.089Z" fill="white"/>
<path d="M420.265 368.271H415.86V373.315H420.265V368.271Z" fill="white"/>
<path d="M427.903 368.271H423.499V373.315H427.903V368.271Z" fill="white"/>
<path d="M420.265 375.874H415.86V380.918H420.265V375.874Z" fill="white"/>
<path d="M427.903 375.874H423.499V380.918H427.903V375.874Z" fill="white"/>
<path d="M420.265 383.464H415.86V388.508H420.265V383.464Z" fill="white"/>
<path d="M427.903 383.464H423.499V388.508H427.903V383.464Z" fill="white"/>
<path d="M420.265 391.248H415.86V396.292H420.265V391.248Z" fill="white"/>
<path d="M427.903 391.248H423.499V396.292H427.903V391.248Z" fill="white"/>
<path d="M420.265 399.043H415.86V404.087H420.265V399.043Z" fill="white"/>
<path d="M427.903 399.043H423.499V404.087H427.903V399.043Z" fill="white"/>
<path d="M420.265 406.827H415.86V411.871H420.265V406.827Z" fill="white"/>
<path d="M427.903 406.827H423.499V411.871H427.903V406.827Z" fill="white"/>
<path d="M420.265 414.61H415.86V419.655H420.265V414.61Z" fill="white"/>
<path d="M427.903 414.61H423.499V419.655H427.903V414.61Z" fill="white"/>
<path d="M420.265 422.478H415.86V427.523H420.265V422.478Z" fill="white"/>
<path d="M427.903 422.478H423.499V427.523H427.903V422.478Z" fill="white"/>
<path d="M420.265 430.347H415.86V435.391H420.265V430.347Z" fill="white"/>
<path d="M427.903 430.347H423.499V435.391H427.903V430.347Z" fill="white"/>
<path d="M420.265 438.214H415.86V443.259H420.265V438.214Z" fill="white"/>
<path d="M427.903 438.214H423.499V443.259H427.903V438.214Z" fill="white"/>
<path d="M420.265 446.083H415.86V451.127H420.265V446.083Z" fill="white"/>
<path d="M427.903 446.083H423.499V451.127H427.903V446.083Z" fill="white"/>
<path d="M220.016 495.571H2.36572V373.098H28.4316V404.751H35.1411V386.831H68.2906V415.214H72.6832V348.613H101.488V366.883H116.259V389.643H120.736V375.331H146.923V418.013H154.586V383.319H178.54V356.964H194.819L213.656 357.048V408.528H220.004L220.016 495.571Z" fill="#EBEBEB"/>
<path d="M9.96837 377.08H5.56372V383.138H9.96837V377.08Z" fill="white"/>
<path d="M17.607 377.08H13.2024V383.138H17.607V377.08Z" fill="white"/>
<path d="M25.2577 377.08H20.853V383.138H25.2577V377.08Z" fill="white"/>
<path d="M9.96837 386.179H5.56372V392.237H9.96837V386.179Z" fill="white"/>
<path d="M17.607 386.179H13.2024V392.237H17.607V386.179Z" fill="white"/>
<path d="M25.2577 386.179H20.853V392.237H25.2577V386.179Z" fill="white"/>
<path d="M9.96837 395.29H5.56372V401.348H9.96837V395.29Z" fill="white"/>
<path d="M17.607 395.29H13.2024V401.348H17.607V395.29Z" fill="white"/>
<path d="M25.2577 395.29H20.853V401.348H25.2577V395.29Z" fill="white"/>
<path d="M9.96837 404.401H5.56372V410.459H9.96837V404.401Z" fill="white"/>
<path d="M17.607 404.401H13.2024V410.459H17.607V404.401Z" fill="white"/>
<path d="M25.2577 404.401H20.853V410.459H25.2577V404.401Z" fill="white"/>
<path d="M162.671 387.639H158.266V392.684H162.671V387.639Z" fill="white"/>
<path d="M170.309 387.639H165.905V392.684H170.309V387.639Z" fill="white"/>
<path d="M177.96 387.639H173.556V392.684H177.96V387.639Z" fill="white"/>
<path d="M162.671 395.242H158.266V400.286H162.671V395.242Z" fill="white"/>
<path d="M170.309 395.242H165.905V400.286H170.309V395.242Z" fill="white"/>
<path d="M177.96 395.242H173.556V400.286H177.96V395.242Z" fill="white"/>
<path d="M162.671 402.833H158.266V407.877H162.671V402.833Z" fill="white"/>
<path d="M170.309 402.833H165.905V407.877H170.309V402.833Z" fill="white"/>
<path d="M177.96 402.833H173.556V407.877H177.96V402.833Z" fill="white"/>
<path d="M162.671 410.435H158.266V415.479H162.671V410.435Z" fill="white"/>
<path d="M170.309 410.435H165.905V415.479H170.309V410.435Z" fill="white"/>
<path d="M177.96 410.435H173.556V415.479H177.96V410.435Z" fill="white"/>
<path d="M162.671 418.219H158.266V423.263H162.671V418.219Z" fill="white"/>
<path d="M170.309 418.219H165.905V423.263H170.309V418.219Z" fill="white"/>
<path d="M177.96 418.219H173.556V423.263H177.96V418.219Z" fill="white"/>
<path d="M162.671 426.002H158.266V431.046H162.671V426.002Z" fill="white"/>
<path d="M170.309 426.002H165.905V431.046H170.309V426.002Z" fill="white"/>
<path d="M177.96 426.002H173.556V431.046H177.96V426.002Z" fill="white"/>
<path d="M162.671 433.798H158.266V438.842H162.671V433.798Z" fill="white"/>
<path d="M170.309 433.798H165.905V438.842H170.309V433.798Z" fill="white"/>
<path d="M177.96 433.798H173.556V438.842H177.96V433.798Z" fill="white"/>
<path d="M162.671 441.581H158.266V446.626H162.671V441.581Z" fill="white"/>
<path d="M170.309 441.581H165.905V446.626H170.309V441.581Z" fill="white"/>
<path d="M177.96 441.581H173.556V446.626H177.96V441.581Z" fill="white"/>
<path d="M64.2963 390.717H38.9062V394.506H64.2963V390.717Z" fill="white"/>
<path d="M64.2963 398.054H38.9062V401.843H64.2963V398.054Z" fill="white"/>
<path d="M64.2963 405.403H38.9062V409.192H64.2963V405.403Z" fill="white"/>
<path d="M64.2963 412.752H38.9062V416.541H64.2963V412.752Z" fill="white"/>
<path d="M64.2963 420.089H38.9062V423.878H64.2963V420.089Z" fill="white"/>
<path d="M64.2963 427.438H38.9062V431.227H64.2963V427.438Z" fill="white"/>
<path d="M64.2963 434.787H38.9062V438.577H64.2963V434.787Z" fill="white"/>
<path d="M64.2963 442.124H38.9062V445.914H64.2963V442.124Z" fill="white"/>
<path d="M136.243 378.758H128.399V382.414H136.243V378.758Z" fill="white"/>
<path d="M136.243 385.853H128.399V389.51H136.243V385.853Z" fill="white"/>
<path d="M136.243 392.949H128.399V396.606H136.243V392.949Z" fill="white"/>
<path d="M136.243 400.033H128.399V403.689H136.243V400.033Z" fill="white"/>
<path d="M136.243 407.129H128.399V410.785H136.243V407.129Z" fill="white"/>
<path d="M136.243 414.224H128.399V417.881H136.243V414.224Z" fill="white"/>
<path d="M136.243 421.32H128.399V424.977H136.243V421.32Z" fill="white"/>
<path d="M136.243 428.416H128.399V432.072H136.243V428.416Z" fill="white"/>
<path d="M146.911 378.758H139.067V382.414H146.911V378.758Z" fill="white"/>
<path d="M146.911 385.853H139.067V389.51H146.911V385.853Z" fill="white"/>
<path d="M146.911 392.949H139.067V396.606H146.911V392.949Z" fill="white"/>
<path d="M146.911 400.033H139.067V403.689H146.911V400.033Z" fill="white"/>
<path d="M146.911 407.129H139.067V410.785H146.911V407.129Z" fill="white"/>
<path d="M146.911 414.224H139.067V417.881H146.911V414.224Z" fill="white"/>
<path d="M146.911 421.32H139.067V424.977H146.911V421.32Z" fill="white"/>
<path d="M146.911 428.416H139.067V432.072H146.911V428.416Z" fill="white"/>
<path d="M85.2215 352.451H77.0518V358.219H85.2215V352.451Z" fill="white"/>
<path d="M97.3975 352.451H89.2278V358.219H97.3975V352.451Z" fill="white"/>
<path d="M85.2215 360.91H77.0518V366.678H85.2215V360.91Z" fill="white"/>
<path d="M97.3975 360.91H89.2278V366.678H97.3975V360.91Z" fill="white"/>
<path d="M85.2215 369.381H77.0518V375.15H85.2215V369.381Z" fill="white"/>
<path d="M97.3975 369.381H89.2278V375.15H97.3975V369.381Z" fill="white"/>
<path d="M85.2215 377.853H77.0518V383.621H85.2215V377.853Z" fill="white"/>
<path d="M97.3975 377.853H89.2278V383.621H97.3975V377.853Z" fill="white"/>
<path d="M85.2215 386.324H77.0518V392.092H85.2215V386.324Z" fill="white"/>
<path d="M97.3975 386.324H89.2278V392.092H97.3975V386.324Z" fill="white"/>
<path d="M85.2215 394.783H77.0518V400.552H85.2215V394.783Z" fill="white"/>
<path d="M97.3975 394.783H89.2278V400.552H97.3975V394.783Z" fill="white"/>
<path d="M85.2215 403.255H77.0518V409.023H85.2215V403.255Z" fill="white"/>
<path d="M97.3975 403.255H89.2278V409.023H97.3975V403.255Z" fill="white"/>
<path d="M85.2215 411.726H77.0518V417.495H85.2215V411.726Z" fill="white"/>
<path d="M97.3975 411.726H89.2278V417.495H97.3975V411.726Z" fill="white"/>
<path d="M112.494 369.381H104.324V375.15H112.494V369.381Z" fill="white"/>
<path d="M112.494 377.853H104.324V383.621H112.494V377.853Z" fill="white"/>
<path d="M112.494 386.324H104.324V392.092H112.494V386.324Z" fill="white"/>
<path d="M112.494 394.783H104.324V400.552H112.494V394.783Z" fill="white"/>
<path d="M112.494 403.255H104.324V409.023H112.494V403.255Z" fill="white"/>
<path d="M112.494 411.726H104.324V417.495H112.494V411.726Z" fill="white"/>
<path d="M85.2215 420.089H77.0518V425.857H85.2215V420.089Z" fill="white"/>
<path d="M97.3975 420.089H89.2278V425.857H97.3975V420.089Z" fill="white"/>
<path d="M112.494 420.089H104.324V425.857H112.494V420.089Z" fill="white"/>
<path d="M85.2215 428.464H77.0518V434.232H85.2215V428.464Z" fill="white"/>
<path d="M97.3975 428.464H89.2278V434.232H97.3975V428.464Z" fill="white"/>
<path d="M112.494 428.464H104.324V434.232H112.494V428.464Z" fill="white"/>
<path d="M85.2215 436.827H77.0518V442.595H85.2215V436.827Z" fill="white"/>
<path d="M97.3975 436.827H89.2278V442.595H97.3975V436.827Z" fill="white"/>
<path d="M112.494 436.827H104.324V442.595H112.494V436.827Z" fill="white"/>
<path d="M85.2215 445.202H77.0518V450.97H85.2215V445.202Z" fill="white"/>
<path d="M97.3975 445.202H89.2278V450.97H97.3975V445.202Z" fill="white"/>
<path d="M112.494 445.202H104.324V450.97H112.494V445.202Z" fill="white"/>
<path d="M85.2215 453.564H77.0518V459.333H85.2215V453.564Z" fill="white"/>
<path d="M97.3975 453.564H89.2278V459.333H97.3975V453.564Z" fill="white"/>
<path d="M112.494 453.564H104.324V459.333H112.494V453.564Z" fill="white"/>
<path d="M186.263 360.668H181.858V365.713H186.263V360.668Z" fill="white"/>
<path d="M193.914 360.668H189.509V365.713H193.914V360.668Z" fill="white"/>
<path d="M186.263 368.271H181.858V373.315H186.263V368.271Z" fill="white"/>
<path d="M193.914 368.271H189.509V373.315H193.914V368.271Z" fill="white"/>
<path d="M186.263 375.874H181.858V380.918H186.263V375.874Z" fill="white"/>
<path d="M193.914 375.874H189.509V380.918H193.914V375.874Z" fill="white"/>
<path d="M186.263 383.464H181.858V388.508H186.263V383.464Z" fill="white"/>
<path d="M193.914 383.464H189.509V388.508H193.914V383.464Z" fill="white"/>
<path d="M186.263 391.248H181.858V396.292H186.263V391.248Z" fill="white"/>
<path d="M193.914 391.248H189.509V396.292H193.914V391.248Z" fill="white"/>
<path d="M186.263 399.043H181.858V404.087H186.263V399.043Z" fill="white"/>
<path d="M193.914 399.043H189.509V404.087H193.914V399.043Z" fill="white"/>
<path d="M186.263 406.827H181.858V411.871H186.263V406.827Z" fill="white"/>
<path d="M193.914 406.827H189.509V411.871H193.914V406.827Z" fill="white"/>
<path d="M186.263 414.61H181.858V419.655H186.263V414.61Z" fill="white"/>
<path d="M193.914 414.61H189.509V419.655H193.914V414.61Z" fill="white"/>
<path d="M186.263 422.478H181.858V427.523H186.263V422.478Z" fill="white"/>
<path d="M193.914 422.478H189.509V427.523H193.914V422.478Z" fill="white"/>
<path d="M186.263 430.347H181.858V435.391H186.263V430.347Z" fill="white"/>
<path d="M193.914 430.347H189.509V435.391H193.914V430.347Z" fill="white"/>
<path d="M186.263 438.214H181.858V443.259H186.263V438.214Z" fill="white"/>
<path d="M193.914 438.214H189.509V443.259H193.914V438.214Z" fill="white"/>
<path d="M186.263 446.083H181.858V451.127H186.263V446.083Z" fill="white"/>
<path d="M193.914 446.083H189.509V451.127H193.914V446.083Z" fill="white"/>
<path d="M202.614 360.668H198.21V365.713H202.614V360.668Z" fill="white"/>
<path d="M210.265 360.668H205.861V365.713H210.265V360.668Z" fill="white"/>
<path d="M202.614 368.271H198.21V373.315H202.614V368.271Z" fill="white"/>
<path d="M210.265 368.271H205.861V373.315H210.265V368.271Z" fill="white"/>
<path d="M202.614 375.874H198.21V380.918H202.614V375.874Z" fill="white"/>
<path d="M210.265 375.874H205.861V380.918H210.265V375.874Z" fill="white"/>
<path d="M202.614 383.464H198.21V388.508H202.614V383.464Z" fill="white"/>
<path d="M210.265 383.464H205.861V388.508H210.265V383.464Z" fill="white"/>
<path d="M202.614 391.248H198.21V396.292H202.614V391.248Z" fill="white"/>
<path d="M210.265 391.248H205.861V396.292H210.265V391.248Z" fill="white"/>
<path d="M202.614 399.043H198.21V404.087H202.614V399.043Z" fill="white"/>
<path d="M210.265 399.043H205.861V404.087H210.265V399.043Z" fill="white"/>
<path d="M202.614 406.827H198.21V411.871H202.614V406.827Z" fill="white"/>
<path d="M210.265 406.827H205.861V411.871H210.265V406.827Z" fill="white"/>
<path d="M202.614 414.61H198.21V419.655H202.614V414.61Z" fill="white"/>
<path d="M210.265 414.61H205.861V419.655H210.265V414.61Z" fill="white"/>
<path d="M202.614 422.478H198.21V427.523H202.614V422.478Z" fill="white"/>
<path d="M210.265 422.478H205.861V427.523H210.265V422.478Z" fill="white"/>
<path d="M202.614 430.347H198.21V435.391H202.614V430.347Z" fill="white"/>
<path d="M210.265 430.347H205.861V435.391H210.265V430.347Z" fill="white"/>
<path d="M202.614 438.214H198.21V443.259H202.614V438.214Z" fill="white"/>
<path d="M210.265 438.214H205.861V443.259H210.265V438.214Z" fill="white"/>
<path d="M202.614 446.083H198.21V451.127H202.614V446.083Z" fill="white"/>
<path d="M210.265 446.083H205.861V451.127H210.265V446.083Z" fill="white"/>
<path d="M18.2585 105.899H148.19C148.19 105.899 135.314 70.7098 115.487 70.7098C95.6597 70.7098 89.4449 94.9897 89.4449 94.9897C89.4449 94.9897 76.062 81.7999 65.0806 81.7999C54.0991 81.7999 44.5658 99.2375 44.5658 99.2375C44.5658 99.2375 29.0107 89.861 18.2585 105.899Z" fill="#EBEBEB"/>
<path opacity="0.5" d="M325.45 237.797H386.174C386.174 237.797 372.598 218.127 361.918 218.127C351.238 218.127 348.064 231.244 348.064 231.244C348.064 231.244 340.522 225.126 333.583 226.212C326.644 227.298 325.45 237.797 325.45 237.797Z" fill="#EBEBEB"/>
<path d="M386.33 176.976H504.592C504.592 176.976 488.398 140.774 471.069 138.566C453.74 136.357 445.461 165.428 445.461 165.428C445.461 165.428 434.287 155.134 425.489 155.134C416.692 155.134 409.922 168.698 409.922 168.698C409.922 168.698 392.352 159.406 386.33 176.976Z" fill="#EBEBEB"/>
<path opacity="0.5" d="M329.444 104.016H409.343C409.343 104.016 395.622 77.8176 380.731 77.4676C365.84 77.1177 357.972 97.2584 357.972 97.2584C357.972 97.2584 334.85 78.6744 329.444 104.016Z" fill="#EBEBEB"/>
<path opacity="0.5" d="M125.792 262.33H205.692C205.692 262.33 191.959 236.132 177.067 235.782C162.176 235.432 154.356 255.609 154.356 255.609C154.356 255.609 131.199 236.988 125.792 262.33Z" fill="#EBEBEB"/>
<path d="M109.187 99.4669C109.261 100.018 109.17 100.579 108.925 101.078C108.68 101.577 108.293 101.993 107.812 102.272C107.331 102.551 106.778 102.681 106.224 102.646C105.669 102.611 105.136 102.412 104.695 102.075C104.253 101.738 103.921 101.277 103.74 100.751C103.56 100.225 103.54 99.657 103.683 99.1195C103.825 98.5821 104.124 98.0989 104.541 97.7311C104.958 97.3634 105.475 97.1275 106.026 97.0534C106.765 96.9573 107.511 97.157 108.104 97.609C108.696 98.0611 109.085 98.7289 109.187 99.4669Z" fill="#EE6F57"/>
<path d="M106.376 148.485C106.449 149.036 106.358 149.597 106.113 150.096C105.869 150.595 105.481 151.011 105 151.29C104.52 151.569 103.967 151.7 103.412 151.665C102.857 151.629 102.325 151.431 101.883 151.093C101.441 150.756 101.109 150.295 100.929 149.769C100.749 149.243 100.728 148.675 100.871 148.138C101.013 147.6 101.312 147.117 101.729 146.749C102.146 146.382 102.663 146.146 103.214 146.072C103.58 146.022 103.952 146.046 104.309 146.141C104.666 146.235 105.001 146.399 105.295 146.623C105.589 146.848 105.835 147.127 106.021 147.447C106.206 147.766 106.327 148.119 106.376 148.485Z" fill="#263238"/>
<path d="M206.222 208.171C206.246 208.354 206.234 208.54 206.186 208.718C206.137 208.897 206.055 209.064 205.942 209.21C205.83 209.356 205.689 209.479 205.529 209.571C205.369 209.663 205.193 209.722 205.01 209.746C204.827 209.77 204.641 209.757 204.462 209.709C204.284 209.661 204.117 209.578 203.971 209.466C203.825 209.353 203.702 209.213 203.61 209.053C203.518 208.893 203.459 208.716 203.435 208.533C203.387 208.164 203.488 207.79 203.715 207.495C203.942 207.199 204.278 207.006 204.648 206.958C205.017 206.91 205.391 207.011 205.686 207.239C205.982 207.466 206.174 207.802 206.222 208.171Z" fill="#EE6F57"/>
<path d="M156.794 49.0609C156.832 49.3379 156.787 49.6202 156.665 49.8717C156.542 50.1233 156.348 50.3328 156.106 50.4738C155.865 50.6147 155.587 50.6807 155.308 50.6634C155.028 50.6461 154.761 50.5462 154.538 50.3765C154.316 50.2067 154.149 49.9748 154.059 49.7101C153.968 49.4453 153.959 49.1597 154.031 48.8895C154.103 48.6192 154.254 48.3766 154.465 48.1922C154.675 48.0079 154.935 47.8902 155.213 47.8541C155.582 47.806 155.956 47.9059 156.252 48.1319C156.548 48.3579 156.743 48.6918 156.794 49.0609Z" fill="#EE6F57"/>
<path d="M331.423 17.4801C331.471 17.8498 331.37 18.2234 331.143 18.5187C330.915 18.814 330.58 19.0069 330.21 19.0549C329.84 19.1029 329.467 19.0021 329.171 18.7747C328.876 18.5472 328.683 18.2118 328.635 17.8421C328.587 17.4725 328.688 17.0989 328.915 16.8036C329.143 16.5082 329.478 16.3153 329.848 16.2673C330.218 16.2193 330.591 16.3201 330.887 16.5476C331.182 16.775 331.375 17.1105 331.423 17.4801Z" fill="#263238"/>
<path d="M172.723 124.435C172.766 124.626 172.769 124.824 172.732 125.016C172.694 125.209 172.617 125.391 172.505 125.552C172.393 125.713 172.249 125.849 172.082 125.951C171.915 126.053 171.728 126.12 171.534 126.146C171.339 126.172 171.142 126.157 170.953 126.103C170.765 126.048 170.59 125.955 170.44 125.829C170.29 125.703 170.167 125.548 170.08 125.372C169.993 125.196 169.944 125.005 169.935 124.809C169.92 124.456 170.036 124.111 170.263 123.84C170.489 123.57 170.808 123.394 171.158 123.347C171.508 123.3 171.862 123.386 172.152 123.587C172.441 123.788 172.645 124.091 172.723 124.435Z" fill="#263238"/>
<path d="M302.183 250.794C302.207 250.977 302.195 251.163 302.147 251.341C302.098 251.519 302.016 251.686 301.903 251.832C301.791 251.979 301.65 252.101 301.49 252.193C301.33 252.285 301.154 252.345 300.971 252.369C300.788 252.392 300.602 252.38 300.423 252.332C300.245 252.284 300.078 252.201 299.932 252.088C299.786 251.976 299.663 251.835 299.571 251.675C299.479 251.515 299.42 251.339 299.396 251.156C299.348 250.786 299.449 250.412 299.676 250.117C299.903 249.822 300.239 249.629 300.609 249.581C300.978 249.533 301.352 249.634 301.647 249.861C301.942 250.089 302.135 250.424 302.183 250.794Z" fill="#455A64"/>
<path d="M102.804 258.915C102.84 259.19 102.793 259.469 102.671 259.717C102.548 259.965 102.354 260.171 102.114 260.31C101.874 260.448 101.599 260.512 101.323 260.493C101.046 260.475 100.782 260.375 100.562 260.206C100.343 260.037 100.178 259.807 100.09 259.545C100.001 259.283 99.992 259 100.064 258.732C100.136 258.465 100.286 258.225 100.494 258.043C100.703 257.861 100.96 257.744 101.235 257.708C101.417 257.683 101.603 257.694 101.781 257.741C101.959 257.789 102.126 257.871 102.272 257.983C102.418 258.095 102.541 258.236 102.632 258.396C102.723 258.556 102.781 258.732 102.804 258.915Z" fill="#EE6F57"/>
<path d="M60.4467 205.878C60.5205 206.429 60.4293 206.99 60.1845 207.489C59.9397 207.989 59.5524 208.404 59.0715 208.683C58.5906 208.962 58.0377 209.093 57.4828 209.058C56.9279 209.023 56.3958 208.824 55.9538 208.486C55.5118 208.149 55.1798 207.688 54.9997 207.162C54.8196 206.636 54.7995 206.068 54.942 205.531C55.0845 204.994 55.3832 204.51 55.8002 204.143C56.2173 203.775 56.734 203.539 57.2851 203.465C57.6514 203.414 58.0241 203.436 58.3818 203.53C58.7395 203.624 59.0751 203.788 59.369 204.013C59.663 204.237 59.9096 204.517 60.0946 204.838C60.2796 205.158 60.3993 205.512 60.4467 205.878Z" fill="#EE6F57"/>
<path d="M231.781 17.287C231.855 17.8381 231.764 18.3987 231.519 18.898C231.274 19.3972 230.887 19.8127 230.406 20.0918C229.925 20.371 229.372 20.5013 228.817 20.4663C228.262 20.4313 227.73 20.2325 227.288 19.8951C226.846 19.5577 226.514 19.0969 226.334 18.5708C226.154 18.0447 226.134 17.4771 226.277 16.9396C226.419 16.4021 226.718 15.919 227.135 15.5512C227.552 15.1835 228.068 14.9476 228.62 14.8735C228.986 14.8242 229.358 14.8476 229.715 14.9423C230.072 15.0369 230.407 15.201 230.7 15.4251C230.994 15.6493 231.241 15.9291 231.426 16.2485C231.612 16.568 231.732 16.9209 231.781 17.287Z" fill="#EE6F57"/>
<path d="M422.702 300.065L426.684 298.726C426.684 298.726 423.969 297.326 423.969 292.97C423.969 288.613 427.698 286.936 426.093 282.966L421.652 284.173C422.151 285.209 422.427 286.338 422.463 287.487C422.498 288.637 422.292 289.781 421.857 290.846C420.723 293.332 419.613 296.312 422.702 300.065Z" fill="#EE6F57"/>
<path d="M92.1482 290.641L88.2142 289.156C88.2142 289.156 89.421 291.956 86.6937 295.335C83.9664 298.714 79.9721 297.748 78.7412 301.779L82.9286 303.649C83.1957 302.53 83.6946 301.479 84.393 300.565C85.0914 299.65 85.9738 298.892 86.9833 298.34C89.4813 297.097 92.1724 295.492 92.1482 290.641Z" fill="#EE6F57"/>
<path d="M201.456 105.223L197.473 103.775C197.473 103.775 198.68 106.575 195.953 109.954C193.225 113.333 189.231 112.367 188 116.386L192.188 118.268C192.453 117.148 192.951 116.096 193.649 115.181C194.348 114.266 195.231 113.509 196.242 112.958C198.789 111.74 201.48 110.11 201.456 105.223Z" fill="#455A64"/>
<path d="M344.697 231.051L340.763 229.579C340.763 229.579 341.97 232.379 339.243 235.758C336.516 239.137 332.521 238.171 331.29 242.19L335.478 244.072C335.743 242.952 336.241 241.9 336.939 240.985C337.638 240.07 338.521 239.313 339.532 238.762C342.055 237.544 344.758 235.915 344.697 231.051Z" fill="#455A64"/>
<path d="M176.959 193.944L177.526 189.792C177.526 189.792 175.112 191.602 171.166 189.672C167.22 187.741 167.377 183.638 163.129 183.336L162.224 187.837C163.367 187.855 164.495 188.112 165.533 188.589C166.572 189.067 167.5 189.756 168.258 190.613C170.08 192.785 172.276 195.054 176.959 193.944Z" fill="#EE6F57"/>
<path d="M366.129 275.955L366.696 271.791C366.696 271.791 364.283 273.601 360.337 271.671C356.391 269.74 356.548 265.637 352.3 265.335L351.395 269.836C352.539 269.855 353.667 270.113 354.706 270.593C355.745 271.073 356.672 271.765 357.429 272.624C359.178 274.784 361.399 277.053 366.129 275.955Z" fill="#455A64"/>
<path d="M349.138 83.6102L349.705 79.4589C349.705 79.4589 347.292 81.2691 343.346 79.3383C339.4 77.4075 339.556 73.3045 335.309 73.0028L334.404 77.504C335.547 77.5221 336.674 77.7782 337.713 78.2561C338.752 78.734 339.68 79.4231 340.437 80.2795C342.211 82.4396 344.408 84.7083 349.138 83.6102Z" fill="#EE6F57"/>
<path d="M425.55 103.534L421.133 101.12C421.133 101.12 417.513 106.514 421.857 109.242C421.845 109.254 420.952 105.742 425.55 103.534Z" fill="#EE6F57"/>
<path d="M421.929 115.83L426.587 114.105C426.587 114.105 426.865 110.11 421.821 109.278C421.845 109.254 425.007 112.874 421.929 115.83Z" fill="#EE6F57"/>
<path d="M189.726 232.922L185.297 230.508C185.297 230.508 181.677 235.915 186.021 238.63C186.021 238.642 185.14 235.142 189.726 232.922Z" fill="#455A64"/>
<path d="M186.142 245.206L190.788 243.469C190.788 243.469 191.066 239.486 185.961 238.642C186.021 238.642 189.183 242.262 186.142 245.206Z" fill="#455A64"/>
<path d="M362.352 73.4855C362.278 72.9339 362.369 72.3726 362.614 71.8729C362.859 71.3731 363.247 70.9573 363.729 70.6782C364.21 70.399 364.764 70.2691 365.319 70.3049C365.875 70.3406 366.407 70.5404 366.849 70.879C367.291 71.2175 367.622 71.6796 367.801 72.2067C367.98 72.7337 367.999 73.302 367.854 73.8396C367.71 74.3772 367.409 74.8599 366.991 75.2265C366.572 75.5931 366.054 75.8272 365.502 75.899C364.764 75.995 364.019 75.795 363.428 75.3426C362.838 74.8903 362.451 74.2225 362.352 73.4855Z" fill="#263238"/>
<path d="M406.797 141.896C406.723 141.345 406.814 140.785 407.059 140.285C407.304 139.786 407.691 139.371 408.172 139.091C408.653 138.812 409.206 138.682 409.761 138.717C410.315 138.752 410.848 138.951 411.29 139.288C411.732 139.626 412.064 140.086 412.244 140.613C412.424 141.139 412.444 141.706 412.301 142.244C412.159 142.781 411.86 143.264 411.443 143.632C411.026 144 410.509 144.236 409.958 144.31C409.592 144.359 409.22 144.336 408.863 144.241C408.506 144.146 408.171 143.982 407.877 143.758C407.584 143.534 407.337 143.254 407.152 142.935C406.966 142.615 406.846 142.262 406.797 141.896Z" fill="#EE6F57"/>
<path d="M395.139 243.288C395.104 243.013 395.15 242.734 395.273 242.486C395.395 242.238 395.589 242.032 395.829 241.893C396.069 241.755 396.344 241.691 396.621 241.71C396.897 241.728 397.162 241.828 397.381 241.997C397.601 242.166 397.765 242.396 397.854 242.658C397.942 242.92 397.951 243.203 397.879 243.47C397.807 243.738 397.657 243.978 397.449 244.16C397.241 244.342 396.983 244.459 396.708 244.494C396.34 244.542 395.968 244.442 395.674 244.216C395.38 243.99 395.188 243.656 395.139 243.288Z" fill="#EE6F57"/>
<path d="M232.035 198.264L231.456 202.427C231.456 202.427 233.869 200.617 237.815 202.548C241.761 204.478 241.616 208.581 245.864 208.883L246.757 204.382C245.614 204.364 244.487 204.108 243.448 203.63C242.409 203.152 241.481 202.463 240.723 201.606C238.949 199.434 236.765 197.166 232.035 198.264Z" fill="#455A64"/>
<path d="M463.357 245.653L456.66 247.548C456.66 247.548 453.462 239.173 460.111 236.808C460.111 236.759 457.842 241.273 463.357 245.653Z" fill="#455A64"/>
<path d="M462.259 227.962L468.015 231.715C468.015 231.715 467.171 237.182 460.111 236.808C460.111 236.759 465.469 232.886 462.259 227.962Z" fill="#455A64"/>
<path d="M343.49 178.099L336.757 180.042C336.757 180.042 333.571 171.667 340.208 169.302C340.208 169.254 337.951 173.718 343.49 178.099Z" fill="#263238"/>
<path d="M342.368 160.408L348.124 164.161C348.124 164.161 347.28 169.628 340.208 169.253C340.208 169.253 345.578 165.332 342.368 160.408Z" fill="#263238"/>
<path d="M114.775 217.656L108.065 219.551C108.065 219.551 104.879 211.176 111.517 208.811C111.517 208.811 109.248 213.276 114.775 217.656Z" fill="#263238"/>
<path d="M113.677 199.965L119.433 203.718C119.433 203.718 118.576 209.185 111.517 208.811C111.517 208.811 116.887 204.889 113.677 199.965Z" fill="#263238"/>
<path d="M396.298 164.619L400.727 167.033C400.727 167.033 404.347 161.627 400.003 158.912C400.003 158.899 400.884 162.399 396.298 164.619Z" fill="#455A64"/>
<path d="M399.882 152.286L395.224 154.024C395.224 154.024 394.959 158.007 400.051 158.851C400.003 158.9 396.841 155.279 399.882 152.286Z" fill="#455A64"/>
<path d="M242.328 143.381L246.757 145.794C246.757 145.794 250.377 140.4 246.033 137.673C246.033 137.661 246.95 141.172 242.328 143.381Z" fill="#EE6F57"/>
<path d="M245.912 131.084L241.254 132.809C241.254 132.809 240.989 136.804 246.081 137.636C246.033 137.661 242.871 134.052 245.912 131.084Z" fill="#EE6F57"/>
<path d="M281.125 302.974L281.862 307.946C281.862 307.946 288.33 307.572 287.895 302.491C287.98 302.491 285.651 305.303 281.125 302.974Z" fill="#EE6F57"/>
<path d="M293.108 298.449L288.933 295.77C288.933 295.77 285.578 297.942 287.919 302.491C287.98 302.491 288.909 297.797 293.108 298.449Z" fill="#EE6F57"/>
<path d="M0.000244141 495.982L65.358 495.692L130.716 495.584L261.431 495.378L392.147 495.584L457.505 495.692L522.862 495.982L457.505 496.283L392.147 496.38L261.431 496.585L130.716 496.38L65.358 496.271L0.000244141 495.982Z" fill="#263238"/>
<path d="M318.981 214.338C301.073 225.826 270.325 233.404 246.323 231.292C242.547 231.015 238.801 230.421 235.124 229.519C230.188 228.312 225.385 226.948 220.752 225.681C189.907 217.234 163.286 209.993 117.381 222.507C62.5583 237.447 50.3339 244.229 49.2719 244.374L57.3693 235.552L46.6292 228.855C46.8826 228.855 59.288 222.013 113.206 207.314C163.238 193.69 193.153 201.86 224.83 210.5C229.416 211.707 234.147 213.046 238.949 214.277C240.812 214.744 242.697 215.115 244.597 215.387C267.429 218.67 300.494 210.56 314.142 199.7C315.576 198.606 316.761 197.22 317.618 195.633L317.847 212.527C318.149 212.781 318.462 213.42 318.981 214.338Z" fill="#EE6F57"/>
<path opacity="0.2" d="M318.981 214.338C301.073 225.826 270.325 233.404 246.323 231.292C242.547 231.015 238.801 230.421 235.124 229.519C230.188 228.312 225.385 226.948 220.752 225.681C189.907 217.234 163.286 209.993 117.381 222.507C62.5583 237.447 50.3339 244.229 49.2719 244.374L57.3693 235.552L46.6292 228.855C46.8826 228.855 59.288 222.013 113.206 207.314C163.238 193.69 193.153 201.86 224.83 210.5C229.416 211.707 234.147 213.046 238.949 214.277C240.812 214.744 242.697 215.115 244.597 215.387C267.429 218.67 300.494 210.56 314.142 199.7C315.576 198.606 316.761 197.22 317.618 195.633L317.847 212.527C318.149 212.781 318.462 213.42 318.981 214.338Z" fill="black"/>
<path d="M315.397 189.768C315.397 189.768 315.675 230.339 307.734 239.1C307.734 239.1 255.349 335.532 227.123 341.011C203.217 345.657 116.174 281.204 116.174 281.204L143.7 238.799C143.7 238.799 158.918 246.208 179.674 257.539C196.81 266.904 211.532 277.511 211.978 276.727C218.471 265.045 244.947 231.848 244.428 229.663C238.696 205.372 256.025 189.841 256.025 189.841L315.397 189.768Z" fill="#263238"/>
<path d="M307.722 239.1C307.722 239.1 294.858 262.801 278.434 287.37L244.416 229.627C238.708 205.347 256.037 189.804 256.037 189.804H315.409C315.409 189.804 315.663 230.339 307.722 239.1Z" fill="#37474F"/>
<path d="M37.2046 273.324C37.989 270.391 83.6404 201.896 87.0435 200.4C88.3226 199.808 143.761 238.799 143.761 238.799L116.259 281.035L80.9494 258.275C80.9494 258.275 52.4941 276.22 48.5843 277.475C44.6744 278.73 36.4081 276.244 37.2046 273.324Z" fill="#EB9481"/>
<path d="M37.2167 273.324C38.001 270.391 83.6405 201.896 87.0314 200.4C87.6469 200.11 105.133 212.009 115.571 219.177L87.2969 262.439L80.8891 258.324C80.8891 258.324 52.4942 276.208 48.5843 277.475C44.6744 278.742 36.4081 276.232 37.2167 273.324Z" fill="#EBEBEB"/>
<path d="M37.0476 273.638C37.844 270.729 83.3266 201.353 86.6934 199.845C87.9726 199.265 98.3386 206.216 109.344 214.893L80.7803 259.036C80.7803 259.036 52.2647 276.51 48.391 277.789C44.5174 279.068 36.2632 276.582 37.0476 273.638Z" fill="#EE6F57"/>
<path d="M40.4264 274.482C48.3306 263.235 79.1028 217.125 86.0537 205.408C86.0537 205.311 86.0537 205.263 85.9813 205.408C77.9202 216.377 47.51 262.741 40.2454 274.398C40.0885 274.603 40.2695 274.712 40.4264 274.482Z" fill="#263238"/>
<path d="M53.7613 275.013C54.6437 273.765 55.2561 272.347 55.5595 270.849C55.8628 269.351 55.8504 267.806 55.5231 266.313C54.9641 263.619 53.386 261.245 51.1185 259.688C51.1185 259.688 50.9737 259.76 51.034 259.82C53.0415 261.715 54.3789 264.21 54.8447 266.931C55.3105 269.652 54.8794 272.45 53.6164 274.905C53.5682 275.013 53.7009 275.11 53.7613 275.013Z" fill="#263238"/>
<path d="M77.2446 261.848C80.358 257.322 82.2768 250.987 80.4304 245.605C80.358 245.4 80.0684 245.496 80.0443 245.677C79.4763 251.077 78.3314 256.401 76.6292 261.558C76.6134 261.635 76.624 261.715 76.6592 261.785C76.6943 261.855 76.752 261.911 76.823 261.945C76.894 261.978 76.9742 261.987 77.0506 261.969C77.1271 261.951 77.1954 261.909 77.2446 261.848Z" fill="#263238"/>
<path d="M73.5156 264.514C76.629 259.989 78.5478 253.654 76.7014 248.259C76.629 248.054 76.3394 248.163 76.3153 248.344C75.7459 253.744 74.601 259.068 72.9002 264.225C72.8844 264.302 72.895 264.382 72.9302 264.452C72.9653 264.522 73.023 264.578 73.094 264.612C73.165 264.645 73.2452 264.654 73.3216 264.636C73.3981 264.618 73.4664 264.575 73.5156 264.514Z" fill="#263238"/>
<path d="M69.7869 267.085C72.9003 262.548 74.819 256.224 72.9727 250.83C72.9003 250.625 72.6107 250.733 72.5866 250.914C72.0171 256.311 70.8722 261.63 69.1714 266.783C69.1514 266.861 69.1588 266.944 69.1925 267.017C69.2262 267.09 69.284 267.149 69.3563 267.185C69.4286 267.22 69.5109 267.23 69.5893 267.211C69.6678 267.193 69.7375 267.149 69.7869 267.085Z" fill="#263238"/>
<path d="M66.0579 269.703C69.1713 265.166 71.09 258.782 69.2437 253.448C69.1713 253.243 68.8817 253.352 68.8575 253.533C68.2881 258.929 67.1432 264.249 65.4424 269.402C65.4224 269.48 65.4298 269.562 65.4635 269.635C65.4972 269.708 65.555 269.768 65.6273 269.803C65.6996 269.839 65.7819 269.848 65.8603 269.83C65.9388 269.812 66.0085 269.767 66.0579 269.703Z" fill="#263238"/>
<path d="M94.9718 215.544C98.3749 210.404 90.3862 205.106 86.9831 210.259C83.5801 215.412 91.5688 220.697 94.9718 215.544Z" fill="#263238"/>
<path d="M86.1624 274.941C89.6379 273.891 89.6982 269.716 88.6604 266.976C87.172 263.258 84.9284 259.888 82.0715 257.081C81.6854 256.671 81.2751 256.296 80.8648 255.874C80.6759 255.731 80.4946 255.578 80.3217 255.416L80.1648 255.319L79.7183 254.957C79.7 254.945 79.6791 254.937 79.6571 254.934C79.6352 254.931 79.613 254.933 79.592 254.94C79.571 254.947 79.5519 254.959 79.5362 254.974C79.5204 254.99 79.5084 255.009 79.5011 255.029C79.3731 254.985 79.2351 254.977 79.1028 255.007C78.9705 255.037 78.8493 255.103 78.7529 255.198C78.6972 255.248 78.6531 255.31 78.6239 255.379C78.5946 255.447 78.581 255.522 78.584 255.597C78.584 256.912 78.584 258.263 78.584 259.615C78.5718 259.848 78.5718 260.082 78.584 260.315C78.4125 263.606 78.796 266.902 79.7183 270.066C80.6113 272.793 82.8921 275.906 86.1624 274.941ZM80.1286 262.873C80.1286 261.739 80.0562 260.605 80.02 259.482C79.9838 258.36 79.9476 257.576 79.8994 256.622C79.8994 256.49 79.8994 256.345 79.8994 256.224C79.8994 256.103 79.8994 255.971 79.8994 255.862L80.1166 256.128C80.5751 256.743 81.0216 257.334 81.4923 257.926C82.738 259.526 83.8943 261.194 84.9557 262.922C85.6978 264.115 86.359 265.357 86.9347 266.638C87.7795 268.642 88.6001 275.689 83.3145 272.817C80.4183 271.26 80.2976 265.625 80.189 262.849L80.1286 262.873Z" fill="#263238"/>
<path d="M79.3321 256.176C79.3314 256.198 79.3359 256.221 79.3453 256.241C79.3548 256.261 79.3688 256.279 79.3864 256.293C79.404 256.308 79.4246 256.317 79.4465 256.322C79.4685 256.327 79.4913 256.326 79.5131 256.321C79.6576 256.295 79.7992 256.254 79.9355 256.2C79.99 256.22 80.05 256.22 80.1044 256.2C80.3578 256.164 80.6054 256.095 80.8406 255.995C81.7284 255.744 82.5958 255.425 83.4351 255.041C86.8095 253.626 89.8817 251.578 92.4857 249.008C94.5613 246.92 96.1784 243.082 93.427 240.729C93.3275 240.646 93.2227 240.57 93.1132 240.5C90.567 238.654 87.3932 240.5 85.5469 242.527C83.7035 244.701 82.2019 247.142 81.094 249.768C80.2854 251.59 79.5252 253.388 78.6805 255.21C78.6258 255.316 78.6006 255.435 78.6076 255.554C78.6145 255.673 78.6534 255.788 78.72 255.886C78.7867 255.985 78.8787 256.064 78.9864 256.115C79.0941 256.166 79.2135 256.187 79.3321 256.176ZM83.0972 249.358C84.3039 246.848 86.7174 241.755 90.0481 241.478C90.8116 241.374 91.589 241.469 92.3047 241.755C94.863 242.962 92.1478 247.342 90.8325 248.585C89.7902 249.535 88.6856 250.414 87.526 251.216C86.6571 251.831 85.7762 252.423 84.847 252.918C83.3627 253.811 81.8422 254.619 80.3337 255.476C80.2372 255.476 80.1527 255.597 80.0562 255.633C80.1146 255.548 80.1594 255.454 80.1889 255.355C80.3337 255.114 80.4544 254.897 80.5751 254.643C81.4319 252.905 82.2283 251.119 83.0972 249.358Z" fill="#263238"/>
<path d="M492.199 448.049C490.304 450.463 421.133 495.028 417.38 495.113C415.968 495.113 380.731 437.297 380.731 437.297L422.823 409.542L446.113 444.538C446.113 444.538 479.299 439.457 483.377 439.856C487.456 440.254 494.093 445.684 492.199 448.049Z" fill="#EB9481"/>
<path d="M492.187 448.05C490.304 450.463 421.121 495.028 417.368 495.113C416.692 495.113 405.409 477.241 398.688 466.501L441.877 438.106L446.101 444.441C446.101 444.441 479.274 439.361 483.365 439.759C487.456 440.157 494.093 445.696 492.187 448.05Z" fill="#EBEBEB"/>
<path d="M492.464 447.82C490.582 450.234 421.205 495.656 417.513 495.692C416.101 495.692 409.379 485.206 402.742 472.86L446.535 443.778C446.535 443.778 479.661 439.108 483.715 439.506C487.77 439.904 494.335 445.455 492.464 447.82Z" fill="#EE6F57"/>
<path d="M489.701 445.696C477.971 452.865 431.366 482.876 420.312 490.841C420.228 490.913 420.312 490.974 420.312 490.913C432.09 484.071 478.466 453.685 489.773 445.889C490.063 445.72 489.954 445.527 489.701 445.696Z" fill="#263238"/>
<path d="M477.693 439.892C476.392 440.683 475.267 441.734 474.391 442.98C473.514 444.226 472.905 445.64 472.601 447.132C472.043 449.822 472.545 452.623 474.001 454.952C474.001 455.025 474.17 454.952 474.134 454.868C473.048 452.331 472.814 449.512 473.467 446.831C474.12 444.151 475.624 441.754 477.754 440.001C477.875 439.964 477.778 439.832 477.693 439.892Z" fill="#263238"/>
<path d="M450.892 442.595C446.234 445.515 441.925 450.596 441.491 456.231C441.491 456.449 441.781 456.473 441.877 456.304C444.554 451.581 447.729 447.159 451.35 443.114C451.404 443.05 451.434 442.968 451.433 442.884C451.432 442.8 451.401 442.719 451.345 442.656C451.289 442.593 451.213 442.553 451.13 442.541C451.046 442.53 450.962 442.549 450.892 442.595Z" fill="#263238"/>
<path d="M455.369 441.678C450.698 444.598 446.402 449.691 445.968 455.314C445.968 455.531 446.258 455.556 446.354 455.399C449.027 450.672 452.198 446.247 455.815 442.197C455.864 442.133 455.889 442.055 455.886 441.974C455.884 441.894 455.854 441.817 455.802 441.757C455.75 441.696 455.678 441.655 455.599 441.641C455.52 441.626 455.439 441.639 455.369 441.678Z" fill="#263238"/>
<path d="M459.834 440.773C455.164 443.693 450.868 448.774 450.433 454.409C450.433 454.626 450.723 454.651 450.819 454.482C453.492 449.759 456.664 445.337 460.28 441.292C460.329 441.228 460.354 441.15 460.352 441.069C460.349 440.989 460.319 440.912 460.267 440.852C460.215 440.791 460.143 440.75 460.064 440.736C459.985 440.721 459.904 440.734 459.834 440.773Z" fill="#263238"/>
<path d="M464.299 439.856C459.628 442.776 455.332 447.869 454.898 453.492C454.898 453.709 455.188 453.733 455.284 453.577C457.957 448.85 461.128 444.424 464.745 440.375C464.794 440.311 464.819 440.232 464.816 440.152C464.814 440.072 464.784 439.995 464.732 439.934C464.68 439.874 464.608 439.833 464.529 439.818C464.45 439.804 464.369 439.817 464.299 439.856Z" fill="#263238"/>
<path d="M416.185 477.989C411.008 481.344 416.185 489.393 421.398 486.026C426.612 482.659 421.362 474.622 416.185 477.989Z" fill="#263238"/>
<path d="M447.947 427.04C444.327 426.606 442.625 430.419 442.48 433.351C442.366 437.351 443.077 441.332 444.568 445.045C444.761 445.576 444.99 446.083 445.22 446.577C445.34 446.783 445.437 447 445.533 447.205L445.642 447.362L445.908 447.869C445.921 447.886 445.938 447.9 445.958 447.91C445.978 447.92 446 447.925 446.022 447.925C446.044 447.925 446.066 447.92 446.086 447.91C446.106 447.9 446.123 447.886 446.137 447.869C446.236 447.963 446.361 448.028 446.496 448.053C446.63 448.079 446.77 448.065 446.897 448.013C446.967 447.99 447.031 447.952 447.085 447.902C447.139 447.852 447.182 447.792 447.211 447.724C447.706 446.517 448.261 445.31 448.804 444.031C448.912 443.826 448.997 443.621 449.093 443.404C450.562 440.451 451.524 437.274 451.941 434.003C452.183 431.227 451.338 427.426 447.947 427.04ZM448.611 440.507C448.2 441.569 447.766 442.619 447.404 443.657C447.042 444.695 446.704 445.443 446.366 446.336C446.366 446.457 446.27 446.602 446.233 446.71L446.113 447.048C446.113 446.939 446.052 446.831 446.028 446.722C446.004 446.614 446.028 446.722 446.028 446.722C445.847 445.986 445.69 445.262 445.497 444.526C444.979 442.564 444.576 440.573 444.291 438.565C444.091 437.173 443.982 435.77 443.965 434.365C443.965 432.193 446.04 425.411 449.733 430.141C451.724 432.7 449.612 437.925 448.611 440.507Z" fill="#263238"/>
<path d="M446.728 446.963C446.738 446.943 446.743 446.921 446.742 446.898C446.742 446.876 446.736 446.854 446.726 446.834C446.715 446.814 446.7 446.797 446.682 446.783C446.663 446.77 446.642 446.762 446.62 446.758C446.475 446.742 446.33 446.742 446.185 446.758C446.159 446.745 446.13 446.739 446.101 446.739C446.072 446.739 446.043 446.745 446.016 446.758C445.772 446.697 445.52 446.665 445.268 446.662C444.353 446.533 443.429 446.477 442.505 446.493C438.852 446.434 435.223 447.077 431.813 448.387C429.086 449.473 426.069 452.346 427.65 455.628C427.707 455.745 427.771 455.857 427.843 455.966C429.448 458.669 433.104 458.222 435.59 457.173C438.162 455.905 440.522 454.248 442.589 452.261C444.061 450.922 445.485 449.522 446.946 448.218C447.074 448.155 447.179 448.052 447.244 447.924C447.309 447.796 447.331 447.651 447.307 447.51C447.282 447.368 447.213 447.239 447.108 447.14C447.004 447.042 446.871 446.98 446.728 446.963ZM440.562 451.718C438.426 453.528 434.178 457.233 431.041 456.171C430.299 455.969 429.624 455.573 429.086 455.025C427.203 452.913 431.499 449.956 433.152 449.341C434.486 448.889 435.849 448.526 437.231 448.255C438.269 448.037 439.319 447.881 440.369 447.748C442.094 447.531 443.808 447.398 445.534 447.205H445.859C445.774 447.267 445.693 447.335 445.618 447.41C445.389 447.579 445.196 447.736 444.979 447.917C443.494 449.148 442.058 450.451 440.562 451.718Z" fill="#263238"/>
<path d="M424.102 410.845L380.767 437.237C380.767 437.237 336.588 390.861 326.463 350.821C323.41 338.754 271.834 263.573 254.529 244.736C231.757 219.937 254.71 189.732 254.71 189.732H317.606L317.92 212.431C322.867 220.456 424.102 410.845 424.102 410.845Z" fill="#263238"/>
<path d="M304.875 201.763C307.311 203.213 309.627 204.855 311.801 206.675C314.003 208.462 316.061 210.418 317.956 212.528C315.517 211.078 313.2 209.431 311.029 207.604C308.828 205.821 306.77 203.869 304.875 201.763Z" fill="#37474F"/>
<path d="M294.183 73.0389C293.41 68.2119 292.385 63.1314 285.168 60.7903C269.686 55.7823 258.62 76.8884 240.748 83.6462C219.219 91.828 210.579 104.825 219.34 113.175C229.127 122.528 247.3 117.315 262.336 91.4539C271.749 75.2955 280.136 71.2167 283.998 71.277C286.785 71.277 290.695 76.9246 290.695 76.9246L294.183 73.0389Z" fill="#263238"/>
<path d="M267.743 82.7051C266.065 85.1186 264.678 87.7855 263.205 90.3559C261.733 92.9263 260.309 95.5208 258.789 98.0429C257.268 100.565 255.663 103.051 253.889 105.392C252.163 107.752 250.206 109.935 248.048 111.909C245.93 113.898 243.446 115.459 240.736 116.506C237.954 117.469 235.026 117.942 232.083 117.906C229.106 117.878 226.175 117.168 223.515 115.83C222.17 115.161 220.917 114.322 219.786 113.332C219.227 112.835 218.699 112.303 218.205 111.74C217.692 111.185 217.261 110.559 216.926 109.881C217.536 111.286 218.427 112.551 219.545 113.598C220.624 114.692 221.841 115.641 223.165 116.422C224.516 117.194 225.954 117.802 227.449 118.232C228.948 118.656 230.491 118.907 232.047 118.98C233.591 119.057 235.138 118.988 236.669 118.775L237.815 118.594L238.937 118.365C239.697 118.2 240.447 117.99 241.182 117.737C244.069 116.649 246.717 115.01 248.978 112.91C253.295 108.734 256.917 103.894 259.706 98.5739C261.166 95.9673 262.493 93.3124 263.785 90.6455C265.076 87.9786 266.343 85.3117 267.743 82.7051Z" fill="#263238"/>
<path d="M294.219 74.4388C294.074 72.3844 293.669 70.3568 293.012 68.405C292.346 66.4997 291.254 64.7715 289.82 63.3516C288.385 61.9317 286.646 60.8577 284.734 60.2112C283.785 59.8882 282.807 59.6579 281.813 59.5233C280.833 59.3606 279.838 59.2999 278.845 59.3423C276.864 59.495 274.925 59.989 273.113 60.8025C271.285 61.6602 269.55 62.7035 267.936 63.9159C264.653 66.3294 261.612 69.1291 258.463 71.8201C255.326 74.5782 251.986 77.0954 248.471 79.3503C244.864 81.4551 241.099 83.2786 237.212 84.8048C233.362 86.2549 229.612 87.9602 225.989 89.9094C224.184 90.8991 222.513 92.1158 221.017 93.5296L219.931 94.6036C219.593 95.0019 219.292 95.4121 218.966 95.8104L218.483 96.4138L218.073 97.0654L217.264 98.3928C219.055 94.5887 221.948 91.4104 225.567 89.2698C229.158 87.1696 232.882 85.3072 236.717 83.6946C240.483 82.0714 244.136 80.1967 247.65 78.0832C251.083 75.846 254.343 73.353 257.401 70.6254C260.562 67.9706 263.603 65.1468 267.055 62.7212C268.774 61.4755 270.618 60.4118 272.558 59.5474C274.536 58.6928 276.655 58.214 278.809 58.1355C279.886 58.1305 280.962 58.2356 282.019 58.4493C283.067 58.6397 284.097 58.9224 285.096 59.294C287.105 60.0249 288.91 61.2254 290.36 62.7957C291.811 64.3659 292.865 66.2602 293.434 68.3205C293.984 70.3125 294.248 72.3725 294.219 74.4388Z" fill="#263238"/>
<path d="M299.13 73.3164C298.985 71.8201 297.682 70.0341 296.717 69.8893C295.751 69.7445 288.969 73.6785 288.571 75.5851C288.173 77.4918 291.552 78.7106 291.552 78.7106L299.13 73.3164Z" fill="#EE6F57"/>
<path d="M311.017 125.159C319.717 105.851 328.141 90.7541 341.186 67.8982C347.967 55.9996 359.77 36.8364 362.798 31.6956C366.793 24.9861 395.32 51.0036 392.098 55.2273C389.999 58.0149 378.04 75.3197 366.491 87.5562C351.66 103.244 340.715 117.822 324.158 134.04C311.644 146.337 305.273 137.914 311.017 125.159Z" fill="#EB9481"/>
<path d="M384.074 63.4934C391.23 60.7179 412.939 45.3922 416.535 41.4823C420.131 37.5724 429.677 25.36 426.926 22.2949C424.174 19.2297 421.097 22.5604 421.097 22.5604C421.097 22.5604 424.717 16.2973 421.254 13.9562C418.502 12.0978 413.929 16.5628 413.929 16.5628C413.929 16.5628 417.549 9.49125 413.808 7.60871C410.417 5.88305 406.7 11.953 406.7 11.953C406.7 11.953 409.114 5.72617 405.494 4.7125C401.185 3.50575 397.046 14.2459 392.702 18.3247C391.725 19.2539 364.259 35.8347 364.259 35.8347L384.074 63.4934Z" fill="#EB9481"/>
<path d="M406.531 11.6272C402.585 19.3746 400.727 22.488 394.005 27.4357C393.872 27.5323 394.005 27.7495 394.126 27.6529C401.161 23.3931 403.635 19.8935 406.93 11.76C407.086 11.3618 406.724 11.2652 406.531 11.6272Z" fill="#263238"/>
<path d="M413.844 16.5509C409.862 24.4913 406.905 27.4961 400.208 33.2161C400.111 33.3006 400.208 33.4575 400.341 33.3851C407.352 28.3288 411.201 25.0706 414.085 16.6233C414.254 16.2371 414.025 16.1888 413.844 16.5509Z" fill="#263238"/>
<path d="M420.723 22.8501C416.366 30.2596 413.313 33.904 406.133 38.6344C406.106 38.6585 406.087 38.6915 406.082 38.7276C406.076 38.7638 406.083 38.8008 406.101 38.8323C406.12 38.8638 406.149 38.8878 406.184 38.9001C406.218 38.9125 406.256 38.9124 406.29 38.8999C414.086 34.797 417.923 30.2837 420.94 23.007C421.181 22.5122 421.037 22.3795 420.723 22.8501Z" fill="#263238"/>
<path d="M359.045 38.5982C359.045 38.5982 362.002 26.9531 373.056 22.6691C377.509 20.9314 383.748 7.69329 387.863 7.95877C392.46 8.26046 389.166 20.2435 383.567 26.6876C383.567 26.6876 391.036 38.562 385.98 45.0061C384.882 46.4059 376.857 50.8347 374.854 50.4244L359.045 38.5982Z" fill="#EB9481"/>
<path d="M383.229 27.5443C386.306 32.0696 388.442 38.9361 386.258 43.932C386.242 43.9608 386.238 43.9948 386.247 44.0265C386.256 44.0582 386.277 44.085 386.306 44.101C386.335 44.117 386.369 44.1209 386.401 44.1118C386.432 44.1028 386.459 44.0815 386.475 44.0527C389.552 39.0205 387.139 31.0439 384.158 27.1581C383.579 26.422 382.433 26.3858 383.229 27.5443Z" fill="#263238"/>
<path d="M319.452 179.825L317.569 189.768H256.025C256.025 189.768 265.679 139.338 288.185 124.374C299.456 116.892 309.737 120.175 314.733 128.574C316.001 130.698 328.877 152.95 328.515 163.57C328.177 173.031 319.452 179.825 319.452 179.825Z" fill="#EB9481"/>
<path d="M328.527 163.618C328.201 172.439 320.49 178.98 319.536 179.764L259.537 175.722C260.936 170.822 262.747 165.078 265.051 159.153C271.013 159.367 276.982 159.097 282.899 158.344C285.518 157.85 291.347 149.125 298.804 150.018C306.262 150.911 313.72 158.344 313.72 158.344C316.993 154.84 321.237 152.391 325.908 151.309C327.501 155.907 328.647 160.335 328.527 163.618Z" fill="#263238"/>
<path d="M314.746 128.562C314.427 128.019 314.076 127.495 313.696 126.993C315.47 132.134 318.824 143.465 314.504 144.587C309.762 145.794 297.827 127.295 294.134 121.369C292.041 122.127 290.047 123.136 288.197 124.374C270.928 135.657 256.459 176.409 254.686 189.732H317.582L319.452 179.788C319.452 179.788 328.177 172.994 328.527 163.582C328.889 152.95 316.013 130.698 314.746 128.562ZM291.298 153.24C288.113 160.13 280.86 165.476 276.033 164.825C272.087 164.282 270.241 158.924 271.809 152.081C274.513 140.424 286.013 123.24 291.25 123.65C297.26 124.121 296.584 141.763 291.298 153.24Z" fill="#455A64"/>
<path d="M299.553 171.474C302.921 172.047 306.232 172.915 309.448 174.068C311.053 174.672 312.61 175.372 314.178 176.096C314.951 176.47 315.735 176.796 316.592 177.121C317.399 177.494 318.257 177.746 319.138 177.87C319.211 177.87 319.199 178.014 319.138 178.014C318.305 178.013 317.474 177.944 316.652 177.809C315.856 177.637 315.074 177.408 314.311 177.121C312.682 176.53 311.077 175.842 309.484 175.227C306.202 174.02 302.932 172.813 299.589 171.8C299.335 171.763 299.396 171.438 299.553 171.474Z" fill="#263238"/>
<path d="M291.009 174.563C293.801 174.376 296.603 174.376 299.396 174.563C300.796 174.672 302.171 174.877 303.559 175.118C304.211 175.239 304.874 175.372 305.526 175.516C306.178 175.661 306.95 175.951 307.674 176.096C307.759 176.096 307.747 176.253 307.674 176.241C306.986 176.12 306.274 176.156 305.586 176.084L303.499 175.891C302.111 175.77 300.723 175.661 299.323 175.516C296.548 175.227 293.772 174.985 290.985 174.817C290.828 174.829 290.864 174.563 291.009 174.563Z" fill="#263238"/>
<path d="M260.466 169C266.431 169.324 272.409 169.324 278.374 169C289.874 168.216 302.847 166.128 303.112 166.297C303.595 166.611 326.258 166.08 326.258 166.08L328.008 167.069L328.285 165.862L326.729 165.018C327.279 163.287 327.403 161.449 327.091 159.66C326.56 156.824 322.264 145.179 322.143 144.853C322.022 144.527 314.589 127.693 314.492 127.596C314.396 127.5 313.696 126.981 313.696 126.981L321.105 144.949C318.661 145.489 316.18 145.848 313.684 146.023C310.637 145.877 307.6 145.575 304.585 145.118C304.585 145.118 299.275 131.168 298.43 129.732C297.586 128.296 294.713 121.14 294.424 121.285C294.15 121.376 293.873 121.452 293.591 121.514C293.591 121.514 297.936 132.375 298.563 133.485C299.191 134.595 303.245 145.927 303.245 145.927C303.245 145.927 304.114 155.388 304.15 157.089C303.921 159.608 303.542 162.11 303.016 164.583C303.016 164.583 290.104 166.478 278.7 167.455C269.191 168.288 260.864 168.24 260.743 168.24C260.623 168.24 260.466 169 260.466 169Z" fill="white"/>
<path d="M310.413 150.911L310.956 162.544C310.956 163.159 310.655 163.642 310.244 163.666C309.834 163.69 309.484 163.232 309.46 162.616L309.001 152.962L308.483 153.433C308.387 153.54 308.252 153.606 308.108 153.614C307.959 153.602 307.816 153.547 307.698 153.455C307.58 153.362 307.492 153.237 307.445 153.095C307.324 152.855 307.277 152.586 307.31 152.319C307.342 152.053 307.452 151.803 307.626 151.599L309.219 150.078C309.219 150.078 309.219 150.078 309.291 150.078H309.363C309.363 150.078 309.363 150.078 309.424 150.078C309.455 150.066 309.489 150.066 309.52 150.078H309.701C309.701 150.078 309.762 150.078 309.786 150.078H309.846C309.846 150.078 309.906 150.138 309.931 150.138C309.95 150.143 309.971 150.143 309.991 150.138V150.199C309.991 150.199 309.991 150.199 310.051 150.271C310.112 150.344 310.051 150.271 310.051 150.356L310.112 150.428C310.112 150.428 310.112 150.488 310.112 150.525C310.112 150.561 310.112 150.609 310.112 150.621C310.114 150.653 310.114 150.686 310.112 150.718C310.094 150.764 310.094 150.816 310.112 150.862L310.413 150.911Z" fill="#263238"/>
<path d="M322.746 150.742L319.91 162.568C319.814 162.978 319.561 163.232 319.247 163.244C319.146 163.252 319.046 163.231 318.957 163.183C318.754 163.019 318.601 162.8 318.518 162.552C318.435 162.304 318.424 162.038 318.487 161.784L320.9 151.526L317.413 151.683C317.002 151.683 316.64 151.2 316.616 150.609C316.592 150.018 316.906 149.511 317.304 149.499L321.95 149.282C321.993 149.27 322.039 149.27 322.083 149.282C322.188 149.31 322.286 149.359 322.372 149.426V149.487C322.381 149.51 322.381 149.536 322.372 149.559L322.433 149.632V149.716C322.434 149.748 322.434 149.78 322.433 149.813V149.909C322.433 149.909 322.433 149.982 322.433 150.006C322.428 150.038 322.428 150.07 322.433 150.102C322.445 150.247 322.445 150.392 322.433 150.537C322.758 150.621 322.758 150.681 322.746 150.742Z" fill="#263238"/>
<path d="M298.732 122.118C298.961 123.481 304.838 132.628 311.017 132.737C313.02 132.737 313.684 121.804 313.684 121.804L313.913 120.995L317.171 109.821L304.392 100.396L302.533 99.1892C302.533 99.1892 301.845 102.303 301.025 106.2C301.025 106.381 300.952 106.562 300.904 106.756C300.856 106.949 300.808 107.178 300.771 107.383C300.639 107.962 300.506 108.59 300.385 109.145C300.265 109.7 300.204 110.038 300.132 110.509C300.059 110.979 299.963 111.45 299.866 111.933C299.26 115.298 298.881 118.701 298.732 122.118Z" fill="#EB9481"/>
<path d="M301.025 106.176C301.969 109.434 303.611 112.447 305.836 115.006C308.062 117.565 310.818 119.609 313.913 120.995L317.171 109.821L304.392 100.396L302.533 99.1892C302.533 99.1892 301.845 102.278 301.025 106.176Z" fill="#263238"/>
<path d="M326.656 83.5619C336.66 101.398 327.103 109.398 323.253 111.546C319.766 113.501 307.566 119.716 295.836 103.015C284.106 86.3133 289.175 76.0197 296.934 71.1323C304.694 66.245 316.652 65.7381 326.656 83.5619Z" fill="#EB9481"/>
<path d="M321.769 82.1017C321.332 82.2715 320.885 82.4126 320.429 82.5241C319.975 82.7409 319.461 82.8003 318.969 82.693C318.822 82.6306 318.699 82.5208 318.62 82.3811C318.541 82.2413 318.511 82.0794 318.535 81.9207C318.632 81.6194 318.807 81.3492 319.042 81.1373C319.278 80.9254 319.565 80.7794 319.874 80.7139C320.488 80.479 321.167 80.479 321.781 80.7139C321.91 80.7786 322.019 80.8782 322.095 81.0016C322.17 81.1249 322.209 81.267 322.208 81.4116C322.207 81.5562 322.165 81.6976 322.087 81.8196C322.01 81.9416 321.899 82.0393 321.769 82.1017Z" fill="#263238"/>
<path d="M310.1 88.7508C310.483 88.4756 310.846 88.1731 311.186 87.8457C311.616 87.5874 311.947 87.1923 312.127 86.7234C312.156 86.5642 312.13 86.3996 312.054 86.257C311.977 86.1144 311.854 86.0023 311.705 85.9391C311.397 85.8478 311.07 85.8423 310.76 85.9231C310.449 86.004 310.167 86.168 309.943 86.3976C309.404 86.7802 309.033 87.3546 308.905 88.0026C308.884 88.1502 308.907 88.3006 308.97 88.4356C309.033 88.5706 309.134 88.6845 309.26 88.7636C309.386 88.8427 309.533 88.8836 309.682 88.8813C309.831 88.879 309.976 88.8337 310.1 88.7508Z" fill="#263238"/>
<path d="M319.874 100.782C320.302 101.014 320.796 101.091 321.274 100.999C321.744 100.773 322.157 100.443 322.481 100.034C322.481 100.034 322.577 100.034 322.565 100.034C322.512 100.363 322.373 100.671 322.16 100.928C321.948 101.185 321.671 101.38 321.359 101.494C321.07 101.55 320.772 101.519 320.501 101.405C320.231 101.291 320 101.1 319.838 100.855C319.717 100.83 319.802 100.758 319.874 100.782Z" fill="#263238"/>
<path d="M322.505 93.5538C322.505 93.5538 323.772 95.2312 324.243 96.088C324.243 96.1604 324.11 96.3172 323.82 96.4983C323.156 97.0444 322.354 97.3966 321.502 97.5158C320.65 97.6351 319.782 97.5168 318.993 97.174C318.976 97.1604 318.964 97.1419 318.957 97.121C318.951 97.1001 318.951 97.0778 318.958 97.0569C318.964 97.0361 318.977 97.0177 318.994 97.0041C319.011 96.9906 319.032 96.9825 319.054 96.981C320.56 97.1215 322.072 96.7701 323.362 95.9794C323.289 95.7139 321.105 93.1797 321.238 93.0952C321.934 92.7845 322.669 92.5693 323.422 92.4556C320.9 88.8354 317.823 85.7461 315.361 82.162C315.34 82.136 315.33 82.103 315.332 82.0697C315.335 82.0363 315.35 82.0052 315.374 81.9823C315.398 81.9595 315.43 81.9467 315.464 81.9464C315.497 81.9462 315.529 81.9585 315.554 81.981C318.956 85.2396 322.024 88.8294 324.713 92.697C325.051 93.1556 322.976 93.5055 322.505 93.5538Z" fill="#263238"/>
<path d="M322.819 96.7758C322.682 97.571 322.346 98.3185 321.841 98.9479C321.553 99.2803 321.17 99.5162 320.743 99.6237C319.814 99.8409 319.392 99.1048 319.198 98.4169C319.092 98.0236 319.039 97.6177 319.042 97.2102C320.315 97.4762 321.639 97.3238 322.819 96.7758Z" fill="#263238"/>
<path d="M321.841 98.9238C321.553 99.2562 321.17 99.492 320.743 99.5995C319.814 99.8167 319.392 99.0806 319.198 98.3928C319.635 98.175 320.132 98.109 320.611 98.2051C321.09 98.3013 321.522 98.5541 321.841 98.9238Z" fill="#FF9CBD"/>
<path d="M312.634 92.8538C312.631 93.0242 312.594 93.1924 312.525 93.3485C312.481 93.4786 312.408 93.5971 312.312 93.6953C312.216 93.7934 312.099 93.8688 311.97 93.9157C311.174 94.2295 310.437 93.6019 309.991 92.8538C309.991 92.8538 309.991 92.7572 309.991 92.7814C310.51 93.0106 311.089 93.2278 311.487 92.9382C311.738 92.6823 311.91 92.3597 311.982 92.009C312.171 92.3114 312.389 92.5944 312.634 92.8538Z" fill="#263238"/>
<path d="M312.115 92.8538C311.963 92.4705 311.922 92.0527 311.994 91.6471C312.042 91.4325 312.134 91.23 312.262 91.0516C312.391 90.8733 312.554 90.7228 312.742 90.6092C312.943 90.5084 313.164 90.4559 313.388 90.4559C313.612 90.4559 313.833 90.5084 314.034 90.6092C314.388 90.7759 314.698 91.024 314.939 91.3333C315.082 91.5159 315.212 91.7095 315.325 91.9125C315.573 92.3317 315.722 92.8024 315.759 93.2882C315.599 92.9772 315.409 92.6822 315.192 92.4073C314.99 92.1599 314.773 91.9261 314.54 91.7074C314.07 91.273 313.503 91.0075 313.092 91.273C312.862 91.4253 312.69 91.6522 312.607 91.9158C312.523 92.1794 312.533 92.4637 312.634 92.7211C312.787 93.3766 313.006 94.0153 313.285 94.6277C312.76 94.138 312.358 93.5299 312.115 92.8538Z" fill="#263238"/>
<path d="M323.628 86.0115C323.776 86.0927 323.934 86.1536 324.098 86.1925C324.232 86.224 324.372 86.2262 324.507 86.1992C324.643 86.1721 324.771 86.1163 324.883 86.0357C325.177 85.7487 325.359 85.3652 325.395 84.9554C325.43 84.5455 325.317 84.1365 325.076 83.8032C325.076 83.8032 325.003 83.7187 324.991 83.8032C324.895 84.3703 324.762 85.0099 324.303 85.1427C323.952 85.2176 323.586 85.184 323.253 85.0461C323.415 85.3524 323.54 85.6764 323.628 86.0115Z" fill="#263238"/>
<path d="M323.893 85.5891C323.654 85.2734 323.338 85.0241 322.976 84.865C322.77 84.7882 322.55 84.7539 322.33 84.7643C322.11 84.7746 321.895 84.8294 321.697 84.9254C321.5 85.0314 321.33 85.1813 321.2 85.3633C321.071 85.5453 320.984 85.7547 320.948 85.9753C320.889 86.3805 320.927 86.7939 321.057 87.182C321.142 87.3992 321.238 87.6165 321.335 87.8216C321.555 88.2581 321.873 88.638 322.264 88.9318C322.08 88.6291 321.934 88.3048 321.829 87.9664C321.725 87.6675 321.644 87.3608 321.588 87.0493C321.491 86.4097 321.588 85.8425 322.022 85.6012C322.276 85.4923 322.559 85.4736 322.825 85.5482C323.091 85.6229 323.323 85.7864 323.483 86.0115C323.938 86.4958 324.342 87.0255 324.689 87.5923C324.589 86.8702 324.316 86.1829 323.893 85.5891Z" fill="#263238"/>
<path d="M304.561 72.6407C305.781 73.9864 306.567 75.6685 306.817 77.4677C307.01 82.5843 301.52 84.0928 300.687 86.5908C299.854 89.0887 302.099 91.7919 301.471 94.0606C300.591 97.1981 298.455 96.4017 298.877 97.9825C299.299 99.5634 300.711 104.559 299.215 106.08C297.718 107.6 273.716 81.9448 297.767 70.5771C297.767 70.5771 300.313 67.343 306.648 67.4517C315.735 67.6085 321.769 76.261 321.769 76.261C320.868 76.5032 319.927 76.5526 319.006 76.4058C317.352 76.0075 316.387 75.549 315.216 75.3318C313.37 75.0059 312.948 76.1523 311.065 75.8748C308.157 75.4283 304.561 72.6407 304.561 72.6407Z" fill="#263238"/>
<path d="M303.812 71.6995C304.796 72.6781 305.662 73.7674 306.395 74.9456C307.178 76.0543 307.641 77.3567 307.734 78.7107C307.642 80.0679 307.054 81.3436 306.081 82.2948C305.176 83.2964 304.005 84.0566 303.052 85.1789C302.558 85.7518 302.228 86.4484 302.099 87.1942C302.04 87.9278 302.126 88.6659 302.352 89.3663C302.848 90.6192 302.99 91.9843 302.763 93.3124C302.596 93.9527 302.295 94.55 301.879 95.0642C301.462 95.5783 300.941 95.9973 300.349 96.2931C299.142 96.9206 297.67 97.2706 296.789 98.4049C297.767 97.343 299.203 97.1982 300.482 96.5827C301.152 96.2989 301.752 95.8705 302.238 95.3282C302.724 94.7858 303.085 94.1428 303.293 93.4452C303.61 92.0333 303.501 90.5592 302.98 89.2095C302.786 88.5853 302.712 87.9302 302.763 87.2786C302.89 86.6507 303.181 86.0677 303.607 85.5892C304.452 84.5635 305.623 83.767 306.576 82.693C307.069 82.1601 307.476 81.5534 307.783 80.8949C308.119 80.2345 308.281 79.4994 308.253 78.759C308.102 77.3263 307.554 75.9641 306.672 74.8249C305.848 73.6717 304.888 72.6223 303.812 71.6995Z" fill="#263238"/>
<path d="M304.875 72.5321C305.7 73.5412 306.658 74.4342 307.722 75.187C308.805 75.9957 310.102 76.466 311.451 76.5385C312.109 76.5312 312.763 76.4585 313.406 76.3213C313.987 76.2202 314.585 76.2829 315.132 76.5023C315.687 76.8428 316.273 77.1297 316.882 77.3591C317.518 77.5369 318.187 77.5658 318.837 77.4436C318.205 77.4364 317.581 77.3009 317.002 77.0454C316.427 76.772 315.881 76.4404 315.373 76.0558C314.747 75.728 314.034 75.6055 313.334 75.7059C312.721 75.8224 312.099 75.883 311.475 75.8869C310.237 75.7885 309.044 75.3729 308.012 74.6801C306.922 74.0308 305.874 73.3134 304.875 72.5321Z" fill="#263238"/>
<path d="M299.927 102.266C299.927 102.266 293.434 97.9704 291.334 100.517C289.235 103.063 295.739 110.424 299.371 110.352C299.837 110.375 300.302 110.303 300.739 110.141C301.175 109.98 301.575 109.731 301.913 109.411C302.251 109.091 302.521 108.705 302.707 108.278C302.892 107.851 302.989 107.39 302.992 106.925L299.927 102.266Z" fill="#EB9481"/>
<path d="M293.253 102.58C293.193 102.58 293.253 102.677 293.253 102.677C295.824 102.677 297.803 104.294 299.468 106.092C299.252 105.921 299 105.798 298.732 105.734C298.463 105.669 298.184 105.664 297.913 105.718C297.642 105.772 297.386 105.884 297.163 106.046C296.94 106.209 296.755 106.418 296.62 106.659C296.62 106.732 296.62 106.792 296.729 106.756C297.066 106.485 297.478 106.324 297.909 106.294C298.34 106.264 298.771 106.366 299.142 106.587C299.768 106.974 300.351 107.427 300.88 107.938C301.061 108.095 301.375 107.842 301.206 107.649C300.156 104.752 296.427 101.663 293.253 102.58Z" fill="#263238"/>
<path d="M329.009 88.5458C330.292 91.1177 331.07 93.9113 331.302 96.7758C331.423 98.2178 331.362 99.6692 331.121 101.096C331.003 101.813 330.842 102.522 330.639 103.22C330.41 103.915 330.14 104.596 329.83 105.259C329.192 106.569 328.38 107.787 327.417 108.88C326.427 109.939 325.304 110.864 324.074 111.631C321.618 113.139 318.829 114.018 315.952 114.189C317.344 113.937 318.704 113.532 320.007 112.983C322.604 111.969 324.929 110.366 326.801 108.3C327.712 107.268 328.475 106.115 329.07 104.873C330.262 102.364 330.81 99.5979 330.663 96.8241C330.632 95.425 330.474 94.0315 330.192 92.6608C329.906 91.2603 329.511 89.8844 329.009 88.5458Z" fill="#263238"/>
<path d="M284.07 140.315C283.78 139.845 283.491 139.374 283.189 138.904C285.071 140.81 287.026 142.62 289.054 144.37C289.054 144.37 289.174 144.37 289.126 144.298C287.135 142.005 285.108 139.76 282.996 137.576C281.994 136.55 281.029 135.488 279.991 134.487C278.953 133.485 277.578 132.303 276.516 131.12C276.383 130.975 276.154 131.12 276.286 131.301C277.336 132.423 278.277 133.642 279.291 134.813C280.305 135.983 281.101 136.792 282.043 137.745C282.22 138.117 282.418 138.48 282.634 138.831C282.996 139.398 283.358 139.953 283.756 140.496C284.553 141.57 285.397 142.62 286.17 143.67C285.47 142.632 284.758 141.426 284.07 140.315Z" fill="#263238"/>
<path d="M292.107 123.469C282.875 102.954 275.14 88.1474 261.299 63.8796C254.058 51.2449 244.959 36.1243 241.737 30.6698C237.501 23.5379 207.212 51.1001 210.639 55.6496C212.86 58.6182 220.221 68.1998 233.217 83.598C248.036 101.132 260.587 115.722 278.169 132.954C291.443 145.951 298.213 137.009 292.107 123.469Z" fill="#EB9481"/>
<path d="M218.133 62.5281C210.531 59.5837 187.494 43.3649 183.668 39.1533C179.843 34.9418 169.718 22.0536 172.638 18.7954C175.559 15.5372 178.829 19.073 178.829 19.073C178.829 19.073 174.992 12.4237 178.66 9.93783C181.581 7.95876 186.432 12.7013 186.432 12.7013C186.432 12.7013 182.618 5.19529 186.564 3.19208C190.185 1.36989 194.119 7.80188 194.119 7.80188C194.119 7.80188 191.56 1.20094 195.325 0.102794C199.899 -1.2005 204.328 10.2395 208.901 14.5838C209.939 15.5734 239.07 33.1678 239.07 33.1678L218.133 62.5281Z" fill="#EB9481"/>
<path d="M194.275 7.47606C198.475 15.7061 200.454 18.9885 207.55 24.262C207.682 24.3585 207.55 24.5878 207.405 24.4913C199.935 19.966 197.316 16.2492 193.817 7.59673C193.696 7.18643 194.082 7.07783 194.275 7.47606Z" fill="#263238"/>
<path d="M186.528 12.6892C190.692 21.1365 193.889 24.3103 201.009 30.3802C201.106 30.4647 201.009 30.6457 200.864 30.5733C193.431 25.1912 189.328 21.7278 186.275 12.7616C186.082 12.3634 186.335 12.3031 186.528 12.6892Z" fill="#263238"/>
<path d="M179.179 19.3747C183.801 27.2427 187.047 31.1164 194.674 36.1365C194.706 36.1615 194.729 36.1976 194.737 36.238C194.745 36.2784 194.738 36.3203 194.717 36.3559C194.696 36.3915 194.663 36.4182 194.624 36.4312C194.585 36.4441 194.543 36.4423 194.505 36.4261C186.226 32.0697 182.148 27.2668 178.95 19.5315C178.732 19.0126 178.889 18.8799 179.179 19.3747Z" fill="#263238"/>
<path d="M244.706 36.1002C244.706 36.1002 241.568 23.731 229.839 19.2056C225.096 17.3714 218.471 3.31268 214.151 3.59024C209.324 3.91606 212.763 16.6352 218.712 23.4775C218.712 23.4775 210.772 36.076 216.178 42.9304C217.385 44.4147 225.832 49.109 227.98 48.6866L244.706 36.1002Z" fill="#EB9481"/>
<path d="M219.026 24.3705C215.768 29.1975 213.487 36.4381 215.816 41.7599C215.834 41.7919 215.838 41.8295 215.828 41.8646C215.817 41.8997 215.794 41.9293 215.762 41.9469C215.73 41.9645 215.692 41.9687 215.657 41.9585C215.622 41.9483 215.592 41.9246 215.575 41.8926C212.316 36.5467 214.875 28.0753 218.048 23.9602C218.652 23.1638 219.871 23.1638 219.026 24.3705Z" fill="#263238"/>
<path d="M317.618 192.459C302.992 185.496 261.093 171.269 232.469 164.354C206.85 158.187 180.374 167.081 154.778 175.673C138.596 181.104 123.318 186.232 108.5 187.596C50.3461 192.954 31.3518 151.635 30.0605 149.873L40.8006 152.552L42.6952 140.557C43.7813 142.029 57.9969 176.494 107.076 171.932C120.072 170.726 134.505 165.899 149.795 160.758C176.21 151.888 206.15 141.836 236.15 149.052C265.824 156.184 311.355 170.364 322.01 177.327L317.618 192.459Z" fill="#EE6F57"/>
<path d="M114.413 496.09L125.696 494.051C125.696 494.051 113.628 481.742 121.05 474.164C128.471 466.585 139.549 473.283 139.549 473.283C139.549 473.283 137.824 455.266 151.762 451.501C165.7 447.736 177.948 474.659 177.948 474.659C177.948 474.659 180 468.335 190.402 470.821C200.804 473.307 209.022 487.474 209.022 487.474L422.871 495.982" fill="white"/>
<path d="M114.413 496.09L125.684 494.003V494.087C123.216 491.521 121.208 488.549 119.746 485.302C119.013 483.666 118.603 481.904 118.54 480.113C118.497 478.294 119.057 476.512 120.133 475.045C120.662 474.32 121.282 473.667 121.979 473.102C122.672 472.526 123.429 472.032 124.236 471.629C125.856 470.853 127.628 470.441 129.425 470.423C133.019 470.434 136.549 471.378 139.67 473.162L139.368 473.355C139.182 470.644 139.361 467.921 139.899 465.258C140.403 462.579 141.411 460.02 142.868 457.716C143.985 455.988 145.443 454.508 147.153 453.364C148.863 452.221 150.788 451.439 152.811 451.066C154.178 450.841 155.575 450.882 156.927 451.187C159.603 451.855 162.083 453.145 164.167 454.952C166.243 456.698 168.132 458.656 169.803 460.793C173.118 465.069 175.951 469.699 178.25 474.598H177.743C178.434 472.992 179.699 471.701 181.291 470.978C182.844 470.28 184.538 469.953 186.239 470.024C189.615 470.099 192.908 471.083 195.772 472.872C198.586 474.671 201.126 476.866 203.314 479.389C205.528 481.875 207.511 484.557 209.239 487.402L209.082 487.305L422.931 496.006L209.07 487.679H208.974V487.595C207.253 484.774 205.273 482.12 203.061 479.666C200.893 477.184 198.377 475.03 195.591 473.271C192.794 471.532 189.579 470.581 186.287 470.519C184.663 470.454 183.047 470.773 181.568 471.448C180.112 472.113 178.954 473.296 178.322 474.767L178.081 475.346L177.815 474.791C175.509 469.946 172.676 465.369 169.368 461.143C167.734 459.031 165.882 457.097 163.841 455.374C161.84 453.617 159.455 452.353 156.878 451.682C155.548 451.376 154.17 451.335 152.824 451.561C151.524 451.795 150.262 452.201 149.071 452.768C146.665 453.914 144.626 455.706 143.182 457.945C141.752 460.201 140.761 462.707 140.261 465.33C139.723 467.949 139.532 470.627 139.694 473.295V473.669L139.368 473.488C136.318 471.727 132.862 470.787 129.34 470.761C127.587 470.788 125.861 471.2 124.284 471.967C122.716 472.743 121.349 473.871 120.289 475.262C119.26 476.658 118.718 478.354 118.745 480.089C118.782 481.846 119.159 483.579 119.855 485.193C121.277 488.434 123.24 491.408 125.66 493.991L125.732 494.063H125.635L114.413 496.09Z" fill="#263238"/>
<path d="M256.906 182.902C250.872 183.143 244.838 183.264 238.805 183.36C232.771 183.457 226.737 183.457 220.703 183.505C214.67 183.553 208.636 183.505 202.602 183.36L193.539 183.191C190.523 183.095 187.506 183.034 184.489 182.902C187.506 182.769 190.523 182.709 193.539 182.6L202.602 182.431C208.636 182.335 214.67 182.347 220.703 182.298C226.737 182.25 232.771 182.298 238.805 182.443C244.838 182.588 250.86 182.648 256.906 182.902Z" fill="#263238"/>
<path d="M350.14 39.8653C344.106 40.1066 338.072 40.2273 332.039 40.3238C326.005 40.4204 319.971 40.4083 313.937 40.4566C307.903 40.5048 301.87 40.4566 295.836 40.3238L286.773 40.1549C283.756 40.0583 280.739 39.998 277.71 39.8653C280.739 39.7204 283.744 39.6601 286.773 39.5636L295.836 39.3946C301.87 39.2981 307.903 39.2981 313.937 39.2619C319.971 39.2257 326.005 39.2619 332.039 39.3946C338.072 39.5274 344.094 39.6118 350.14 39.8653Z" fill="#263238"/>
<path d="M359.649 47.1782C355.691 47.4316 351.745 47.5402 347.787 47.6368C343.829 47.7333 339.882 47.7695 335.936 47.7816C331.99 47.7936 328.02 47.7816 324.074 47.6488L318.149 47.4799C316.182 47.3713 314.203 47.323 312.224 47.1782C314.203 47.0455 316.182 46.9851 318.149 46.8886L324.086 46.7196C328.032 46.611 331.99 46.5869 335.948 46.5748C339.907 46.5628 343.853 46.5748 347.799 46.7196C351.745 46.8644 355.691 46.9369 359.649 47.1782Z" fill="#263238"/>
<path d="M101.09 270.79C95.7923 271.031 90.4826 271.152 85.185 271.248C79.8873 271.345 74.5776 271.345 69.28 271.393C63.9823 271.441 58.6726 271.393 53.3629 271.248L45.4225 271.079C42.7676 270.983 40.1128 270.922 37.47 270.79C40.1128 270.657 42.7676 270.596 45.4225 270.488L53.375 270.319C58.6847 270.222 63.9823 270.234 69.292 270.186C74.6018 270.138 79.8994 270.186 85.1971 270.331C90.4947 270.476 95.7923 270.548 101.09 270.79Z" fill="#263238"/>
<path d="M136.146 259.917C130.836 260.158 125.539 260.279 120.229 260.375C114.919 260.472 109.622 260.472 104.324 260.52C99.0264 260.568 93.7167 260.52 88.407 260.375L80.4545 260.206C77.7996 260.11 75.1568 260.049 72.502 259.917C75.1568 259.772 77.7996 259.724 80.4545 259.615L88.407 259.446C93.7167 259.35 99.0143 259.362 104.324 259.313C109.634 259.265 114.931 259.313 120.229 259.446C125.527 259.579 130.836 259.687 136.146 259.917Z" fill="#263238"/>
<path d="M267.779 198.433C259.332 198.686 250.884 198.795 242.437 198.891L217.095 199.036L191.753 198.903L179.107 198.734C174.883 198.626 170.659 198.578 166.448 198.433C170.671 198.3 174.895 198.24 179.107 198.143L191.753 197.974L217.095 197.829L242.437 197.974C250.92 198.071 259.344 198.143 267.779 198.433Z" fill="#263238"/>
<path d="M397.276 474.369C391.169 474.622 385.063 474.731 378.957 474.827C372.851 474.924 366.733 474.924 360.626 474.972C354.52 475.02 348.414 474.972 342.308 474.827L333.137 474.658C330.083 474.562 327.03 474.502 323.977 474.369C327.03 474.236 330.083 474.176 333.137 474.067L342.308 473.898C348.414 473.814 354.52 473.814 360.626 473.765C366.733 473.717 372.851 473.765 378.957 473.91C385.063 474.055 391.169 474.115 397.276 474.369Z" fill="#263238"/>
<path d="M379.524 482.249C370.896 482.502 362.255 482.623 353.627 482.72L327.718 482.852L301.821 482.72L288.873 482.551C284.553 482.454 280.244 482.394 275.924 482.249C280.244 482.116 284.553 482.056 288.873 481.959L301.821 481.79L327.718 481.646L353.627 481.79C362.255 481.887 370.896 482.008 379.524 482.249Z" fill="#263238"/>
<path d="M216.021 188.791C208.781 189.032 201.456 189.153 194.179 189.249C186.902 189.346 179.613 189.334 172.337 189.394C165.06 189.454 157.771 189.394 150.482 189.249L139.561 189.08C135.941 188.984 132.321 188.923 128.7 188.791C132.321 188.646 135.941 188.586 139.561 188.489L150.482 188.32C157.723 188.224 165.048 188.236 172.337 188.187C179.625 188.139 186.89 188.187 194.179 188.32C201.468 188.453 208.744 188.489 216.021 188.791Z" fill="#263238"/>
</svg>
