<svg width="114" height="91" viewBox="0 0 114 91" fill="none" xmlns="http://www.w3.org/2000/svg">
<g clip-path="url(#clip0_1595_12951)">
<path d="M0 5C0 2.23858 2.23858 0 5 0H108.036C110.797 0 113.036 2.23858 113.036 5V91H0V5Z" fill="#145374"/>
<path opacity="0.6" d="M12.5806 39.6544C-5.24816 39.6544 -19.7525 54.1256 -19.7525 71.9135C-19.7525 89.7014 -5.24816 104.173 12.5806 104.173C30.4094 104.173 44.9137 89.7014 44.9137 71.9135C44.9137 54.1256 30.4094 39.6544 12.5806 39.6544ZM30.5801 47.9077C29.0126 49.0748 27.3349 50.0867 25.5708 50.9292C25.3431 50.4044 25.0949 49.8887 24.8399 49.3889C23.4486 46.6628 21.8434 44.4774 20.0855 42.869C23.8806 43.847 27.4462 45.559 30.5801 47.9077ZM12.5806 101.901C8.78032 101.901 5.14398 98.8838 2.33418 93.4021C2.10649 92.9477 1.87879 92.4729 1.66247 91.9913C8.67792 89.2621 16.4651 89.2621 23.4805 91.9913C23.2528 92.4729 23.041 92.9454 22.7974 93.4021C20.0172 98.8884 16.3809 101.901 12.5806 101.901ZM12.5806 87.6772C8.55104 87.6792 4.55721 88.4312 0.804052 89.8945C-1.14049 84.7217 -2.19246 78.4811 -2.19246 71.9089C-2.19246 65.3367 -1.14049 59.0939 0.806328 53.9211C8.37669 56.879 16.7868 56.879 24.3571 53.9211C26.3017 59.0939 27.3537 65.3344 27.3537 71.9066C27.3537 78.4789 26.3017 84.7194 24.3571 89.8922C20.604 88.4297 16.6099 87.68 12.5806 87.6818V87.6772ZM12.5806 53.8734C8.84873 53.8718 5.14964 53.1785 1.67158 51.8288C1.88789 51.3495 2.11104 50.8769 2.34329 50.4203C5.14398 44.9408 8.78032 41.9216 12.5897 41.9216C16.3991 41.9216 20.0263 44.9408 22.8361 50.4203C23.0638 50.8747 23.2915 51.3495 23.5192 51.8311C20.0323 53.186 16.3226 53.8801 12.5806 53.8779V53.8734ZM0.319054 49.3844C0.0640316 49.8842 -0.177326 50.3999 -0.411856 50.9246C-2.1763 50.0827 -3.85406 49.0707 -5.42121 47.9032C-2.28897 45.5569 1.27426 43.8465 5.06656 42.869C3.31556 44.4774 1.71029 46.6674 0.319054 49.3889V49.3844ZM-17.4756 71.9135C-17.4767 67.6454 -16.5631 63.4265 -14.7958 59.5396C-13.0286 55.6528 -10.4487 52.188 -7.22914 49.3776C-5.38455 50.8045 -3.39042 52.0278 -1.28166 53.026C-3.34461 58.4783 -4.46944 65.0346 -4.46944 71.9135C-4.46944 78.7924 -3.35144 85.3487 -1.28166 90.8009C-3.391 91.7981 -5.38523 93.0215 -7.22914 94.4494C-10.4483 91.6387 -13.028 88.1738 -14.7952 84.287C-16.5624 80.4003 -17.4763 76.1814 -17.4756 71.9135ZM-5.40755 95.9215C-3.84067 94.7529 -2.16288 93.7401 -0.398193 92.8977C-0.170496 93.4225 0.0776958 93.9382 0.332718 94.438C1.72395 97.1641 3.32922 99.3496 5.08705 100.958C1.29249 99.9797 -2.27298 98.2686 -5.40755 95.9215ZM24.8535 94.438C25.1085 93.9382 25.3499 93.4225 25.5844 92.8977C27.3486 93.7402 29.0263 94.7521 30.5938 95.9192C27.4585 98.2685 23.8913 99.9804 20.0946 100.958C21.8456 99.3496 23.4509 97.1596 24.8421 94.438H24.8535ZM32.4063 94.438C30.561 93.0115 28.5661 91.7889 26.4565 90.7918C28.5195 85.3396 29.6443 78.7833 29.6443 71.9044C29.6443 65.0255 28.5286 58.4692 26.4565 53.0169C28.5602 52.0217 30.5497 50.8022 32.3903 49.3798C35.6089 52.1906 38.1881 55.6551 39.9552 59.5414C41.7224 63.4277 42.6366 67.6459 42.6366 71.9135C42.6366 76.181 41.7224 80.3992 39.9552 84.2855C38.1881 88.1718 35.6089 91.6364 32.3903 94.4471L32.4063 94.438Z" fill="white"/>
<path d="M18.938 51.0497C18.938 51.0497 19.8488 49.8093 22.0256 50.0229C24.2024 50.2364 24.8764 51.8698 24.8764 51.8698C26.131 51.7319 27.3962 51.7167 28.6539 51.8244C30.8921 51.9925 32.297 53.301 31.8963 54.053C31.4955 54.8049 29.9472 57.3471 28.3009 57.7787C26.6547 58.2103 24.0225 57.363 22.777 56.745C21.5315 56.1271 18.9471 52.1833 18.9471 52.1833L18.938 51.0497Z" fill="white" stroke="#263238" stroke-width="0.0970286" stroke-linecap="round" stroke-linejoin="round"/>
<path d="M24.9788 55.1365C24.9788 55.1365 26.5476 54.7435 27.8045 55.2138" stroke="#263238" stroke-width="0.0970286" stroke-linecap="round" stroke-linejoin="round"/>
<path d="M28.2463 57.4265C28.2463 57.4265 27.8683 55.9884 28.4466 53.8234C29.025 51.6584 30.6758 51.4267 31.8484 52.0628C33.5152 52.9715 33.67 54.9139 33.67 54.9139C33.67 54.9139 30.4185 53.8689 28.2986 57.7786" fill="#EE6F57"/>
<path d="M28.2463 57.4265C28.2463 57.4265 27.8683 55.9884 28.4466 53.8234C29.025 51.6584 30.6758 51.4267 31.8484 52.0628C33.5152 52.9715 33.67 54.9139 33.67 54.9139C33.67 54.9139 30.4185 53.8689 28.2986 57.7786" stroke="#263238" stroke-width="0.0970286" stroke-linecap="round" stroke-linejoin="round"/>
<path d="M25.013 51.8857C25.1268 53.2351 23.2893 53.0556 21.5201 53.2033C19.7509 53.351 18.724 53.7712 18.6101 52.4195C18.4963 51.0678 19.8374 49.8547 21.6066 49.7071C23.3758 49.5594 24.8991 50.534 25.013 51.8857Z" fill="#EE6F57" stroke="#263238" stroke-width="0.0970286" stroke-linecap="round" stroke-linejoin="round"/>
<path d="M31.0037 63.7465C30.4207 63.3081 29.1001 62.3971 29.1001 62.3971C29.1001 62.3971 27.7339 62.8651 26.9575 63.6965C26.181 64.528 27.2444 66.4954 28.4307 67.1042C28.7736 67.2856 29.1473 67.4019 29.5327 67.4472C29.5487 67.7357 29.5509 68.0038 29.5509 68.0038C29.5509 68.0038 29.412 68.3105 30.2022 67.9175C31.6139 67.211 32.4837 64.871 31.0037 63.7465Z" fill="white" stroke="#263238" stroke-width="0.0970286" stroke-linecap="round" stroke-linejoin="round"/>
<path d="M30.1134 67.2064C30.1134 67.2064 30.3411 67.7107 30.2614 67.9629C30.1817 68.215 29.7081 68.4036 29.5305 68.0606C29.3529 67.7175 29.7718 67.1155 30.1134 67.2064Z" fill="#EE6F57" stroke="#263238" stroke-width="0.0970286" stroke-linecap="round" stroke-linejoin="round"/>
<path d="M27.2649 65.6571C27.06 66.0274 27.0167 66.5453 27.1442 66.7929C27.4835 67.4518 27.8751 66.9133 28.0368 66.5226C28.1985 66.1319 28.5195 65.3526 28.0254 65.2481C27.8708 65.2184 27.7107 65.2429 27.5721 65.3174C27.4335 65.3919 27.325 65.5119 27.2649 65.6571Z" fill="white" stroke="#263238" stroke-width="0.0970286" stroke-linecap="round" stroke-linejoin="round"/>
<path d="M27.8113 66.0887C27.6064 66.459 27.5631 66.9769 27.6907 67.2245C28.0299 67.8834 28.4193 67.345 28.581 66.9542C28.7426 66.5635 29.066 65.7842 28.581 65.6797C28.425 65.6477 28.2628 65.6711 28.1222 65.7458C27.9817 65.8204 27.8718 65.9417 27.8113 66.0887Z" fill="white" stroke="#263238" stroke-width="0.0970286" stroke-linecap="round" stroke-linejoin="round"/>
<path d="M28.5628 66.484C28.3578 66.8543 28.3168 67.3722 28.4421 67.6198C28.7813 68.2787 29.173 67.7403 29.3346 67.3495C29.4963 66.9588 29.8196 66.1795 29.3233 66.075C29.1687 66.0453 29.0086 66.0698 28.87 66.1443C28.7314 66.2188 28.6229 66.3388 28.5628 66.484Z" fill="white" stroke="#263238" stroke-width="0.0970286" stroke-linecap="round" stroke-linejoin="round"/>
<path d="M29.3255 66.6431C29.1206 67.0157 29.0773 67.5314 29.2049 67.779C29.5441 68.4378 29.9358 67.8994 30.0974 67.5087C30.2591 67.1179 30.5801 66.3387 30.086 66.2342C29.9315 66.2045 29.7713 66.229 29.6328 66.3035C29.4942 66.378 29.3857 66.498 29.3255 66.6431Z" fill="white" stroke="#263238" stroke-width="0.0970286" stroke-linecap="round" stroke-linejoin="round"/>
<path d="M26.9575 63.6965C26.9575 63.6965 25.9807 64.5643 26.2334 65.2504C26.4862 65.9365 28.3123 66.718 28.5559 65.9319C28.7996 65.1459 27.6656 64.6757 27.6656 64.6757L27.0372 64.2667" fill="white"/>
<path d="M26.9575 63.6965C26.9575 63.6965 25.9807 64.5643 26.2334 65.2504C26.4862 65.9365 28.3123 66.718 28.5559 65.9319C28.7996 65.1459 27.6656 64.6757 27.6656 64.6757L27.0372 64.2667" stroke="#263238" stroke-width="0.0970286" stroke-linecap="round" stroke-linejoin="round"/>
<path d="M29.3278 64.1509C29.1604 64.2668 29.029 64.4272 28.9485 64.614C28.868 64.8007 28.8416 65.0063 28.8724 65.2072C28.9567 65.9388 29.8037 66.0751 29.8037 66.0751" fill="white"/>
<path d="M29.3278 64.1509C29.1604 64.2668 29.029 64.4272 28.9485 64.614C28.868 64.8007 28.8416 65.0063 28.8724 65.2072C28.9567 65.9388 29.8037 66.0751 29.8037 66.0751" stroke="#263238" stroke-width="0.0970286" stroke-linecap="round" stroke-linejoin="round"/>
<path d="M31.2906 52.9125C30.6217 53.0464 29.9996 53.3525 29.4859 53.8004C28.9722 54.2484 28.5849 54.8225 28.3624 55.4659C27.595 57.6923 27.8637 62.4039 28.0413 62.9787C28.2189 63.5534 29.7286 64.3417 30.546 64.2145C31.3634 64.0873 31.7892 63.6988 32.1171 62.9923C32.445 62.2858 34.508 58.9645 34.1209 56.2497C33.7338 53.5349 33.3444 53.1033 31.2906 52.9125Z" fill="white" stroke="#263238" stroke-width="0.0970286" stroke-linecap="round" stroke-linejoin="round"/>
<path d="M33.0962 54.0031C33.0962 54.0031 33.8453 55.9159 33.5129 57.7446C33.1804 59.5734 31.5957 62.9833 31.5957 62.9833" stroke="#263238" stroke-width="0.0970286" stroke-linecap="round" stroke-linejoin="round"/>
<path d="M30.0929 63.4671C29.2586 63.2764 28.5043 62.8319 27.9343 62.1949C27.9488 62.4586 27.9846 62.7207 28.0413 62.9787C28.2212 63.5535 29.7286 64.3418 30.546 64.2145C30.8159 64.1862 31.0761 64.0986 31.308 63.9579C31.5399 63.8173 31.7377 63.6272 31.8871 63.4013C31.3028 63.5653 30.6877 63.5879 30.0929 63.4671Z" fill="#EE6F57" stroke="#263238" stroke-width="0.0970286" stroke-linecap="round" stroke-linejoin="round"/>
<path d="M27.176 64.4168C27.176 64.4168 26.37 64.5054 26.2334 65.2551C26.2334 65.2551 26.0808 64.4372 26.5931 64.1805C27.1054 63.9238 27.176 64.4168 27.176 64.4168Z" fill="#EE6F57" stroke="#263238" stroke-width="0.0970286" stroke-linecap="round" stroke-linejoin="round"/>
<path d="M5.00513 50.6227C5.00513 50.6227 6.59901 52.0585 6.33944 52.6969C6.07986 53.3352 5.85899 53.5488 6.1254 53.7623C6.39181 53.9759 7.08629 53.9213 7.08629 53.9213C7.08629 53.9213 8.0449 54.9845 8.68017 54.9845C9.31545 54.9845 13.0543 51.5269 13.1066 51.0475C13.159 50.5682 12.5214 49.8231 11.827 48.5486C11.1325 47.2741 9.64106 45.5703 8.30675 46.1542C6.97244 46.738 5.00513 50.6227 5.00513 50.6227Z" fill="white" stroke="#263238" stroke-width="0.0970286" stroke-linecap="round" stroke-linejoin="round"/>
<path d="M6.01834 51.1542C6.01834 51.1542 6.01834 50.3023 6.76519 50.5158" stroke="#263238" stroke-width="0.0970286" stroke-linecap="round" stroke-linejoin="round"/>
<path d="M7.09304 51.42C7.21145 51.5699 7.23422 51.7494 7.14314 51.8221C7.05206 51.8948 6.87901 51.8357 6.75833 51.6858C6.63765 51.5359 6.61716 51.3564 6.70824 51.2837C6.79932 51.211 6.97236 51.2701 7.09304 51.42Z" fill="#263238"/>
<path d="M10.8729 50.0886L10.2331 50.5157C10.2331 50.5157 10.7112 52.0582 10.7112 52.4831V53.4963" fill="white"/>
<path d="M10.8729 50.0886L10.2331 50.5157C10.2331 50.5157 10.7112 52.0582 10.7112 52.4831V53.4963" stroke="#263238" stroke-width="0.0970286" stroke-linecap="round" stroke-linejoin="round"/>
<path d="M7.75116 53.8258C7.75116 53.8258 8.20656 53.7599 8.27942 52.9694L7.75116 53.8258Z" fill="white"/>
<path d="M7.75116 53.8258C7.75116 53.8258 8.20656 53.7599 8.27942 52.9694" stroke="#263238" stroke-width="0.0970286" stroke-miterlimit="10"/>
<path d="M7.77845 47.8011C7.77845 47.8011 6.12536 50.9952 4.63166 51.3678C3.13796 51.7403 2.23173 50.5681 2.71217 48.9188C3.19261 47.2695 4.95272 45.0341 5.85896 45.3544C6.76519 45.6747 6.3394 46.4721 6.76975 45.886C7.2001 45.2999 7.68054 43.7051 9.80952 43.7574C11.9385 43.8096 12.1024 45.6725 12.2641 47.0037C12.4258 48.335 13.5438 49.6639 13.3844 50.0365C13.225 50.4091 12.4736 50.8339 11.9431 50.7294C11.4125 50.6249 10.8774 50.0888 10.8774 50.0888C10.8774 50.0888 10.9844 47.9079 10.1306 47.9079C9.27671 47.9079 9.59776 49.6117 9.59776 49.6117C9.59776 49.6117 9.54311 49.2391 8.95565 49.2391C8.36819 49.2391 8.10406 49.7185 7.783 49.5049C7.46195 49.2914 7.77845 47.8011 7.77845 47.8011Z" fill="#263238" stroke="#263238" stroke-width="0.0970286" stroke-miterlimit="10"/>
<path d="M4.62711 50.5702C5.06096 50.4776 5.46318 50.2739 5.79416 49.9792C6.12514 49.6844 6.37348 49.3087 6.51472 48.8891C6.98606 47.4443 7.08624 46.8445 8.60271 46.3674C10.1192 45.8904 10.6087 46.6741 11.433 46.8377" stroke="white" stroke-width="0.0485143" stroke-linecap="round" stroke-linejoin="round"/>
<path d="M8.02664 48.419C8.02664 48.419 8.32948 47.2831 9.40649 47.1082C10.4835 46.9333 11.1256 48.0169 11.7996 48.1168" stroke="white" stroke-width="0.0485143" stroke-linecap="round" stroke-linejoin="round"/>
<path d="M9.71389 47.5785C9.71389 47.5785 9.07405 48.653 8.77122 49.0233C8.67618 49.1323 8.55613 49.2167 8.42132 49.2693C8.28651 49.3219 8.14094 49.3412 7.99704 49.3255" stroke="white" stroke-width="0.0485143" stroke-linecap="round" stroke-linejoin="round"/>
<path d="M6.04113 47.5444C6.04113 47.5444 5.7383 48.7893 4.45863 48.9892C3.17897 49.1891 4.39032 47.04 5.2328 47.14C6.07529 47.2399 5.23281 47.9147 5.09846 47.9805" stroke="white" stroke-width="0.0485143" stroke-linecap="round" stroke-linejoin="round"/>
<path d="M7.61905 56.0499C7.61905 56.0499 14.1244 52.4832 16.0985 52.0584C18.0727 51.6336 18.3914 51.8448 18.8195 51.6335C19.2476 51.4223 17.4852 49.7185 14.6595 49.9842C11.8337 50.25 10.4448 51.8448 9.32451 53.1761C8.61674 54.0446 8.042 55.0131 7.61905 56.0499Z" fill="#EE6F57" stroke="#263238" stroke-width="0.0970286" stroke-linecap="round" stroke-linejoin="round"/>
<path d="M9.45433 90.3443C9.02258 90.7121 8.53638 91.011 8.013 91.2303C7.34812 91.4575 6.62859 90.676 6.01836 91.4575C5.40813 92.239 5.35348 93.2272 6.40545 93.836C7.45741 94.4449 8.34543 94.8311 9.12188 94.7197C9.89834 94.6084 10.9435 94.3335 11.7245 94.5539C12.5055 94.7743 13.8853 95.2718 14.6071 94.8311C15.3289 94.3903 15.4382 93.393 15.272 92.7865C15.1058 92.1799 14.5502 90.1331 14.5502 90.1331C14.5502 90.1331 10.4516 91.0645 9.45433 90.3443Z" fill="#EE6F57" stroke="#263238" stroke-width="0.0970286" stroke-linecap="round" stroke-linejoin="round"/>
<path d="M23.7492 72.9313C23.7492 72.9313 22.2532 76.5252 20.591 78.1291C18.9288 79.7329 15.0488 81.389 15.0488 81.389C15.0488 81.389 15.3813 88.9631 15.1058 89.9036C14.8302 90.8441 12.6125 91.119 12.3893 91.721C12.1662 92.3231 12.3893 93.5384 11.836 93.9928C11.2827 94.4471 10.5063 94.4335 10.2854 93.7156C10.0645 92.9978 10.34 91.7801 9.89602 91.1167C9.45201 90.4534 9.50893 90.8896 9.06492 89.9559C8.62091 89.0222 8.45697 85.0352 8.45697 82.8248C8.45697 80.6144 9.12185 78.7356 9.67516 77.4066C10.2285 76.0777 11.7814 74.4761 13.2204 73.924C14.6595 73.372 23.7492 72.9313 23.7492 72.9313Z" fill="#EE6F57" stroke="#263238" stroke-width="0.0970286" stroke-linecap="round" stroke-linejoin="round"/>
<path opacity="0.5" d="M23.7492 72.9313C23.7492 72.9313 22.2532 76.5252 20.591 78.1291C18.9288 79.7329 15.0488 81.389 15.0488 81.389C15.0488 81.389 15.3813 88.9631 15.1058 89.9036C14.8302 90.8441 12.6125 91.119 12.3893 91.721C12.1662 92.3231 12.3893 93.5384 11.836 93.9928C11.2827 94.4471 10.5063 94.4335 10.2854 93.7156C10.0645 92.9978 10.34 91.7801 9.89602 91.1167C9.45201 90.4534 9.50893 90.8896 9.06492 89.9559C8.62091 89.0222 8.45697 85.0352 8.45697 82.8248C8.45697 80.6144 9.12185 78.7356 9.67516 77.4066C10.2285 76.0777 11.7814 74.4761 13.2204 73.924C14.6595 73.372 23.7492 72.9313 23.7492 72.9313Z" fill="white" stroke="#263238" stroke-width="0.0970286" stroke-miterlimit="10"/>
<path d="M8.95568 72.2678C8.95568 72.2678 7.95837 78.1744 8.72799 81.7206C9.49761 85.2669 10.668 87.968 11.8862 88.411C13.1043 88.854 16.8727 85.5349 16.8727 84.3741C16.8727 83.2132 16.7065 80.4507 16.8181 78.129C16.9297 75.8072 17.0458 75.4733 17.0458 75.4733L8.95568 72.2678Z" fill="white" stroke="#263238" stroke-width="0.0970286" stroke-linecap="round" stroke-linejoin="round"/>
<path d="M17.1551 84.265C17.1551 84.265 16.8773 83.1587 14.828 83.1042C12.7787 83.0497 11.7814 85.4804 11.5036 86.7526C11.2258 88.0248 11.7814 89.4606 12.7787 89.5719C13.7761 89.6832 17.4875 86.973 17.1551 84.265Z" fill="#EE6F57" stroke="#263238" stroke-width="0.0970286" stroke-linecap="round" stroke-linejoin="round"/>
<path d="M9.18107 68.5627C9.18107 68.5627 8.75983 71.8818 8.99435 73.1426C9.22888 74.4034 12.929 76.6956 16.0211 76.6956C19.1133 76.6956 22.3443 75.5257 23.797 73.3289C25.2497 71.1321 23.9382 68.1425 23.9382 68.1425C23.9382 68.1425 19.9557 69.6373 16.4424 69.7327C12.929 69.8281 9.18107 68.5627 9.18107 68.5627Z" fill="#EE6F57" stroke="#263238" stroke-width="0.0970286" stroke-linecap="round" stroke-linejoin="round"/>
<path d="M1.42342 64.1896C1.42342 64.1896 0.303144 63.4445 -0.603095 62.7016C-1.50933 61.9587 -3.05768 61.2636 -3.48348 60.732C-3.90927 60.2004 -5.18893 61.2113 -5.18893 62.8061C-5.18893 64.4009 -3.69751 67.436 -2.68426 68.2333C-1.671 69.0307 -0.710113 69.4056 -0.336689 69.4056C0.0367365 69.4056 0.346406 68.2879 0.574104 67.2224C0.801802 66.157 1.42342 64.1896 1.42342 64.1896Z" fill="white" stroke="#263238" stroke-width="0.0970286" stroke-linecap="round" stroke-linejoin="round"/>
<path d="M0.95205 64.1373C0.95205 64.1373 -0.915072 65.1483 -1.34087 67.2224C-1.76666 69.2965 -0.487001 70.1507 0.685644 70.3097C1.94254 70.4801 4.15121 68.5536 4.15121 68.5536C4.15121 68.5536 0.526255 68.9785 0.95205 64.1373Z" fill="#EE6F57" stroke="#263238" stroke-width="0.0970286" stroke-linecap="round" stroke-linejoin="round"/>
<path d="M7.6191 56.0499C7.6191 56.0499 4.52468 57.1131 3.24501 58.8692C1.96535 60.6253 2.23176 62.7539 2.23176 62.7539C1.21341 63.6036 0.470849 64.7358 0.0982249 66.0071C-0.486959 68.0812 -0.00651339 69.1989 2.81922 69.3579C5.64495 69.517 8.52533 64.5691 8.52533 64.5691C8.52533 64.5691 8.79174 67.6564 9.16516 68.9331C9.53859 70.2099 10.2854 70.6347 12.2596 71.0072C14.2337 71.3798 17.2188 71.273 20.5797 70.6347C23.9405 69.9963 24.0452 68.5083 24.2593 67.018C24.4733 65.5277 25.309 60.7321 23.7287 55.8864C22.7064 52.7491 19.7782 51.6972 18.8196 51.645C17.861 51.5927 11.9932 52.59 7.6191 56.0499Z" fill="white" stroke="#263238" stroke-width="0.0970286" stroke-linecap="round" stroke-linejoin="round"/>
<path d="M5.54474 65.5548C7.72029 65.5548 9.48391 63.7006 9.48391 61.4134C9.48391 59.1262 7.72029 57.272 5.54474 57.272C3.36919 57.272 1.60556 59.1262 1.60556 61.4134C1.60556 63.7006 3.36919 65.5548 5.54474 65.5548Z" fill="#EE6F57" stroke="#263238" stroke-width="0.0970286" stroke-linecap="round" stroke-linejoin="round"/>
<path d="M8.25434 63.3127C7.96947 63.7742 7.57184 64.1559 7.09871 64.4221C6.62558 64.6883 6.09245 64.8303 5.54929 64.8348C5.26372 64.8349 4.97949 64.7959 4.70453 64.719" stroke="#263238" stroke-width="0.0970286" stroke-linecap="round" stroke-linejoin="round"/>
<path d="M8.7963 61.4135C8.79632 61.7538 8.7488 62.0926 8.65512 62.4198" stroke="#263238" stroke-width="0.0970286" stroke-linecap="round" stroke-linejoin="round"/>
<path d="M3.92806 65.4755L2.27725 67.1202" stroke="#263238" stroke-width="0.0970286" stroke-linecap="round" stroke-linejoin="round"/>
<path d="M1.73765 67.6699L0.560455 68.4537" stroke="#263238" stroke-width="0.0970286" stroke-linecap="round" stroke-linejoin="round"/>
<path d="M18.207 94.3267C17.898 94.4194 17.584 94.4952 17.2667 94.5539C16.2693 94.781 15.3813 95.1627 15.272 96.4894C15.1627 97.8161 15.4382 98.6453 16.2124 98.7612C16.9866 98.877 18.7626 99.0383 20.311 98.2091C21.8593 97.3799 23.3029 94.5061 24.0794 93.6202C24.8558 92.7342 25.63 92.5706 25.63 92.5706C25.5548 92.1129 25.3429 91.6885 25.0221 91.3529C24.454 90.6687 23.8022 90.0582 23.0821 89.5355C22.0847 88.8177 20.2563 88.6518 19.4799 89.7627C18.7034 90.8736 19.0928 92.139 19.0928 92.9136C19.0928 93.6883 18.207 94.3267 18.207 94.3267Z" fill="#EE6F57" stroke="#263238" stroke-width="0.0970286" stroke-linecap="round" stroke-linejoin="round"/>
<path d="M23.9154 90.2354C23.9154 90.2354 24.1932 89.9037 23.5283 89.129C22.8635 88.3544 18.0977 84.3197 16.9888 84.0425C15.8799 83.7654 13.7191 84.4855 12.6626 86.4211C11.6061 88.3566 12.4349 89.8469 13.2159 91.0646C13.9969 92.2822 18.4256 94.9902 19.4776 95.6535C20.5296 96.3169 21.0282 95.3219 21.0282 94.3268C21.0282 93.3318 19.5892 91.8938 20.1971 90.7874C20.8051 89.6811 21.9709 89.2949 22.7018 89.5152C23.1538 89.6649 23.5678 89.9106 23.9154 90.2354Z" fill="white" stroke="#263238" stroke-width="0.0970286" stroke-linecap="round" stroke-linejoin="round"/>
<path d="M11.0551 65.2141C11.0551 65.2141 12.3074 69.092 13.4937 70.0121C14.68 70.9321 15.543 70.9344 15.543 70.9344L16.1828 72.7859C16.2228 72.9053 16.289 73.0143 16.3764 73.105C16.4638 73.1958 16.5703 73.266 16.6883 73.3107C17.0207 73.4334 17.6697 73.3311 18.56 73.0835C19.76 72.7609 20.0173 72.2748 20.1174 71.909C20.155 71.7676 20.155 71.6188 20.1174 71.4774L18.9789 67.2428L11.0551 65.2141Z" fill="#EE6F57" stroke="#263238" stroke-width="0.0970286" stroke-miterlimit="10"/>
<path d="M20.1106 71.9135C20.1481 71.7721 20.1481 71.6233 20.1106 71.4819L19.7303 70.0689C19.007 69.8703 18.2423 69.8787 17.5236 70.0933C16.8048 70.3078 16.1611 70.7197 15.6659 71.282L16.1828 72.7813C16.2228 72.9007 16.289 73.0097 16.3764 73.1005C16.4638 73.1912 16.5703 73.2615 16.6883 73.3061C17.0207 73.4288 17.6697 73.3266 18.56 73.0789C19.7531 72.77 20.0104 72.2838 20.1106 71.9135Z" fill="#EE6F57" stroke="#263238" stroke-width="0.0970286" stroke-miterlimit="10"/>
<path d="M20.1516 71.8295C20.2836 72.2361 19.5504 72.8381 18.5121 73.1766C17.4738 73.5151 16.5266 73.4583 16.3945 73.054C16.2625 72.6496 16.9934 72.043 18.0317 71.7068C19.07 71.3706 20.0195 71.4228 20.1516 71.8295Z" fill="#263238" stroke="#263238" stroke-width="0.0970286" stroke-miterlimit="10"/>
<path d="M16.0849 70.9979L16.5699 72.4132" stroke="#263238" stroke-width="0.0485143" stroke-miterlimit="10"/>
<path d="M16.7566 70.4777L17.3168 72.0043" stroke="#263238" stroke-width="0.0485143" stroke-miterlimit="10"/>
<path d="M17.7631 70.1438L18.2481 71.6682" stroke="#263238" stroke-width="0.0485143" stroke-miterlimit="10"/>
<path d="M18.9197 70.0326L19.3296 71.4093" stroke="#263238" stroke-width="0.0485143" stroke-miterlimit="10"/>
<path d="M25.4569 61.0432C25.4569 61.0432 26.4634 64.9938 25.9488 66.4023C25.4342 67.8108 24.7078 68.2652 24.7078 68.2652L25.1632 70.1712C25.1928 70.2937 25.1946 70.4213 25.1686 70.5447C25.1426 70.6681 25.0895 70.7842 25.0129 70.8845C24.7966 71.1662 24.1932 71.4229 23.312 71.6932C22.1234 72.0567 21.6475 71.7796 21.3675 71.5229C21.2605 71.4214 21.1819 71.2937 21.1398 71.1526L19.8442 66.9612L25.4569 61.0432Z" fill="#EE6F57" stroke="#263238" stroke-width="0.0970286" stroke-miterlimit="10"/>
<path d="M21.3584 71.5228C21.2513 71.4213 21.1728 71.2937 21.1307 71.1525L20.7003 69.7554C21.2075 69.2009 21.8609 68.8002 22.5859 68.5993C23.3108 68.3984 24.0778 68.4054 24.7989 68.6195L25.1609 70.1643C25.1905 70.2869 25.1923 70.4145 25.1663 70.5379C25.1404 70.6612 25.0872 70.7773 25.0106 70.8776C24.7943 71.1593 24.1909 71.416 23.3097 71.6864C22.1143 72.0567 21.6384 71.7795 21.3584 71.5228Z" fill="#EE6F57" stroke="#263238" stroke-width="0.0970286" stroke-miterlimit="10"/>
<path d="M21.2764 71.4706C21.3789 71.8841 22.3216 72.0067 23.3804 71.7409C24.4392 71.4751 25.2156 70.9276 25.1109 70.5142C25.0061 70.1007 24.0657 69.9781 23.0069 70.2416C21.9481 70.5051 21.1717 71.0549 21.2764 71.4706Z" fill="#263238" stroke="#263238" stroke-width="0.0970286" stroke-miterlimit="10"/>
<path d="M24.2798 68.6104L24.6213 70.0643" stroke="#263238" stroke-width="0.0485143" stroke-miterlimit="10"/>
<path d="M23.4327 68.524L23.772 70.1143" stroke="#263238" stroke-width="0.0485143" stroke-miterlimit="10"/>
<path d="M22.4012 68.7739L22.8043 70.3233" stroke="#263238" stroke-width="0.0485143" stroke-miterlimit="10"/>
<path d="M21.3629 69.2942L21.7477 70.6777" stroke="#263238" stroke-width="0.0485143" stroke-miterlimit="10"/>
<path d="M17.7243 68.7354C22.5105 68.7354 26.3905 64.8877 26.3905 60.1413C26.3905 55.3949 22.5105 51.5472 17.7243 51.5472C12.9381 51.5472 9.05814 55.3949 9.05814 60.1413C9.05814 64.8877 12.9381 68.7354 17.7243 68.7354Z" fill="#EE6F57" stroke="#263238" stroke-width="0.0970286" stroke-miterlimit="10"/>
<path d="M18.8975 66.9354C23.2078 66.6159 26.4576 63.0765 26.1562 59.0301C25.8548 54.9837 22.1163 51.9625 17.8061 52.2821C13.4958 52.6017 10.2459 56.141 10.5473 60.1874C10.8487 64.2338 14.5872 67.255 18.8975 66.9354Z" fill="#263238" stroke="#263238" stroke-width="0.0970286" stroke-miterlimit="10"/>
<path d="M11.6288 57.2061C12.0487 56.2026 12.701 55.3127 13.5324 54.6095" stroke="white" stroke-width="0.0485143" stroke-linecap="round" stroke-linejoin="round"/>
<path d="M11.285 61.0273C11.2226 60.7351 11.18 60.4391 11.1575 60.1413C11.1116 59.5327 11.153 58.9207 11.2804 58.3239" stroke="white" stroke-width="0.0485143" stroke-linecap="round" stroke-linejoin="round"/>
<path d="M23.6741 55.5932C21.9959 54.5663 19.7076 54.2415 17.549 54.7231C15.3904 55.2047 13.4186 56.5019 12.3529 58.1694C12.3094 58.2326 12.279 58.3039 12.2636 58.379C12.2482 58.4542 12.2481 58.5317 12.2634 58.6069C12.2786 58.6821 12.3088 58.7534 12.3522 58.8168C12.3956 58.8801 12.4513 58.9341 12.516 58.9755C12.5807 59.0169 12.6531 59.0449 12.7289 59.0579C12.8047 59.0708 12.8823 59.0685 12.9571 59.0509C13.032 59.0334 13.1025 59.001 13.1646 58.9557C13.2266 58.9104 13.2789 58.8531 13.3184 58.7873C14.2292 57.3674 15.9027 56.2656 17.8017 55.834C19.7007 55.4023 21.6476 55.6863 23.0752 56.5609C23.1394 56.6033 23.2115 56.6324 23.2871 56.6464C23.3628 56.6605 23.4405 56.6592 23.5156 56.6426C23.5908 56.6261 23.6618 56.5946 23.7245 56.5501C23.7872 56.5056 23.8403 56.449 23.8807 56.3836C23.921 56.3182 23.9477 56.2454 23.9593 56.1695C23.9708 56.0936 23.967 56.0162 23.9479 55.9418C23.9288 55.8674 23.895 55.7976 23.8483 55.7365C23.8017 55.6755 23.7432 55.6244 23.6764 55.5864L23.6741 55.5932Z" fill="white"/>
<path d="M22.5083 57.5514C21.1253 56.8768 19.5527 56.6941 18.0514 57.0338C16.5501 57.3734 15.2102 58.215 14.2542 59.4188C14.2088 59.4786 14.1757 59.5467 14.1567 59.6193C14.1378 59.6918 14.1333 59.7674 14.1437 59.8417C14.1541 59.916 14.179 59.9875 14.2171 60.0521C14.2552 60.1168 14.3057 60.1733 14.3658 60.2184C14.4259 60.2638 14.4943 60.2969 14.5673 60.3158C14.6402 60.3348 14.7161 60.3392 14.7908 60.3289C14.8654 60.3185 14.9373 60.2936 15.0023 60.2556C15.0672 60.2175 15.1241 60.1671 15.1695 60.1071C15.962 59.118 17.0678 58.4269 18.3056 58.147C19.5435 57.8672 20.8398 58.0152 21.9823 58.5669C22.0493 58.6013 22.1224 58.6223 22.1975 58.6285C22.2726 58.6348 22.3482 58.6262 22.42 58.6034C22.4917 58.5805 22.5583 58.5437 22.6158 58.4951C22.6734 58.4466 22.7208 58.3872 22.7553 58.3204C22.7898 58.2535 22.8108 58.1806 22.8171 58.1057C22.8234 58.0307 22.8148 57.9553 22.7919 57.8837C22.7689 57.8121 22.7321 57.7457 22.6834 57.6883C22.6348 57.6308 22.5752 57.5836 22.5083 57.5491V57.5514Z" fill="white"/>
<path d="M21.3288 59.4938C20.4509 59.0534 19.4452 58.9363 18.4892 59.1632C17.5332 59.3901 16.6882 59.9465 16.1031 60.7342C16.0308 60.8275 15.9891 60.9408 15.9837 61.0586C15.9783 61.1763 16.0095 61.2929 16.0731 61.3924C16.1366 61.4918 16.2293 61.5692 16.3386 61.6141C16.448 61.6589 16.5685 61.669 16.6837 61.6429C16.8146 61.6146 16.9309 61.5405 17.0116 61.4339C17.4369 60.8555 18.0542 60.4465 18.7537 60.2801C19.4531 60.1136 20.189 60.2005 20.8301 60.5252C20.9654 60.5811 21.117 60.5833 21.2539 60.5313C21.3908 60.4793 21.5025 60.377 21.5662 60.2455C21.63 60.1139 21.6409 59.963 21.5968 59.8237C21.5526 59.6844 21.4567 59.5672 21.3288 59.4961V59.4938Z" fill="white"/>
<path d="M20.4434 63.2022C20.8541 62.5647 20.669 61.7157 20.0301 61.306C19.3911 60.8963 18.5402 61.0809 18.1295 61.7184C17.7188 62.3559 17.9039 63.2048 18.5429 63.6146C19.1818 64.0243 20.0327 63.8397 20.4434 63.2022Z" fill="white"/>
<path d="M10.3833 75.194C10.1966 76.5609 10.1508 77.9433 10.2467 79.3195" stroke="#263238" stroke-width="0.0970286" stroke-linecap="round" stroke-linejoin="round"/>
<path d="M10.3833 80.0647C10.3987 80.7981 10.512 81.5262 10.7203 82.2297" stroke="#263238" stroke-width="0.0970286" stroke-linecap="round" stroke-linejoin="round"/>
<path d="M12.6193 87.3048C12.6193 87.3048 13.0952 88.4543 15.2652 90.4171C17.4351 92.3799 20.1493 94.5449 20.1493 94.5449" stroke="#263238" stroke-width="0.0970286" stroke-linecap="round" stroke-linejoin="round"/>
<path d="M10.3833 70.8616C10.3833 70.8616 9.97575 72.8244 10.315 73.8399" stroke="#263238" stroke-width="0.0970286" stroke-linecap="round" stroke-linejoin="round"/>
<path opacity="0.5" d="M65.384 87.752C65.384 86.92 65.556 86.18 65.9 85.532C66.252 84.876 66.748 84.368 67.388 84.008C68.028 83.64 68.764 83.456 69.596 83.456C70.652 83.456 71.54 83.74 72.26 84.308C72.98 84.868 73.444 85.632 73.652 86.6H71.12C70.968 86.28 70.756 86.036 70.484 85.868C70.22 85.7 69.912 85.616 69.56 85.616C69.016 85.616 68.58 85.812 68.252 86.204C67.932 86.588 67.772 87.104 67.772 87.752C67.772 88.408 67.932 88.932 68.252 89.324C68.58 89.708 69.016 89.9 69.56 89.9C69.912 89.9 70.22 89.816 70.484 89.648C70.756 89.48 70.968 89.236 71.12 88.916H73.652C73.444 89.884 72.98 90.652 72.26 91.22C71.54 91.78 70.652 92.06 69.596 92.06C68.764 92.06 68.028 91.88 67.388 91.52C66.748 91.152 66.252 90.644 65.9 89.996C65.556 89.34 65.384 88.592 65.384 87.752ZM79.9618 86.864V88.82H74.5258V86.864H79.9618ZM84.0553 90.2H86.6833V92H81.7033V83.54H84.0553V90.2ZM90.7298 92.084C90.0578 92.084 89.4538 91.944 88.9178 91.664C88.3898 91.384 87.9738 90.984 87.6698 90.464C87.3658 89.944 87.2138 89.332 87.2138 88.628C87.2138 87.932 87.3658 87.324 87.6698 86.804C87.9818 86.284 88.4018 85.884 88.9298 85.604C89.4658 85.324 90.0698 85.184 90.7418 85.184C91.4138 85.184 92.0138 85.324 92.5418 85.604C93.0778 85.884 93.4978 86.284 93.8018 86.804C94.1138 87.324 94.2698 87.932 94.2698 88.628C94.2698 89.324 94.1138 89.936 93.8018 90.464C93.4978 90.984 93.0778 91.384 92.5418 91.664C92.0058 91.944 91.4018 92.084 90.7298 92.084ZM90.7298 90.044C91.0578 90.044 91.3298 89.924 91.5458 89.684C91.7698 89.436 91.8818 89.084 91.8818 88.628C91.8818 88.172 91.7698 87.824 91.5458 87.584C91.3298 87.344 91.0618 87.224 90.7418 87.224C90.4218 87.224 90.1538 87.344 89.9378 87.584C89.7218 87.824 89.6138 88.172 89.6138 88.628C89.6138 89.092 89.7178 89.444 89.9258 89.684C90.1338 89.924 90.4018 90.044 90.7298 90.044ZM102.475 85.268L98.2027 95.204H95.6467L97.2547 91.712L94.4947 85.268H97.1107L98.5267 89.084L99.8947 85.268H102.475ZM102.706 88.628C102.706 87.932 102.83 87.324 103.078 86.804C103.334 86.284 103.678 85.884 104.11 85.604C104.55 85.324 105.038 85.184 105.574 85.184C106.038 85.184 106.438 85.276 106.774 85.46C107.11 85.644 107.37 85.892 107.554 86.204V85.268H109.906V92H107.554V91.064C107.37 91.376 107.106 91.624 106.762 91.808C106.426 91.992 106.03 92.084 105.574 92.084C105.038 92.084 104.55 91.944 104.11 91.664C103.678 91.384 103.334 90.984 103.078 90.464C102.83 89.936 102.706 89.324 102.706 88.628ZM107.554 88.628C107.554 88.196 107.434 87.856 107.194 87.608C106.962 87.36 106.674 87.236 106.33 87.236C105.978 87.236 105.686 87.36 105.454 87.608C105.222 87.848 105.106 88.188 105.106 88.628C105.106 89.06 105.222 89.404 105.454 89.66C105.686 89.908 105.978 90.032 106.33 90.032C106.674 90.032 106.962 89.908 107.194 89.66C107.434 89.412 107.554 89.068 107.554 88.628ZM113.598 83.12V92H111.246V83.12H113.598Z" fill="#EE6F57"/>
</g>
<defs>
<clipPath id="clip0_1595_12951">
<path d="M0 5C0 2.23858 2.23858 0 5 0H108.036C110.797 0 113.036 2.23858 113.036 5V91H0V5Z" fill="white"/>
</clipPath>
</defs>
</svg>
