<svg width="114" height="91" viewBox="0 0 114 91" fill="none" xmlns="http://www.w3.org/2000/svg">
<g clip-path="url(#clip0_1595_13045)">
<path d="M0 5C0 2.23858 2.23858 0 5 0H108.036C110.797 0 113.036 2.23858 113.036 5V91H0V5Z" fill="#145374"/>
<path opacity="0.5" d="M65.384 87.752C65.384 86.92 65.556 86.18 65.9 85.532C66.252 84.876 66.748 84.368 67.388 84.008C68.028 83.64 68.764 83.456 69.596 83.456C70.652 83.456 71.54 83.74 72.26 84.308C72.98 84.868 73.444 85.632 73.652 86.6H71.12C70.968 86.28 70.756 86.036 70.484 85.868C70.22 85.7 69.912 85.616 69.56 85.616C69.016 85.616 68.58 85.812 68.252 86.204C67.932 86.588 67.772 87.104 67.772 87.752C67.772 88.408 67.932 88.932 68.252 89.324C68.58 89.708 69.016 89.9 69.56 89.9C69.912 89.9 70.22 89.816 70.484 89.648C70.756 89.48 70.968 89.236 71.12 88.916H73.652C73.444 89.884 72.98 90.652 72.26 91.22C71.54 91.78 70.652 92.06 69.596 92.06C68.764 92.06 68.028 91.88 67.388 91.52C66.748 91.152 66.252 90.644 65.9 89.996C65.556 89.34 65.384 88.592 65.384 87.752ZM79.9618 86.864V88.82H74.5258V86.864H79.9618ZM84.0553 90.2H86.6833V92H81.7033V83.54H84.0553V90.2ZM90.7298 92.084C90.0578 92.084 89.4538 91.944 88.9178 91.664C88.3898 91.384 87.9738 90.984 87.6698 90.464C87.3658 89.944 87.2138 89.332 87.2138 88.628C87.2138 87.932 87.3658 87.324 87.6698 86.804C87.9818 86.284 88.4018 85.884 88.9298 85.604C89.4658 85.324 90.0698 85.184 90.7418 85.184C91.4138 85.184 92.0138 85.324 92.5418 85.604C93.0778 85.884 93.4978 86.284 93.8018 86.804C94.1138 87.324 94.2698 87.932 94.2698 88.628C94.2698 89.324 94.1138 89.936 93.8018 90.464C93.4978 90.984 93.0778 91.384 92.5418 91.664C92.0058 91.944 91.4018 92.084 90.7298 92.084ZM90.7298 90.044C91.0578 90.044 91.3298 89.924 91.5458 89.684C91.7698 89.436 91.8818 89.084 91.8818 88.628C91.8818 88.172 91.7698 87.824 91.5458 87.584C91.3298 87.344 91.0618 87.224 90.7418 87.224C90.4218 87.224 90.1538 87.344 89.9378 87.584C89.7218 87.824 89.6138 88.172 89.6138 88.628C89.6138 89.092 89.7178 89.444 89.9258 89.684C90.1338 89.924 90.4018 90.044 90.7298 90.044ZM102.475 85.268L98.2027 95.204H95.6467L97.2547 91.712L94.4947 85.268H97.1107L98.5267 89.084L99.8947 85.268H102.475ZM102.706 88.628C102.706 87.932 102.83 87.324 103.078 86.804C103.334 86.284 103.678 85.884 104.11 85.604C104.55 85.324 105.038 85.184 105.574 85.184C106.038 85.184 106.438 85.276 106.774 85.46C107.11 85.644 107.37 85.892 107.554 86.204V85.268H109.906V92H107.554V91.064C107.37 91.376 107.106 91.624 106.762 91.808C106.426 91.992 106.03 92.084 105.574 92.084C105.038 92.084 104.55 91.944 104.11 91.664C103.678 91.384 103.334 90.984 103.078 90.464C102.83 89.936 102.706 89.324 102.706 88.628ZM107.554 88.628C107.554 88.196 107.434 87.856 107.194 87.608C106.962 87.36 106.674 87.236 106.33 87.236C105.978 87.236 105.686 87.36 105.454 87.608C105.222 87.848 105.106 88.188 105.106 88.628C105.106 89.06 105.222 89.404 105.454 89.66C105.686 89.908 105.978 90.032 106.33 90.032C106.674 90.032 106.962 89.908 107.194 89.66C107.434 89.412 107.554 89.068 107.554 88.628ZM113.598 83.12V92H111.246V83.12H113.598Z" fill="#EE6F57"/>
<path d="M-15.4573 44.3639L-16.8542 54.6011L-0.711464 56.8037L0.685394 46.5666L-15.4573 44.3639Z" fill="#EBEBEB"/>
<path d="M-15.4571 44.3618C-14.89 45.0773 -14.3069 45.7624 -13.7345 46.4654C-13.1621 47.1684 -12.5718 47.8482 -11.9851 48.5315C-11.3751 49.247 -10.7597 49.9625 -10.1462 50.6619C-10.1265 50.6834 -10.1104 50.7066 -10.0907 50.7299C-9.54575 51.3524 -8.99897 51.9743 -8.45041 52.5956L-8.36992 52.685L-8.26975 52.6206C-7.5757 52.1687 -6.88284 51.7143 -6.19117 51.2576C-6.16652 51.2434 -6.14264 51.2278 -6.11962 51.2111C-5.33375 50.6959 -4.55145 50.1754 -3.77273 49.6495C-3.02859 49.1486 -2.28088 48.6388 -1.53854 48.129C-0.79619 47.6192 -0.0520525 47.0987 0.684927 46.5638C-0.0806732 47.0039 -0.83912 47.4707 -1.59935 47.9251C-2.35959 48.3794 -3.11804 48.8535 -3.87469 49.3293C-4.71662 49.8528 -5.55854 50.3853 -6.40046 50.9267C-7.03131 51.3274 -7.66215 51.7304 -8.293 52.1359C-8.78849 51.5778 -9.28756 51.0161 -9.78842 50.4634C-10.4539 49.7216 -11.1223 48.9834 -11.7937 48.2489C-12.3971 47.5906 -13.0023 46.9347 -13.6093 46.2812C-14.2336 45.6444 -14.8382 44.9915 -15.4571 44.3618Z" fill="white"/>
<path d="M43.9835 66.2654L30.3036 67.87L31.3212 76.5452L45.0011 74.9406L43.9835 66.2654Z" fill="#EBEBEB"/>
<path d="M30.3019 67.8737C30.9172 68.337 31.5397 68.777 32.1569 69.2332C32.774 69.6893 33.4001 70.1186 34.0243 70.5551C34.6486 70.9916 35.3284 71.462 35.9813 71.911L36.0403 71.9539C36.6163 72.3487 37.1947 72.7428 37.7754 73.1363L37.8613 73.1918L37.9293 73.1184C38.4063 72.6021 38.8773 72.0839 39.3424 71.564C39.3605 71.5474 39.3772 71.5295 39.3925 71.5103C39.9256 70.9236 40.4562 70.3321 40.9845 69.7358C41.489 69.1706 41.9916 68.5946 42.4925 68.0204C42.9933 67.4462 43.4924 66.863 43.9825 66.2692C43.4459 66.7915 42.9271 67.3424 42.3995 67.8666C41.8718 68.3907 41.353 68.9398 40.8325 69.4961C40.2541 70.1019 39.6775 70.7155 39.1027 71.3368C38.6716 71.7983 38.2423 72.2634 37.8112 72.7267C37.2853 72.3689 36.7594 72.0201 36.2335 71.6731C35.5323 71.2044 34.8287 70.7405 34.1227 70.2814C33.4931 69.87 32.8604 69.4633 32.2248 69.0615C31.5755 68.6661 30.9423 68.2583 30.3019 67.8737Z" fill="white"/>
<path d="M39.1009 71.5408L39.1188 71.5533C39.1975 71.607 39.278 71.6606 39.3567 71.7107C39.7342 71.9611 40.117 72.1973 40.5069 72.4262C40.9809 72.7071 41.4639 72.9736 41.9487 73.2383C42.4334 73.5031 42.9236 73.7499 43.4208 73.9914C43.9181 74.2329 44.4172 74.469 44.9306 74.6765C44.4744 74.3617 44.0022 74.0737 43.5282 73.7946C43.0541 73.5156 42.5676 73.2455 42.0846 72.9825C41.6016 72.7196 41.1079 72.4674 40.6124 72.2259C40.2171 72.0327 39.8146 71.8449 39.4068 71.6714C39.3138 71.6308 39.219 71.5915 39.1224 71.5533L39.1009 71.5408Z" fill="white"/>
<path d="M31.3197 76.2685C31.7723 75.9466 32.2141 75.6013 32.6309 75.2525C33.0477 74.9037 33.4752 74.537 33.883 74.1792C34.2909 73.8215 34.7023 73.4405 35.0994 73.0559C35.4232 72.7446 35.7416 72.428 36.0493 72.0989L36.246 71.8878C36.2512 71.8828 36.256 71.8775 36.2603 71.8717C36.2546 71.8771 36.248 71.8814 36.2407 71.8842L35.992 72.0631C35.6343 72.3261 35.2908 72.5997 34.9474 72.8806C34.5198 73.2383 34.1048 73.5961 33.6952 73.9539C33.2856 74.3116 32.8759 74.6926 32.4788 75.0772C32.0817 75.4618 31.6918 75.8553 31.3197 76.2685Z" fill="white"/>
<path d="M33.2212 48.0397L30.8725 48.0898L29.6812 48.1095C29.2823 48.1184 28.8816 48.1095 28.4827 48.1202H28.404V48.0397L28.3932 46.038V45.9486H28.4827L30.851 45.9593C31.6399 45.9593 32.4305 45.9808 33.2194 45.9898H33.2695V46.038C33.2695 46.3779 33.2552 46.716 33.2462 47.0487L33.2212 48.0397ZM33.2212 48.0397L33.1979 47.0344C33.189 46.6999 33.1783 46.3708 33.1747 46.0434L33.223 46.0917C32.4341 46.1007 31.6435 46.1203 30.8546 46.1221L28.4863 46.1329L28.5757 46.0434V48.0451L28.4952 47.9646C28.8852 47.9646 29.2751 47.9646 29.6669 47.9753L30.8439 47.995L33.2212 48.0397Z" fill="#EBEBEB"/>
<path d="M30.5791 50.5636L28.2304 50.6137L27.0391 50.6333C26.642 50.6333 26.2413 50.6333 25.8424 50.6441H25.7637V50.5636L25.7548 48.5619V48.4653H25.8442L28.2126 48.4761C29.0014 48.4761 29.7921 48.4975 30.5809 48.5065H30.631V48.5548C30.631 48.8946 30.6167 49.2327 30.6077 49.5654L30.5791 50.5636ZM30.5791 50.5636L30.5541 49.5529C30.5451 49.2184 30.5344 48.8893 30.5308 48.5619L30.5791 48.6102C29.7903 48.6192 28.9996 48.6388 28.2108 48.6406L25.8424 48.6514L25.9318 48.5619L25.9211 50.5636L25.8424 50.4831C26.2324 50.4831 26.6223 50.4831 27.0123 50.4938L28.1893 50.5135L30.5791 50.5636Z" fill="#EBEBEB"/>
<path d="M35.8632 50.5636L33.5163 50.6137L32.325 50.6333C31.9261 50.6333 31.5254 50.6333 31.1265 50.6441H31.0514V50.5636L31.0406 48.5619V48.4653H31.1301L33.4984 48.4761C34.2891 48.4761 35.0779 48.4975 35.8668 48.5065H35.9169V48.5548C35.9169 48.8946 35.9008 49.2327 35.8918 49.5654L35.8632 50.5636ZM35.8632 50.5636L35.8382 49.5529C35.8382 49.2184 35.8185 48.8893 35.8149 48.5619L35.8632 48.6102C35.0744 48.6192 34.2855 48.6388 33.4949 48.6406L31.1265 48.6514L31.216 48.5619L31.207 50.5636L31.1265 50.4831C31.5165 50.4831 31.9064 50.4831 32.2982 50.4938L33.4752 50.5135L35.8632 50.5636Z" fill="#EBEBEB"/>
<path d="M44.8876 29.9138L42.539 29.9639L41.3476 29.9836C40.9487 29.9836 40.5498 29.9836 40.1509 29.9943H40.0704V29.9138L40.0615 27.9122V27.8228H40.1527L42.5211 27.8335C43.3099 27.8335 44.0988 27.855 44.8894 27.8639H44.9377V27.9122C44.9377 28.2521 44.9216 28.5901 44.9145 28.9229L44.8876 29.9138ZM44.8876 29.9138L44.8608 28.9032C44.8608 28.5687 44.8411 28.2395 44.8376 27.9122L44.8876 27.9605C44.097 27.9694 43.3081 27.9891 42.5193 27.9909L40.1509 28.0016L40.2386 27.9122L40.2296 29.9138L40.1509 29.8334C40.5409 29.8334 40.9291 29.8334 41.3208 29.8441L42.4996 29.862L44.8876 29.9138Z" fill="#EBEBEB"/>
<path d="M47.5297 32.4379L45.1828 32.488L43.9915 32.5077C43.5943 32.5077 43.1937 32.5077 42.7948 32.5184H42.7143V32.4379L42.7053 30.4362V30.3468H42.7948L45.1631 30.3575C45.952 30.3575 46.7408 30.379 47.5315 30.3879H47.5798V30.4362C47.5798 30.7761 47.5637 31.1142 47.5565 31.4469L47.5297 32.4379ZM47.5297 32.4379L47.5082 31.4272C47.4993 31.0927 47.4867 30.7636 47.4832 30.4362L47.5333 30.4845C46.7426 30.4935 45.9538 30.5132 45.1649 30.5149L42.7966 30.5257L42.886 30.4362L42.8753 32.4379L42.7966 32.3574C43.1865 32.3574 43.5747 32.3574 43.9664 32.3681L45.1434 32.3878L47.5297 32.4379Z" fill="#EBEBEB"/>
<path d="M42.793 76.4617L45.1399 76.4116L46.3312 76.392C46.7301 76.383 47.1308 76.392 47.5297 76.3812H47.6084V76.4617L47.6191 78.4634V78.5528H47.5297L45.1613 78.5403C44.3707 78.5403 43.5818 78.5206 42.793 78.5117H42.7429V78.4634C42.7429 78.1235 42.759 77.7854 42.7661 77.4509L42.793 76.4617ZM42.793 76.4617L42.818 77.4724C42.818 77.8051 42.8377 78.136 42.8413 78.4634L42.793 78.4133C43.5818 78.4043 44.3707 78.3865 45.1613 78.3847L47.5297 78.3739L47.4402 78.4634L47.4492 76.4617L47.5297 76.5404C47.1397 76.5404 46.7498 76.5404 46.358 76.5315L45.181 76.5118L42.793 76.4617Z" fill="#EBEBEB"/>
<path d="M23.4973 43.8522H47.8696V42.405H23.4973V43.8522Z" fill="#EBEBEB"/>
<path d="M46.0199 43.8522H44.5728V48.639H46.0199V43.8522Z" fill="#EBEBEB"/>
<path d="M46.0199 43.8522H44.5728V45.3315H46.0199V43.8522Z" fill="#DBDBDB"/>
<path d="M26.7941 43.8522H25.3469V48.639H26.7941V43.8522Z" fill="#EBEBEB"/>
<path d="M26.7941 43.8522H25.3469V45.3315H26.7941V43.8522Z" fill="#DBDBDB"/>
<path d="M41.7108 42.4049V33.1819H39.3889V42.4049H41.7108Z" fill="#C7C7C7"/>
<path d="M41.7126 33.7042V32.6899H39.3907V33.7042H41.7126Z" fill="#DBDBDB"/>
<path d="M41.7108 35.3767V35.0011H39.3889V35.3767H41.7108Z" fill="#DBDBDB"/>
<path d="M41.7126 41.1975V40.1832H39.1009V41.1975H41.7126Z" fill="#DBDBDB"/>
<path d="M39.3889 42.4068V31.6472H37.7665V42.4068H39.3889Z" fill="#DBDBDB"/>
<path d="M39.0723 36.7953V32.6578H38.0974V36.7953H39.0723Z" fill="#EBEBEB"/>
<path d="M27.3597 42.4125L35.0115 34.8483L33.8709 33.6944L26.2191 41.2587L27.3597 42.4125Z" fill="#C7C7C7"/>
<path d="M28.9237 40.4021L31.8661 37.4934L31.1807 36.8001L28.2383 39.7088L28.9237 40.4021Z" fill="#DBDBDB"/>
<path d="M37.7665 42.4086V34.2356H35.01V42.4086H37.7665Z" fill="#A6A6A6"/>
<path d="M37.7647 41.541V40.7789H35.0082V41.541H37.7647Z" fill="#C7C7C7"/>
<path d="M37.7647 40.2799V39.9847H35.0082V40.2799H37.7647Z" fill="#C7C7C7"/>
<path d="M43.6158 42.4085V34.7274H41.7108V42.4085H43.6158Z" fill="#A6A6A6"/>
<path d="M43.6158 41.5928V40.8773H41.7108V41.5928H43.6158Z" fill="#C7C7C7"/>
<path d="M43.614 37.0244V36.3088H41.709V37.0244H43.614Z" fill="#C7C7C7"/>
<path d="M43.6158 37.7934V37.5161H41.7108V37.7934H43.6158Z" fill="#C7C7C7"/>
<path d="M38.7664 83.9138C41.3727 86.4647 41.8073 90.4125 41.26 93.8702C41.2456 93.9489 41.124 93.9275 41.124 93.8541C41.124 93.0671 41.1491 92.2872 41.1455 91.509C41.1312 91.4733 41.1204 91.4393 41.1061 91.4035C40.4264 90.9098 39.8003 90.3517 39.4121 89.5843C38.9775 88.7293 38.8057 87.7633 38.473 86.8689C38.4426 86.7831 38.5338 86.8081 38.5929 86.8528C40.1795 88.0227 40.684 89.2802 41.1383 90.967C41.129 90.0874 41.0367 89.2106 40.8628 88.3482C40.5212 86.7526 39.8432 85.1714 38.6966 83.9872C38.6869 83.9779 38.6812 83.9652 38.6809 83.9518C38.6806 83.9384 38.6856 83.9254 38.6948 83.9156C38.7041 83.9059 38.7168 83.9003 38.7302 83.8999C38.7437 83.8996 38.7567 83.9046 38.7664 83.9138Z" fill="#263238"/>
<path d="M38.2763 84.2107C37.8273 84.2268 37.5464 84.9423 37.203 85.1516C37.1663 85.1814 37.1238 85.2031 37.0782 85.2154C37.0325 85.2277 36.9849 85.2303 36.9382 85.2231C36.8915 85.2159 36.8468 85.1989 36.8071 85.1733C36.7674 85.1478 36.7334 85.1142 36.7075 85.0747C36.3605 84.5899 36.8363 84.0014 37.2835 83.6615C36.9633 83.7921 36.6985 84.0193 36.3533 84.0891C36.3092 84.1033 36.2626 84.108 36.2166 84.1026C36.1706 84.0973 36.1262 84.0822 36.0865 84.0583C36.0469 84.0344 36.0128 84.0023 35.9866 83.9641C35.9604 83.9259 35.9427 83.8825 35.9347 83.8368C35.7827 83.1786 36.6091 82.8852 37.1761 82.8709C36.9007 82.6813 36.1136 82.1554 36.5322 81.9049C36.9508 81.6545 37.8809 82.3915 38.1832 82.6366C38.6251 82.9943 39.1546 83.531 39.1742 84.0962C39.1957 84.7527 38.6215 84.3484 38.2763 84.2107Z" fill="#EE6F57"/>
<path opacity="0.1" d="M38.2763 84.2107C37.8273 84.2268 37.5464 84.9423 37.203 85.1516C37.1663 85.1814 37.1238 85.2031 37.0782 85.2154C37.0325 85.2277 36.9849 85.2303 36.9382 85.2231C36.8915 85.2159 36.8468 85.1989 36.8071 85.1733C36.7674 85.1478 36.7334 85.1142 36.7075 85.0747C36.3605 84.5899 36.8363 84.0014 37.2835 83.6615C36.9633 83.7921 36.6985 84.0193 36.3533 84.0891C36.3092 84.1033 36.2626 84.108 36.2166 84.1026C36.1706 84.0973 36.1262 84.0822 36.0865 84.0583C36.0469 84.0344 36.0128 84.0023 35.9866 83.9641C35.9604 83.9259 35.9427 83.8825 35.9347 83.8368C35.7827 83.1786 36.6091 82.8852 37.1761 82.8709C36.9007 82.6813 36.1136 82.1554 36.5322 81.9049C36.9508 81.6545 37.8809 82.3915 38.1832 82.6366C38.6251 82.9943 39.1546 83.531 39.1742 84.0962C39.1957 84.7527 38.6215 84.3484 38.2763 84.2107Z" fill="black"/>
<path d="M38.405 84.3217C37.8326 84.0605 36.7307 84.4362 36.6377 84.2197C36.4481 83.7779 37.3282 83.4738 37.8022 83.4166C37.3658 83.2967 36.5268 83.1089 36.5501 82.6867C36.5823 82.1716 37.8362 82.6152 38.4712 83.1017C39.2708 83.7153 39.2654 84.3056 39.1331 84.4254C38.9542 84.5864 38.4998 84.3646 38.405 84.3217Z" fill="#EE6F57"/>
<path d="M44.7016 83.6616C42.0005 86.1122 41.412 90.0404 41.8306 93.516C41.8413 93.5947 41.9629 93.5786 41.9665 93.5035C41.9951 92.7182 42.0023 91.9365 42.0345 91.1602L42.0774 91.0564C42.7768 90.5895 43.4226 90.0547 43.8394 89.3034C44.3062 88.4644 44.5137 87.5057 44.8804 86.6202C44.9162 86.5361 44.8232 86.5576 44.7624 86.5987C43.1328 87.7078 42.5801 88.9456 42.0613 90.6092C42.1051 89.7307 42.2309 88.8581 42.437 88.0029C42.8394 86.4217 43.5764 84.8672 44.7624 83.7277C44.8125 83.6884 44.7481 83.6168 44.7016 83.6616Z" fill="#263238"/>
<path d="M45.1828 83.9764C45.6299 84.0086 45.884 84.7349 46.2256 84.9585C46.2611 84.9897 46.3027 85.0131 46.3478 85.0271C46.393 85.0412 46.4405 85.0455 46.4874 85.04C46.5344 85.0344 46.5796 85.019 46.6201 84.9948C46.6607 84.9706 46.6957 84.9381 46.7229 84.8994C47.0807 84.429 46.6352 83.8154 46.2024 83.4684C46.5154 83.6115 46.7712 83.853 47.1129 83.9317C47.1564 83.9479 47.203 83.9545 47.2494 83.9511C47.2957 83.9476 47.3408 83.9343 47.3815 83.9119C47.4223 83.8895 47.4577 83.8585 47.4854 83.8212C47.5131 83.7839 47.5325 83.7411 47.5422 83.6956C47.721 83.0445 46.9036 82.7189 46.3383 82.6831C46.6209 82.5043 47.4277 82.0141 47.018 81.7422C46.6084 81.4703 45.6532 82.1769 45.342 82.4112C44.8858 82.7529 44.3367 83.2699 44.2955 83.8315C44.2401 84.4827 44.825 84.1016 45.1828 83.9764Z" fill="#EE6F57"/>
<path opacity="0.1" d="M45.1828 83.9764C45.6299 84.0086 45.884 84.7349 46.2256 84.9585C46.2611 84.9897 46.3027 85.0131 46.3478 85.0271C46.393 85.0412 46.4405 85.0455 46.4874 85.04C46.5344 85.0344 46.5796 85.019 46.6201 84.9948C46.6607 84.9706 46.6957 84.9381 46.7229 84.8994C47.0807 84.429 46.6352 83.8154 46.2024 83.4684C46.5154 83.6115 46.7712 83.853 47.1129 83.9317C47.1564 83.9479 47.203 83.9545 47.2494 83.9511C47.2957 83.9476 47.3408 83.9343 47.3815 83.9119C47.4223 83.8895 47.4577 83.8585 47.4854 83.8212C47.5131 83.7839 47.5325 83.7411 47.5422 83.6956C47.721 83.0445 46.9036 82.7189 46.3383 82.6831C46.6209 82.5043 47.4277 82.0141 47.018 81.7422C46.6084 81.4703 45.6532 82.1769 45.342 82.4112C44.8858 82.7529 44.3367 83.2699 44.2955 83.8315C44.2401 84.4827 44.825 84.1016 45.1828 83.9764Z" fill="black"/>
<path d="M45.045 84.082C45.6282 83.8441 46.7139 84.2609 46.8159 84.048C47.0234 83.6133 46.1558 83.277 45.6818 83.2001C46.1236 83.0981 46.9697 82.9407 46.959 82.5186C46.9483 82.0034 45.6782 82.3987 45.0253 82.8602C44.2025 83.4434 44.1846 84.0337 44.3098 84.1571C44.4869 84.327 44.9502 84.1213 45.045 84.082Z" fill="#EE6F57"/>
<path d="M41.9397 90.1334C41.7563 91.4439 41.4758 92.739 41.1007 94.0079C41.0983 94.0204 41.0934 94.0322 41.0863 94.0428C41.0793 94.0533 41.0702 94.0624 41.0597 94.0695C41.0491 94.0765 41.0373 94.0814 41.0249 94.0839C41.0124 94.0864 40.9996 94.0864 40.9871 94.084C40.9747 94.0815 40.9628 94.0766 40.9523 94.0696C40.9417 94.0625 40.9327 94.0535 40.9256 94.0429C40.9185 94.0324 40.9136 94.0205 40.9111 94.0081C40.9087 93.9956 40.9087 93.9828 40.9111 93.9704C41.09 92.7755 41.412 91.6038 41.5891 90.4089C41.7833 89.2011 41.8528 87.9764 41.7966 86.7544C41.6839 84.742 41.1365 82.6026 39.8289 81.0303C39.8003 80.9945 39.8611 80.9408 39.8915 80.9748C42.5192 84.0408 42.1025 87.799 42.0989 88.13C42.4709 86.8617 42.8555 85.4074 44.2633 84.1141C44.3241 84.0587 44.3706 84.0855 44.3617 84.1803C44.1095 86.5344 43.4548 87.7579 42.0899 89.0208C42.047 89.3946 41.9987 89.7667 41.9397 90.1334Z" fill="#263238"/>
<path d="M39.8003 81.3791C39.328 81.168 38.6751 81.7708 38.2065 81.8119C38.1534 81.8244 38.0982 81.8255 38.0447 81.8153C37.9911 81.805 37.9403 81.7835 37.8956 81.7523C37.8508 81.7211 37.8132 81.6808 37.7851 81.6341C37.757 81.5873 37.739 81.5352 37.7324 81.481C37.6162 80.8066 38.4104 80.4256 39.0418 80.3058C38.6429 80.2807 38.253 80.3863 37.863 80.2807C37.81 80.2738 37.7592 80.2555 37.7139 80.2271C37.6686 80.1987 37.63 80.161 37.6007 80.1163C37.5713 80.0717 37.5519 80.0212 37.5438 79.9684C37.5356 79.9156 37.539 79.8617 37.5536 79.8103C37.7324 79.0501 38.7324 79.161 39.328 79.4329C39.1384 79.0966 38.5821 78.1592 39.1492 78.1056C39.7162 78.0519 40.3047 79.2897 40.4943 79.6958C40.7734 80.2915 41.0506 81.1143 40.7877 81.7082C40.4818 82.404 40.0883 81.6957 39.8003 81.3791Z" fill="#EE6F57"/>
<path opacity="0.1" d="M39.8003 81.3791C39.328 81.168 38.6751 81.7708 38.2065 81.8119C38.1534 81.8244 38.0982 81.8255 38.0447 81.8153C37.9911 81.805 37.9403 81.7835 37.8956 81.7523C37.8508 81.7211 37.8132 81.6808 37.7851 81.6341C37.757 81.5873 37.739 81.5352 37.7324 81.481C37.6162 80.8066 38.4104 80.4256 39.0418 80.3058C38.6429 80.2807 38.253 80.3863 37.863 80.2807C37.81 80.2738 37.7592 80.2555 37.7139 80.2271C37.6686 80.1987 37.63 80.161 37.6007 80.1163C37.5713 80.0717 37.5519 80.0212 37.5438 79.9684C37.5356 79.9156 37.539 79.8617 37.5536 79.8103C37.7324 79.0501 38.7324 79.161 39.328 79.4329C39.1384 79.0966 38.5821 78.1592 39.1492 78.1056C39.7162 78.0519 40.3047 79.2897 40.4943 79.6958C40.7734 80.2915 41.0506 81.1143 40.7877 81.7082C40.4818 82.404 40.0883 81.6957 39.8003 81.3791Z" fill="black"/>
<path d="M39.879 81.5579C39.4157 80.9998 38.0902 80.8335 38.0902 80.5616C38.1153 80.0088 39.1814 80.1358 39.7001 80.3147C39.3066 79.9713 38.532 79.3541 38.7699 78.9284C39.0633 78.4097 40.1402 79.5008 40.5587 80.3255C41.0793 81.3647 40.7752 81.9765 40.5784 82.032C40.3137 82.1125 39.9559 81.6527 39.879 81.5579Z" fill="#EE6F57"/>
<path d="M43.6676 90.8418L44.825 99.6999H37.7736C37.9185 98.9146 39.2315 90.8311 39.2315 90.8311L43.6676 90.8418Z" fill="#EE6F57"/>
<path d="M32.6004 29.9156H1.77786C1.3645 29.9194 0.955926 30.0045 0.575491 30.1662C0.195056 30.328 -0.149786 30.563 -0.439332 30.8581C-0.728878 31.1531 -0.957454 31.5023 -1.11199 31.8857C-1.26653 32.2691 -1.34401 32.6792 -1.34 33.0925V96.5426C-1.34715 97.3772 -1.02284 98.1804 -0.438276 98.7761C0.146291 99.3717 0.943335 99.711 1.77786 99.7195H32.6004C33.4354 99.7115 34.2331 99.3724 34.8184 98.7768C35.4036 98.1812 35.7286 97.3776 35.7219 96.5426V33.0925C35.7257 32.6789 35.6479 32.2687 35.493 31.8851C35.3382 31.5016 35.1093 31.1524 34.8194 30.8573C34.5295 30.5623 34.1844 30.3273 33.8036 30.1657C33.4229 30.0041 33.014 29.9192 32.6004 29.9156ZM33.7721 94.5803C33.7721 96.2511 32.52 97.6016 30.978 97.6016H3.40386C1.85835 97.6016 0.606201 96.2511 0.606201 94.5803V35.4967C0.606201 32.098 1.85835 31.9191 3.40386 31.9191H8.92764C9.24962 31.9191 9.51257 32.2768 9.51257 32.7366V32.9315C9.51257 33.9905 10.0921 33.9941 10.8023 33.9941H23.576C24.2915 33.9941 24.8711 33.9941 24.8711 32.9315V32.7455C24.8711 32.2929 25.1305 31.928 25.456 31.928H30.978C32.5217 31.928 33.7721 32.3806 33.7721 35.5056V94.5803Z" fill="#263238"/>
<path d="M33.7739 35.4966V94.5803C33.7739 96.251 32.5218 97.6016 30.9798 97.6016H3.40567C1.86015 97.6016 0.608002 96.251 0.608002 94.5803V35.4966C0.608002 32.0979 1.86015 31.9191 3.40567 31.9191H8.92944C9.25142 31.9191 9.51438 32.2768 9.51438 32.7365V32.9315C9.51438 33.9905 10.0939 33.9941 10.8041 33.9941H23.5778C24.2933 33.9941 24.8729 33.9941 24.8729 32.9315V32.7455C24.8729 32.2929 25.1323 31.928 25.4578 31.928H30.9798C32.5235 31.928 33.7739 32.3806 33.7739 35.4966Z" fill="white"/>
<path d="M33.7739 35.4985V40.8648H0.608002V35.4985C0.608002 32.0998 1.86015 31.9209 3.40567 31.9209H8.92944C9.25142 31.9209 9.51438 32.2787 9.51438 32.7384V32.9334C9.51438 33.9923 10.0939 33.9959 10.8041 33.9959H23.5778C24.2933 33.9959 24.8729 33.9959 24.8729 32.9334V32.7473C24.8729 32.2948 25.1323 31.9298 25.4578 31.9298H30.9798C32.5235 31.9298 33.7739 32.3824 33.7739 35.4985Z" fill="#EE6F57"/>
<path d="M18.9323 32.6292H15.4478C15.3907 32.6287 15.3361 32.6057 15.2959 32.5652C15.2557 32.5247 15.2331 32.4699 15.2331 32.4128C15.2331 32.3846 15.2387 32.3567 15.2495 32.3306C15.2602 32.3046 15.2761 32.2809 15.296 32.261C15.3159 32.2411 15.3396 32.2252 15.3656 32.2145C15.3917 32.2037 15.4196 32.1981 15.4478 32.1981H18.9323C18.9605 32.1981 18.9884 32.2037 19.0145 32.2145C19.0405 32.2252 19.0642 32.2411 19.0841 32.261C19.1041 32.2809 19.1199 32.3046 19.1306 32.3306C19.1414 32.3567 19.147 32.3846 19.147 32.4128C19.1472 32.4411 19.1418 32.4692 19.1312 32.4955C19.1205 32.5217 19.1047 32.5456 19.0848 32.5657C19.0648 32.5858 19.0411 32.6018 19.0149 32.6127C18.9887 32.6236 18.9607 32.6292 18.9323 32.6292Z" fill="white"/>
<path d="M5.64879 36.9814H2.77063V38.806H5.64879V36.9814Z" fill="white"/>
<path d="M5.65058 36.9814C5.53431 37.0924 5.41625 37.1997 5.29282 37.3088L4.93506 37.629L4.57731 37.9581L4.56657 37.9689L4.21955 38.2569L4.20345 38.2694L4.18735 38.2569L3.86179 37.9671H3.85106C3.72584 37.858 3.60063 37.7488 3.4772 37.6379L3.11945 37.3177C3.00317 37.2086 2.88511 37.1013 2.76169 36.9904C2.88511 37.087 3.00675 37.1854 3.11945 37.2837C3.23214 37.3821 3.36272 37.4823 3.4772 37.5843C3.59169 37.6862 3.74731 37.8097 3.88147 37.9241L4.18198 38.1817L4.48429 37.9241L4.88677 37.5843L5.24452 37.2855L5.65058 36.9814Z" fill="#EE6F57"/>
<path d="M3.91009 37.9563L3.86358 37.9939C3.79202 38.0547 3.7169 38.1137 3.64177 38.1727C3.56664 38.2318 3.46289 38.3087 3.36272 38.3749C3.26255 38.4411 3.17311 38.5055 3.07651 38.5681C2.97992 38.6307 2.87974 38.6915 2.77957 38.7469C2.86543 38.67 2.95845 38.5985 3.04789 38.5287C3.13733 38.4589 3.22677 38.3928 3.32873 38.3266C3.43069 38.2604 3.51834 38.196 3.61493 38.1334C3.71153 38.0708 3.77235 38.035 3.85284 37.9885C3.87073 37.9773 3.88924 37.9672 3.9083 37.9581L3.91009 37.9563Z" fill="#EE6F57"/>
<path d="M5.6506 38.7487C5.54863 38.6932 5.45025 38.6324 5.35366 38.5698C5.25706 38.5072 5.16047 38.4428 5.06566 38.3766C4.97086 38.3104 4.87784 38.2442 4.78661 38.1745C4.69538 38.1047 4.63814 38.06 4.56659 37.9956L4.52008 37.958L4.57554 37.9902C4.65663 38.0367 4.73533 38.085 4.81165 38.1351C4.91004 38.1977 5.00484 38.2621 5.09965 38.3283C5.19445 38.3945 5.28747 38.4607 5.3787 38.5304C5.46993 38.6002 5.554 38.6717 5.6506 38.7487Z" fill="#EE6F57"/>
<path d="M6.26594 36.9814C6.26594 37.1035 6.2297 37.2229 6.16181 37.3244C6.09392 37.426 5.99743 37.5051 5.88456 37.5517C5.77169 37.5984 5.64751 37.6105 5.52775 37.5865C5.40799 37.5626 5.29803 37.5036 5.2118 37.4171C5.12556 37.3306 5.06693 37.2205 5.04332 37.1007C5.01971 36.9809 5.03219 36.8567 5.07917 36.744C5.12615 36.6313 5.20553 36.535 5.30725 36.4674C5.40897 36.3998 5.52847 36.3639 5.6506 36.3643C5.81396 36.3647 5.97047 36.43 6.08582 36.5456C6.20117 36.6613 6.26594 36.818 6.26594 36.9814Z" fill="#455A64"/>
<path d="M5.85273 37.1047C5.85226 37.1177 5.84678 37.13 5.83744 37.139C5.82809 37.148 5.81562 37.153 5.80264 37.153V37.221C5.80045 37.2324 5.79434 37.2427 5.78536 37.2502C5.77638 37.2576 5.7651 37.2616 5.75345 37.2616C5.7418 37.2616 5.73051 37.2576 5.72154 37.2502C5.71256 37.2427 5.70645 37.2324 5.70426 37.221V37.153H5.42521C5.41967 37.1535 5.41409 37.1527 5.40885 37.1509C5.40361 37.149 5.39882 37.1461 5.3948 37.1423C5.39014 37.1379 5.38642 37.1327 5.38388 37.1268C5.38134 37.121 5.38004 37.1147 5.38004 37.1083C5.38004 37.1019 5.38134 37.0956 5.38388 37.0898C5.38642 37.0839 5.39014 37.0787 5.3948 37.0743L5.70604 36.6593H5.72035H5.74898V37.0171C5.7606 37.0033 5.77721 36.9947 5.79516 36.9932C5.81311 36.9917 5.83092 36.9974 5.84468 37.009C5.85843 37.0206 5.86701 37.0372 5.86852 37.0552C5.87003 37.0731 5.86435 37.091 5.85273 37.1047ZM5.69531 36.8364L5.51643 37.0564H5.69531V36.8364Z" fill="white"/>
<path d="M7.97602 33.2035L7.92235 33.2572L7.89195 33.2876C7.75546 33.1514 7.5705 33.0749 7.37767 33.0749C7.18484 33.0749 6.99988 33.1514 6.86339 33.2876L6.83477 33.2572C6.81688 33.2393 6.799 33.2232 6.7829 33.2053L6.85087 33.1445C6.89844 33.1053 6.95072 33.0723 7.0065 33.0461C7.07197 33.0131 7.14185 32.9896 7.214 32.9763C7.24798 32.9763 7.28197 32.9763 7.31596 32.962H7.40719H7.47695C7.5419 32.9693 7.60564 32.9849 7.66656 33.0085C7.71108 33.0246 7.75416 33.0443 7.79535 33.0676C7.83869 33.0929 7.87996 33.1216 7.91878 33.1534L7.97423 33.2053L7.97602 33.2035Z" fill="white"/>
<path d="M7.03155 33.4557L6.94748 33.3716C7.03787 33.2751 7.15831 33.212 7.28914 33.1927C7.38331 33.1795 7.47928 33.1888 7.56915 33.2199C7.65902 33.251 7.74023 33.303 7.8061 33.3716L7.72202 33.4557C7.63018 33.3647 7.50603 33.3139 7.37679 33.3144C7.31275 33.3138 7.24925 33.3261 7.18998 33.3503C7.13071 33.3746 7.07685 33.4104 7.03155 33.4557Z" fill="white"/>
<path d="M7.63796 33.5397C7.60934 33.5665 7.58072 33.5951 7.55389 33.6237C7.53061 33.6 7.50274 33.5813 7.47199 33.5687C7.44124 33.5561 7.40824 33.5499 7.37501 33.5504C7.34175 33.5496 7.3087 33.5558 7.27791 33.5684C7.24713 33.581 7.21929 33.5998 7.19613 33.6237L7.11206 33.5397C7.14636 33.5047 7.18728 33.477 7.23243 33.458C7.27758 33.4391 7.32605 33.4293 7.37501 33.4293C7.42397 33.4293 7.47245 33.4391 7.51759 33.458C7.56274 33.477 7.60366 33.5047 7.63796 33.5397Z" fill="white"/>
<path d="M7.45191 33.6989C7.45227 33.7143 7.44801 33.7294 7.4397 33.7423C7.43138 33.7552 7.41939 33.7654 7.40526 33.7714C7.39114 33.7775 7.37553 33.7791 7.36044 33.7762C7.34536 33.7733 7.33149 33.7659 7.32063 33.7551C7.30976 33.7442 7.3024 33.7304 7.29949 33.7153C7.29658 33.7002 7.29825 33.6846 7.30429 33.6704C7.31034 33.6563 7.32047 33.6443 7.33339 33.636C7.34631 33.6277 7.36142 33.6234 7.37678 33.6238C7.39671 33.6238 7.41582 33.6317 7.42991 33.6458C7.444 33.6599 7.45191 33.679 7.45191 33.6989Z" fill="white"/>
<path d="M2.77063 33.3644C2.77063 33.3209 2.78354 33.2784 2.80771 33.2422C2.83189 33.206 2.86625 33.1778 2.90645 33.1612C2.94666 33.1445 2.9909 33.1401 3.03358 33.1486C3.07626 33.1571 3.11546 33.1781 3.14623 33.2089C3.177 33.2396 3.19796 33.2788 3.20644 33.3215C3.21493 33.3642 3.21058 33.4084 3.19392 33.4486C3.17727 33.4888 3.14907 33.5232 3.11289 33.5474C3.07671 33.5715 3.03417 33.5845 2.99065 33.5845C2.96176 33.5845 2.93315 33.5788 2.90645 33.5677C2.87976 33.5566 2.8555 33.5404 2.83507 33.52C2.81464 33.4996 2.79844 33.4753 2.78738 33.4486C2.77632 33.4219 2.77063 33.3933 2.77063 33.3644Z" fill="white"/>
<path d="M3.46289 33.3644C3.46289 33.3209 3.47579 33.2784 3.49997 33.2422C3.52415 33.206 3.55851 33.1778 3.59871 33.1612C3.63892 33.1445 3.68315 33.1401 3.72583 33.1486C3.76851 33.1571 3.80772 33.1781 3.83849 33.2089C3.86926 33.2396 3.89021 33.2788 3.8987 33.3215C3.90719 33.3642 3.90284 33.4084 3.88618 33.4486C3.86953 33.4888 3.84133 33.5232 3.80515 33.5474C3.76897 33.5715 3.72643 33.5845 3.68291 33.5845C3.62456 33.5845 3.5686 33.5613 3.52733 33.52C3.48607 33.4787 3.46289 33.4228 3.46289 33.3644Z" fill="white"/>
<path d="M4.15515 33.3644C4.15515 33.3209 4.16806 33.2784 4.19223 33.2422C4.21641 33.206 4.25077 33.1778 4.29097 33.1612C4.33118 33.1445 4.37542 33.1401 4.4181 33.1486C4.46078 33.1571 4.49998 33.1781 4.53075 33.2089C4.56152 33.2396 4.58248 33.2788 4.59097 33.3215C4.59946 33.3642 4.5951 33.4084 4.57845 33.4486C4.56179 33.4888 4.53359 33.5232 4.49741 33.5474C4.46123 33.5715 4.41869 33.5845 4.37517 33.5845C4.31682 33.5845 4.26086 33.5613 4.21959 33.52C4.17833 33.4787 4.15515 33.4228 4.15515 33.3644Z" fill="white"/>
<path d="M4.84741 33.3644C4.84741 33.3209 4.86032 33.2784 4.88449 33.2422C4.90867 33.206 4.94303 33.1778 4.98324 33.1612C5.02344 33.1445 5.06768 33.1401 5.11036 33.1486C5.15304 33.1571 5.19224 33.1781 5.22301 33.2089C5.25378 33.2396 5.27474 33.2788 5.28323 33.3215C5.29172 33.3642 5.28736 33.4084 5.27071 33.4486C5.25405 33.4888 5.22585 33.5232 5.18967 33.5474C5.15349 33.5715 5.11095 33.5845 5.06743 33.5845C5.03854 33.5845 5.00993 33.5788 4.98324 33.5677C4.95654 33.5566 4.93229 33.5404 4.91185 33.52C4.89142 33.4996 4.87522 33.4753 4.86416 33.4486C4.8531 33.4219 4.84741 33.3933 4.84741 33.3644Z" fill="white"/>
<path d="M5.53967 33.3644C5.53967 33.3209 5.55258 33.2784 5.57675 33.2422C5.60093 33.206 5.63529 33.1778 5.67549 33.1612C5.7157 33.1445 5.75994 33.1401 5.80262 33.1486C5.8453 33.1571 5.8845 33.1781 5.91527 33.2089C5.94604 33.2396 5.967 33.2788 5.97549 33.3215C5.98397 33.3642 5.97962 33.4084 5.96297 33.4486C5.94631 33.4888 5.91811 33.5232 5.88193 33.5474C5.84575 33.5715 5.80321 33.5845 5.75969 33.5845C5.7308 33.5845 5.70219 33.5788 5.67549 33.5677C5.6488 33.5566 5.62455 33.5404 5.60412 33.52C5.58368 33.4996 5.56748 33.4753 5.55642 33.4486C5.54536 33.4219 5.53967 33.3933 5.53967 33.3644Z" fill="white"/>
<path d="M31.2839 33.8456H29.4951V33.0156H31.2839V33.8456ZM29.5863 33.7544H31.1963V33.1069H29.5863V33.7544Z" fill="white"/>
<path d="M30.7973 33.1569H29.6436V33.7042H30.7973V33.1569Z" fill="white"/>
<path d="M31.4449 33.2087H31.2857V33.6524H31.4449V33.2087Z" fill="white"/>
<path d="M14.3369 37.3355C14.3367 37.3213 14.3393 37.3073 14.3446 37.2941C14.3499 37.281 14.3578 37.2691 14.3678 37.2591C14.3778 37.249 14.3898 37.2411 14.4029 37.2358C14.416 37.2305 14.4301 37.2279 14.4443 37.2282C14.4585 37.2279 14.4726 37.2305 14.4859 37.2358C14.4991 37.2411 14.5111 37.249 14.5213 37.259C14.5315 37.269 14.5395 37.2809 14.545 37.294C14.5505 37.3071 14.5534 37.3212 14.5534 37.3355V38.4821C14.5534 38.4964 14.5505 38.5105 14.545 38.5236C14.5395 38.5367 14.5315 38.5486 14.5213 38.5586C14.5111 38.5686 14.4991 38.5765 14.4859 38.5818C14.4726 38.5871 14.4585 38.5897 14.4443 38.5894C14.4301 38.5897 14.416 38.5871 14.4029 38.5818C14.3898 38.5764 14.3778 38.5686 14.3678 38.5585C14.3578 38.5485 14.3499 38.5366 14.3446 38.5235C14.3393 38.5103 14.3367 38.4963 14.3369 38.4821V37.3355Z" fill="white"/>
<path d="M15.1312 38.4822C15.1312 38.5104 15.1201 38.5374 15.1004 38.5575C15.0806 38.5775 15.0538 38.5891 15.0256 38.5895C15.0116 38.5895 14.9978 38.5867 14.9848 38.5813C14.9719 38.5759 14.9602 38.568 14.9504 38.558C14.9405 38.548 14.9328 38.5361 14.9276 38.5231C14.9224 38.5101 14.9199 38.4962 14.9201 38.4822V37.3517C14.9188 37.3345 14.922 37.3173 14.9292 37.3017C14.9364 37.286 14.9474 37.2725 14.9612 37.2622C14.9843 37.2464 15.0125 37.2399 15.0401 37.2442C15.0677 37.2486 15.0927 37.2633 15.1097 37.2855L15.7376 38.1548V37.3517C15.738 37.324 15.7494 37.2976 15.7691 37.2782C15.7889 37.2588 15.8154 37.2479 15.8431 37.2479C15.871 37.2479 15.8977 37.2587 15.9178 37.2781C15.9378 37.2975 15.9495 37.3238 15.9504 37.3517V38.4822C15.9504 38.5107 15.9391 38.538 15.919 38.5581C15.8989 38.5782 15.8716 38.5895 15.8431 38.5895C15.8277 38.589 15.8125 38.5853 15.7986 38.5785C15.7848 38.5717 15.7725 38.5621 15.7626 38.5502V38.5394L15.1312 37.6755V38.4822Z" fill="white"/>
<path d="M16.4173 38.4821V37.3355C16.4173 37.307 16.4286 37.2797 16.4487 37.2596C16.4689 37.2395 16.4962 37.2281 16.5246 37.2281H16.8001C16.898 37.2281 16.9919 37.2669 17.0613 37.336C17.1307 37.405 17.1699 37.4987 17.1704 37.5966C17.1709 37.6769 17.1445 37.755 17.0952 37.8184C17.1722 37.8662 17.2314 37.9376 17.2642 38.022C17.2969 38.1063 17.3012 38.1991 17.2766 38.2861C17.2519 38.3732 17.1996 38.4499 17.1275 38.5046C17.0554 38.5593 16.9675 38.5891 16.877 38.5894H16.5318C16.5171 38.5904 16.5024 38.5883 16.4885 38.5834C16.4746 38.5784 16.462 38.5707 16.4512 38.5606C16.4405 38.5506 16.4319 38.5384 16.4261 38.5249C16.4203 38.5114 16.4173 38.4968 16.4173 38.4821ZM16.6337 37.7558H16.8001C16.8415 37.7549 16.8809 37.7377 16.9097 37.7079C16.9385 37.678 16.9544 37.6381 16.9539 37.5966C16.9539 37.5765 16.9499 37.5566 16.9422 37.538C16.9344 37.5195 16.9231 37.5026 16.9088 37.4885C16.8945 37.4743 16.8775 37.4632 16.8588 37.4556C16.8402 37.4481 16.8202 37.4444 16.8001 37.4446H16.6337V37.7558ZM16.6337 38.373H16.877C16.9271 38.3682 16.9736 38.345 17.0075 38.3078C17.0414 38.2706 17.0602 38.2221 17.0602 38.1717C17.0602 38.1214 17.0414 38.0729 17.0075 38.0357C16.9736 37.9985 16.9271 37.9752 16.877 37.9705H16.6337V38.373Z" fill="white"/>
<path d="M18.6461 37.3964C18.7725 37.5294 18.8429 37.7058 18.8429 37.8892C18.8429 38.0726 18.7725 38.2491 18.6461 38.382C18.5869 38.4466 18.5151 38.4983 18.4351 38.534C18.3551 38.5697 18.2686 38.5886 18.181 38.5895C18.0918 38.5889 18.0037 38.5702 17.9219 38.5345C17.8401 38.4989 17.7664 38.447 17.7052 38.382C17.5809 38.248 17.5118 38.072 17.5118 37.8892C17.5118 37.7064 17.5809 37.5304 17.7052 37.3964C17.7667 37.3324 17.8407 37.2817 17.9225 37.2472C18.0043 37.2128 18.0923 37.1954 18.181 37.1961C18.2682 37.1958 18.3544 37.2134 18.4344 37.2479C18.5144 37.2823 18.5865 37.3329 18.6461 37.3964ZM18.6211 37.8883C18.6211 37.7625 18.5738 37.6412 18.4887 37.5485C18.4499 37.5053 18.4025 37.4707 18.3495 37.4469C18.2965 37.4232 18.2391 37.4109 18.181 37.4107C18.1219 37.4104 18.0633 37.4225 18.009 37.4463C17.9548 37.47 17.9062 37.5048 17.8662 37.5485C17.7811 37.6412 17.7339 37.7625 17.7338 37.8883C17.7331 38.0143 17.7805 38.1359 17.8662 38.2282C17.9061 38.2721 17.9547 38.3072 18.0089 38.3312C18.0631 38.3552 18.1217 38.3677 18.181 38.3677C18.2392 38.3672 18.2967 38.3546 18.3496 38.3305C18.4026 38.3065 18.45 38.2716 18.4887 38.2282C18.5744 38.1359 18.6218 38.0143 18.6211 37.8883Z" fill="white"/>
<path d="M20.104 37.4124L19.7337 37.9115L20.104 38.416C20.1203 38.4388 20.127 38.4672 20.1227 38.4949C20.1183 38.5227 20.1033 38.5477 20.0807 38.5644C20.0627 38.5781 20.0407 38.5856 20.0181 38.5859C20.0011 38.5854 19.9844 38.5812 19.9692 38.5734C19.9541 38.5657 19.9408 38.5547 19.9305 38.5412L19.6031 38.0904L19.274 38.5394C19.2638 38.5527 19.2508 38.5635 19.236 38.5713C19.2212 38.579 19.2048 38.5834 19.1881 38.5841C19.1654 38.5844 19.1433 38.5768 19.1255 38.5626C19.1027 38.5461 19.0873 38.5213 19.0826 38.4935C19.0779 38.4658 19.0843 38.4373 19.1005 38.4142L19.4707 37.9097L19.1005 37.4071C19.0844 37.3843 19.078 37.3561 19.0827 37.3286C19.0874 37.3011 19.1028 37.2766 19.1255 37.2604C19.1364 37.2513 19.1492 37.2447 19.1629 37.2409C19.1766 37.2371 19.1909 37.2363 19.205 37.2385C19.219 37.2407 19.2325 37.2459 19.2443 37.2537C19.2562 37.2614 19.2663 37.2717 19.274 37.2837L19.6031 37.7326L19.9287 37.2854C19.9365 37.2734 19.9468 37.2632 19.9588 37.2554C19.9709 37.2476 19.9844 37.2424 19.9986 37.2402C20.0128 37.238 20.0273 37.2388 20.0411 37.2426C20.055 37.2464 20.0678 37.2531 20.0789 37.2622C20.0907 37.2702 20.1007 37.2805 20.1083 37.2925C20.116 37.3045 20.1212 37.3179 20.1235 37.332C20.1258 37.346 20.1253 37.3604 20.122 37.3742C20.1186 37.388 20.1125 37.401 20.104 37.4124Z" fill="white"/>
<path d="M29.2054 38.5787L28.98 38.7575L28.5632 38.2066L28.4111 38.0045C28.4423 37.9922 28.4718 37.976 28.4988 37.9562C28.5492 37.9168 28.5887 37.865 28.6133 37.8059L28.776 38.0188L29.2054 38.5787Z" fill="white"/>
<path d="M28.7617 37.2801C28.6902 37.187 28.5936 37.1162 28.4833 37.0762C28.3729 37.0362 28.2534 37.0287 28.1388 37.0544C28.0243 37.0801 27.9195 37.138 27.8368 37.2213C27.7541 37.3047 27.697 37.4099 27.6722 37.5246C27.6474 37.6394 27.6559 37.7588 27.6967 37.8689C27.7376 37.9789 27.809 38.075 27.9027 38.1458C27.9964 38.2165 28.1083 38.259 28.2253 38.2682C28.3424 38.2774 28.4596 38.253 28.5632 38.1977C28.5935 38.182 28.6222 38.1635 28.649 38.1423C28.6984 38.1055 28.7413 38.0608 28.776 38.0099C28.8518 37.9027 28.8914 37.774 28.8888 37.6426C28.8862 37.5113 28.8417 37.3843 28.7617 37.2801ZM28.4988 37.9473C28.4718 37.9671 28.4423 37.9834 28.4111 37.9956C28.3324 38.027 28.2453 38.0302 28.1646 38.0046C28.0838 37.9791 28.0144 37.9264 27.9681 37.8554C27.9218 37.7845 27.9015 37.6997 27.9106 37.6155C27.9197 37.5312 27.9578 37.4528 28.0182 37.3934C28.0786 37.3341 28.1577 37.2975 28.2421 37.2898C28.3265 37.2822 28.4109 37.304 28.481 37.3516C28.5511 37.3991 28.6026 37.4695 28.6267 37.5507C28.6508 37.6319 28.6461 37.7189 28.6133 37.797C28.5887 37.8561 28.5492 37.9079 28.4988 37.9473Z" fill="white"/>
<path d="M26.1465 37.0762H24.5116V38.7111H26.1465V37.0762Z" fill="white"/>
<path d="M25.4185 37.3802H25.2396V38.4088H25.4185V37.3802Z" fill="#EE6F57"/>
<path d="M24.8139 37.8042V37.983H25.8424V37.8042H24.8139Z" fill="#EE6F57"/>
<path d="M31.2839 37.1817C31.2839 37.2097 31.2756 37.237 31.2601 37.2602C31.2446 37.2835 31.2225 37.3016 31.1967 37.3123C31.1709 37.323 31.1424 37.3258 31.115 37.3203C31.0876 37.3149 31.0624 37.3014 31.0427 37.2816C31.0229 37.2619 31.0094 37.2367 31.004 37.2093C30.9985 37.1819 31.0013 37.1535 31.012 37.1276C31.0227 37.1018 31.0409 37.0797 31.0641 37.0642C31.0873 37.0487 31.1147 37.0404 31.1426 37.0404C31.1612 37.0404 31.1795 37.0441 31.1967 37.0512C31.2138 37.0583 31.2294 37.0687 31.2425 37.0818C31.2556 37.0949 31.2661 37.1105 31.2732 37.1276C31.2803 37.1448 31.2839 37.1632 31.2839 37.1817Z" fill="white"/>
<path d="M31.2839 37.9115C31.2839 37.9489 31.269 37.9849 31.2425 38.0114C31.216 38.0379 31.1801 38.0528 31.1426 38.0528C31.1051 38.0528 31.0692 38.0379 31.0427 38.0114C31.0162 37.9849 31.0013 37.9489 31.0013 37.9115C31.0013 37.8929 31.0049 37.8745 31.012 37.8574C31.0191 37.8402 31.0295 37.8247 31.0427 37.8115C31.0558 37.7984 31.0714 37.788 31.0885 37.7809C31.1057 37.7738 31.124 37.7701 31.1426 37.7701C31.1612 37.7701 31.1795 37.7738 31.1967 37.7809C31.2138 37.788 31.2294 37.7984 31.2425 37.8115C31.2556 37.8247 31.2661 37.8402 31.2732 37.8574C31.2803 37.8745 31.2839 37.8929 31.2839 37.9115Z" fill="white"/>
<path d="M31.2839 38.6485C31.2839 38.6671 31.2803 38.6854 31.2732 38.7026C31.2661 38.7197 31.2556 38.7353 31.2425 38.7484C31.2294 38.7616 31.2138 38.772 31.1967 38.7791C31.1795 38.7862 31.1612 38.7898 31.1426 38.7898C31.124 38.7898 31.1057 38.7862 31.0885 38.7791C31.0714 38.772 31.0558 38.7616 31.0427 38.7484C31.0295 38.7353 31.0191 38.7197 31.012 38.7026C31.0049 38.6854 31.0013 38.6671 31.0013 38.6485C31.0013 38.611 31.0162 38.5751 31.0427 38.5486C31.0692 38.5221 31.1051 38.5072 31.1426 38.5072C31.1801 38.5072 31.216 38.5221 31.2425 38.5486C31.269 38.5751 31.2839 38.611 31.2839 38.6485Z" fill="white"/>
<path d="M33.7721 40.8577H0.608002V45.979H33.7721V40.8577Z" fill="#EBEBEB"/>
<path d="M6.00834 44.4084C5.90443 44.4727 5.79089 44.5198 5.67205 44.548C5.38849 44.616 5.08969 44.5747 4.83524 44.4323C4.58079 44.2898 4.38939 44.0567 4.2992 43.7793C4.20901 43.502 4.22666 43.2009 4.34864 42.936C4.47061 42.6711 4.68795 42.462 4.9573 42.3502C5.22666 42.2385 5.52823 42.2323 5.8019 42.3331C6.07557 42.4338 6.30121 42.634 6.43383 42.8937C6.56645 43.1534 6.59631 43.4536 6.51745 43.7343C6.43859 44.0151 6.2568 44.2558 6.00834 44.4084Z" fill="#EE6F57"/>
<path d="M5.74182 43.2779C5.74182 43.3487 5.72084 43.4179 5.68153 43.4767C5.64222 43.5355 5.58634 43.5814 5.52097 43.6084C5.4556 43.6355 5.38367 43.6426 5.31427 43.6288C5.24487 43.615 5.18112 43.5809 5.13109 43.5309C5.08106 43.4809 5.04698 43.4171 5.03318 43.3477C5.01938 43.2783 5.02646 43.2064 5.05354 43.141C5.08062 43.0756 5.12647 43.0198 5.1853 42.9805C5.24414 42.9411 5.3133 42.9202 5.38406 42.9202C5.47895 42.9202 5.56994 42.9579 5.63704 43.025C5.70413 43.092 5.74182 43.183 5.74182 43.2779Z" fill="white"/>
<path d="M6.00834 44.2618V44.4085C5.90443 44.4727 5.79088 44.5198 5.67204 44.548C5.52121 44.5857 5.36433 44.5928 5.21071 44.5688C5.05709 44.5449 4.90983 44.4903 4.77765 44.4085V44.2618C4.77765 44.0995 4.8421 43.9439 4.95683 43.8292C5.07156 43.7145 5.22716 43.65 5.38941 43.65C5.55166 43.65 5.70727 43.7145 5.822 43.8292C5.93673 43.9439 6.00118 44.0995 6.00118 44.2618H6.00834Z" fill="white"/>
<path d="M12.6912 44.1884H11.1529L11.7808 43.4192L11.1529 42.65H12.6912L13.3191 43.4192L12.6912 44.1884Z" fill="white"/>
<path d="M8.73803 42.65L8.98847 43.1563L9.54657 43.2367L9.1423 43.6321L9.2389 44.1884L8.73803 43.9254L8.23896 44.1884L8.33377 43.6321L7.9295 43.2367L8.48761 43.1563L8.73803 42.65Z" fill="#EE6F57"/>
<path d="M23.4991 43.1062H14.4228V43.7323H23.4991V43.1062Z" fill="#263238"/>
<path d="M30.7974 43.1062H27.2395V43.7323H30.7974V43.1062Z" fill="#455A64"/>
<path d="M6.00834 49.5387C5.90443 49.6029 5.79089 49.65 5.67205 49.6782C5.38849 49.7463 5.08969 49.705 4.83524 49.5625C4.58079 49.42 4.38939 49.1869 4.2992 48.9096C4.20901 48.6323 4.22666 48.3311 4.34864 48.0663C4.47061 47.8014 4.68795 47.5922 4.9573 47.4805C5.22666 47.3687 5.52823 47.3626 5.8019 47.4633C6.07557 47.564 6.30121 47.7642 6.43383 48.0239C6.56645 48.2837 6.59631 48.5838 6.51745 48.8646C6.43859 49.1453 6.2568 49.386 6.00834 49.5387Z" fill="#455A64"/>
<path d="M5.74182 48.4081C5.74182 48.4788 5.72084 48.548 5.68153 48.6068C5.64222 48.6656 5.58634 48.7115 5.52097 48.7386C5.4556 48.7657 5.38367 48.7727 5.31427 48.7589C5.24487 48.7451 5.18112 48.7111 5.13109 48.661C5.08106 48.611 5.04698 48.5472 5.03318 48.4778C5.01938 48.4084 5.02646 48.3365 5.05354 48.2711C5.08062 48.2058 5.12647 48.1499 5.1853 48.1106C5.24414 48.0713 5.3133 48.0503 5.38406 48.0503C5.47895 48.0503 5.56994 48.088 5.63704 48.1551C5.70413 48.2222 5.74182 48.3132 5.74182 48.4081Z" fill="white"/>
<path d="M6.00834 49.3831V49.5387C5.90443 49.6029 5.79088 49.65 5.67204 49.6782C5.52126 49.7165 5.36429 49.7238 5.21059 49.6999C5.05689 49.6759 4.90962 49.6211 4.77765 49.5387V49.392C4.77765 49.2298 4.8421 49.0742 4.95683 48.9595C5.07156 48.8447 5.22716 48.7803 5.38941 48.7803C5.55166 48.7803 5.70727 48.8447 5.822 48.9595C5.93673 49.0742 6.00118 49.2298 6.00118 49.392L6.00834 49.3831Z" fill="white"/>
<path d="M12.6912 49.3096H11.1529L11.7808 48.5404L11.1529 47.7712H12.6912L13.3191 48.5404L12.6912 49.3096Z" fill="white"/>
<path d="M12.7127 49.3599H11.0581L11.7235 48.546L11.0581 47.7321H12.7127L13.3764 48.546L12.7127 49.3599ZM11.2477 49.2704H12.6787L13.269 48.546L12.6787 47.8304H11.2477L11.838 48.546L11.2477 49.2704Z" fill="#EBEBEB"/>
<path d="M8.73803 47.7712L8.98847 48.2775L9.54657 48.358L9.1423 48.7533L9.2389 49.3096L8.73803 49.0466L8.23896 49.3096L8.33377 48.7533L7.9295 48.358L8.48761 48.2775L8.73803 47.7712Z" fill="#EE6F57"/>
<path d="M23.4991 48.2274H14.4228V48.8535H23.4991V48.2274Z" fill="#263238"/>
<path d="M30.7974 48.2274H27.2395V48.8535H30.7974V48.2274Z" fill="#455A64"/>
<path d="M33.7721 51.1002H0.608002V56.2215H33.7721V51.1002Z" fill="#EBEBEB"/>
<path d="M6.00833 54.651C5.90412 54.7151 5.7907 54.7627 5.67203 54.7923C5.38702 54.8623 5.08609 54.8223 4.82929 54.6802C4.57249 54.5381 4.3787 54.3044 4.28658 54.0258C4.19445 53.7471 4.21077 53.444 4.33228 53.1769C4.45378 52.9097 4.67154 52.6982 4.9421 52.5845C5.21267 52.4708 5.51615 52.4633 5.79201 52.5635C6.06787 52.6636 6.29582 52.8641 6.43039 53.1249C6.56495 53.3858 6.59624 53.6877 6.51801 53.9706C6.43978 54.2534 6.25779 54.4964 6.00833 54.651Z" fill="#EE6F57"/>
<path d="M5.74182 53.5295C5.74182 53.6003 5.72084 53.6694 5.68153 53.7283C5.64222 53.7871 5.58634 53.833 5.52097 53.86C5.4556 53.8871 5.38367 53.8942 5.31427 53.8804C5.24487 53.8666 5.18112 53.8325 5.13109 53.7825C5.08106 53.7325 5.04698 53.6687 5.03318 53.5993C5.01938 53.5299 5.02646 53.458 5.05354 53.3926C5.08062 53.3272 5.12647 53.2714 5.1853 53.232C5.24414 53.1927 5.3133 53.1718 5.38406 53.1718C5.47895 53.1718 5.56994 53.2094 5.63704 53.2765C5.70413 53.3436 5.74182 53.4346 5.74182 53.5295Z" fill="white"/>
<path d="M6.00834 54.5043V54.651C5.90413 54.7151 5.79071 54.7627 5.67204 54.7923C5.52113 54.8302 5.36412 54.8372 5.21043 54.8129C5.05674 54.7887 4.90954 54.7336 4.77765 54.651V54.5043C4.77765 54.3421 4.8421 54.1865 4.95683 54.0718C5.07156 53.957 5.22716 53.8926 5.38941 53.8926C5.55166 53.8926 5.70727 53.957 5.822 54.0718C5.93673 54.1865 6.00118 54.3421 6.00118 54.5043H6.00834Z" fill="white"/>
<path d="M12.6912 54.4309H11.1529L11.7808 53.6618L11.1529 52.8926H12.6912L13.3191 53.6618L12.6912 54.4309Z" fill="white"/>
<path d="M8.73803 52.8926L8.98847 53.3988L9.54657 53.4793L9.1423 53.8746L9.2389 54.4309L8.73803 54.168L8.23896 54.4309L8.33377 53.8746L7.9295 53.4793L8.48761 53.3988L8.73803 52.8926Z" fill="white"/>
<path d="M23.4991 53.3488H14.4228V53.9748H23.4991V53.3488Z" fill="#DBDBDB"/>
<path d="M30.7974 53.3488H27.2395V53.9748H30.7974V53.3488Z" fill="#C7C7C7"/>
<path d="M6.00833 59.7724C5.90412 59.8364 5.7907 59.8841 5.67203 59.9137C5.38702 59.9837 5.08609 59.9436 4.82929 59.8015C4.57249 59.6595 4.3787 59.4258 4.28658 59.1471C4.19445 58.8685 4.21077 58.5653 4.33228 58.2982C4.45378 58.031 4.67154 57.8195 4.9421 57.7058C5.21267 57.5921 5.51615 57.5846 5.79201 57.6848C6.06787 57.785 6.29582 57.9855 6.43039 58.2463C6.56495 58.5071 6.59624 58.8091 6.51801 59.0919C6.43978 59.3748 6.25779 59.6178 6.00833 59.7724Z" fill="#A6A6A6"/>
<path d="M5.74182 58.6507C5.74182 58.7215 5.72084 58.7907 5.68153 58.8495C5.64222 58.9083 5.58634 58.9542 5.52097 58.9813C5.4556 59.0083 5.38367 59.0154 5.31427 59.0016C5.24487 58.9878 5.18112 58.9537 5.13109 58.9037C5.08106 58.8537 5.04698 58.7899 5.03318 58.7205C5.01938 58.6511 5.02646 58.5792 5.05354 58.5138C5.08062 58.4484 5.12647 58.3926 5.1853 58.3533C5.24414 58.3139 5.3133 58.293 5.38406 58.293C5.47895 58.293 5.56994 58.3307 5.63704 58.3978C5.70413 58.4648 5.74182 58.5558 5.74182 58.6507Z" fill="white"/>
<path d="M6.00834 59.6274V59.7723C5.90413 59.8363 5.79071 59.884 5.67204 59.9136C5.52113 59.9515 5.36412 59.9585 5.21043 59.9342C5.05674 59.9099 4.90954 59.8548 4.77765 59.7723V59.6274C4.77765 59.4651 4.8421 59.3095 4.95683 59.1948C5.07156 59.0801 5.22716 59.0156 5.38941 59.0156C5.55166 59.0156 5.70727 59.0801 5.822 59.1948C5.93673 59.3095 6.00118 59.4651 6.00118 59.6274H6.00834Z" fill="white"/>
<path d="M12.6912 59.5524H11.1529L11.7808 58.7832L11.1529 58.014H12.6912L13.3191 58.7832L12.6912 59.5524Z" fill="white"/>
<path d="M12.7127 59.5969H11.0581L11.7235 58.783L11.0581 57.9691H12.7127L13.3764 58.783L12.7127 59.5969ZM11.2477 59.5075H12.6787L13.269 58.792L12.6787 58.0675H11.2477L11.838 58.792L11.2477 59.5075Z" fill="#EBEBEB"/>
<path d="M8.73803 58.014L8.98847 58.5203L9.54657 58.6025L9.1423 58.9961L9.2389 59.5524L8.73803 59.2894L8.23896 59.5524L8.33377 58.9961L7.9295 58.6025L8.48761 58.5203L8.73803 58.014Z" fill="#EE6F57"/>
<path d="M23.4991 58.4701H14.4228V59.0962H23.4991V58.4701Z" fill="#DBDBDB"/>
<path d="M30.7974 58.4701H27.2395V59.0962H30.7974V58.4701Z" fill="#C7C7C7"/>
<path d="M33.7721 61.3446H0.608002V66.4659H33.7721V61.3446Z" fill="#EBEBEB"/>
<path d="M6.00833 64.8936C5.90412 64.9576 5.7907 65.0053 5.67203 65.0349C5.38702 65.1049 5.08609 65.0648 4.82929 64.9228C4.57249 64.7807 4.3787 64.547 4.28658 64.2683C4.19445 63.9897 4.21077 63.6866 4.33228 63.4194C4.45378 63.1523 4.67154 62.9407 4.9421 62.827C5.21267 62.7133 5.51615 62.7058 5.79201 62.806C6.06787 62.9062 6.29582 63.1067 6.43039 63.3675C6.56495 63.6283 6.59624 63.9303 6.51801 64.2131C6.43978 64.496 6.25779 64.739 6.00833 64.8936Z" fill="#37474F"/>
<path d="M5.74182 63.7721C5.74182 63.8428 5.72084 63.912 5.68153 63.9708C5.64222 64.0297 5.58634 64.0755 5.52097 64.1026C5.4556 64.1297 5.38367 64.1368 5.31427 64.1229C5.24487 64.1091 5.18112 64.0751 5.13109 64.025C5.08106 63.975 5.04698 63.9113 5.03318 63.8419C5.01938 63.7725 5.02646 63.7005 5.05354 63.6352C5.08062 63.5698 5.12647 63.5139 5.1853 63.4746C5.24414 63.4353 5.3133 63.4143 5.38406 63.4143C5.47895 63.4143 5.56994 63.452 5.63704 63.5191C5.70413 63.5862 5.74182 63.6772 5.74182 63.7721Z" fill="white"/>
<path d="M6.00834 64.7434V64.8882C5.90413 64.9523 5.79071 64.9999 5.67204 65.0296C5.52113 65.0674 5.36412 65.0744 5.21043 65.0502C5.05674 65.0259 4.90954 64.9708 4.77765 64.8882V64.7434C4.77765 64.5811 4.8421 64.4255 4.95683 64.3108C5.07156 64.196 5.22716 64.1316 5.38941 64.1316C5.55166 64.1316 5.70727 64.196 5.822 64.3108C5.93673 64.4255 6.00118 64.5811 6.00118 64.7434H6.00834Z" fill="white"/>
<path d="M12.6912 64.6736H11.1529L11.7808 63.9044L11.1529 63.1353H12.6912L13.3191 63.9044L12.6912 64.6736Z" fill="white"/>
<path d="M8.73803 63.1353L8.98847 63.6415L9.54657 63.7238L9.1423 64.1173L9.2389 64.6736L8.73803 64.4107L8.23896 64.6736L8.33377 64.1173L7.9295 63.7238L8.48761 63.6415L8.73803 63.1353Z" fill="#EE6F57"/>
<path d="M23.4991 63.5913H14.4228V64.2174H23.4991V63.5913Z" fill="#DBDBDB"/>
<path d="M30.7974 63.5913H27.2395V64.2174H30.7974V63.5913Z" fill="#C7C7C7"/>
<path d="M6.00834 70.015C5.85198 70.1114 5.67504 70.1694 5.49198 70.1843C5.30892 70.1992 5.12493 70.1706 4.95503 70.1008C4.78513 70.0311 4.63415 69.9221 4.51441 69.7828C4.39467 69.6436 4.30957 69.4779 4.26606 69.2995C4.21517 69.0908 4.223 68.8721 4.28868 68.6676C4.35436 68.463 4.47534 68.2807 4.63822 68.1406C4.80111 68.0006 4.99956 67.9083 5.21162 67.874C5.42368 67.8398 5.64109 67.8648 5.83979 67.9464C6.0385 68.028 6.21077 68.163 6.33753 68.3364C6.4643 68.5099 6.54062 68.715 6.55807 68.9291C6.57551 69.1432 6.5334 69.3579 6.43638 69.5496C6.33936 69.7412 6.19121 69.9023 6.00834 70.015Z" fill="#263238"/>
<path d="M5.74182 68.8934C5.74182 68.9642 5.72084 69.0333 5.68153 69.0922C5.64222 69.151 5.58634 69.1968 5.52097 69.2239C5.4556 69.251 5.38367 69.2581 5.31427 69.2443C5.24487 69.2305 5.18112 69.1964 5.13109 69.1464C5.08106 69.0963 5.04698 69.0326 5.03318 68.9632C5.01938 68.8938 5.02646 68.8219 5.05354 68.7565C5.08062 68.6911 5.12647 68.6352 5.1853 68.5959C5.24414 68.5566 5.3133 68.5356 5.38406 68.5356C5.47895 68.5356 5.56994 68.5733 5.63704 68.6404C5.70413 68.7075 5.74182 68.7985 5.74182 68.8934Z" fill="white"/>
<path d="M6.00835 69.8699V70.0148C5.8247 70.129 5.6128 70.1894 5.39659 70.1894C5.18037 70.1894 4.96847 70.129 4.78482 70.0148V69.8699C4.78482 69.7077 4.84927 69.5521 4.964 69.4374C5.07873 69.3226 5.23434 69.2582 5.39659 69.2582C5.55884 69.2582 5.71444 69.3226 5.82917 69.4374C5.9439 69.5521 6.00835 69.7077 6.00835 69.8699Z" fill="white"/>
<path d="M12.6912 69.7949H11.1529L11.7808 69.0258L11.1529 68.2566H12.6912L13.3191 69.0258L12.6912 69.7949Z" fill="white"/>
<path d="M12.7127 69.8396H11.0581L11.7235 69.0257L11.0581 68.2118H12.7127L13.3764 69.0257L12.7127 69.8396ZM11.2477 69.7501H12.6787L13.269 69.0257L12.6787 68.3012H11.2477L11.838 69.0257L11.2477 69.7501Z" fill="#EBEBEB"/>
<path d="M8.73803 68.2566L8.98847 68.7628L9.54657 68.8451L9.1423 69.2386L9.2389 69.7949L8.73803 69.532L8.23896 69.7949L8.33377 69.2386L7.9295 68.8451L8.48761 68.7628L8.73803 68.2566Z" fill="white"/>
<path d="M9.29793 69.8772L8.73804 69.5838L8.17815 69.8772L8.28548 69.2547L7.83292 68.8129L8.45899 68.7234L8.73804 68.1564L9.0171 68.7234L9.64317 68.8129L9.19061 69.2547L9.29793 69.8772ZM8.73804 69.4819L9.17809 69.7144L9.09401 69.2225L9.45177 68.8755L8.95806 68.8039L8.73804 68.3585L8.51266 68.8039L8.02074 68.8755L8.3785 69.2225L8.29442 69.7144L8.73804 69.4819Z" fill="#EBEBEB"/>
<path d="M23.4991 68.7126H14.4228V69.3387H23.4991V68.7126Z" fill="#DBDBDB"/>
<path d="M30.7974 68.7126H27.2395V69.3387H30.7974V68.7126Z" fill="#C7C7C7"/>
<path d="M33.7721 71.5873H0.608002V76.7086H33.7721V71.5873Z" fill="#EBEBEB"/>
<path d="M6.00837 75.138C5.90408 75.2015 5.79066 75.2486 5.67208 75.2776C5.44868 75.3318 5.21422 75.3186 4.99832 75.2397C4.78241 75.1607 4.59476 75.0195 4.45908 74.834C4.32339 74.6484 4.24577 74.4267 4.236 74.1971C4.22624 73.9674 4.28478 73.74 4.40423 73.5436C4.52368 73.3471 4.69868 73.1905 4.9071 73.0935C5.11553 72.9966 5.34803 72.9635 5.57522 72.9986C5.80241 73.0337 6.0141 73.1354 6.18353 73.2908C6.35296 73.4462 6.47252 73.6483 6.52712 73.8716C6.58512 74.1104 6.56619 74.3615 6.47303 74.5889C6.37987 74.8163 6.21725 75.0085 6.00837 75.138Z" fill="#EE6F57"/>
<path d="M5.74182 74.0146C5.74182 74.0854 5.72084 74.1545 5.68153 74.2134C5.64222 74.2722 5.58634 74.3181 5.52097 74.3451C5.4556 74.3722 5.38367 74.3793 5.31427 74.3655C5.24487 74.3517 5.18112 74.3176 5.13109 74.2676C5.08106 74.2176 5.04698 74.1538 5.03318 74.0844C5.01938 74.015 5.02646 73.9431 5.05354 73.8777C5.08062 73.8123 5.12647 73.7565 5.1853 73.7172C5.24414 73.6778 5.3133 73.6569 5.38406 73.6569C5.47895 73.6569 5.56994 73.6946 5.63704 73.7616C5.70413 73.8287 5.74182 73.9197 5.74182 74.0146Z" fill="white"/>
<path d="M6.00834 74.9913V75.138C5.90405 75.2014 5.79063 75.2485 5.67204 75.2775C5.52113 75.3154 5.36412 75.3224 5.21043 75.2981C5.05674 75.2738 4.90954 75.2187 4.77765 75.1362V74.9913C4.77765 74.829 4.8421 74.6734 4.95683 74.5587C5.07156 74.444 5.22716 74.3795 5.38941 74.3795C5.55166 74.3795 5.70727 74.444 5.822 74.5587C5.93673 74.6734 6.00118 74.829 6.00118 74.9913H6.00834Z" fill="white"/>
<path d="M12.6912 74.918H11.1529L11.7808 74.147L11.1529 73.3778H12.6912L13.3191 74.147L12.6912 74.918Z" fill="white"/>
<path d="M8.73803 73.3778L8.98847 73.8858L9.54657 73.9663L9.1423 74.3599L9.2389 74.918L8.73803 74.655L8.23896 74.918L8.33377 74.3599L7.9295 73.9663L8.48761 73.8858L8.73803 73.3778Z" fill="#EE6F57"/>
<path d="M23.4991 73.8358H14.4228V74.4619H23.4991V73.8358Z" fill="#263238"/>
<path d="M30.7974 73.8358H27.2395V74.4619H30.7974V73.8358Z" fill="#455A64"/>
<path d="M6.00837 80.2593C5.90446 80.3235 5.79092 80.3706 5.67208 80.3988C5.44868 80.453 5.21422 80.4399 4.99832 80.3609C4.78241 80.2819 4.59476 80.1407 4.45908 79.9552C4.32339 79.7696 4.24577 79.548 4.236 79.3183C4.22624 79.0886 4.28478 78.8612 4.40423 78.6648C4.52368 78.4683 4.69868 78.3118 4.9071 78.2148C5.11553 78.1178 5.34803 78.0847 5.57522 78.1198C5.80241 78.1549 6.0141 78.2566 6.18353 78.412C6.35296 78.5674 6.47252 78.7695 6.52712 78.9928C6.58512 79.2316 6.56619 79.4827 6.47303 79.7101C6.37987 79.9375 6.21725 80.1297 6.00837 80.2593Z" fill="#EE6F57"/>
<path d="M5.74182 79.136C5.74182 79.2067 5.72084 79.2759 5.68153 79.3347C5.64222 79.3935 5.58634 79.4394 5.52097 79.4665C5.4556 79.4936 5.38367 79.5006 5.31427 79.4868C5.24487 79.473 5.18112 79.439 5.13109 79.3889C5.08106 79.3389 5.04698 79.2752 5.03318 79.2058C5.01938 79.1364 5.02646 79.0644 5.05354 78.9991C5.08062 78.9337 5.12647 78.8778 5.1853 78.8385C5.24414 78.7992 5.3133 78.7782 5.38406 78.7782C5.47895 78.7782 5.56994 78.8159 5.63704 78.883C5.70413 78.9501 5.74182 79.0411 5.74182 79.136Z" fill="white"/>
<path d="M6.00834 80.1126V80.2593C5.90443 80.3235 5.79088 80.3706 5.67204 80.3988C5.52113 80.4367 5.36412 80.4437 5.21043 80.4194C5.05674 80.3951 4.90954 80.3401 4.77765 80.2575V80.1126C4.77765 79.9504 4.8421 79.7948 4.95683 79.68C5.07156 79.5653 5.22716 79.5009 5.38941 79.5009C5.55166 79.5009 5.70727 79.5653 5.822 79.68C5.93673 79.7948 6.00118 79.9504 6.00118 80.1126H6.00834Z" fill="white"/>
<path d="M12.6912 80.0393H11.1529L11.7808 79.2702L11.1529 78.501H12.6912L13.3191 79.2702L12.6912 80.0393Z" fill="white"/>
<path d="M12.7127 80.084H11.0581L11.7235 79.2701L11.0581 78.4562H12.7127L13.3764 79.2701L12.7127 80.084ZM11.2477 79.9945H12.6787L13.269 79.2701L12.6787 78.5546H11.2477L11.838 79.2701L11.2477 79.9945Z" fill="#EBEBEB"/>
<path d="M8.73803 78.501L8.98847 79.0072L9.54657 79.0877L9.1423 79.4812L9.2389 80.0393L8.73803 79.7764L8.23896 80.0393L8.33377 79.4812L7.9295 79.0877L8.48761 79.0072L8.73803 78.501Z" fill="white"/>
<path d="M9.29793 80.1269L8.73804 79.8336L8.17815 80.1269L8.28548 79.5044L7.83292 79.0537L8.45899 78.9624L8.73804 78.3954L9.0171 78.9624L9.64317 79.0537L9.19061 79.4937L9.29793 80.1269ZM8.02611 79.127L8.38386 79.474L8.29979 79.9642L8.73983 79.7316L9.17987 79.9642L9.0958 79.474L9.45356 79.127L8.95985 79.0537L8.73983 78.6083L8.51266 79.0537L8.02611 79.127Z" fill="#EBEBEB"/>
<path d="M23.4991 78.9572H14.4228V79.5832H23.4991V78.9572Z" fill="#DBDBDB"/>
<path d="M30.7974 78.9572H27.2395V79.5832H30.7974V78.9572Z" fill="#C7C7C7"/>
<path d="M33.7721 81.8298H0.608002V86.9511H33.7721V81.8298Z" fill="#EBEBEB"/>
<path d="M6.00834 85.3805C5.90443 85.4447 5.79089 85.4918 5.67205 85.52C5.38849 85.5881 5.08969 85.5468 4.83524 85.4043C4.58079 85.2618 4.38939 85.0287 4.2992 84.7514C4.20901 84.4741 4.22666 84.1729 4.34864 83.9081C4.47061 83.6432 4.68795 83.434 4.9573 83.3223C5.22666 83.2105 5.52823 83.2044 5.8019 83.3051C6.07557 83.4058 6.30121 83.606 6.43383 83.8657C6.56645 84.1255 6.59631 84.4256 6.51745 84.7064C6.43859 84.9871 6.2568 85.2278 6.00834 85.3805Z" fill="#455A64"/>
<path d="M5.74182 84.2572C5.74182 84.3279 5.72084 84.3971 5.68153 84.4559C5.64222 84.5148 5.58634 84.5606 5.52097 84.5877C5.4556 84.6148 5.38367 84.6219 5.31427 84.6081C5.24487 84.5943 5.18112 84.5602 5.13109 84.5101C5.08106 84.4601 5.04698 84.3964 5.03318 84.327C5.01938 84.2576 5.02646 84.1856 5.05354 84.1203C5.08062 84.0549 5.12647 83.999 5.1853 83.9597C5.24414 83.9204 5.3133 83.8994 5.38406 83.8994C5.47895 83.8994 5.56994 83.9371 5.63704 84.0042C5.70413 84.0713 5.74182 84.1623 5.74182 84.2572Z" fill="white"/>
<path d="M6.00834 85.234V85.3806C5.90443 85.4448 5.79088 85.4919 5.67204 85.5202C5.52121 85.5579 5.36433 85.565 5.21071 85.541C5.05709 85.517 4.90983 85.4625 4.77765 85.3806V85.234C4.77765 85.0717 4.8421 84.9161 4.95683 84.8014C5.07156 84.6866 5.22716 84.6222 5.38941 84.6222C5.55166 84.6222 5.70727 84.6866 5.822 84.8014C5.93673 84.9161 6.00118 85.0717 6.00118 85.234H6.00834Z" fill="white"/>
<path d="M12.6912 85.1606H11.1529L11.7808 84.3914L11.1529 83.6222H12.6912L13.3191 84.3914L12.6912 85.1606Z" fill="white"/>
<path d="M8.73803 83.6222L8.98847 84.1284L9.54657 84.2089L9.1423 84.6024L9.2389 85.1606L8.73803 84.8976L8.23896 85.1606L8.33377 84.6024L7.9295 84.2089L8.48761 84.1284L8.73803 83.6222Z" fill="white"/>
<path d="M23.4991 84.0784H14.4228V84.7044H23.4991V84.0784Z" fill="#DBDBDB"/>
<path d="M30.7974 84.0784H27.2395V84.7044H30.7974V84.0784Z" fill="#C7C7C7"/>
<path d="M6.00834 90.502C5.90443 90.5662 5.79089 90.6133 5.67205 90.6415C5.38849 90.7095 5.08969 90.6682 4.83524 90.5258C4.58079 90.3833 4.38939 90.1502 4.2992 89.8728C4.20901 89.5955 4.22666 89.2944 4.34864 89.0295C4.47061 88.7646 4.68795 88.5555 4.9573 88.4437C5.22666 88.332 5.52823 88.3258 5.8019 88.4266C6.07557 88.5273 6.30121 88.7275 6.43383 88.9872C6.56645 89.2469 6.59631 89.5471 6.51745 89.8278C6.43859 90.1086 6.2568 90.3493 6.00834 90.502Z" fill="#A6A6A6"/>
<path d="M5.74182 89.3803C5.74182 89.4511 5.72084 89.5203 5.68153 89.5791C5.64222 89.6379 5.58634 89.6838 5.52097 89.7109C5.4556 89.7379 5.38367 89.745 5.31427 89.7312C5.24487 89.7174 5.18112 89.6833 5.13109 89.6333C5.08106 89.5833 5.04698 89.5195 5.03318 89.4501C5.01938 89.3807 5.02646 89.3088 5.05354 89.2434C5.08062 89.1781 5.12647 89.1222 5.1853 89.0829C5.24414 89.0436 5.3133 89.0226 5.38406 89.0226C5.47895 89.0226 5.56994 89.0603 5.63704 89.1274C5.70413 89.1945 5.74182 89.2855 5.74182 89.3803Z" fill="white"/>
<path d="M6.00834 90.3553V90.502C5.90443 90.5662 5.79088 90.6133 5.67204 90.6415C5.52126 90.6797 5.36429 90.6871 5.21059 90.6631C5.05689 90.6391 4.90962 90.5843 4.77765 90.502V90.3553C4.77765 90.193 4.8421 90.0374 4.95683 89.9227C5.07156 89.808 5.22716 89.7435 5.38941 89.7435C5.55166 89.7435 5.70727 89.808 5.822 89.9227C5.93673 90.0374 6.00118 90.193 6.00118 90.3553H6.00834Z" fill="white"/>
<path d="M12.6912 90.2819H11.1529L11.7808 89.5127L11.1529 88.7435H12.6912L13.3191 89.5127L12.6912 90.2819Z" fill="white"/>
<path d="M12.7127 90.323H11.0581L11.7235 89.5091L11.0581 88.6952H12.7127L13.3764 89.5091L12.7127 90.323ZM11.2477 90.2335H12.6787L13.269 89.518L12.6787 88.7936H11.2477L11.838 89.518L11.2477 90.2335Z" fill="#EBEBEB"/>
<path d="M8.73803 88.7435L8.98847 89.2498L9.54657 89.3303L9.1423 89.7256L9.2389 90.2819L8.73803 90.0189L8.23896 90.2819L8.33377 89.7256L7.9295 89.3303L8.48761 89.2498L8.73803 88.7435Z" fill="white"/>
<path d="M9.29793 90.3642L8.73804 90.0691L8.17815 90.3642L8.28548 89.7399L7.83292 89.2999L8.45899 89.2086L8.73804 88.6416L9.0171 89.2086L9.64317 89.2999L9.19061 89.7399L9.29793 90.3642ZM8.73804 89.9653L9.17809 90.1961L9.09401 89.7059L9.45177 89.3589L8.95806 89.2874L8.73804 88.8402L8.51802 89.2874L8.02611 89.3589L8.38386 89.7059L8.29979 90.1961L8.73804 89.9653Z" fill="#EBEBEB"/>
<path d="M23.4991 89.1997H14.4228V89.8258H23.4991V89.1997Z" fill="#DBDBDB"/>
<path d="M30.7974 89.1997H27.2395V89.8258H30.7974V89.1997Z" fill="#C7C7C7"/>
<path d="M5.78119 99.7535H-8.74019C-10.4771 93.6609 -11.8741 89.0208 -11.8741 89.0208H1.89415C1.89415 89.0208 3.59529 93.6161 5.78119 99.7535Z" fill="#37474F"/>
<path d="M1.5793 89.0261C1.5632 89.3141 0.795809 91.949 0.398697 95.8914C0.253805 97.3457 0.0892372 98.7142 -0.0860653 99.7534H-19.3567C-21.2635 93.8612 -18.4337 89.0207 -18.4337 89.0207C-18.4337 89.0207 1.58109 89.0136 1.5793 89.0261Z" fill="#37474F"/>
<path d="M0.117872 96.8287C0.0999844 97.3546 -0.0431197 98.7553 -0.45633 99.7534H-0.744325C-0.184434 98.3886 -0.216632 95.725 -0.257774 95.1026C-0.374045 93.278 -0.515359 91.5643 -0.824819 89.6432C-0.835552 89.5824 -0.735382 89.5788 -0.72286 89.6342C-0.17728 91.9525 0.193001 94.4496 0.117872 96.8287Z" fill="#263238"/>
<path d="M13.8254 53.8317L10.6592 63.9097C10.5322 64.2031 10.6699 64.4571 10.9633 64.4732L16.2366 64.7737C16.3981 64.7713 16.5556 64.7229 16.6905 64.6342C16.8255 64.5455 16.9324 64.4201 16.9987 64.2729L20.1577 54.202C20.2847 53.9068 20.1469 53.6546 19.8536 53.6385L14.5945 53.338C14.4326 53.3385 14.2742 53.3852 14.1379 53.4726C14.0016 53.5601 13.8932 53.6847 13.8254 53.8317Z" fill="#37474F"/>
<path d="M14.4514 53.8694L11.2924 63.9402C11.1654 64.2336 11.3031 64.4858 11.5983 64.5037L16.8699 64.8042C17.0315 64.8015 17.189 64.753 17.3242 64.6643C17.4594 64.5757 17.5667 64.4505 17.6337 64.3033L20.7909 54.2307C20.9179 53.9373 20.7819 53.694 20.4868 53.669L15.2134 53.3667C15.0519 53.3699 14.8946 53.4189 14.7597 53.5078C14.6249 53.5968 14.518 53.7221 14.4514 53.8694Z" fill="#455A64"/>
<path d="M15.8699 54.4184C15.8629 54.5069 15.8298 54.5914 15.7747 54.6612C15.7197 54.7309 15.6452 54.7827 15.5607 54.8101C15.4762 54.8375 15.3855 54.8391 15.3 54.8149C15.2145 54.7907 15.1382 54.7417 15.0806 54.6741C15.023 54.6065 14.9867 54.5233 14.9764 54.4351C14.9661 54.3468 14.9822 54.2575 15.0226 54.1784C15.0631 54.0994 15.1261 54.0341 15.2037 53.9908C15.2813 53.9475 15.37 53.9283 15.4585 53.9354C15.5771 53.945 15.687 54.0012 15.7641 54.0918C15.8413 54.1823 15.8793 54.2998 15.8699 54.4184Z" fill="#263238"/>
<path d="M-4.05715 68.3406C-1.49382 74.8894 4.65782 83.5793 7.42686 83.7975C8.74341 83.9031 11.076 84.3735 12.9059 82.9729C16.8985 79.9177 20.4707 73.8036 21.3526 70.2278C21.6674 68.956 15.5891 65.7558 14.5945 66.7415C12.2691 69.0526 9.43388 73.7016 9.04929 73.648C7.63973 73.4476 2.39858 68.4605 -1.25591 64.9562C-5.6921 60.6989 -5.08213 65.7308 -4.05715 68.3406Z" fill="#EB9481"/>
<path d="M21.9464 63.5877C21.4563 60.9296 20.9232 60.3232 21.6996 57.8636C22.2094 56.2537 21.3973 55.2287 20.1469 56.4702C18.1005 58.4986 18.0129 62.0601 18.3384 63.3033L21.9464 63.5877Z" fill="#EB9481"/>
<path d="M20.9733 71.3298C20.9733 71.3298 22.3793 67.7647 22.1378 64.8901C21.9697 62.8974 21.1218 58.6007 15.7429 56.007C14.4675 55.3917 12.2136 55.4203 13.9327 57.1822C15.1526 58.4344 16.3064 58.8583 16.8842 59.7152C16.8842 59.7152 14.0221 60.0908 13.4533 61.393C12.9592 62.5318 12.5462 63.704 12.2172 64.9009C12.4224 65.0115 12.6346 65.1089 12.8522 65.1924C12.8522 65.1924 12.3603 66.4285 13.1778 68.2817L20.9733 71.3298Z" fill="#EB9481"/>
<path d="M21.6745 63.0046C20.9215 62.2748 19.299 60.7561 17.5389 59.9744C15.5855 59.1069 11.5858 57.9621 10.9597 59.411C10.5018 60.4735 11.9901 61.0459 11.9901 61.0459C11.9901 61.0459 10.237 60.9207 10.0331 61.9707C9.85424 62.9277 11.0241 63.3016 11.0241 63.3016C11.0241 63.3016 9.95084 63.4089 9.95084 64.3659C9.95084 65.5161 12.2029 65.1029 13.2082 66.271C13.43 66.5321 21.6745 63.0046 21.6745 63.0046Z" fill="#EB9481"/>
<path d="M16.9664 62.1926C16.1454 61.6219 13.9488 60.8062 12.0258 61.0191C11.9811 61.0191 11.9614 61.0585 12.0026 61.062C13.6951 61.2431 15.3595 61.6288 16.9593 62.2104C16.97 62.2158 16.9754 62.1979 16.9664 62.1926Z" fill="#263238"/>
<path d="M16.0256 64.1405C15.2671 63.7201 12.9667 62.9813 11.017 63.2622C10.974 63.2622 10.9561 63.3051 10.9973 63.3087C12.6936 63.4014 14.3739 63.6865 16.0059 64.1583C16.0083 64.161 16.0116 64.1625 16.0151 64.1627C16.0186 64.1629 16.0221 64.1616 16.0247 64.1592C16.0273 64.1569 16.0288 64.1536 16.029 64.15C16.0292 64.1465 16.0279 64.1431 16.0256 64.1405Z" fill="#263238"/>
<path d="M3.94408 68.8737L2.9674 70.0596L2.76527 70.3065L-1.14681 75.0325C-1.14681 75.0325 -4.68682 69.2511 -5.40233 65.9633C-5.82985 63.9956 -5.52218 62.824 -4.66178 62.6111C-4.59771 62.5961 -4.53248 62.5865 -4.4668 62.5825C-3.91049 62.5342 -3.16277 62.8276 -2.26838 63.4876C0.250231 65.348 3.94408 68.8737 3.94408 68.8737Z" fill="#EE6F57"/>
<path d="M3.72585 68.6787C3.63553 68.9751 3.52496 69.265 3.39493 69.5463L3.93156 68.9023C3.9329 68.8946 3.9329 68.8868 3.93156 68.8791C3.91546 68.8469 3.84212 68.7771 3.72585 68.6787ZM-2.28269 63.4912C-2.63033 63.7123 -2.94884 63.9761 -3.23074 64.2765C-4.08764 65.1732 -4.56674 66.3652 -4.56876 67.6055C-4.56613 67.9385 -4.54463 68.2712 -4.50436 68.6018C-4.41611 68.8057 -4.32667 69.0097 -4.23604 69.2136C-4.25214 69.0812 -4.27003 68.9506 -4.28792 68.8165C-4.41262 68.1023 -4.42229 67.3728 -4.31654 66.6556C-4.20353 66.0901 -3.98833 65.55 -3.68152 65.0618C-3.30346 64.4517 -2.79977 63.9291 -2.20398 63.5288C-2.22723 63.5145 -2.24691 63.4984 -2.26838 63.4823L-2.28269 63.4912Z" fill="white"/>
<path d="M-1.90705 73.0665C-1.69598 72.5692 0.4774 69.5837 2.28765 67.6876C2.29311 67.6814 2.30079 67.6777 2.30901 67.6772C2.31723 67.6767 2.32531 67.6795 2.33148 67.6849C2.33765 67.6904 2.34139 67.6981 2.3419 67.7063C2.3424 67.7145 2.33962 67.7226 2.33416 67.7287C2.15528 67.9613 -1.42229 72.757 -1.84444 73.1201C-1.87843 73.1506 -1.92136 73.1023 -1.90705 73.0665Z" fill="#263238"/>
<path opacity="0.05" d="M1.35751 72.0112L-1.14679 75.0307C-1.14679 75.0307 -4.6868 69.2511 -5.40232 65.9633C-5.89602 63.6952 -5.41484 62.4895 -4.23961 62.5808L1.35751 72.0112Z" fill="black"/>
<path d="M2.07299 89.8203C1.57213 90.3569 -19.6053 92.6198 -19.727 92.4731C-20.0507 92.0777 -18.1027 70.6749 -9.42712 62.8346C-7.8977 61.4537 -5.19664 61.8472 -3.94449 62.5574C-3.3202 62.9151 -2.23261 65.8702 -1.16829 69.3244C-0.363333 71.9628 2.38067 89.4733 2.07299 89.8203Z" fill="#EE6F57"/>
<path d="M2.07301 89.8204C1.9621 89.9402 0.820856 90.1477 -0.88386 90.3946L-1.07705 90.4214C-1.93924 90.5449 -2.93381 90.6772 -4.00708 90.8114L-4.23962 90.8418C-7.30382 91.2264 -10.9583 91.6378 -13.9492 91.9526L-14.0458 91.9616C-17.2656 92.3014 -19.6858 92.5233 -19.7269 92.4732C-19.7681 92.4231 -19.7681 91.5305 -19.6268 90.1245C-19.6268 90.0655 -19.6143 90.0029 -19.6089 89.9456C-19.2708 86.6954 -18.3335 80.7906 -16.4266 75.079C-16.3962 74.986 -16.364 74.9001 -16.3336 74.8017C-15.763 73.099 -15.0898 71.4324 -14.3177 69.811C-14.2944 69.7627 -14.2729 69.7162 -14.2479 69.6679C-13.492 68.0773 -12.5813 66.565 -11.5289 65.153C-11.4932 65.1065 -11.4592 65.0618 -11.4216 65.0189C-10.8235 64.2337 -10.156 63.5039 -9.42711 62.8383C-9.22273 62.6561 -8.99615 62.5004 -8.75274 62.375C-8.69728 62.3464 -8.64004 62.3196 -8.5828 62.2945C-7.82005 61.9743 -6.98896 61.8513 -6.16615 61.9368L-5.96223 61.9582C-5.25684 62.0272 -4.57157 62.2326 -3.94447 62.5629C-3.69941 62.7042 -3.38101 63.2444 -3.02146 64.0654C-3.00357 64.1012 -2.98747 64.1406 -2.97137 64.1799C-2.43474 65.4321 -1.79256 67.2996 -1.16828 69.3298C-0.948256 70.0454 -0.581556 71.8699 -0.175501 74.1453L-0.148666 74.2991C-0.00735283 75.0844 0.137539 75.9251 0.282431 76.7909C0.303896 76.9143 0.325361 77.0359 0.345037 77.1594C0.640186 78.9267 0.935337 80.7834 1.19829 82.515C1.20723 82.5848 1.21796 82.6563 1.23049 82.7243C1.4523 84.2054 1.64906 85.5863 1.80111 86.7294C1.81184 86.8206 1.82258 86.9083 1.8351 86.9977C2.03723 88.6398 2.14098 89.7363 2.07301 89.8204Z" fill="#EE6F57"/>
<path d="M-4.81741 87.7454C-5.17829 87.241 -5.63773 86.815 -6.16794 86.4932C-6.73744 86.1622 -7.36545 85.9442 -8.01755 85.8511C-8.70087 85.733 -9.41817 85.6722 -10.0586 85.3752C-10.6703 85.098 -11.0996 84.6025 -11.5271 84.1034C-11.6398 83.9728 -11.7561 83.8423 -11.8742 83.717C-11.74 83.6258 -11.6041 83.5382 -11.4645 83.4469C-10.6614 82.9532 -9.77414 82.5812 -9.03179 81.9944C-8.35993 81.4736 -7.88957 80.7358 -7.70093 79.9069C-7.52052 79.0901 -7.5827 78.2383 -7.87981 77.4563C-8.19528 76.6672 -8.71514 75.9763 -9.38597 75.4546C-10.0737 74.928 -10.8601 74.5446 -11.6985 74.3271C-12.537 74.1096 -13.4105 74.0623 -14.2676 74.1882C-14.9846 74.2838 -15.6831 74.4877 -16.339 74.7928C-16.3694 74.8858 -16.4016 74.9717 -16.432 75.07C-16.114 74.91 -15.7839 74.7754 -15.4446 74.6676C-13.8081 74.1299 -12.026 74.2551 -10.4807 75.0164C-9.73545 75.387 -9.09055 75.9319 -8.60069 76.6048C-8.12939 77.2704 -7.86381 78.0597 -7.83688 78.8748C-7.79961 79.6803 -8.03049 80.4755 -8.49337 81.1358C-9.03 81.8639 -9.84748 82.3039 -10.6238 82.7243C-11.1032 82.9854 -11.5683 83.2609 -12.0209 83.5668C-12.2825 83.2955 -12.5965 83.08 -12.9439 82.9336C-13.5209 82.723 -14.1531 82.7192 -14.7327 82.9228C-15.9938 83.3468 -16.7433 84.5685 -16.8881 85.8511C-16.9588 86.5663 -16.8759 87.2884 -16.6449 87.969C-17.1706 88.5077 -17.7584 88.9821 -18.3961 89.3821C-18.7789 89.6187 -19.19 89.8062 -19.6196 89.9402C-19.6196 90.0011 -19.6321 90.0637 -19.6375 90.1191C-19.5606 90.0976 -19.4837 90.0744 -19.4085 90.0476C-18.312 89.6773 -17.3997 88.9653 -16.5751 88.1658C-16.3455 88.7866 -16.0454 89.3789 -15.6807 89.9313C-15.2085 90.66 -14.6631 91.3385 -14.0529 91.9562L-13.9563 91.9473C-14.3091 91.5749 -14.6394 91.1818 -14.9455 90.7702C-15.5868 89.9474 -16.0956 89.0294 -16.4535 88.0495C-16.1476 87.7454 -15.8524 87.4288 -15.5591 87.1157C-14.9938 86.5004 -14.4375 85.8636 -13.8347 85.2894C-13.2727 84.7491 -12.6666 84.2567 -12.0226 83.8172C-11.6381 84.2268 -11.3071 84.6901 -10.8886 85.0694C-10.3947 85.4797 -9.80095 85.7519 -9.16774 85.8582C-8.51125 85.996 -7.83509 86.0514 -7.18934 86.25C-6.61439 86.4314 -6.08621 86.7367 -5.64204 87.1444C-5.19432 87.543 -4.83552 88.0314 -4.58897 88.5778C-4.34242 89.1242 -4.21365 89.7164 -4.21101 90.3159C-4.21219 90.4925 -4.22594 90.6689 -4.25215 90.8436L-4.01961 90.8132C-3.89099 89.7267 -4.17578 88.6316 -4.81741 87.7454ZM-13.0083 84.2912C-13.6863 84.8497 -14.3218 85.4578 -14.9097 86.1104C-15.4464 86.6864 -15.9633 87.2893 -16.5197 87.8527C-16.6177 87.5348 -16.686 87.2084 -16.7236 86.8778C-16.8631 85.6257 -16.4821 84.1946 -15.4052 83.4469C-14.9133 83.1006 -14.3214 82.9253 -13.7202 82.9479C-13.131 82.9886 -12.5785 83.2483 -12.1711 83.6759C-12.4555 83.8709 -12.7364 84.073 -13.0083 84.2912ZM1.18934 82.5025C0.570419 82.9979 -0.0180912 83.5382 -0.710352 83.9335C-1.70671 84.5023 -3.07692 84.8046 -3.98383 83.9013C-4.36165 83.5345 -4.58929 83.0402 -4.62237 82.5147C-4.65544 81.9891 -4.49157 81.4701 -4.16271 81.0589C-3.80495 80.558 -3.36312 80.1377 -3.0161 79.6279C-2.7316 79.2016 -2.48328 78.7522 -2.27375 78.2845C-1.82937 78.4179 -1.35338 78.4009 -0.91964 78.2362C-0.390408 78.0235 0.0510254 77.6375 0.332512 77.1415C0.312836 77.018 0.291368 76.8964 0.269903 76.773C0.129641 77.0478 -0.0512733 77.2998 -0.266733 77.5207C-0.465548 77.7322 -0.709059 77.8968 -0.979519 78.0023C-1.24998 78.1078 -1.54058 78.1517 -1.83014 78.1307C-1.94725 78.1188 -2.06328 78.0979 -2.17716 78.068C-2.15033 78.0126 -2.12528 77.9554 -2.10024 77.8892C-1.59759 76.7408 -1.17723 75.5262 -0.386581 74.5316C-0.316408 74.4421 -0.241781 74.3561 -0.162983 74.274L-0.189814 74.1202C-0.93395 74.893 -1.41335 75.8983 -1.83729 76.8696C-2.00364 77.2506 -2.16643 77.6334 -2.34352 78.0126C-2.74061 77.8711 -3.10029 77.6411 -3.39532 77.34C-4.36664 76.3508 -4.43997 74.8232 -4.3398 73.521C-4.27541 72.7267 -4.16092 71.9361 -4.12157 71.1419C-4.11313 70.3576 -4.17299 69.5742 -4.30045 68.8003C-4.42516 68.0862 -4.43482 67.3567 -4.32907 66.6395C-4.21606 66.074 -4.00087 65.5339 -3.69405 65.0457C-3.49625 64.721 -3.26089 64.4208 -2.99285 64.1513C-3.00895 64.1119 -3.02504 64.0726 -3.04293 64.0368C-3.11091 64.1012 -3.17709 64.1674 -3.24327 64.2371C-4.10504 65.1456 -4.58029 66.3533 -4.56877 67.6054C-4.56877 68.4211 -4.40599 69.2243 -4.34338 70.0364C-4.30077 70.8731 -4.34092 71.7119 -4.46323 72.5407C-4.62958 73.9878 -4.77806 75.5816 -4.02319 76.8982C-3.66686 77.5175 -3.10578 77.9932 -2.43653 78.2434C-2.52061 78.4222 -2.60647 78.6011 -2.69948 78.7657C-2.86396 79.0712 -3.04799 79.3658 -3.25043 79.6476C-3.44183 79.9087 -3.65649 80.152 -3.86756 80.3971C-4.25573 80.8496 -4.65105 81.3433 -4.76196 81.9408C-4.85717 82.4539 -4.77783 82.9842 -4.53657 83.4469C-4.30363 83.9163 -3.9129 84.2887 -3.43289 84.4987C-2.85179 84.7228 -2.21125 84.7398 -1.61906 84.547C-0.499275 84.2197 0.348608 83.4308 1.23048 82.7189C1.20901 82.6509 1.19828 82.5794 1.18934 82.5096V82.5025ZM1.82615 86.9852C1.26268 86.538 0.661648 86.0908 -0.0753326 86.0317C-0.435608 85.9903 -0.798756 86.0799 -1.09852 86.284C-1.37259 86.4909 -1.57671 86.7768 -1.68345 87.1032C-1.92753 87.8223 -1.89888 88.6059 -1.60296 89.3052C-1.43222 89.7112 -1.18986 90.0833 -0.887444 90.4035L-1.08063 90.4304C-1.28147 90.213 -1.45617 89.9728 -1.60117 89.7148C-1.80653 89.3467 -1.94293 88.9442 -2.00364 88.5271C-2.11455 87.8026 -2.00365 86.9869 -1.52783 86.4056C-1.01087 85.7759 -0.168348 85.7115 0.55611 85.9763C1.00744 86.1587 1.42657 86.4124 1.79753 86.7276C1.80289 86.8152 1.81363 86.9047 1.82615 86.9923V86.9852ZM-6.15542 62.2283C-6.09102 62.1389 -6.03199 62.0495 -5.97654 61.9529L-6.18046 61.9314C-6.59554 62.5683 -7.08893 63.1507 -7.64906 63.6647L-7.75996 63.7703C-7.87272 63.3749 -8.04979 63.0008 -8.28408 62.663C-8.37854 62.531 -8.4832 62.4066 -8.59711 62.2909C-8.65436 62.316 -8.7116 62.3428 -8.76705 62.3714C-8.39216 62.7526 -8.11427 63.2182 -7.95673 63.7291C-7.93884 63.7882 -7.92274 63.8472 -7.90664 63.908C-8.39121 64.3883 -8.95838 64.7773 -9.58095 65.0564C-10.1677 65.2943 -10.8832 65.3426 -11.4359 65.0171C-11.4735 65.06 -11.5075 65.1047 -11.5432 65.1512C-11.0858 65.4137 -10.5472 65.4972 -10.0317 65.3855C-9.21067 65.2299 -8.50946 64.6879 -7.89591 64.1495L-7.85477 64.1137C-7.59718 65.2192 -7.69378 66.3855 -7.52027 67.5124C-7.32171 68.795 -6.70637 70.0918 -7.02298 71.4048C-7.12713 71.9195 -7.40733 72.3819 -7.81542 72.7124C-8.06114 72.8804 -8.34374 72.9866 -8.63925 73.0221C-8.93476 73.0576 -9.23447 73.0213 -9.51298 72.9163C-10.7794 72.5103 -11.5182 71.3064 -12.5664 70.5659C-13.1038 70.2177 -13.6714 69.9183 -14.2622 69.6715C-14.2872 69.7198 -14.3087 69.7663 -14.332 69.8146C-13.9742 69.9845 -13.6165 70.1437 -13.2909 70.3244C-13.0347 70.4595 -12.7895 70.6144 -12.5575 70.7877C-12.2863 71.0008 -12.0282 71.2302 -11.7847 71.4746C-11.3 71.9468 -10.8242 72.4495 -10.2339 72.7947C-9.69722 73.1077 -9.05505 73.3063 -8.43255 73.1865C-8.16553 73.1274 -7.91409 73.0124 -7.69484 72.849C-7.47559 72.6855 -7.29354 72.4774 -7.16072 72.2384C-6.88823 71.755 -6.74759 71.2084 -6.75288 70.6535C-6.75288 69.938 -6.94785 69.2225 -7.12137 68.5302C-7.21935 68.162 -7.29757 67.7888 -7.3557 67.4122C-7.40221 67.0795 -7.42904 66.7468 -7.44871 66.4123C-7.46867 65.7498 -7.5236 65.0888 -7.61328 64.4321C-7.63832 64.2801 -7.66874 64.1298 -7.70451 63.9796C-7.12443 63.4554 -6.60483 62.868 -6.15542 62.2283Z" fill="white"/>
<path d="M-10.3179 51.4419C-10.8545 53.4328 -9.62743 59.0907 -8.18388 60.3143C-6.08742 62.087 -2.75133 62.1531 -1.26485 59.6596C0.166178 57.2429 -1.55642 49.8946 -3.16096 48.7927C-5.52574 47.1703 -9.52368 48.5011 -10.3179 51.4419Z" fill="#EB9481"/>
</g>
<defs>
<clipPath id="clip0_1595_13045">
<path d="M0 5C0 2.23858 2.23858 0 5 0H108.036C110.797 0 113.036 2.23858 113.036 5V91H0V5Z" fill="white"/>
</clipPath>
</defs>
</svg>
