<svg width="360" height="80" viewBox="0 0 360 80" fill="none" xmlns="http://www.w3.org/2000/svg">
<g clip-path="url(#clip0_1595_10296)">
<rect width="360" height="80" fill="#145374"/>
<path d="M163.283 24.0178C163.283 24.924 163.071 25.7523 162.646 26.5028C162.236 27.239 161.606 27.8337 160.756 28.2868C159.921 28.7257 158.894 28.9452 157.676 28.9452H155.616V34H151.453V19.0268H157.676C158.88 19.0268 159.899 19.2391 160.735 19.6639C161.584 20.0887 162.221 20.6763 162.646 21.4267C163.071 22.1772 163.283 23.0409 163.283 24.0178ZM157.273 25.632C158.448 25.632 159.036 25.0939 159.036 24.0178C159.036 22.9276 158.448 22.3825 157.273 22.3825H155.616V25.632H157.273ZM176.34 27.9045C176.34 28.2302 176.318 28.5558 176.276 28.8815H168.396C168.439 29.5328 168.616 30.0213 168.927 30.347C169.253 30.6585 169.664 30.8142 170.159 30.8142C170.853 30.8142 171.349 30.5027 171.646 29.8797H176.085C175.901 30.7009 175.54 31.4372 175.002 32.0885C174.478 32.7257 173.812 33.2283 173.005 33.5965C172.198 33.9646 171.306 34.1487 170.329 34.1487C169.154 34.1487 168.106 33.9009 167.186 33.4053C166.28 32.9097 165.565 32.2018 165.041 31.2815C164.531 30.3611 164.276 29.2779 164.276 28.0319C164.276 26.7859 164.531 25.7099 165.041 24.8037C165.55 23.8833 166.258 23.1754 167.165 22.6798C168.085 22.1842 169.14 21.9365 170.329 21.9365C171.504 21.9365 172.545 22.1772 173.451 22.6586C174.357 23.14 175.065 23.8338 175.575 24.74C176.085 25.632 176.34 26.6868 176.34 27.9045ZM172.092 26.8638C172.092 26.3541 171.922 25.9576 171.582 25.6745C171.242 25.3771 170.818 25.2284 170.308 25.2284C169.798 25.2284 169.38 25.37 169.055 25.6532C168.729 25.9222 168.517 26.3258 168.418 26.8638H172.092ZM185.838 21.9789C187.211 21.9789 188.302 22.4391 189.109 23.3594C189.916 24.2656 190.319 25.4975 190.319 27.055V34H186.156V27.6072C186.156 26.9275 185.979 26.3966 185.625 26.0143C185.271 25.6178 184.797 25.4196 184.202 25.4196C183.579 25.4196 183.091 25.6178 182.737 26.0143C182.383 26.3966 182.206 26.9275 182.206 27.6072V34H178.043V22.0851H182.206V23.7842C182.574 23.2462 183.07 22.8143 183.693 22.4887C184.316 22.1488 185.031 21.9789 185.838 21.9789ZM197 21.9365C197.807 21.9365 198.508 22.0993 199.102 22.4249C199.711 22.7506 200.178 23.1895 200.504 23.7417V22.0851H204.667V33.8726C204.667 34.9911 204.454 35.9964 204.03 36.8885C203.605 37.7946 202.939 38.5168 202.033 39.0548C201.141 39.5928 200.009 39.8619 198.635 39.8619C196.794 39.8619 195.322 39.43 194.217 38.5663C193.113 37.7026 192.483 36.5274 192.327 35.0407H196.426C196.511 35.423 196.724 35.7203 197.063 35.9327C197.403 36.1451 197.842 36.2513 198.38 36.2513C199.796 36.2513 200.504 35.4584 200.504 33.8726V32.3434C200.178 32.8956 199.711 33.3345 199.102 33.6602C198.508 33.9858 197.807 34.1487 197 34.1487C196.051 34.1487 195.187 33.9009 194.409 33.4053C193.644 32.9097 193.035 32.2018 192.582 31.2815C192.143 30.347 191.924 29.2638 191.924 28.0319C191.924 26.8001 192.143 25.724 192.582 24.8037C193.035 23.8833 193.644 23.1754 194.409 22.6798C195.187 22.1842 196.051 21.9365 197 21.9365ZM200.504 28.0319C200.504 27.2674 200.292 26.6656 199.867 26.2267C199.456 25.7877 198.947 25.5683 198.338 25.5683C197.715 25.5683 197.198 25.7877 196.787 26.2267C196.377 26.6514 196.171 27.2532 196.171 28.0319C196.171 28.7965 196.377 29.4054 196.787 29.8585C197.198 30.2974 197.715 30.5169 198.338 30.5169C198.947 30.5169 199.456 30.2974 199.867 29.8585C200.292 29.4195 200.504 28.8107 200.504 28.0319ZM211.435 21.9365C212.242 21.9365 212.943 22.0993 213.538 22.4249C214.147 22.7506 214.614 23.1895 214.94 23.7417V22.0851H219.103V33.8726C219.103 34.9911 218.89 35.9964 218.465 36.8885C218.041 37.7946 217.375 38.5168 216.469 39.0548C215.577 39.5928 214.444 39.8619 213.071 39.8619C211.23 39.8619 209.758 39.43 208.653 38.5663C207.549 37.7026 206.919 36.5274 206.763 35.0407H210.862C210.947 35.423 211.159 35.7203 211.499 35.9327C211.839 36.1451 212.278 36.2513 212.816 36.2513C214.232 36.2513 214.94 35.4584 214.94 33.8726V32.3434C214.614 32.8956 214.147 33.3345 213.538 33.6602C212.943 33.9858 212.242 34.1487 211.435 34.1487C210.487 34.1487 209.623 33.9009 208.844 33.4053C208.08 32.9097 207.471 32.2018 207.018 31.2815C206.579 30.347 206.359 29.2638 206.359 28.0319C206.359 26.8001 206.579 25.724 207.018 24.8037C207.471 23.8833 208.08 23.1754 208.844 22.6798C209.623 22.1842 210.487 21.9365 211.435 21.9365ZM214.94 28.0319C214.94 27.2674 214.727 26.6656 214.303 26.2267C213.892 25.7877 213.382 25.5683 212.773 25.5683C212.15 25.5683 211.634 25.7877 211.223 26.2267C210.812 26.6514 210.607 27.2532 210.607 28.0319C210.607 28.7965 210.812 29.4054 211.223 29.8585C211.634 30.2974 212.15 30.5169 212.773 30.5169C213.382 30.5169 213.892 30.2974 214.303 29.8585C214.727 29.4195 214.94 28.8107 214.94 28.0319ZM233.666 22.0851V34H229.482V32.3009C229.128 32.839 228.639 33.2779 228.016 33.6177C227.393 33.9434 226.678 34.1062 225.871 34.1062C224.483 34.1062 223.386 33.6531 222.579 32.7469C221.786 31.8266 221.39 30.5806 221.39 29.0089V22.0851H225.531V28.478C225.531 29.1576 225.708 29.6956 226.062 30.0921C226.43 30.4744 226.912 30.6655 227.506 30.6655C228.115 30.6655 228.597 30.4744 228.951 30.0921C229.305 29.6956 229.482 29.1576 229.482 28.478V22.0851H233.666ZM243.829 21.9789C245.203 21.9789 246.293 22.4391 247.1 23.3594C247.907 24.2656 248.311 25.4975 248.311 27.055V34H244.148V27.6072C244.148 26.9275 243.971 26.3966 243.617 26.0143C243.263 25.6178 242.789 25.4196 242.194 25.4196C241.571 25.4196 241.082 25.6178 240.728 26.0143C240.374 26.3966 240.197 26.9275 240.197 27.6072V34H236.035V22.0851H240.197V23.7842C240.566 23.2462 241.061 22.8143 241.684 22.4887C242.307 22.1488 243.022 21.9789 243.829 21.9789ZM249.915 28.0319C249.915 26.8001 250.135 25.724 250.574 24.8037C251.027 23.8833 251.635 23.1754 252.4 22.6798C253.179 22.1842 254.042 21.9365 254.991 21.9365C255.812 21.9365 256.52 22.0993 257.115 22.4249C257.71 22.7506 258.17 23.1895 258.496 23.7417V22.0851H262.658V34H258.496V32.3434C258.17 32.8956 257.703 33.3345 257.094 33.6602C256.499 33.9858 255.798 34.1487 254.991 34.1487C254.042 34.1487 253.179 33.9009 252.4 33.4053C251.635 32.9097 251.027 32.2018 250.574 31.2815C250.135 30.347 249.915 29.2638 249.915 28.0319ZM258.496 28.0319C258.496 27.2674 258.283 26.6656 257.858 26.2267C257.448 25.7877 256.938 25.5683 256.329 25.5683C255.706 25.5683 255.189 25.7877 254.779 26.2267C254.368 26.6514 254.163 27.2532 254.163 28.0319C254.163 28.7965 254.368 29.4054 254.779 29.8585C255.189 30.2974 255.706 30.5169 256.329 30.5169C256.938 30.5169 257.448 30.2974 257.858 29.8585C258.283 29.4195 258.496 28.8107 258.496 28.0319ZM264.351 28.0319C264.351 26.8001 264.57 25.724 265.009 24.8037C265.462 23.8833 266.071 23.1754 266.836 22.6798C267.614 22.1842 268.478 21.9365 269.427 21.9365C270.248 21.9365 270.956 22.0993 271.551 22.4249C272.145 22.7506 272.606 23.1895 272.931 23.7417V22.0851H277.094V34H272.931V32.3434C272.606 32.8956 272.138 33.3345 271.529 33.6602C270.935 33.9858 270.234 34.1487 269.427 34.1487C268.478 34.1487 267.614 33.9009 266.836 33.4053C266.071 32.9097 265.462 32.2018 265.009 31.2815C264.57 30.347 264.351 29.2638 264.351 28.0319ZM272.931 28.0319C272.931 27.2674 272.719 26.6656 272.294 26.2267C271.883 25.7877 271.374 25.5683 270.765 25.5683C270.142 25.5683 269.625 25.7877 269.214 26.2267C268.804 26.6514 268.598 27.2532 268.598 28.0319C268.598 28.7965 268.804 29.4054 269.214 29.8585C269.625 30.2974 270.142 30.5169 270.765 30.5169C271.374 30.5169 271.883 30.2974 272.294 29.8585C272.719 29.4195 272.931 28.8107 272.931 28.0319ZM287.261 21.9789C288.634 21.9789 289.724 22.4391 290.531 23.3594C291.338 24.2656 291.742 25.4975 291.742 27.055V34H287.579V27.6072C287.579 26.9275 287.402 26.3966 287.048 26.0143C286.694 25.6178 286.22 25.4196 285.625 25.4196C285.002 25.4196 284.514 25.6178 284.16 26.0143C283.806 26.3966 283.629 26.9275 283.629 27.6072V34H279.466V22.0851H283.629V23.7842C283.997 23.2462 284.493 22.8143 285.116 22.4887C285.739 22.1488 286.454 21.9789 287.261 21.9789ZM309.921 24.0178C309.921 24.924 309.709 25.7523 309.284 26.5028C308.873 27.239 308.243 27.8337 307.394 28.2868C306.558 28.7257 305.532 28.9452 304.314 28.9452H302.254V34H298.091V19.0268H304.314C305.518 19.0268 306.537 19.2391 307.373 19.6639C308.222 20.0887 308.859 20.6763 309.284 21.4267C309.709 22.1772 309.921 23.0409 309.921 24.0178ZM303.911 25.632C305.086 25.632 305.674 25.0939 305.674 24.0178C305.674 22.9276 305.086 22.3825 303.911 22.3825H302.254V25.632H303.911ZM317.137 34.1487C315.948 34.1487 314.879 33.9009 313.93 33.4053C312.995 32.9097 312.259 32.2018 311.721 31.2815C311.183 30.3611 310.914 29.2779 310.914 28.0319C310.914 26.8001 311.183 25.724 311.721 24.8037C312.273 23.8833 313.017 23.1754 313.951 22.6798C314.9 22.1842 315.969 21.9365 317.158 21.9365C318.348 21.9365 319.409 22.1842 320.344 22.6798C321.293 23.1754 322.036 23.8833 322.574 24.8037C323.126 25.724 323.402 26.8001 323.402 28.0319C323.402 29.2638 323.126 30.347 322.574 31.2815C322.036 32.2018 321.293 32.9097 320.344 33.4053C319.395 33.9009 318.326 34.1487 317.137 34.1487ZM317.137 30.5381C317.717 30.5381 318.199 30.3257 318.581 29.9009C318.978 29.462 319.176 28.839 319.176 28.0319C319.176 27.2249 318.978 26.609 318.581 26.1842C318.199 25.7594 317.725 25.547 317.158 25.547C316.592 25.547 316.117 25.7594 315.735 26.1842C315.353 26.609 315.162 27.2249 315.162 28.0319C315.162 28.8532 315.346 29.4762 315.714 29.9009C316.082 30.3257 316.556 30.5381 317.137 30.5381ZM327.199 20.9807C326.462 20.9807 325.868 20.7825 325.414 20.386C324.976 19.9754 324.756 19.4657 324.756 18.8569C324.756 18.2339 324.976 17.717 325.414 17.3064C325.868 16.8958 326.462 16.6905 327.199 16.6905C327.921 16.6905 328.501 16.8958 328.94 17.3064C329.393 17.717 329.62 18.2339 329.62 18.8569C329.62 19.4657 329.393 19.9754 328.94 20.386C328.501 20.7825 327.921 20.9807 327.199 20.9807ZM329.259 22.0851V34H325.096V22.0851H329.259ZM339.424 21.9789C340.797 21.9789 341.888 22.4391 342.695 23.3594C343.502 24.2656 343.905 25.4975 343.905 27.055V34H339.742V27.6072C339.742 26.9275 339.565 26.3966 339.211 26.0143C338.858 25.6178 338.383 25.4196 337.788 25.4196C337.165 25.4196 336.677 25.6178 336.323 26.0143C335.969 26.3966 335.792 26.9275 335.792 27.6072V34H331.629V22.0851H335.792V23.7842C336.16 23.2462 336.656 22.8143 337.279 22.4887C337.902 22.1488 338.617 21.9789 339.424 21.9789ZM222.796 53.38C222.796 51.3 223.226 49.45 224.086 47.83C224.966 46.19 226.206 44.92 227.806 44.02C229.406 43.1 231.246 42.64 233.326 42.64C235.966 42.64 238.186 43.35 239.986 44.77C241.786 46.17 242.946 48.08 243.466 50.5H237.136C236.756 49.7 236.226 49.09 235.546 48.67C234.886 48.25 234.116 48.04 233.236 48.04C231.876 48.04 230.786 48.53 229.966 49.51C229.166 50.47 228.766 51.76 228.766 53.38C228.766 55.02 229.166 56.33 229.966 57.31C230.786 58.27 231.876 58.75 233.236 58.75C234.116 58.75 234.886 58.54 235.546 58.12C236.226 57.7 236.756 57.09 237.136 56.29H243.466C242.946 58.71 241.786 60.63 239.986 62.05C238.186 63.45 235.966 64.15 233.326 64.15C231.246 64.15 229.406 63.7 227.806 62.8C226.206 61.88 224.966 60.61 224.086 58.99C223.226 57.35 222.796 55.48 222.796 53.38ZM259.24 51.16V56.05H245.65V51.16H259.24ZM269.474 59.5H276.044V64H263.594V42.85H269.474V59.5ZM286.16 64.21C284.48 64.21 282.97 63.86 281.63 63.16C280.31 62.46 279.27 61.46 278.51 60.16C277.75 58.86 277.37 57.33 277.37 55.57C277.37 53.83 277.75 52.31 278.51 51.01C279.29 49.71 280.34 48.71 281.66 48.01C283 47.31 284.51 46.96 286.19 46.96C287.87 46.96 289.37 47.31 290.69 48.01C292.03 48.71 293.08 49.71 293.84 51.01C294.62 52.31 295.01 53.83 295.01 55.57C295.01 57.31 294.62 58.84 293.84 60.16C293.08 61.46 292.03 62.46 290.69 63.16C289.35 63.86 287.84 64.21 286.16 64.21ZM286.16 59.11C286.98 59.11 287.66 58.81 288.2 58.21C288.76 57.59 289.04 56.71 289.04 55.57C289.04 54.43 288.76 53.56 288.2 52.96C287.66 52.36 286.99 52.06 286.19 52.06C285.39 52.06 284.72 52.36 284.18 52.96C283.64 53.56 283.37 54.43 283.37 55.57C283.37 56.73 283.63 57.61 284.15 58.21C284.67 58.81 285.34 59.11 286.16 59.11ZM315.523 47.17L304.843 72.01H298.453L302.473 63.28L295.573 47.17H302.113L305.653 56.71L309.073 47.17H315.523ZM316.101 55.57C316.101 53.83 316.411 52.31 317.031 51.01C317.671 49.71 318.531 48.71 319.611 48.01C320.711 47.31 321.931 46.96 323.271 46.96C324.431 46.96 325.431 47.19 326.271 47.65C327.111 48.11 327.761 48.73 328.221 49.51V47.17H334.101V64H328.221V61.66C327.761 62.44 327.101 63.06 326.241 63.52C325.401 63.98 324.411 64.21 323.271 64.21C321.931 64.21 320.711 63.86 319.611 63.16C318.531 62.46 317.671 61.46 317.031 60.16C316.411 58.84 316.101 57.31 316.101 55.57ZM328.221 55.57C328.221 54.49 327.921 53.64 327.321 53.02C326.741 52.4 326.021 52.09 325.161 52.09C324.281 52.09 323.551 52.4 322.971 53.02C322.391 53.62 322.101 54.47 322.101 55.57C322.101 56.65 322.391 57.51 322.971 58.15C323.551 58.77 324.281 59.08 325.161 59.08C326.021 59.08 326.741 58.77 327.321 58.15C327.921 57.53 328.221 56.67 328.221 55.57ZM343.331 41.8V64H337.451V41.8H343.331Z" fill="white"/>
<ellipse rx="51" ry="51.4058" transform="matrix(0.967144 -0.25423 0.208254 0.978075 16.0298 30.2444)" fill="url(#paint0_linear_1595_10296)" fill-opacity="0.5"/>
<ellipse rx="37" ry="37.1517" transform="matrix(0.967144 -0.25423 0.208254 0.978075 50.5213 73.7436)" fill="url(#paint1_linear_1595_10296)" fill-opacity="0.3"/>
</g>
<defs>
<linearGradient id="paint0_linear_1595_10296" x1="23.134" y1="9.17842e-07" x2="53.6915" y2="102.005" gradientUnits="userSpaceOnUse">
<stop stop-color="#EE6F57"/>
<stop offset="1" stop-color="#BC3015"/>
</linearGradient>
<linearGradient id="paint1_linear_1595_10296" x1="16.7835" y1="6.63337e-07" x2="38.7971" y2="73.7671" gradientUnits="userSpaceOnUse">
<stop stop-color="#EE6F57"/>
<stop offset="1" stop-color="#BC3015"/>
</linearGradient>
<clipPath id="clip0_1595_10296">
<rect width="360" height="80" fill="white"/>
</clipPath>
</defs>
</svg>
